<svg width="114" height="80" viewBox="0 0 114 80" fill="none" xmlns="http://www.w3.org/2000/svg">
<path d="M23.8052 30.9999C23.8052 40.9411 31.864 48.9999 41.8052 48.9999L68.8052 48.9999C71.5666 48.9999 73.8052 46.7614 73.8052 43.9999L73.8052 9.99994C73.8052 4.47709 69.328 -6.12002e-05 63.8052 -6.07174e-05L28.8052 -5.76576e-05C26.0437 -5.74162e-05 23.8052 2.23852 23.8052 4.99994L23.8052 30.9999Z" fill="#FFF1DA"/>
<path d="M72.3891 44.9413C71.0308 45.2456 69.7078 45.8091 68.5022 46.5965C65.3614 48.5978 63.5341 51.4546 64.4211 52.9767C65.308 54.4988 68.5731 54.1095 71.7139 52.1082C72.9356 51.3487 74.021 50.3779 74.9032 49.2559C75.3126 48.7138 75.3861 48.0383 75.0908 47.5334L73.9386 45.556C73.6455 45.0495 73.0374 44.8086 72.3891 44.9413Z" fill="#D5D6DB"/>
<path d="M64.5021 17.9483C63.5172 18.169 62.5577 18.5778 61.6835 19.1489C59.4066 20.5997 58.0809 22.6711 58.7235 23.7738C59.3661 24.8766 61.7345 24.5941 64.0111 23.1435C64.897 22.5924 65.684 21.8881 66.3238 21.0745C66.6202 20.6816 66.6734 20.1922 66.4594 19.8261L65.6251 18.3943C65.4128 18.0272 64.9722 17.8521 64.5021 17.9483Z" fill="#D5D6DB"/>
<path d="M51.6879 19.0787C51.4687 19.0542 51.2349 19.1126 51.0321 19.2421L45.684 22.6504C45.2366 22.9346 45.0576 23.4819 45.2845 23.8731C45.3364 23.9627 45.4074 24.0393 45.4936 24.0983L58.6753 33.1832L76.5088 21.8185L51.6879 19.0787Z" fill="#029BC5"/>
<path d="M108.065 17.7941L59.5329 48.3462L30.8202 59.7716L16.177 62.6823L14.5661 59.9451L95.4612 9.99849C97.872 8.50361 100.558 7.58605 103.246 7.33896C104.424 7.23707 105.587 7.27623 106.708 7.45503C107.702 7.60573 108.645 7.89644 109.509 8.31854C110.472 8.79677 112.307 8.85192 112.901 9.80474C112.903 9.80321 114.305 14.1776 108.065 17.7941Z" fill="#E1E6E9"/>
<path d="M60.1762 44.3036L39.181 77.7735C38.9187 78.2437 39.0744 78.7702 39.5283 78.9494C39.8068 79.0595 40.1478 79.016 40.4342 78.834L45.7782 75.4438C46.806 74.7915 47.7161 73.9629 48.4523 73.0094L89.1687 25.1404L60.1762 44.3036Z" fill="#029BC5"/>
<path d="M7.19662 43.1861C6.8464 43.0664 6.42961 43.1285 6.07778 43.3526L1.66029 46.166C1.05837 46.549 0.818524 47.2855 1.12439 47.8111C1.18266 47.911 1.25836 47.999 1.3491 48.0714L13.7259 57.9838L26.7389 49.8557L7.19662 43.1861Z" fill="#029BC5"/>
<path d="M17.8742 59.7707L11.2128 69.1002C11.1151 69.2343 11.1381 69.4026 11.264 69.4759C11.3549 69.5288 11.4789 69.5193 11.5797 69.4517L15.7079 66.8358C15.74 66.8154 15.769 66.79 15.793 66.7609L25.5266 54.9261L17.8742 59.7707Z" fill="#029BC5"/>
<path d="M105.911 7.85726C104.757 7.67183 103.559 7.63223 102.346 7.73884C101.165 9.38992 100.411 11.2446 100.157 13.1181C100.139 13.4944 100.442 13.7652 100.835 13.7231C100.957 13.7098 101.079 13.6669 101.188 13.5981L108.796 8.75385C107.906 8.31525 106.935 8.0134 105.911 7.85726Z" fill="#029BC5"/>
<path d="M89.3321 16.7654L94.2991 13.6284L98.9258 21.4974L93.9587 24.6344L89.3321 16.7654Z" fill="#D5D6DB"/>
<path d="M86.2067 19.8776C85.6081 20.2567 85.3689 20.9855 85.6727 21.5052L86.1651 22.3472C86.4889 22.8537 87.2282 22.9427 87.8165 22.546C88.3763 22.1682 88.6017 21.4816 88.3319 20.9745L87.8396 20.1326C87.536 19.6133 86.8052 19.499 86.2067 19.8776Z" fill="#3A556A"/>
<path d="M81.7422 22.65C81.1437 23.0292 80.9045 23.758 81.2083 24.2777L81.7006 25.1197C82.0245 25.6261 82.7638 25.7152 83.352 25.3185C83.9119 24.9407 84.1373 24.254 83.8675 23.747L83.3752 22.905C83.0713 22.3859 82.3405 22.2716 81.7422 22.65Z" fill="#3A556A"/>
<path d="M77.2764 25.4234C76.6785 25.803 76.4401 26.5309 76.7437 27.0502L77.236 27.8922C77.5599 28.3986 78.2992 28.4877 78.8874 28.091C79.4473 27.7132 79.6727 27.0265 79.4029 26.5195L78.9106 25.6776C78.6067 25.1579 77.8752 25.0441 77.2764 25.4234Z" fill="#3A556A"/>
<path d="M72.8121 28.1958C72.2142 28.5754 71.9758 29.3033 72.2794 29.8226L72.7718 30.6646C73.0956 31.1711 73.8349 31.2601 74.4231 30.8634C74.983 30.4856 75.2084 29.799 74.9386 29.2919L74.4463 28.4499C74.1422 27.9304 73.4106 27.8166 72.8121 28.1958Z" fill="#3A556A"/>
<path d="M68.3482 30.9684C67.7499 31.3482 67.5114 32.0765 67.8152 32.596L68.3078 33.4383C68.6115 33.9576 69.3427 34.0713 69.9411 33.6923C70.5395 33.3133 70.7784 32.5851 70.4747 32.0659L69.9821 31.2235C69.6792 30.7038 68.9482 30.5893 68.3494 30.9676C68.3489 30.968 68.3487 30.9681 68.3482 30.9684Z" fill="#3A556A"/>
<path d="M63.8838 33.7409C63.2855 34.1207 63.047 34.8489 63.3508 35.3684L63.8434 36.2108C64.1471 36.73 64.8783 36.8438 65.4767 36.4648C66.0751 36.0858 66.314 35.3576 66.0103 34.8383L65.5177 33.996C65.2148 33.4762 64.4838 33.3618 63.885 33.7401C63.8845 33.7404 63.884 33.7407 63.8838 33.7409Z" fill="#3A556A"/>
<path d="M59.4191 36.5134C58.8209 36.8932 58.5824 37.6214 58.8862 38.1409L59.3788 38.9832C59.6832 39.502 60.4148 39.6146 61.0125 39.2351C61.6093 38.8563 61.8477 38.1296 61.5454 37.611L61.0528 36.7687C60.7493 36.249 60.018 36.1347 59.4191 36.5134Z" fill="#3A556A"/>
<path d="M54.9546 39.2859C54.3563 39.6657 54.1178 40.394 54.4216 40.9135L54.9142 41.7558C55.2186 42.2746 55.9502 42.3872 56.5479 42.0077C57.1447 41.6288 57.3831 40.9022 57.0808 40.3835L56.5882 39.5412C56.2847 39.0215 55.5534 38.9072 54.9546 39.2859Z" fill="#3A556A"/>
<path d="M50.4903 42.0583C49.892 42.4381 49.6535 43.1664 49.9573 43.6858L50.4499 44.5282C50.7543 45.0469 51.4859 45.1595 52.0836 44.78C52.6804 44.4012 52.9188 43.6746 52.6165 43.1559L52.1239 42.3136C51.8201 41.7941 51.0889 41.6798 50.4903 42.0583Z" fill="#3A556A"/>
<path d="M46.0244 44.8316C45.4261 45.2106 45.1872 45.9387 45.4908 46.458L45.9841 47.3014C46.2885 47.8202 47.0201 47.9328 47.6178 47.5533C48.2145 47.1745 48.4529 46.4478 48.1507 45.9292L47.6581 45.0868C47.3545 44.5672 46.6233 44.4528 46.0244 44.8316Z" fill="#3A556A"/>
<path d="M41.5613 47.6033C40.9629 47.9822 40.724 48.7104 41.0277 49.2297L41.5209 50.0731C41.8253 50.5919 42.5569 50.7044 43.1547 50.3249C43.7514 49.9461 43.9898 49.2195 43.6875 48.7008L43.1949 47.8585C42.8911 47.339 42.1599 47.2247 41.5613 47.6033Z" fill="#3A556A"/>
</svg>
