<svg width="504" height="245" viewBox="0 0 504 245" fill="none" xmlns="http://www.w3.org/2000/svg">
<rect width="504" height="245" rx="10" fill="white"/>
<path d="M37.024 48.528H40.784V50H35.2V38.88H37.024V48.528ZM46.1334 50.144C45.3014 50.144 44.5494 49.9573 43.8774 49.584C43.2054 49.2 42.6774 48.6667 42.2934 47.984C41.9094 47.2907 41.7174 46.4907 41.7174 45.584C41.7174 44.688 41.9147 43.8933 42.3094 43.2C42.704 42.5067 43.2427 41.9733 43.9254 41.6C44.608 41.2267 45.3707 41.04 46.2134 41.04C47.056 41.04 47.8187 41.2267 48.5014 41.6C49.184 41.9733 49.7227 42.5067 50.1174 43.2C50.512 43.8933 50.7094 44.688 50.7094 45.584C50.7094 46.48 50.5067 47.2747 50.1014 47.968C49.696 48.6613 49.1414 49.2 48.4374 49.584C47.744 49.9573 46.976 50.144 46.1334 50.144ZM46.1334 48.56C46.6027 48.56 47.04 48.448 47.4454 48.224C47.8614 48 48.1974 47.664 48.4534 47.216C48.7094 46.768 48.8374 46.224 48.8374 45.584C48.8374 44.944 48.7147 44.4053 48.4694 43.968C48.224 43.52 47.8987 43.184 47.4934 42.96C47.088 42.736 46.6507 42.624 46.1814 42.624C45.712 42.624 45.2747 42.736 44.8694 42.96C44.4747 43.184 44.16 43.52 43.9254 43.968C43.6907 44.4053 43.5734 44.944 43.5734 45.584C43.5734 46.5333 43.8134 47.2693 44.2934 47.792C44.784 48.304 45.3974 48.56 46.1334 48.56ZM54.3365 42.464C54.6032 42.016 54.9552 41.6693 55.3925 41.424C55.8405 41.168 56.3685 41.04 56.9765 41.04V42.928H56.5125C55.7978 42.928 55.2538 43.1093 54.8805 43.472C54.5178 43.8347 54.3365 44.464 54.3365 45.36V50H52.5125V41.184H54.3365V42.464ZM66.7331 45.376C66.7331 45.7067 66.7118 46.0053 66.6691 46.272H59.9331C59.9865 46.976 60.2478 47.5413 60.7171 47.968C61.1865 48.3947 61.7625 48.608 62.4451 48.608C63.4265 48.608 64.1198 48.1973 64.5251 47.376H66.4931C66.2265 48.1867 65.7411 48.8533 65.0371 49.376C64.3438 49.888 63.4798 50.144 62.4451 50.144C61.6025 50.144 60.8451 49.9573 60.1731 49.584C59.5118 49.2 58.9891 48.6667 58.6051 47.984C58.2318 47.2907 58.0451 46.4907 58.0451 45.584C58.0451 44.6773 58.2265 43.8827 58.5891 43.2C58.9625 42.5067 59.4798 41.9733 60.1411 41.6C60.8131 41.2267 61.5811 41.04 62.4451 41.04C63.2771 41.04 64.0185 41.2213 64.6691 41.584C65.3198 41.9467 65.8265 42.4587 66.1891 43.12C66.5518 43.7707 66.7331 44.5227 66.7331 45.376ZM64.8291 44.8C64.8185 44.128 64.5785 43.5893 64.1091 43.184C63.6398 42.7787 63.0585 42.576 62.3651 42.576C61.7358 42.576 61.1971 42.7787 60.7491 43.184C60.3011 43.5787 60.0345 44.1173 59.9491 44.8H64.8291ZM79.2001 41.04C79.8935 41.04 80.5121 41.184 81.0561 41.472C81.6108 41.76 82.0428 42.1867 82.3521 42.752C82.6721 43.3173 82.8321 44 82.8321 44.8V50H81.0241V45.072C81.0241 44.2827 80.8268 43.68 80.4321 43.264C80.0375 42.8373 79.4988 42.624 78.8161 42.624C78.1335 42.624 77.5895 42.8373 77.1841 43.264C76.7895 43.68 76.5921 44.2827 76.5921 45.072V50H74.7841V45.072C74.7841 44.2827 74.5868 43.68 74.1921 43.264C73.7975 42.8373 73.2588 42.624 72.5761 42.624C71.8935 42.624 71.3495 42.8373 70.9441 43.264C70.5495 43.68 70.3521 44.2827 70.3521 45.072V50H68.5281V41.184H70.3521V42.192C70.6508 41.8293 71.0295 41.5467 71.4881 41.344C71.9468 41.1413 72.4375 41.04 72.9601 41.04C73.6641 41.04 74.2935 41.1893 74.8481 41.488C75.4028 41.7867 75.8295 42.2187 76.1281 42.784C76.3948 42.2507 76.8108 41.8293 77.3761 41.52C77.9415 41.2 78.5495 41.04 79.2001 41.04ZM90.2374 40.016C89.9067 40.016 89.6294 39.904 89.4054 39.68C89.1814 39.456 89.0694 39.1787 89.0694 38.848C89.0694 38.5173 89.1814 38.24 89.4054 38.016C89.6294 37.792 89.9067 37.68 90.2374 37.68C90.5574 37.68 90.8294 37.792 91.0534 38.016C91.2774 38.24 91.3894 38.5173 91.3894 38.848C91.3894 39.1787 91.2774 39.456 91.0534 39.68C90.8294 39.904 90.5574 40.016 90.2374 40.016ZM91.1334 41.184V50H89.3094V41.184H91.1334ZM95.3521 42.48C95.6615 42.0747 96.0828 41.7333 96.6161 41.456C97.1495 41.1787 97.7521 41.04 98.4241 41.04C99.1921 41.04 99.8908 41.232 100.52 41.616C101.16 41.9893 101.661 42.5173 102.024 43.2C102.387 43.8827 102.568 44.6667 102.568 45.552C102.568 46.4373 102.387 47.232 102.024 47.936C101.661 48.6293 101.16 49.1733 100.52 49.568C99.8908 49.952 99.1921 50.144 98.4241 50.144C97.7521 50.144 97.1548 50.0107 96.6321 49.744C96.1095 49.4667 95.6828 49.1253 95.3521 48.72V54.192H93.5281V41.184H95.3521V42.48ZM100.712 45.552C100.712 44.944 100.584 44.4213 100.328 43.984C100.083 43.536 99.7521 43.2 99.3361 42.976C98.9308 42.7413 98.4935 42.624 98.0241 42.624C97.5655 42.624 97.1281 42.7413 96.7121 42.976C96.3068 43.2107 95.9761 43.552 95.7201 44C95.4748 44.448 95.3521 44.976 95.3521 45.584C95.3521 46.192 95.4748 46.7253 95.7201 47.184C95.9761 47.632 96.3068 47.9733 96.7121 48.208C97.1281 48.4427 97.5655 48.56 98.0241 48.56C98.4935 48.56 98.9308 48.4427 99.3361 48.208C99.7521 47.9627 100.083 47.6107 100.328 47.152C100.584 46.6933 100.712 46.16 100.712 45.552ZM107.572 50.144C106.879 50.144 106.255 50.0213 105.7 49.776C105.156 49.52 104.724 49.1787 104.404 48.752C104.084 48.3147 103.913 47.8293 103.892 47.296H105.78C105.812 47.6693 105.988 47.984 106.308 48.24C106.639 48.4853 107.049 48.608 107.54 48.608C108.052 48.608 108.447 48.512 108.724 48.32C109.012 48.1173 109.156 47.8613 109.156 47.552C109.156 47.2213 108.996 46.976 108.676 46.816C108.367 46.656 107.871 46.48 107.188 46.288C106.527 46.1067 105.988 45.9307 105.572 45.76C105.156 45.5893 104.793 45.328 104.484 44.976C104.185 44.624 104.036 44.16 104.036 43.584C104.036 43.1147 104.175 42.688 104.452 42.304C104.729 41.9093 105.124 41.6 105.636 41.376C106.159 41.152 106.756 41.04 107.428 41.04C108.431 41.04 109.236 41.296 109.844 41.808C110.463 42.3093 110.793 42.9973 110.836 43.872H109.012C108.98 43.4773 108.82 43.1627 108.532 42.928C108.244 42.6933 107.855 42.576 107.364 42.576C106.884 42.576 106.516 42.6667 106.26 42.848C106.004 43.0293 105.876 43.2693 105.876 43.568C105.876 43.8027 105.961 44 106.132 44.16C106.303 44.32 106.511 44.448 106.756 44.544C107.001 44.6293 107.364 44.7413 107.844 44.88C108.484 45.0507 109.007 45.2267 109.412 45.408C109.828 45.5787 110.185 45.8347 110.484 46.176C110.783 46.5173 110.937 46.9707 110.948 47.536C110.948 48.0373 110.809 48.4853 110.532 48.88C110.255 49.2747 109.86 49.584 109.348 49.808C108.847 50.032 108.255 50.144 107.572 50.144ZM120.903 41.184V50H119.079V48.96C118.791 49.3227 118.412 49.6107 117.943 49.824C117.484 50.0267 116.993 50.128 116.471 50.128C115.777 50.128 115.153 49.984 114.599 49.696C114.055 49.408 113.623 48.9813 113.303 48.416C112.993 47.8507 112.839 47.168 112.839 46.368V41.184H114.647V46.096C114.647 46.8853 114.844 47.4933 115.239 47.92C115.633 48.336 116.172 48.544 116.855 48.544C117.537 48.544 118.076 48.336 118.471 47.92C118.876 47.4933 119.079 46.8853 119.079 46.096V41.184H120.903ZM133.981 41.04C134.675 41.04 135.293 41.184 135.837 41.472C136.392 41.76 136.824 42.1867 137.133 42.752C137.453 43.3173 137.613 44 137.613 44.8V50H135.805V45.072C135.805 44.2827 135.608 43.68 135.213 43.264C134.819 42.8373 134.28 42.624 133.597 42.624C132.915 42.624 132.371 42.8373 131.965 43.264C131.571 43.68 131.373 44.2827 131.373 45.072V50H129.565V45.072C129.565 44.2827 129.368 43.68 128.973 43.264C128.579 42.8373 128.04 42.624 127.357 42.624C126.675 42.624 126.131 42.8373 125.725 43.264C125.331 43.68 125.133 44.2827 125.133 45.072V50H123.309V41.184H125.133V42.192C125.432 41.8293 125.811 41.5467 126.269 41.344C126.728 41.1413 127.219 41.04 127.741 41.04C128.445 41.04 129.075 41.1893 129.629 41.488C130.184 41.7867 130.611 42.2187 130.909 42.784C131.176 42.2507 131.592 41.8293 132.157 41.52C132.723 41.2 133.331 41.04 133.981 41.04ZM143.483 45.552C143.483 44.6667 143.664 43.8827 144.027 43.2C144.4 42.5173 144.901 41.9893 145.531 41.616C146.171 41.232 146.88 41.04 147.659 41.04C148.235 41.04 148.8 41.168 149.355 41.424C149.92 41.6693 150.368 42 150.699 42.416V38.16H152.539V50H150.699V48.672C150.4 49.0987 149.984 49.4507 149.451 49.728C148.928 50.0053 148.325 50.144 147.643 50.144C146.875 50.144 146.171 49.952 145.531 49.568C144.901 49.1733 144.4 48.6293 144.027 47.936C143.664 47.232 143.483 46.4373 143.483 45.552ZM150.699 45.584C150.699 44.976 150.571 44.448 150.315 44C150.069 43.552 149.744 43.2107 149.339 42.976C148.933 42.7413 148.496 42.624 148.027 42.624C147.557 42.624 147.12 42.7413 146.715 42.976C146.309 43.2 145.979 43.536 145.723 43.984C145.477 44.4213 145.355 44.944 145.355 45.552C145.355 46.16 145.477 46.6933 145.723 47.152C145.979 47.6107 146.309 47.9627 146.715 48.208C147.131 48.4427 147.568 48.56 148.027 48.56C148.496 48.56 148.933 48.4427 149.339 48.208C149.744 47.9733 150.069 47.632 150.315 47.184C150.571 46.7253 150.699 46.192 150.699 45.584ZM158.758 50.144C157.926 50.144 157.174 49.9573 156.502 49.584C155.83 49.2 155.302 48.6667 154.918 47.984C154.534 47.2907 154.342 46.4907 154.342 45.584C154.342 44.688 154.54 43.8933 154.934 43.2C155.329 42.5067 155.868 41.9733 156.55 41.6C157.233 41.2267 157.996 41.04 158.838 41.04C159.681 41.04 160.444 41.2267 161.126 41.6C161.809 41.9733 162.348 42.5067 162.742 43.2C163.137 43.8933 163.334 44.688 163.334 45.584C163.334 46.48 163.132 47.2747 162.726 47.968C162.321 48.6613 161.766 49.2 161.062 49.584C160.369 49.9573 159.601 50.144 158.758 50.144ZM158.758 48.56C159.228 48.56 159.665 48.448 160.07 48.224C160.486 48 160.822 47.664 161.078 47.216C161.334 46.768 161.462 46.224 161.462 45.584C161.462 44.944 161.34 44.4053 161.094 43.968C160.849 43.52 160.524 43.184 160.118 42.96C159.713 42.736 159.276 42.624 158.806 42.624C158.337 42.624 157.9 42.736 157.494 42.96C157.1 43.184 156.785 43.52 156.55 43.968C156.316 44.4053 156.198 44.944 156.198 45.584C156.198 46.5333 156.438 47.2693 156.918 47.792C157.409 48.304 158.022 48.56 158.758 48.56ZM166.962 38.16V50H165.138V38.16H166.962ZM173.18 50.144C172.348 50.144 171.596 49.9573 170.924 49.584C170.252 49.2 169.724 48.6667 169.34 47.984C168.956 47.2907 168.764 46.4907 168.764 45.584C168.764 44.688 168.962 43.8933 169.356 43.2C169.751 42.5067 170.29 41.9733 170.972 41.6C171.655 41.2267 172.418 41.04 173.26 41.04C174.103 41.04 174.866 41.2267 175.548 41.6C176.231 41.9733 176.77 42.5067 177.164 43.2C177.559 43.8933 177.756 44.688 177.756 45.584C177.756 46.48 177.554 47.2747 177.148 47.968C176.743 48.6613 176.188 49.2 175.484 49.584C174.791 49.9573 174.023 50.144 173.18 50.144ZM173.18 48.56C173.65 48.56 174.087 48.448 174.492 48.224C174.908 48 175.244 47.664 175.5 47.216C175.756 46.768 175.884 46.224 175.884 45.584C175.884 44.944 175.762 44.4053 175.516 43.968C175.271 43.52 174.946 43.184 174.54 42.96C174.135 42.736 173.698 42.624 173.228 42.624C172.759 42.624 172.322 42.736 171.916 42.96C171.522 43.184 171.207 43.52 170.972 43.968C170.738 44.4053 170.62 44.944 170.62 45.584C170.62 46.5333 170.86 47.2693 171.34 47.792C171.831 48.304 172.444 48.56 173.18 48.56ZM181.383 42.464C181.65 42.016 182.002 41.6693 182.439 41.424C182.887 41.168 183.415 41.04 184.023 41.04V42.928H183.559C182.845 42.928 182.301 43.1093 181.927 43.472C181.565 43.8347 181.383 44.464 181.383 45.36V50H179.559V41.184H181.383V42.464ZM193.056 50.144C192.363 50.144 191.739 50.0213 191.184 49.776C190.64 49.52 190.208 49.1787 189.888 48.752C189.568 48.3147 189.398 47.8293 189.376 47.296H191.264C191.296 47.6693 191.472 47.984 191.792 48.24C192.123 48.4853 192.534 48.608 193.024 48.608C193.536 48.608 193.931 48.512 194.208 48.32C194.496 48.1173 194.64 47.8613 194.64 47.552C194.64 47.2213 194.48 46.976 194.16 46.816C193.851 46.656 193.355 46.48 192.672 46.288C192.011 46.1067 191.472 45.9307 191.056 45.76C190.64 45.5893 190.278 45.328 189.968 44.976C189.67 44.624 189.52 44.16 189.52 43.584C189.52 43.1147 189.659 42.688 189.936 42.304C190.214 41.9093 190.608 41.6 191.12 41.376C191.643 41.152 192.24 41.04 192.912 41.04C193.915 41.04 194.72 41.296 195.328 41.808C195.947 42.3093 196.278 42.9973 196.32 43.872H194.496C194.464 43.4773 194.304 43.1627 194.016 42.928C193.728 42.6933 193.339 42.576 192.848 42.576C192.368 42.576 192 42.6667 191.744 42.848C191.488 43.0293 191.36 43.2693 191.36 43.568C191.36 43.8027 191.446 44 191.616 44.16C191.787 44.32 191.995 44.448 192.24 44.544C192.486 44.6293 192.848 44.7413 193.328 44.88C193.968 45.0507 194.491 45.2267 194.896 45.408C195.312 45.5787 195.67 45.8347 195.968 46.176C196.267 46.5173 196.422 46.9707 196.432 47.536C196.432 48.0373 196.294 48.4853 196.016 48.88C195.739 49.2747 195.344 49.584 194.832 49.808C194.331 50.032 193.739 50.144 193.056 50.144ZM199.331 40.016C199 40.016 198.723 39.904 198.499 39.68C198.275 39.456 198.163 39.1787 198.163 38.848C198.163 38.5173 198.275 38.24 198.499 38.016C198.723 37.792 199 37.68 199.331 37.68C199.651 37.68 199.923 37.792 200.147 38.016C200.371 38.24 200.483 38.5173 200.483 38.848C200.483 39.1787 200.371 39.456 200.147 39.68C199.923 39.904 199.651 40.016 199.331 40.016ZM200.227 41.184V50H198.403V41.184H200.227ZM204.75 42.672V47.552C204.75 47.8827 204.825 48.1227 204.974 48.272C205.134 48.4107 205.401 48.48 205.774 48.48H206.894V50H205.454C204.633 50 204.003 49.808 203.566 49.424C203.129 49.04 202.91 48.416 202.91 47.552V42.672H201.87V41.184H202.91V38.992H204.75V41.184H206.894V42.672H204.75ZM212.123 45.552C212.123 44.6667 212.305 43.8827 212.667 43.2C213.041 42.5173 213.542 41.9893 214.171 41.616C214.811 41.232 215.515 41.04 216.283 41.04C216.977 41.04 217.579 41.1787 218.091 41.456C218.614 41.7227 219.03 42.0587 219.339 42.464V41.184H221.179V50H219.339V48.688C219.03 49.104 218.609 49.4507 218.075 49.728C217.542 50.0053 216.934 50.144 216.251 50.144C215.494 50.144 214.801 49.952 214.171 49.568C213.542 49.1733 213.041 48.6293 212.667 47.936C212.305 47.232 212.123 46.4373 212.123 45.552ZM219.339 45.584C219.339 44.976 219.211 44.448 218.955 44C218.71 43.552 218.385 43.2107 217.979 42.976C217.574 42.7413 217.137 42.624 216.667 42.624C216.198 42.624 215.761 42.7413 215.355 42.976C214.95 43.2 214.619 43.536 214.363 43.984C214.118 44.4213 213.995 44.944 213.995 45.552C213.995 46.16 214.118 46.6933 214.363 47.152C214.619 47.6107 214.95 47.9627 215.355 48.208C215.771 48.4427 216.209 48.56 216.667 48.56C217.137 48.56 217.574 48.4427 217.979 48.208C218.385 47.9733 218.71 47.632 218.955 47.184C219.211 46.7253 219.339 46.192 219.339 45.584ZM234.247 41.04C234.94 41.04 235.559 41.184 236.103 41.472C236.658 41.76 237.09 42.1867 237.399 42.752C237.719 43.3173 237.879 44 237.879 44.8V50H236.071V45.072C236.071 44.2827 235.874 43.68 235.479 43.264C235.084 42.8373 234.546 42.624 233.863 42.624C233.18 42.624 232.636 42.8373 232.231 43.264C231.836 43.68 231.639 44.2827 231.639 45.072V50H229.831V45.072C229.831 44.2827 229.634 43.68 229.239 43.264C228.844 42.8373 228.306 42.624 227.623 42.624C226.94 42.624 226.396 42.8373 225.991 43.264C225.596 43.68 225.399 44.2827 225.399 45.072V50H223.575V41.184H225.399V42.192C225.698 41.8293 226.076 41.5467 226.535 41.344C226.994 41.1413 227.484 41.04 228.007 41.04C228.711 41.04 229.34 41.1893 229.895 41.488C230.45 41.7867 230.876 42.2187 231.175 42.784C231.442 42.2507 231.858 41.8293 232.423 41.52C232.988 41.2 233.596 41.04 234.247 41.04ZM248.28 45.376C248.28 45.7067 248.259 46.0053 248.216 46.272H241.48C241.533 46.976 241.795 47.5413 242.264 47.968C242.733 48.3947 243.309 48.608 243.992 48.608C244.973 48.608 245.667 48.1973 246.072 47.376H248.04C247.773 48.1867 247.288 48.8533 246.584 49.376C245.891 49.888 245.027 50.144 243.992 50.144C243.149 50.144 242.392 49.9573 241.72 49.584C241.059 49.2 240.536 48.6667 240.152 47.984C239.779 47.2907 239.592 46.4907 239.592 45.584C239.592 44.6773 239.773 43.8827 240.136 43.2C240.509 42.5067 241.027 41.9733 241.688 41.6C242.36 41.2267 243.128 41.04 243.992 41.04C244.824 41.04 245.565 41.2213 246.216 41.584C246.867 41.9467 247.373 42.4587 247.736 43.12C248.099 43.7707 248.28 44.5227 248.28 45.376ZM246.376 44.8C246.365 44.128 246.125 43.5893 245.656 43.184C245.187 42.7787 244.605 42.576 243.912 42.576C243.283 42.576 242.744 42.7787 242.296 43.184C241.848 43.5787 241.581 44.1173 241.496 44.8H246.376ZM252.203 42.672V47.552C252.203 47.8827 252.278 48.1227 252.427 48.272C252.587 48.4107 252.854 48.48 253.227 48.48H254.347V50H252.907C252.086 50 251.456 49.808 251.019 49.424C250.582 49.04 250.363 48.416 250.363 47.552V42.672H249.323V41.184H250.363V38.992H252.203V41.184H254.347V42.672H252.203ZM258.028 47.808L256.092 52.224H254.908L256.044 47.808H258.028ZM263.17 45.584C263.17 44.6773 263.351 43.8827 263.714 43.2C264.087 42.5067 264.599 41.9733 265.25 41.6C265.901 41.2267 266.647 41.04 267.49 41.04C268.557 41.04 269.437 41.296 270.13 41.808C270.834 42.3093 271.309 43.0293 271.554 43.968H269.586C269.426 43.5307 269.17 43.1893 268.818 42.944C268.466 42.6987 268.023 42.576 267.49 42.576C266.743 42.576 266.146 42.8427 265.698 43.376C265.261 43.8987 265.042 44.6347 265.042 45.584C265.042 46.5333 265.261 47.2747 265.698 47.808C266.146 48.3413 266.743 48.608 267.49 48.608C268.546 48.608 269.245 48.144 269.586 47.216H271.554C271.298 48.112 270.818 48.8267 270.114 49.36C269.41 49.8827 268.535 50.144 267.49 50.144C266.647 50.144 265.901 49.9573 265.25 49.584C264.599 49.2 264.087 48.6667 263.714 47.984C263.351 47.2907 263.17 46.4907 263.17 45.584ZM277.196 50.144C276.364 50.144 275.612 49.9573 274.94 49.584C274.268 49.2 273.74 48.6667 273.356 47.984C272.972 47.2907 272.78 46.4907 272.78 45.584C272.78 44.688 272.977 43.8933 273.372 43.2C273.767 42.5067 274.305 41.9733 274.988 41.6C275.671 41.2267 276.433 41.04 277.276 41.04C278.119 41.04 278.881 41.2267 279.564 41.6C280.247 41.9733 280.785 42.5067 281.18 43.2C281.575 43.8933 281.772 44.688 281.772 45.584C281.772 46.48 281.569 47.2747 281.164 47.968C280.759 48.6613 280.204 49.2 279.5 49.584C278.807 49.9573 278.039 50.144 277.196 50.144ZM277.196 48.56C277.665 48.56 278.103 48.448 278.508 48.224C278.924 48 279.26 47.664 279.516 47.216C279.772 46.768 279.9 46.224 279.9 45.584C279.9 44.944 279.777 44.4053 279.532 43.968C279.287 43.52 278.961 43.184 278.556 42.96C278.151 42.736 277.713 42.624 277.244 42.624C276.775 42.624 276.337 42.736 275.932 42.96C275.537 43.184 275.223 43.52 274.988 43.968C274.753 44.4053 274.636 44.944 274.636 45.584C274.636 46.5333 274.876 47.2693 275.356 47.792C275.847 48.304 276.46 48.56 277.196 48.56ZM288.023 41.04C288.716 41.04 289.335 41.184 289.879 41.472C290.434 41.76 290.866 42.1867 291.175 42.752C291.484 43.3173 291.639 44 291.639 44.8V50H289.831V45.072C289.831 44.2827 289.634 43.68 289.239 43.264C288.844 42.8373 288.306 42.624 287.623 42.624C286.94 42.624 286.396 42.8373 285.991 43.264C285.596 43.68 285.399 44.2827 285.399 45.072V50H283.575V41.184H285.399V42.192C285.698 41.8293 286.076 41.5467 286.535 41.344C287.004 41.1413 287.5 41.04 288.023 41.04ZM297.166 50.144C296.472 50.144 295.848 50.0213 295.294 49.776C294.75 49.52 294.318 49.1787 293.998 48.752C293.678 48.3147 293.507 47.8293 293.486 47.296H295.374C295.406 47.6693 295.582 47.984 295.902 48.24C296.232 48.4853 296.643 48.608 297.134 48.608C297.646 48.608 298.04 48.512 298.318 48.32C298.606 48.1173 298.75 47.8613 298.75 47.552C298.75 47.2213 298.59 46.976 298.27 46.816C297.96 46.656 297.464 46.48 296.782 46.288C296.12 46.1067 295.582 45.9307 295.166 45.76C294.75 45.5893 294.387 45.328 294.078 44.976C293.779 44.624 293.63 44.16 293.63 43.584C293.63 43.1147 293.768 42.688 294.046 42.304C294.323 41.9093 294.718 41.6 295.23 41.376C295.752 41.152 296.35 41.04 297.022 41.04C298.024 41.04 298.83 41.296 299.438 41.808C300.056 42.3093 300.387 42.9973 300.43 43.872H298.606C298.574 43.4773 298.414 43.1627 298.126 42.928C297.838 42.6933 297.448 42.576 296.958 42.576C296.478 42.576 296.11 42.6667 295.854 42.848C295.598 43.0293 295.47 43.2693 295.47 43.568C295.47 43.8027 295.555 44 295.726 44.16C295.896 44.32 296.104 44.448 296.35 44.544C296.595 44.6293 296.958 44.7413 297.438 44.88C298.078 45.0507 298.6 45.2267 299.006 45.408C299.422 45.5787 299.779 45.8347 300.078 46.176C300.376 46.5173 300.531 46.9707 300.542 47.536C300.542 48.0373 300.403 48.4853 300.126 48.88C299.848 49.2747 299.454 49.584 298.942 49.808C298.44 50.032 297.848 50.144 297.166 50.144ZM310.593 45.376C310.593 45.7067 310.571 46.0053 310.529 46.272H303.793C303.846 46.976 304.107 47.5413 304.577 47.968C305.046 48.3947 305.622 48.608 306.305 48.608C307.286 48.608 307.979 48.1973 308.385 47.376H310.352C310.086 48.1867 309.601 48.8533 308.897 49.376C308.203 49.888 307.339 50.144 306.305 50.144C305.462 50.144 304.705 49.9573 304.033 49.584C303.371 49.2 302.849 48.6667 302.465 47.984C302.091 47.2907 301.905 46.4907 301.905 45.584C301.905 44.6773 302.086 43.8827 302.449 43.2C302.822 42.5067 303.339 41.9733 304.001 41.6C304.673 41.2267 305.441 41.04 306.305 41.04C307.137 41.04 307.878 41.2213 308.529 41.584C309.179 41.9467 309.686 42.4587 310.049 43.12C310.411 43.7707 310.593 44.5227 310.593 45.376ZM308.689 44.8C308.678 44.128 308.438 43.5893 307.969 43.184C307.499 42.7787 306.918 42.576 306.225 42.576C305.595 42.576 305.057 42.7787 304.609 43.184C304.161 43.5787 303.894 44.1173 303.809 44.8H308.689ZM311.78 45.584C311.78 44.6773 311.961 43.8827 312.324 43.2C312.697 42.5067 313.209 41.9733 313.86 41.6C314.51 41.2267 315.257 41.04 316.1 41.04C317.166 41.04 318.046 41.296 318.74 41.808C319.444 42.3093 319.918 43.0293 320.164 43.968H318.196C318.036 43.5307 317.78 43.1893 317.428 42.944C317.076 42.6987 316.633 42.576 316.1 42.576C315.353 42.576 314.756 42.8427 314.308 43.376C313.87 43.8987 313.652 44.6347 313.652 45.584C313.652 46.5333 313.87 47.2747 314.308 47.808C314.756 48.3413 315.353 48.608 316.1 48.608C317.156 48.608 317.854 48.144 318.196 47.216H320.164C319.908 48.112 319.428 48.8267 318.724 49.36C318.02 49.8827 317.145 50.144 316.1 50.144C315.257 50.144 314.51 49.9573 313.86 49.584C313.209 49.2 312.697 48.6667 312.324 47.984C311.961 47.2907 311.78 46.4907 311.78 45.584ZM324.109 42.672V47.552C324.109 47.8827 324.184 48.1227 324.333 48.272C324.493 48.4107 324.76 48.48 325.133 48.48H326.253V50H324.813C323.992 50 323.363 49.808 322.925 49.424C322.488 49.04 322.269 48.416 322.269 47.552V42.672H321.229V41.184H322.269V38.992H324.109V41.184H326.253V42.672H324.109ZM336.014 45.376C336.014 45.7067 335.993 46.0053 335.95 46.272H329.214C329.268 46.976 329.529 47.5413 329.998 47.968C330.468 48.3947 331.044 48.608 331.726 48.608C332.708 48.608 333.401 48.1973 333.806 47.376H335.774C335.508 48.1867 335.022 48.8533 334.318 49.376C333.625 49.888 332.761 50.144 331.726 50.144C330.884 50.144 330.126 49.9573 329.454 49.584C328.793 49.2 328.27 48.6667 327.886 47.984C327.513 47.2907 327.326 46.4907 327.326 45.584C327.326 44.6773 327.508 43.8827 327.87 43.2C328.244 42.5067 328.761 41.9733 329.422 41.6C330.094 41.2267 330.862 41.04 331.726 41.04C332.558 41.04 333.3 41.2213 333.95 41.584C334.601 41.9467 335.108 42.4587 335.47 43.12C335.833 43.7707 336.014 44.5227 336.014 45.376ZM334.11 44.8C334.1 44.128 333.86 43.5893 333.39 43.184C332.921 42.7787 332.34 42.576 331.646 42.576C331.017 42.576 330.478 42.7787 330.03 43.184C329.582 43.5787 329.316 44.1173 329.23 44.8H334.11ZM339.937 42.672V47.552C339.937 47.8827 340.012 48.1227 340.161 48.272C340.321 48.4107 340.588 48.48 340.961 48.48H342.081V50H340.641C339.82 50 339.191 49.808 338.753 49.424C338.316 49.04 338.097 48.416 338.097 47.552V42.672H337.057V41.184H338.097V38.992H339.937V41.184H342.081V42.672H339.937ZM351.747 41.184V50H349.923V48.96C349.635 49.3227 349.256 49.6107 348.787 49.824C348.328 50.0267 347.837 50.128 347.315 50.128C346.621 50.128 345.997 49.984 345.443 49.696C344.899 49.408 344.467 48.9813 344.147 48.416C343.837 47.8507 343.683 47.168 343.683 46.368V41.184H345.491V46.096C345.491 46.8853 345.688 47.4933 346.083 47.92C346.477 48.336 347.016 48.544 347.699 48.544C348.381 48.544 348.92 48.336 349.315 47.92C349.72 47.4933 349.923 46.8853 349.923 46.096V41.184H351.747ZM355.977 42.464C356.244 42.016 356.596 41.6693 357.033 41.424C357.481 41.168 358.009 41.04 358.617 41.04V42.928H358.153C357.438 42.928 356.894 43.1093 356.521 43.472C356.158 43.8347 355.977 44.464 355.977 45.36V50H354.153V41.184H355.977V42.464ZM34.592 77.552C34.592 76.6667 34.7733 75.8827 35.136 75.2C35.5093 74.5173 36.0107 73.9893 36.64 73.616C37.28 73.232 37.984 73.04 38.752 73.04C39.4453 73.04 40.048 73.1787 40.56 73.456C41.0827 73.7227 41.4987 74.0587 41.808 74.464V73.184H43.648V82H41.808V80.688C41.4987 81.104 41.0773 81.4507 40.544 81.728C40.0107 82.0053 39.4027 82.144 38.72 82.144C37.9627 82.144 37.2693 81.952 36.64 81.568C36.0107 81.1733 35.5093 80.6293 35.136 79.936C34.7733 79.232 34.592 78.4373 34.592 77.552ZM41.808 77.584C41.808 76.976 41.68 76.448 41.424 76C41.1787 75.552 40.8533 75.2107 40.448 74.976C40.0427 74.7413 39.6053 74.624 39.136 74.624C38.6667 74.624 38.2293 74.7413 37.824 74.976C37.4187 75.2 37.088 75.536 36.832 75.984C36.5867 76.4213 36.464 76.944 36.464 77.552C36.464 78.16 36.5867 78.6933 36.832 79.152C37.088 79.6107 37.4187 79.9627 37.824 80.208C38.24 80.4427 38.6773 80.56 39.136 80.56C39.6053 80.56 40.0427 80.4427 40.448 80.208C40.8533 79.9733 41.1787 79.632 41.424 79.184C41.68 78.7253 41.808 78.192 41.808 77.584ZM45.4358 77.552C45.4358 76.6667 45.6171 75.8827 45.9798 75.2C46.3531 74.5173 46.8544 73.9893 47.4838 73.616C48.1238 73.232 48.8331 73.04 49.6118 73.04C50.1878 73.04 50.7531 73.168 51.3078 73.424C51.8731 73.6693 52.3211 74 52.6518 74.416V70.16H54.4918V82H52.6518V80.672C52.3531 81.0987 51.9371 81.4507 51.4038 81.728C50.8811 82.0053 50.2784 82.144 49.5958 82.144C48.8278 82.144 48.1238 81.952 47.4838 81.568C46.8544 81.1733 46.3531 80.6293 45.9798 79.936C45.6171 79.232 45.4358 78.4373 45.4358 77.552ZM52.6518 77.584C52.6518 76.976 52.5238 76.448 52.2678 76C52.0224 75.552 51.6971 75.2107 51.2918 74.976C50.8864 74.7413 50.4491 74.624 49.9798 74.624C49.5104 74.624 49.0731 74.7413 48.6678 74.976C48.2624 75.2 47.9318 75.536 47.6758 75.984C47.4304 76.4213 47.3078 76.944 47.3078 77.552C47.3078 78.16 47.4304 78.6933 47.6758 79.152C47.9318 79.6107 48.2624 79.9627 48.6678 80.208C49.0838 80.4427 49.5211 80.56 49.9798 80.56C50.4491 80.56 50.8864 80.4427 51.2918 80.208C51.6971 79.9733 52.0224 79.632 52.2678 79.184C52.5238 78.7253 52.6518 78.192 52.6518 77.584ZM57.8155 72.016C57.4848 72.016 57.2075 71.904 56.9835 71.68C56.7595 71.456 56.6475 71.1787 56.6475 70.848C56.6475 70.5173 56.7595 70.24 56.9835 70.016C57.2075 69.792 57.4848 69.68 57.8155 69.68C58.1355 69.68 58.4075 69.792 58.6315 70.016C58.8555 70.24 58.9675 70.5173 58.9675 70.848C58.9675 71.1787 58.8555 71.456 58.6315 71.68C58.4075 71.904 58.1355 72.016 57.8155 72.016ZM58.7115 73.184V82H56.8875V73.184H58.7115ZM62.9303 74.48C63.2396 74.0747 63.6609 73.7333 64.1943 73.456C64.7276 73.1787 65.3303 73.04 66.0023 73.04C66.7703 73.04 67.4689 73.232 68.0983 73.616C68.7383 73.9893 69.2396 74.5173 69.6023 75.2C69.9649 75.8827 70.1463 76.6667 70.1463 77.552C70.1463 78.4373 69.9649 79.232 69.6023 79.936C69.2396 80.6293 68.7383 81.1733 68.0983 81.568C67.4689 81.952 66.7703 82.144 66.0023 82.144C65.3303 82.144 64.7329 82.0107 64.2103 81.744C63.6876 81.4667 63.2609 81.1253 62.9303 80.72V86.192H61.1063V73.184H62.9303V74.48ZM68.2903 77.552C68.2903 76.944 68.1623 76.4213 67.9062 75.984C67.6609 75.536 67.3303 75.2 66.9143 74.976C66.5089 74.7413 66.0716 74.624 65.6023 74.624C65.1436 74.624 64.7063 74.7413 64.2903 74.976C63.8849 75.2107 63.5543 75.552 63.2983 76C63.0529 76.448 62.9303 76.976 62.9303 77.584C62.9303 78.192 63.0529 78.7253 63.2983 79.184C63.5543 79.632 63.8849 79.9733 64.2903 80.208C64.7063 80.4427 65.1436 80.56 65.6023 80.56C66.0716 80.56 66.5089 80.4427 66.9143 80.208C67.3303 79.9627 67.6609 79.6107 67.9062 79.152C68.1623 78.6933 68.2903 78.16 68.2903 77.552ZM72.878 72.016C72.5473 72.016 72.27 71.904 72.046 71.68C71.822 71.456 71.71 71.1787 71.71 70.848C71.71 70.5173 71.822 70.24 72.046 70.016C72.27 69.792 72.5473 69.68 72.878 69.68C73.198 69.68 73.47 69.792 73.694 70.016C73.918 70.24 74.03 70.5173 74.03 70.848C74.03 71.1787 73.918 71.456 73.694 71.68C73.47 71.904 73.198 72.016 72.878 72.016ZM73.774 73.184V82H71.95V73.184H73.774ZM79.3688 82.144C78.6754 82.144 78.0514 82.0213 77.4968 81.776C76.9528 81.52 76.5208 81.1787 76.2008 80.752C75.8808 80.3147 75.7101 79.8293 75.6888 79.296H77.5768C77.6088 79.6693 77.7848 79.984 78.1048 80.24C78.4354 80.4853 78.8461 80.608 79.3368 80.608C79.8488 80.608 80.2434 80.512 80.5208 80.32C80.8088 80.1173 80.9528 79.8613 80.9528 79.552C80.9528 79.2213 80.7928 78.976 80.4728 78.816C80.1634 78.656 79.6674 78.48 78.9848 78.288C78.3234 78.1067 77.7848 77.9307 77.3688 77.76C76.9528 77.5893 76.5901 77.328 76.2808 76.976C75.9821 76.624 75.8328 76.16 75.8328 75.584C75.8328 75.1147 75.9714 74.688 76.2488 74.304C76.5261 73.9093 76.9208 73.6 77.4328 73.376C77.9554 73.152 78.5528 73.04 79.2248 73.04C80.2274 73.04 81.0328 73.296 81.6408 73.808C82.2594 74.3093 82.5901 74.9973 82.6328 75.872H80.8088C80.7768 75.4773 80.6168 75.1627 80.3288 74.928C80.0408 74.6933 79.6514 74.576 79.1608 74.576C78.6808 74.576 78.3128 74.6667 78.0568 74.848C77.8008 75.0293 77.6728 75.2693 77.6728 75.568C77.6728 75.8027 77.7581 76 77.9288 76.16C78.0994 76.32 78.3074 76.448 78.5528 76.544C78.7981 76.6293 79.1608 76.7413 79.6408 76.88C80.2808 77.0507 80.8034 77.2267 81.2088 77.408C81.6248 77.5787 81.9821 77.8347 82.2808 78.176C82.5794 78.5173 82.7341 78.9707 82.7448 79.536C82.7448 80.0373 82.6061 80.4853 82.3288 80.88C82.0514 81.2747 81.6568 81.584 81.1448 81.808C80.6434 82.032 80.0514 82.144 79.3688 82.144ZM84.1076 77.584C84.1076 76.6773 84.289 75.8827 84.6516 75.2C85.025 74.5067 85.537 73.9733 86.1876 73.6C86.8383 73.2267 87.585 73.04 88.4276 73.04C89.4943 73.04 90.3743 73.296 91.0676 73.808C91.7716 74.3093 92.2463 75.0293 92.4916 75.968H90.5236C90.3636 75.5307 90.1076 75.1893 89.7556 74.944C89.4036 74.6987 88.961 74.576 88.4276 74.576C87.681 74.576 87.0836 74.8427 86.6356 75.376C86.1983 75.8987 85.9796 76.6347 85.9796 77.584C85.9796 78.5333 86.1983 79.2747 86.6356 79.808C87.0836 80.3413 87.681 80.608 88.4276 80.608C89.4836 80.608 90.1823 80.144 90.5236 79.216H92.4916C92.2356 80.112 91.7556 80.8267 91.0516 81.36C90.3476 81.8827 89.473 82.144 88.4276 82.144C87.585 82.144 86.8383 81.9573 86.1876 81.584C85.537 81.2 85.025 80.6667 84.6516 79.984C84.289 79.2907 84.1076 78.4907 84.1076 77.584ZM95.2374 72.016C94.9067 72.016 94.6294 71.904 94.4054 71.68C94.1814 71.456 94.0694 71.1787 94.0694 70.848C94.0694 70.5173 94.1814 70.24 94.4054 70.016C94.6294 69.792 94.9067 69.68 95.2374 69.68C95.5574 69.68 95.8294 69.792 96.0534 70.016C96.2774 70.24 96.3894 70.5173 96.3894 70.848C96.3894 71.1787 96.2774 71.456 96.0534 71.68C95.8294 71.904 95.5574 72.016 95.2374 72.016ZM96.1334 73.184V82H94.3094V73.184H96.1334ZM102.976 73.04C103.669 73.04 104.288 73.184 104.832 73.472C105.387 73.76 105.819 74.1867 106.128 74.752C106.437 75.3173 106.592 76 106.592 76.8V82H104.784V77.072C104.784 76.2827 104.587 75.68 104.192 75.264C103.797 74.8373 103.259 74.624 102.576 74.624C101.893 74.624 101.349 74.8373 100.944 75.264C100.549 75.68 100.352 76.2827 100.352 77.072V82H98.5281V73.184H100.352V74.192C100.651 73.8293 101.029 73.5467 101.488 73.344C101.957 73.1413 102.453 73.04 102.976 73.04ZM112.471 73.04C113.153 73.04 113.756 73.1787 114.279 73.456C114.812 73.7227 115.228 74.0587 115.527 74.464V73.184H117.367V82.144C117.367 82.9547 117.196 83.6747 116.855 84.304C116.513 84.944 116.017 85.4453 115.367 85.808C114.727 86.1707 113.959 86.352 113.063 86.352C111.868 86.352 110.876 86.0693 110.087 85.504C109.297 84.9493 108.849 84.192 108.743 83.232H110.551C110.689 83.6907 110.983 84.0587 111.431 84.336C111.889 84.624 112.433 84.768 113.063 84.768C113.799 84.768 114.391 84.544 114.839 84.096C115.297 83.648 115.527 82.9973 115.527 82.144V80.672C115.217 81.088 114.796 81.44 114.263 81.728C113.74 82.0053 113.143 82.144 112.471 82.144C111.703 82.144 110.999 81.952 110.359 81.568C109.729 81.1733 109.228 80.6293 108.855 79.936C108.492 79.232 108.311 78.4373 108.311 77.552C108.311 76.6667 108.492 75.8827 108.855 75.2C109.228 74.5173 109.729 73.9893 110.359 73.616C110.999 73.232 111.703 73.04 112.471 73.04ZM115.527 77.584C115.527 76.976 115.399 76.448 115.143 76C114.897 75.552 114.572 75.2107 114.167 74.976C113.761 74.7413 113.324 74.624 112.855 74.624C112.385 74.624 111.948 74.7413 111.543 74.976C111.137 75.2 110.807 75.536 110.551 75.984C110.305 76.4213 110.183 76.944 110.183 77.552C110.183 78.16 110.305 78.6933 110.551 79.152C110.807 79.6107 111.137 79.9627 111.543 80.208C111.959 80.4427 112.396 80.56 112.855 80.56C113.324 80.56 113.761 80.4427 114.167 80.208C114.572 79.9733 114.897 79.632 115.143 79.184C115.399 78.7253 115.527 78.192 115.527 77.584ZM131.999 77.376C131.999 77.7067 131.977 78.0053 131.935 78.272H125.199C125.252 78.976 125.513 79.5413 125.983 79.968C126.452 80.3947 127.028 80.608 127.711 80.608C128.692 80.608 129.385 80.1973 129.791 79.376H131.759C131.492 80.1867 131.007 80.8533 130.303 81.376C129.609 81.888 128.745 82.144 127.711 82.144C126.868 82.144 126.111 81.9573 125.439 81.584C124.777 81.2 124.255 80.6667 123.871 79.984C123.497 79.2907 123.311 78.4907 123.311 77.584C123.311 76.6773 123.492 75.8827 123.855 75.2C124.228 74.5067 124.745 73.9733 125.407 73.6C126.079 73.2267 126.847 73.04 127.711 73.04C128.543 73.04 129.284 73.2213 129.935 73.584C130.585 73.9467 131.092 74.4587 131.455 75.12C131.817 75.7707 131.999 76.5227 131.999 77.376ZM130.095 76.8C130.084 76.128 129.844 75.5893 129.375 75.184C128.905 74.7787 128.324 74.576 127.631 74.576C127.001 74.576 126.463 74.7787 126.015 75.184C125.567 75.5787 125.3 76.1173 125.215 76.8H130.095ZM135.618 70.16V82H133.794V70.16H135.618ZM138.941 72.016C138.61 72.016 138.333 71.904 138.109 71.68C137.885 71.456 137.773 71.1787 137.773 70.848C137.773 70.5173 137.885 70.24 138.109 70.016C138.333 69.792 138.61 69.68 138.941 69.68C139.261 69.68 139.533 69.792 139.757 70.016C139.981 70.24 140.093 70.5173 140.093 70.848C140.093 71.1787 139.981 71.456 139.757 71.68C139.533 71.904 139.261 72.016 138.941 72.016ZM139.837 73.184V82H138.013V73.184H139.837ZM144.359 74.672V79.552C144.359 79.8827 144.434 80.1227 144.583 80.272C144.743 80.4107 145.01 80.48 145.383 80.48H146.503V82H145.063C144.242 82 143.613 81.808 143.175 81.424C142.738 81.04 142.519 80.416 142.519 79.552V74.672H141.479V73.184H142.519V70.992H144.359V73.184H146.503V74.672H144.359ZM148.92 82.112C148.59 82.112 148.312 82 148.088 81.776C147.864 81.552 147.752 81.2747 147.752 80.944C147.752 80.6133 147.864 80.336 148.088 80.112C148.312 79.888 148.59 79.776 148.92 79.776C149.24 79.776 149.512 79.888 149.736 80.112C149.96 80.336 150.072 80.6133 150.072 80.944C150.072 81.2747 149.96 81.552 149.736 81.776C149.512 82 149.24 82.112 148.92 82.112ZM163.976 74.192C163.976 74.7573 163.843 75.2907 163.576 75.792C163.309 76.2933 162.883 76.704 162.296 77.024C161.709 77.3333 160.957 77.488 160.04 77.488H158.024V82H156.2V70.88H160.04C160.893 70.88 161.613 71.0293 162.2 71.328C162.797 71.616 163.24 72.0107 163.528 72.512C163.827 73.0133 163.976 73.5733 163.976 74.192ZM160.04 76C160.733 76 161.251 75.8453 161.592 75.536C161.933 75.216 162.104 74.768 162.104 74.192C162.104 72.976 161.416 72.368 160.04 72.368H158.024V76H160.04ZM167.54 74.464C167.806 74.016 168.158 73.6693 168.596 73.424C169.044 73.168 169.572 73.04 170.18 73.04V74.928H169.716C169.001 74.928 168.457 75.1093 168.084 75.472C167.721 75.8347 167.54 76.464 167.54 77.36V82H165.716V73.184H167.54V74.464ZM171.248 77.552C171.248 76.6667 171.43 75.8827 171.792 75.2C172.166 74.5173 172.667 73.9893 173.296 73.616C173.936 73.232 174.64 73.04 175.408 73.04C176.102 73.04 176.704 73.1787 177.216 73.456C177.739 73.7227 178.155 74.0587 178.464 74.464V73.184H180.304V82H178.464V80.688C178.155 81.104 177.734 81.4507 177.2 81.728C176.667 82.0053 176.059 82.144 175.376 82.144C174.619 82.144 173.926 81.952 173.296 81.568C172.667 81.1733 172.166 80.6293 171.792 79.936C171.43 79.232 171.248 78.4373 171.248 77.552ZM178.464 77.584C178.464 76.976 178.336 76.448 178.08 76C177.835 75.552 177.51 75.2107 177.104 74.976C176.699 74.7413 176.262 74.624 175.792 74.624C175.323 74.624 174.886 74.7413 174.48 74.976C174.075 75.2 173.744 75.536 173.488 75.984C173.243 76.4213 173.12 76.944 173.12 77.552C173.12 78.16 173.243 78.6933 173.488 79.152C173.744 79.6107 174.075 79.9627 174.48 80.208C174.896 80.4427 175.334 80.56 175.792 80.56C176.262 80.56 176.699 80.4427 177.104 80.208C177.51 79.9733 177.835 79.632 178.08 79.184C178.336 78.7253 178.464 78.192 178.464 77.584ZM190.78 77.376C190.78 77.7067 190.759 78.0053 190.716 78.272H183.98C184.033 78.976 184.295 79.5413 184.764 79.968C185.233 80.3947 185.809 80.608 186.492 80.608C187.473 80.608 188.167 80.1973 188.572 79.376H190.54C190.273 80.1867 189.788 80.8533 189.084 81.376C188.391 81.888 187.527 82.144 186.492 82.144C185.649 82.144 184.892 81.9573 184.22 81.584C183.559 81.2 183.036 80.6667 182.652 79.984C182.279 79.2907 182.092 78.4907 182.092 77.584C182.092 76.6773 182.273 75.8827 182.636 75.2C183.009 74.5067 183.527 73.9733 184.188 73.6C184.86 73.2267 185.628 73.04 186.492 73.04C187.324 73.04 188.065 73.2213 188.716 73.584C189.367 73.9467 189.873 74.4587 190.236 75.12C190.599 75.7707 190.78 76.5227 190.78 77.376ZM188.876 76.8C188.865 76.128 188.625 75.5893 188.156 75.184C187.687 74.7787 187.105 74.576 186.412 74.576C185.783 74.576 185.244 74.7787 184.796 75.184C184.348 75.5787 184.081 76.1173 183.996 76.8H188.876ZM195.775 82.144C195.082 82.144 194.458 82.0213 193.903 81.776C193.359 81.52 192.927 81.1787 192.607 80.752C192.287 80.3147 192.116 79.8293 192.095 79.296H193.983C194.015 79.6693 194.191 79.984 194.511 80.24C194.842 80.4853 195.252 80.608 195.743 80.608C196.255 80.608 196.65 80.512 196.927 80.32C197.215 80.1173 197.359 79.8613 197.359 79.552C197.359 79.2213 197.199 78.976 196.879 78.816C196.57 78.656 196.074 78.48 195.391 78.288C194.73 78.1067 194.191 77.9307 193.775 77.76C193.359 77.5893 192.996 77.328 192.687 76.976C192.388 76.624 192.239 76.16 192.239 75.584C192.239 75.1147 192.378 74.688 192.655 74.304C192.932 73.9093 193.327 73.6 193.839 73.376C194.362 73.152 194.959 73.04 195.631 73.04C196.634 73.04 197.439 73.296 198.047 73.808C198.666 74.3093 198.996 74.9973 199.039 75.872H197.215C197.183 75.4773 197.023 75.1627 196.735 74.928C196.447 74.6933 196.058 74.576 195.567 74.576C195.087 74.576 194.719 74.6667 194.463 74.848C194.207 75.0293 194.079 75.2693 194.079 75.568C194.079 75.8027 194.164 76 194.335 76.16C194.506 76.32 194.714 76.448 194.959 76.544C195.204 76.6293 195.567 76.7413 196.047 76.88C196.687 77.0507 197.21 77.2267 197.615 77.408C198.031 77.5787 198.388 77.8347 198.687 78.176C198.986 78.5173 199.14 78.9707 199.151 79.536C199.151 80.0373 199.012 80.4853 198.735 80.88C198.458 81.2747 198.063 81.584 197.551 81.808C197.05 82.032 196.458 82.144 195.775 82.144ZM209.202 77.376C209.202 77.7067 209.181 78.0053 209.138 78.272H202.402C202.455 78.976 202.717 79.5413 203.186 79.968C203.655 80.3947 204.231 80.608 204.914 80.608C205.895 80.608 206.589 80.1973 206.994 79.376H208.962C208.695 80.1867 208.21 80.8533 207.506 81.376C206.813 81.888 205.949 82.144 204.914 82.144C204.071 82.144 203.314 81.9573 202.642 81.584C201.981 81.2 201.458 80.6667 201.074 79.984C200.701 79.2907 200.514 78.4907 200.514 77.584C200.514 76.6773 200.695 75.8827 201.058 75.2C201.431 74.5067 201.949 73.9733 202.61 73.6C203.282 73.2267 204.05 73.04 204.914 73.04C205.746 73.04 206.487 73.2213 207.138 73.584C207.789 73.9467 208.295 74.4587 208.658 75.12C209.021 75.7707 209.202 76.5227 209.202 77.376ZM207.298 76.8C207.287 76.128 207.047 75.5893 206.578 75.184C206.109 74.7787 205.527 74.576 204.834 74.576C204.205 74.576 203.666 74.7787 203.218 75.184C202.77 75.5787 202.503 76.1173 202.418 76.8H207.298ZM215.445 73.04C216.138 73.04 216.757 73.184 217.301 73.472C217.856 73.76 218.288 74.1867 218.597 74.752C218.906 75.3173 219.061 76 219.061 76.8V82H217.253V77.072C217.253 76.2827 217.056 75.68 216.661 75.264C216.266 74.8373 215.728 74.624 215.045 74.624C214.362 74.624 213.818 74.8373 213.413 75.264C213.018 75.68 212.821 76.2827 212.821 77.072V82H210.997V73.184H212.821V74.192C213.12 73.8293 213.498 73.5467 213.957 73.344C214.426 73.1413 214.922 73.04 215.445 73.04ZM223.516 74.672V79.552C223.516 79.8827 223.59 80.1227 223.74 80.272C223.9 80.4107 224.166 80.48 224.54 80.48H225.66V82H224.22C223.398 82 222.769 81.808 222.332 81.424C221.894 81.04 221.676 80.416 221.676 79.552V74.672H220.636V73.184H221.676V70.992H223.516V73.184H225.66V74.672H223.516ZM230.889 77.584C230.889 76.6773 231.07 75.8827 231.433 75.2C231.806 74.5067 232.318 73.9733 232.969 73.6C233.62 73.2267 234.366 73.04 235.209 73.04C236.276 73.04 237.156 73.296 237.849 73.808C238.553 74.3093 239.028 75.0293 239.273 75.968H237.305C237.145 75.5307 236.889 75.1893 236.537 74.944C236.185 74.6987 235.742 74.576 235.209 74.576C234.462 74.576 233.865 74.8427 233.417 75.376C232.98 75.8987 232.761 76.6347 232.761 77.584C232.761 78.5333 232.98 79.2747 233.417 79.808C233.865 80.3413 234.462 80.608 235.209 80.608C236.265 80.608 236.964 80.144 237.305 79.216H239.273C239.017 80.112 238.537 80.8267 237.833 81.36C237.129 81.8827 236.254 82.144 235.209 82.144C234.366 82.144 233.62 81.9573 232.969 81.584C232.318 81.2 231.806 80.6667 231.433 79.984C231.07 79.2907 230.889 78.4907 230.889 77.584ZM244.915 82.144C244.083 82.144 243.331 81.9573 242.659 81.584C241.987 81.2 241.459 80.6667 241.075 79.984C240.691 79.2907 240.499 78.4907 240.499 77.584C240.499 76.688 240.696 75.8933 241.091 75.2C241.485 74.5067 242.024 73.9733 242.707 73.6C243.389 73.2267 244.152 73.04 244.995 73.04C245.837 73.04 246.6 73.2267 247.283 73.6C247.965 73.9733 248.504 74.5067 248.899 75.2C249.293 75.8933 249.491 76.688 249.491 77.584C249.491 78.48 249.288 79.2747 248.883 79.968C248.477 80.6613 247.923 81.2 247.219 81.584C246.525 81.9573 245.757 82.144 244.915 82.144ZM244.915 80.56C245.384 80.56 245.821 80.448 246.227 80.224C246.643 80 246.979 79.664 247.235 79.216C247.491 78.768 247.619 78.224 247.619 77.584C247.619 76.944 247.496 76.4053 247.251 75.968C247.005 75.52 246.68 75.184 246.275 74.96C245.869 74.736 245.432 74.624 244.963 74.624C244.493 74.624 244.056 74.736 243.651 74.96C243.256 75.184 242.941 75.52 242.707 75.968C242.472 76.4053 242.355 76.944 242.355 77.584C242.355 78.5333 242.595 79.2693 243.075 79.792C243.565 80.304 244.179 80.56 244.915 80.56ZM255.742 73.04C256.435 73.04 257.054 73.184 257.598 73.472C258.152 73.76 258.584 74.1867 258.894 74.752C259.203 75.3173 259.358 76 259.358 76.8V82H257.55V77.072C257.55 76.2827 257.352 75.68 256.958 75.264C256.563 74.8373 256.024 74.624 255.342 74.624C254.659 74.624 254.115 74.8373 253.71 75.264C253.315 75.68 253.118 76.2827 253.118 77.072V82H251.294V73.184H253.118V74.192C253.416 73.8293 253.795 73.5467 254.254 73.344C254.723 73.1413 255.219 73.04 255.742 73.04ZM264.884 82.144C264.191 82.144 263.567 82.0213 263.012 81.776C262.468 81.52 262.036 81.1787 261.716 80.752C261.396 80.3147 261.226 79.8293 261.204 79.296H263.092C263.124 79.6693 263.3 79.984 263.62 80.24C263.951 80.4853 264.362 80.608 264.852 80.608C265.364 80.608 265.759 80.512 266.036 80.32C266.324 80.1173 266.468 79.8613 266.468 79.552C266.468 79.2213 266.308 78.976 265.988 78.816C265.679 78.656 265.183 78.48 264.5 78.288C263.839 78.1067 263.3 77.9307 262.884 77.76C262.468 77.5893 262.106 77.328 261.796 76.976C261.498 76.624 261.348 76.16 261.348 75.584C261.348 75.1147 261.487 74.688 261.764 74.304C262.042 73.9093 262.436 73.6 262.948 73.376C263.471 73.152 264.068 73.04 264.74 73.04C265.743 73.04 266.548 73.296 267.156 73.808C267.775 74.3093 268.106 74.9973 268.148 75.872H266.324C266.292 75.4773 266.132 75.1627 265.844 74.928C265.556 74.6933 265.167 74.576 264.676 74.576C264.196 74.576 263.828 74.6667 263.572 74.848C263.316 75.0293 263.188 75.2693 263.188 75.568C263.188 75.8027 263.274 76 263.444 76.16C263.615 76.32 263.823 76.448 264.068 76.544C264.314 76.6293 264.676 76.7413 265.156 76.88C265.796 77.0507 266.319 77.2267 266.724 77.408C267.14 77.5787 267.498 77.8347 267.796 78.176C268.095 78.5173 268.25 78.9707 268.26 79.536C268.26 80.0373 268.122 80.4853 267.844 80.88C267.567 81.2747 267.172 81.584 266.66 81.808C266.159 82.032 265.567 82.144 264.884 82.144ZM278.311 77.376C278.311 77.7067 278.29 78.0053 278.247 78.272H271.511C271.565 78.976 271.826 79.5413 272.295 79.968C272.765 80.3947 273.341 80.608 274.023 80.608C275.005 80.608 275.698 80.1973 276.103 79.376H278.071C277.805 80.1867 277.319 80.8533 276.615 81.376C275.922 81.888 275.058 82.144 274.023 82.144C273.181 82.144 272.423 81.9573 271.751 81.584C271.09 81.2 270.567 80.6667 270.183 79.984C269.81 79.2907 269.623 78.4907 269.623 77.584C269.623 76.6773 269.805 75.8827 270.167 75.2C270.541 74.5067 271.058 73.9733 271.719 73.6C272.391 73.2267 273.159 73.04 274.023 73.04C274.855 73.04 275.597 73.2213 276.247 73.584C276.898 73.9467 277.405 74.4587 277.767 75.12C278.13 75.7707 278.311 76.5227 278.311 77.376ZM276.407 76.8C276.397 76.128 276.157 75.5893 275.687 75.184C275.218 74.7787 274.637 74.576 273.943 74.576C273.314 74.576 272.775 74.7787 272.327 75.184C271.879 75.5787 271.613 76.1173 271.527 76.8H276.407ZM279.498 77.552C279.498 76.6667 279.68 75.8827 280.042 75.2C280.416 74.5173 280.917 73.9893 281.546 73.616C282.186 73.232 282.896 73.04 283.674 73.04C284.357 73.04 284.96 73.1787 285.482 73.456C286.016 73.7333 286.426 74.0693 286.714 74.464V73.184H288.554V86.192H286.714V80.72C286.426 81.1147 286.01 81.4507 285.466 81.728C284.922 82.0053 284.304 82.144 283.61 82.144C282.853 82.144 282.16 81.952 281.53 81.568C280.912 81.1733 280.416 80.6293 280.042 79.936C279.68 79.232 279.498 78.4373 279.498 77.552ZM286.714 77.584C286.714 76.976 286.586 76.448 286.33 76C286.085 75.552 285.76 75.2107 285.354 74.976C284.949 74.7413 284.512 74.624 284.042 74.624C283.573 74.624 283.136 74.7413 282.73 74.976C282.325 75.2 281.994 75.536 281.738 75.984C281.493 76.4213 281.37 76.944 281.37 77.552C281.37 78.16 281.493 78.6933 281.738 79.152C281.994 79.6107 282.325 79.9627 282.73 80.208C283.146 80.4427 283.584 80.56 284.042 80.56C284.512 80.56 284.949 80.4427 285.354 80.208C285.76 79.9733 286.085 79.632 286.33 79.184C286.586 78.7253 286.714 78.192 286.714 77.584ZM298.934 73.184V82H297.11V80.96C296.822 81.3227 296.443 81.6107 295.974 81.824C295.515 82.0267 295.025 82.128 294.502 82.128C293.809 82.128 293.185 81.984 292.63 81.696C292.086 81.408 291.654 80.9813 291.334 80.416C291.025 79.8507 290.87 79.168 290.87 78.368V73.184H292.678V78.096C292.678 78.8853 292.875 79.4933 293.27 79.92C293.665 80.336 294.203 80.544 294.886 80.544C295.569 80.544 296.107 80.336 296.502 79.92C296.907 79.4933 297.11 78.8853 297.11 78.096V73.184H298.934ZM300.733 77.552C300.733 76.6667 300.914 75.8827 301.277 75.2C301.65 74.5173 302.151 73.9893 302.781 73.616C303.421 73.232 304.125 73.04 304.893 73.04C305.586 73.04 306.189 73.1787 306.701 73.456C307.223 73.7227 307.639 74.0587 307.949 74.464V73.184H309.789V82H307.949V80.688C307.639 81.104 307.218 81.4507 306.685 81.728C306.151 82.0053 305.543 82.144 304.861 82.144C304.103 82.144 303.41 81.952 302.781 81.568C302.151 81.1733 301.65 80.6293 301.277 79.936C300.914 79.232 300.733 78.4373 300.733 77.552ZM307.949 77.584C307.949 76.976 307.821 76.448 307.565 76C307.319 75.552 306.994 75.2107 306.589 74.976C306.183 74.7413 305.746 74.624 305.277 74.624C304.807 74.624 304.37 74.7413 303.965 74.976C303.559 75.2 303.229 75.536 302.973 75.984C302.727 76.4213 302.605 76.944 302.605 77.552C302.605 78.16 302.727 78.6933 302.973 79.152C303.229 79.6107 303.559 79.9627 303.965 80.208C304.381 80.4427 304.818 80.56 305.277 80.56C305.746 80.56 306.183 80.4427 306.589 80.208C306.994 79.9733 307.319 79.632 307.565 79.184C307.821 78.7253 307.949 78.192 307.949 77.584ZM314.312 74.672V79.552C314.312 79.8827 314.387 80.1227 314.536 80.272C314.696 80.4107 314.963 80.48 315.336 80.48H316.456V82H315.016C314.195 82 313.566 81.808 313.128 81.424C312.691 81.04 312.472 80.416 312.472 79.552V74.672H311.432V73.184H312.472V70.992H314.312V73.184H316.456V74.672H314.312ZM325.99 74.672H324.358V82H322.518V74.672H321.478V73.184H322.518V72.56C322.518 71.5467 322.784 70.8107 323.318 70.352C323.862 69.8827 324.71 69.648 325.862 69.648V71.168C325.307 71.168 324.918 71.2747 324.694 71.488C324.47 71.6907 324.358 72.048 324.358 72.56V73.184H325.99V74.672ZM329.43 74.464C329.697 74.016 330.049 73.6693 330.486 73.424C330.934 73.168 331.462 73.04 332.07 73.04V74.928H331.606C330.892 74.928 330.348 75.1093 329.974 75.472C329.612 75.8347 329.43 76.464 329.43 77.36V82H327.606V73.184H329.43V74.464ZM334.675 72.016C334.344 72.016 334.067 71.904 333.843 71.68C333.619 71.456 333.507 71.1787 333.507 70.848C333.507 70.5173 333.619 70.24 333.843 70.016C334.067 69.792 334.344 69.68 334.675 69.68C334.995 69.68 335.267 69.792 335.491 70.016C335.715 70.24 335.827 70.5173 335.827 70.848C335.827 71.1787 335.715 71.456 335.491 71.68C335.267 71.904 334.995 72.016 334.675 72.016ZM335.571 73.184V82H333.747V73.184H335.571ZM342.414 73.04C343.107 73.04 343.726 73.184 344.27 73.472C344.824 73.76 345.256 74.1867 345.566 74.752C345.875 75.3173 346.03 76 346.03 76.8V82H344.222V77.072C344.222 76.2827 344.024 75.68 343.63 75.264C343.235 74.8373 342.696 74.624 342.014 74.624C341.331 74.624 340.787 74.8373 340.382 75.264C339.987 75.68 339.79 76.2827 339.79 77.072V82H337.966V73.184H339.79V74.192C340.088 73.8293 340.467 73.5467 340.926 73.344C341.395 73.1413 341.891 73.04 342.414 73.04ZM351.908 73.04C352.591 73.04 353.194 73.1787 353.716 73.456C354.25 73.7227 354.666 74.0587 354.964 74.464V73.184H356.804V82.144C356.804 82.9547 356.634 83.6747 356.292 84.304C355.951 84.944 355.455 85.4453 354.804 85.808C354.164 86.1707 353.396 86.352 352.5 86.352C351.306 86.352 350.314 86.0693 349.524 85.504C348.735 84.9493 348.287 84.192 348.18 83.232H349.988C350.127 83.6907 350.42 84.0587 350.868 84.336C351.327 84.624 351.871 84.768 352.5 84.768C353.236 84.768 353.828 84.544 354.276 84.096C354.735 83.648 354.964 82.9973 354.964 82.144V80.672C354.655 81.088 354.234 81.44 353.7 81.728C353.178 82.0053 352.58 82.144 351.908 82.144C351.14 82.144 350.436 81.952 349.796 81.568C349.167 81.1733 348.666 80.6293 348.292 79.936C347.93 79.232 347.748 78.4373 347.748 77.552C347.748 76.6667 347.93 75.8827 348.292 75.2C348.666 74.5173 349.167 73.9893 349.796 73.616C350.436 73.232 351.14 73.04 351.908 73.04ZM354.964 77.584C354.964 76.976 354.836 76.448 354.58 76C354.335 75.552 354.01 75.2107 353.604 74.976C353.199 74.7413 352.762 74.624 352.292 74.624C351.823 74.624 351.386 74.7413 350.98 74.976C350.575 75.2 350.244 75.536 349.988 75.984C349.743 76.4213 349.62 76.944 349.62 77.552C349.62 78.16 349.743 78.6933 349.988 79.152C350.244 79.6107 350.575 79.9627 350.98 80.208C351.396 80.4427 351.834 80.56 352.292 80.56C352.762 80.56 353.199 80.4427 353.604 80.208C354.01 79.9733 354.335 79.632 354.58 79.184C354.836 78.7253 354.964 78.192 354.964 77.584ZM360.128 72.016C359.797 72.016 359.52 71.904 359.296 71.68C359.072 71.456 358.96 71.1787 358.96 70.848C358.96 70.5173 359.072 70.24 359.296 70.016C359.52 69.792 359.797 69.68 360.128 69.68C360.448 69.68 360.72 69.792 360.944 70.016C361.168 70.24 361.28 70.5173 361.28 70.848C361.28 71.1787 361.168 71.456 360.944 71.68C360.72 71.904 360.448 72.016 360.128 72.016ZM361.024 73.184V82H359.2V73.184H361.024ZM365.243 70.16V82H363.419V70.16H365.243ZM369.462 70.16V82H367.638V70.16H369.462ZM371.248 77.552C371.248 76.6667 371.43 75.8827 371.792 75.2C372.166 74.5173 372.667 73.9893 373.296 73.616C373.936 73.232 374.64 73.04 375.408 73.04C376.102 73.04 376.704 73.1787 377.216 73.456C377.739 73.7227 378.155 74.0587 378.464 74.464V73.184H380.304V82H378.464V80.688C378.155 81.104 377.734 81.4507 377.2 81.728C376.667 82.0053 376.059 82.144 375.376 82.144C374.619 82.144 373.926 81.952 373.296 81.568C372.667 81.1733 372.166 80.6293 371.792 79.936C371.43 79.232 371.248 78.4373 371.248 77.552ZM378.464 77.584C378.464 76.976 378.336 76.448 378.08 76C377.835 75.552 377.51 75.2107 377.104 74.976C376.699 74.7413 376.262 74.624 375.792 74.624C375.323 74.624 374.886 74.7413 374.48 74.976C374.075 75.2 373.744 75.536 373.488 75.984C373.243 76.4213 373.12 76.944 373.12 77.552C373.12 78.16 373.243 78.6933 373.488 79.152C373.744 79.6107 374.075 79.9627 374.48 80.208C374.896 80.4427 375.334 80.56 375.792 80.56C376.262 80.56 376.699 80.4427 377.104 80.208C377.51 79.9733 377.835 79.632 378.08 79.184C378.336 78.7253 378.464 78.192 378.464 77.584ZM386.248 77.552C386.248 76.6667 386.43 75.8827 386.792 75.2C387.166 74.5173 387.667 73.9893 388.296 73.616C388.936 73.232 389.64 73.04 390.408 73.04C391.102 73.04 391.704 73.1787 392.216 73.456C392.739 73.7227 393.155 74.0587 393.464 74.464V73.184H395.304V82H393.464V80.688C393.155 81.104 392.734 81.4507 392.2 81.728C391.667 82.0053 391.059 82.144 390.376 82.144C389.619 82.144 388.926 81.952 388.296 81.568C387.667 81.1733 387.166 80.6293 386.792 79.936C386.43 79.232 386.248 78.4373 386.248 77.552ZM393.464 77.584C393.464 76.976 393.336 76.448 393.08 76C392.835 75.552 392.51 75.2107 392.104 74.976C391.699 74.7413 391.262 74.624 390.792 74.624C390.323 74.624 389.886 74.7413 389.48 74.976C389.075 75.2 388.744 75.536 388.488 75.984C388.243 76.4213 388.12 76.944 388.12 77.552C388.12 78.16 388.243 78.6933 388.488 79.152C388.744 79.6107 389.075 79.9627 389.48 80.208C389.896 80.4427 390.334 80.56 390.792 80.56C391.262 80.56 391.699 80.4427 392.104 80.208C392.51 79.9733 392.835 79.632 393.08 79.184C393.336 78.7253 393.464 78.192 393.464 77.584ZM399.524 74.464C399.791 74.016 400.143 73.6693 400.58 73.424C401.028 73.168 401.556 73.04 402.164 73.04V74.928H401.7C400.985 74.928 400.441 75.1093 400.068 75.472C399.705 75.8347 399.524 76.464 399.524 77.36V82H397.7V73.184H399.524V74.464ZM403.233 77.584C403.233 76.6773 403.414 75.8827 403.777 75.2C404.15 74.5067 404.662 73.9733 405.313 73.6C405.963 73.2267 406.71 73.04 407.553 73.04C408.619 73.04 409.499 73.296 410.193 73.808C410.897 74.3093 411.371 75.0293 411.617 75.968H409.649C409.489 75.5307 409.233 75.1893 408.881 74.944C408.529 74.6987 408.086 74.576 407.553 74.576C406.806 74.576 406.209 74.8427 405.761 75.376C405.323 75.8987 405.105 76.6347 405.105 77.584C405.105 78.5333 405.323 79.2747 405.761 79.808C406.209 80.3413 406.806 80.608 407.553 80.608C408.609 80.608 409.307 80.144 409.649 79.216H411.617C411.361 80.112 410.881 80.8267 410.177 81.36C409.473 81.8827 408.598 82.144 407.553 82.144C406.71 82.144 405.963 81.9573 405.313 81.584C404.662 81.2 404.15 80.6667 403.777 79.984C403.414 79.2907 403.233 78.4907 403.233 77.584ZM421.418 73.184V82H419.594V80.96C419.306 81.3227 418.928 81.6107 418.458 81.824C418 82.0267 417.509 82.128 416.986 82.128C416.293 82.128 415.669 81.984 415.114 81.696C414.57 81.408 414.138 80.9813 413.818 80.416C413.509 79.8507 413.354 79.168 413.354 78.368V73.184H415.162V78.096C415.162 78.8853 415.36 79.4933 415.754 79.92C416.149 80.336 416.688 80.544 417.37 80.544C418.053 80.544 418.592 80.336 418.986 79.92C419.392 79.4933 419.594 78.8853 419.594 78.096V73.184H421.418ZM425.825 79.808L423.889 84.224H422.705L423.841 79.808H425.825ZM39.648 105.04C40.3413 105.04 40.96 105.184 41.504 105.472C42.0587 105.76 42.4907 106.187 42.8 106.752C43.1093 107.317 43.264 108 43.264 108.8V114H41.456V109.072C41.456 108.283 41.2587 107.68 40.864 107.264C40.4693 106.837 39.9307 106.624 39.248 106.624C38.5653 106.624 38.0213 106.837 37.616 107.264C37.2213 107.68 37.024 108.283 37.024 109.072V114H35.2V105.184H37.024V106.192C37.3227 105.829 37.7013 105.547 38.16 105.344C38.6293 105.141 39.1253 105.04 39.648 105.04ZM49.4146 114.144C48.5826 114.144 47.8306 113.957 47.1586 113.584C46.4866 113.2 45.9586 112.667 45.5746 111.984C45.1906 111.291 44.9986 110.491 44.9986 109.584C44.9986 108.688 45.196 107.893 45.5906 107.2C45.9853 106.507 46.524 105.973 47.2066 105.6C47.8893 105.227 48.652 105.04 49.4946 105.04C50.3373 105.04 51.1 105.227 51.7826 105.6C52.4653 105.973 53.004 106.507 53.3986 107.2C53.7933 107.893 53.9906 108.688 53.9906 109.584C53.9906 110.48 53.788 111.275 53.3826 111.968C52.9773 112.661 52.4226 113.2 51.7186 113.584C51.0253 113.957 50.2573 114.144 49.4146 114.144ZM49.4146 112.56C49.884 112.56 50.3213 112.448 50.7266 112.224C51.1426 112 51.4786 111.664 51.7346 111.216C51.9906 110.768 52.1186 110.224 52.1186 109.584C52.1186 108.944 51.996 108.405 51.7506 107.968C51.5053 107.52 51.18 107.184 50.7746 106.96C50.3693 106.736 49.932 106.624 49.4626 106.624C48.9933 106.624 48.556 106.736 48.1506 106.96C47.756 107.184 47.4413 107.52 47.2066 107.968C46.972 108.405 46.8546 108.944 46.8546 109.584C46.8546 110.533 47.0946 111.269 47.5746 111.792C48.0653 112.304 48.6786 112.56 49.4146 112.56ZM60.2418 105.04C60.9351 105.04 61.5538 105.184 62.0978 105.472C62.6524 105.76 63.0844 106.187 63.3938 106.752C63.7031 107.317 63.8578 108 63.8578 108.8V114H62.0498V109.072C62.0498 108.283 61.8524 107.68 61.4578 107.264C61.0631 106.837 60.5244 106.624 59.8418 106.624C59.1591 106.624 58.6151 106.837 58.2098 107.264C57.8151 107.68 57.6178 108.283 57.6178 109.072V114H55.7938V105.184H57.6178V106.192C57.9164 105.829 58.2951 105.547 58.7538 105.344C59.2231 105.141 59.7191 105.04 60.2418 105.04ZM69.7326 109.552C69.7326 108.667 69.914 107.883 70.2766 107.2C70.65 106.517 71.1513 105.989 71.7806 105.616C72.4206 105.232 73.1246 105.04 73.8926 105.04C74.586 105.04 75.1886 105.179 75.7006 105.456C76.2233 105.723 76.6393 106.059 76.9486 106.464V105.184H78.7886V114H76.9486V112.688C76.6393 113.104 76.218 113.451 75.6846 113.728C75.1513 114.005 74.5433 114.144 73.8606 114.144C73.1033 114.144 72.41 113.952 71.7806 113.568C71.1513 113.173 70.65 112.629 70.2766 111.936C69.914 111.232 69.7326 110.437 69.7326 109.552ZM76.9486 109.584C76.9486 108.976 76.8206 108.448 76.5646 108C76.3193 107.552 75.994 107.211 75.5886 106.976C75.1833 106.741 74.746 106.624 74.2766 106.624C73.8073 106.624 73.37 106.741 72.9646 106.976C72.5593 107.2 72.2286 107.536 71.9726 107.984C71.7273 108.421 71.6046 108.944 71.6046 109.552C71.6046 110.16 71.7273 110.693 71.9726 111.152C72.2286 111.611 72.5593 111.963 72.9646 112.208C73.3806 112.443 73.818 112.56 74.2766 112.56C74.746 112.56 75.1833 112.443 75.5886 112.208C75.994 111.973 76.3193 111.632 76.5646 111.184C76.8206 110.725 76.9486 110.192 76.9486 109.584ZM83.0084 102.16V114H81.1844V102.16H83.0084ZM86.3311 104.016C86.0005 104.016 85.7231 103.904 85.4991 103.68C85.2751 103.456 85.1631 103.179 85.1631 102.848C85.1631 102.517 85.2751 102.24 85.4991 102.016C85.7231 101.792 86.0005 101.68 86.3311 101.68C86.6511 101.68 86.9231 101.792 87.1471 102.016C87.3711 102.24 87.4831 102.517 87.4831 102.848C87.4831 103.179 87.3711 103.456 87.1471 103.68C86.9231 103.904 86.6511 104.016 86.3311 104.016ZM87.2271 105.184V114H85.4031V105.184H87.2271ZM89.0139 109.552C89.0139 108.667 89.1952 107.883 89.5579 107.2C89.9312 106.517 90.4325 105.989 91.0619 105.616C91.7019 105.232 92.4112 105.04 93.1899 105.04C93.8725 105.04 94.4752 105.179 94.9979 105.456C95.5312 105.733 95.9419 106.069 96.2299 106.464V105.184H98.0699V118.192H96.2299V112.72C95.9419 113.115 95.5259 113.451 94.9819 113.728C94.4379 114.005 93.8192 114.144 93.1259 114.144C92.3685 114.144 91.6752 113.952 91.0459 113.568C90.4272 113.173 89.9312 112.629 89.5579 111.936C89.1952 111.232 89.0139 110.437 89.0139 109.552ZM96.2299 109.584C96.2299 108.976 96.1019 108.448 95.8459 108C95.6005 107.552 95.2752 107.211 94.8699 106.976C94.4645 106.741 94.0272 106.624 93.5579 106.624C93.0885 106.624 92.6512 106.741 92.2459 106.976C91.8405 107.2 91.5099 107.536 91.2539 107.984C91.0085 108.421 90.8859 108.944 90.8859 109.552C90.8859 110.16 91.0085 110.693 91.2539 111.152C91.5099 111.611 91.8405 111.963 92.2459 112.208C92.6619 112.443 93.0992 112.56 93.5579 112.56C94.0272 112.56 94.4645 112.443 94.8699 112.208C95.2752 111.973 95.6005 111.632 95.8459 111.184C96.1019 110.725 96.2299 110.192 96.2299 109.584ZM108.45 105.184V114H106.626V112.96C106.338 113.323 105.959 113.611 105.49 113.824C105.031 114.027 104.54 114.128 104.018 114.128C103.324 114.128 102.7 113.984 102.146 113.696C101.602 113.408 101.17 112.981 100.85 112.416C100.54 111.851 100.386 111.168 100.386 110.368V105.184H102.194V110.096C102.194 110.885 102.391 111.493 102.786 111.92C103.18 112.336 103.719 112.544 104.402 112.544C105.084 112.544 105.623 112.336 106.018 111.92C106.423 111.493 106.626 110.885 106.626 110.096V105.184H108.45ZM110.248 109.552C110.248 108.667 110.43 107.883 110.792 107.2C111.166 106.517 111.667 105.989 112.296 105.616C112.936 105.232 113.64 105.04 114.408 105.04C115.102 105.04 115.704 105.179 116.216 105.456C116.739 105.723 117.155 106.059 117.464 106.464V105.184H119.304V114H117.464V112.688C117.155 113.104 116.734 113.451 116.2 113.728C115.667 114.005 115.059 114.144 114.376 114.144C113.619 114.144 112.926 113.952 112.296 113.568C111.667 113.173 111.166 112.629 110.792 111.936C110.43 111.232 110.248 110.437 110.248 109.552ZM117.464 109.584C117.464 108.976 117.336 108.448 117.08 108C116.835 107.552 116.51 107.211 116.104 106.976C115.699 106.741 115.262 106.624 114.792 106.624C114.323 106.624 113.886 106.741 113.48 106.976C113.075 107.2 112.744 107.536 112.488 107.984C112.243 108.421 112.12 108.944 112.12 109.552C112.12 110.16 112.243 110.693 112.488 111.152C112.744 111.611 113.075 111.963 113.48 112.208C113.896 112.443 114.334 112.56 114.792 112.56C115.262 112.56 115.699 112.443 116.104 112.208C116.51 111.973 116.835 111.632 117.08 111.184C117.336 110.725 117.464 110.192 117.464 109.584ZM132.372 105.04C133.065 105.04 133.684 105.184 134.228 105.472C134.783 105.76 135.215 106.187 135.524 106.752C135.844 107.317 136.004 108 136.004 108.8V114H134.196V109.072C134.196 108.283 133.999 107.68 133.604 107.264C133.209 106.837 132.671 106.624 131.988 106.624C131.305 106.624 130.761 106.837 130.356 107.264C129.961 107.68 129.764 108.283 129.764 109.072V114H127.956V109.072C127.956 108.283 127.759 107.68 127.364 107.264C126.969 106.837 126.431 106.624 125.748 106.624C125.065 106.624 124.521 106.837 124.116 107.264C123.721 107.68 123.524 108.283 123.524 109.072V114H121.7V105.184H123.524V106.192C123.823 105.829 124.201 105.547 124.66 105.344C125.119 105.141 125.609 105.04 126.132 105.04C126.836 105.04 127.465 105.189 128.02 105.488C128.575 105.787 129.001 106.219 129.3 106.784C129.567 106.251 129.983 105.829 130.548 105.52C131.113 105.2 131.721 105.04 132.372 105.04ZM141.873 109.552C141.873 108.667 142.055 107.883 142.417 107.2C142.791 106.517 143.292 105.989 143.921 105.616C144.561 105.232 145.271 105.04 146.049 105.04C146.732 105.04 147.335 105.179 147.857 105.456C148.391 105.733 148.801 106.069 149.089 106.464V105.184H150.929V118.192H149.089V112.72C148.801 113.115 148.385 113.451 147.841 113.728C147.297 114.005 146.679 114.144 145.985 114.144C145.228 114.144 144.535 113.952 143.905 113.568C143.287 113.173 142.791 112.629 142.417 111.936C142.055 111.232 141.873 110.437 141.873 109.552ZM149.089 109.584C149.089 108.976 148.961 108.448 148.705 108C148.46 107.552 148.135 107.211 147.729 106.976C147.324 106.741 146.887 106.624 146.417 106.624C145.948 106.624 145.511 106.741 145.105 106.976C144.7 107.2 144.369 107.536 144.113 107.984C143.868 108.421 143.745 108.944 143.745 109.552C143.745 110.16 143.868 110.693 144.113 111.152C144.369 111.611 144.7 111.963 145.105 112.208C145.521 112.443 145.959 112.56 146.417 112.56C146.887 112.56 147.324 112.443 147.729 112.208C148.135 111.973 148.46 111.632 148.705 111.184C148.961 110.725 149.089 110.192 149.089 109.584ZM161.309 105.184V114H159.485V112.96C159.197 113.323 158.818 113.611 158.349 113.824C157.89 114.027 157.4 114.128 156.877 114.128C156.184 114.128 155.56 113.984 155.005 113.696C154.461 113.408 154.029 112.981 153.709 112.416C153.4 111.851 153.245 111.168 153.245 110.368V105.184H155.053V110.096C155.053 110.885 155.25 111.493 155.645 111.92C156.04 112.336 156.578 112.544 157.261 112.544C157.944 112.544 158.482 112.336 158.877 111.92C159.282 111.493 159.485 110.885 159.485 110.096V105.184H161.309ZM163.108 109.552C163.108 108.667 163.289 107.883 163.652 107.2C164.025 106.517 164.526 105.989 165.156 105.616C165.796 105.232 166.5 105.04 167.268 105.04C167.961 105.04 168.564 105.179 169.076 105.456C169.598 105.723 170.014 106.059 170.324 106.464V105.184H172.164V114H170.324V112.688C170.014 113.104 169.593 113.451 169.06 113.728C168.526 114.005 167.918 114.144 167.236 114.144C166.478 114.144 165.785 113.952 165.156 113.568C164.526 113.173 164.025 112.629 163.652 111.936C163.289 111.232 163.108 110.437 163.108 109.552ZM170.324 109.584C170.324 108.976 170.196 108.448 169.94 108C169.694 107.552 169.369 107.211 168.964 106.976C168.558 106.741 168.121 106.624 167.652 106.624C167.182 106.624 166.745 106.741 166.34 106.976C165.934 107.2 165.604 107.536 165.348 107.984C165.102 108.421 164.98 108.944 164.98 109.552C164.98 110.16 165.102 110.693 165.348 111.152C165.604 111.611 165.934 111.963 166.34 112.208C166.756 112.443 167.193 112.56 167.652 112.56C168.121 112.56 168.558 112.443 168.964 112.208C169.369 111.973 169.694 111.632 169.94 111.184C170.196 110.725 170.324 110.192 170.324 109.584ZM185.231 105.04C185.925 105.04 186.543 105.184 187.087 105.472C187.642 105.76 188.074 106.187 188.383 106.752C188.703 107.317 188.863 108 188.863 108.8V114H187.055V109.072C187.055 108.283 186.858 107.68 186.463 107.264C186.069 106.837 185.53 106.624 184.847 106.624C184.165 106.624 183.621 106.837 183.215 107.264C182.821 107.68 182.623 108.283 182.623 109.072V114H180.815V109.072C180.815 108.283 180.618 107.68 180.223 107.264C179.829 106.837 179.29 106.624 178.607 106.624C177.925 106.624 177.381 106.837 176.975 107.264C176.581 107.68 176.383 108.283 176.383 109.072V114H174.559V105.184H176.383V106.192C176.682 105.829 177.061 105.547 177.519 105.344C177.978 105.141 178.469 105.04 178.991 105.04C179.695 105.04 180.325 105.189 180.879 105.488C181.434 105.787 181.861 106.219 182.159 106.784C182.426 106.251 182.842 105.829 183.407 105.52C183.973 105.2 184.581 105.04 185.231 105.04ZM206.013 105.04C206.706 105.04 207.325 105.184 207.869 105.472C208.423 105.76 208.855 106.187 209.165 106.752C209.485 107.317 209.645 108 209.645 108.8V114H207.837V109.072C207.837 108.283 207.639 107.68 207.245 107.264C206.85 106.837 206.311 106.624 205.629 106.624C204.946 106.624 204.402 106.837 203.997 107.264C203.602 107.68 203.405 108.283 203.405 109.072V114H201.597V109.072C201.597 108.283 201.399 107.68 201.005 107.264C200.61 106.837 200.071 106.624 199.389 106.624C198.706 106.624 198.162 106.837 197.757 107.264C197.362 107.68 197.165 108.283 197.165 109.072V114H195.341V105.184H197.165V106.192C197.463 105.829 197.842 105.547 198.301 105.344C198.759 105.141 199.25 105.04 199.773 105.04C200.477 105.04 201.106 105.189 201.661 105.488C202.215 105.787 202.642 106.219 202.941 106.784C203.207 106.251 203.623 105.829 204.189 105.52C204.754 105.2 205.362 105.04 206.013 105.04ZM215.79 114.144C214.958 114.144 214.206 113.957 213.534 113.584C212.862 113.2 212.334 112.667 211.95 111.984C211.566 111.291 211.374 110.491 211.374 109.584C211.374 108.688 211.571 107.893 211.966 107.2C212.36 106.507 212.899 105.973 213.582 105.6C214.264 105.227 215.027 105.04 215.87 105.04C216.712 105.04 217.475 105.227 218.158 105.6C218.84 105.973 219.379 106.507 219.774 107.2C220.168 107.893 220.366 108.688 220.366 109.584C220.366 110.48 220.163 111.275 219.758 111.968C219.352 112.661 218.798 113.2 218.094 113.584C217.4 113.957 216.632 114.144 215.79 114.144ZM215.79 112.56C216.259 112.56 216.696 112.448 217.102 112.224C217.518 112 217.854 111.664 218.11 111.216C218.366 110.768 218.494 110.224 218.494 109.584C218.494 108.944 218.371 108.405 218.126 107.968C217.88 107.52 217.555 107.184 217.15 106.96C216.744 106.736 216.307 106.624 215.838 106.624C215.368 106.624 214.931 106.736 214.526 106.96C214.131 107.184 213.816 107.52 213.582 107.968C213.347 108.405 213.23 108.944 213.23 109.584C213.23 110.533 213.47 111.269 213.95 111.792C214.44 112.304 215.054 112.56 215.79 112.56ZM223.993 102.16V114H222.169V102.16H223.993ZM234.468 109.376C234.468 109.707 234.446 110.005 234.404 110.272H227.668C227.721 110.976 227.982 111.541 228.452 111.968C228.921 112.395 229.497 112.608 230.18 112.608C231.161 112.608 231.854 112.197 232.26 111.376H234.227C233.961 112.187 233.476 112.853 232.772 113.376C232.078 113.888 231.214 114.144 230.18 114.144C229.337 114.144 228.58 113.957 227.908 113.584C227.246 113.2 226.724 112.667 226.34 111.984C225.966 111.291 225.78 110.491 225.78 109.584C225.78 108.677 225.961 107.883 226.324 107.2C226.697 106.507 227.214 105.973 227.876 105.6C228.548 105.227 229.316 105.04 230.18 105.04C231.012 105.04 231.753 105.221 232.404 105.584C233.054 105.947 233.561 106.459 233.924 107.12C234.286 107.771 234.468 108.523 234.468 109.376ZM232.564 108.8C232.553 108.128 232.313 107.589 231.844 107.184C231.374 106.779 230.793 106.576 230.1 106.576C229.47 106.576 228.932 106.779 228.484 107.184C228.036 107.579 227.769 108.117 227.684 108.8H232.564ZM239.463 114.144C238.769 114.144 238.145 114.021 237.591 113.776C237.047 113.52 236.615 113.179 236.295 112.752C235.975 112.315 235.804 111.829 235.783 111.296H237.671C237.703 111.669 237.879 111.984 238.199 112.24C238.529 112.485 238.94 112.608 239.431 112.608C239.943 112.608 240.337 112.512 240.615 112.32C240.903 112.117 241.047 111.861 241.047 111.552C241.047 111.221 240.887 110.976 240.567 110.816C240.257 110.656 239.761 110.48 239.079 110.288C238.417 110.107 237.879 109.931 237.463 109.76C237.047 109.589 236.684 109.328 236.375 108.976C236.076 108.624 235.927 108.16 235.927 107.584C235.927 107.115 236.065 106.688 236.343 106.304C236.62 105.909 237.015 105.6 237.527 105.376C238.049 105.152 238.647 105.04 239.319 105.04C240.321 105.04 241.127 105.296 241.735 105.808C242.353 106.309 242.684 106.997 242.727 107.872H240.903C240.871 107.477 240.711 107.163 240.423 106.928C240.135 106.693 239.745 106.576 239.255 106.576C238.775 106.576 238.407 106.667 238.151 106.848C237.895 107.029 237.767 107.269 237.767 107.568C237.767 107.803 237.852 108 238.023 108.16C238.193 108.32 238.401 108.448 238.647 108.544C238.892 108.629 239.255 108.741 239.735 108.88C240.375 109.051 240.897 109.227 241.303 109.408C241.719 109.579 242.076 109.835 242.375 110.176C242.673 110.517 242.828 110.971 242.839 111.536C242.839 112.037 242.7 112.485 242.423 112.88C242.145 113.275 241.751 113.584 241.239 113.808C240.737 114.032 240.145 114.144 239.463 114.144ZM246.937 106.672V111.552C246.937 111.883 247.012 112.123 247.161 112.272C247.321 112.411 247.588 112.48 247.961 112.48H249.081V114H247.641C246.82 114 246.191 113.808 245.753 113.424C245.316 113.04 245.097 112.416 245.097 111.552V106.672H244.057V105.184H245.097V102.992H246.937V105.184H249.081V106.672H246.937ZM251.691 104.016C251.36 104.016 251.083 103.904 250.859 103.68C250.635 103.456 250.523 103.179 250.523 102.848C250.523 102.517 250.635 102.24 250.859 102.016C251.083 101.792 251.36 101.68 251.691 101.68C252.011 101.68 252.283 101.792 252.507 102.016C252.731 102.24 252.843 102.517 252.843 102.848C252.843 103.179 252.731 103.456 252.507 103.68C252.283 103.904 252.011 104.016 251.691 104.016ZM252.587 105.184V114H250.763V105.184H252.587ZM263.061 109.376C263.061 109.707 263.04 110.005 262.997 110.272H256.261C256.315 110.976 256.576 111.541 257.045 111.968C257.515 112.395 258.091 112.608 258.773 112.608C259.755 112.608 260.448 112.197 260.853 111.376H262.821C262.555 112.187 262.069 112.853 261.365 113.376C260.672 113.888 259.808 114.144 258.773 114.144C257.931 114.144 257.173 113.957 256.501 113.584C255.84 113.2 255.317 112.667 254.933 111.984C254.56 111.291 254.373 110.491 254.373 109.584C254.373 108.677 254.555 107.883 254.917 107.2C255.291 106.507 255.808 105.973 256.469 105.6C257.141 105.227 257.909 105.04 258.773 105.04C259.605 105.04 260.347 105.221 260.997 105.584C261.648 105.947 262.155 106.459 262.517 107.12C262.88 107.771 263.061 108.523 263.061 109.376ZM261.157 108.8C261.147 108.128 260.907 107.589 260.437 107.184C259.968 106.779 259.387 106.576 258.693 106.576C258.064 106.576 257.525 106.779 257.077 107.184C256.629 107.579 256.363 108.117 256.277 108.8H261.157ZM273.461 105.04C274.154 105.04 274.773 105.184 275.317 105.472C275.871 105.76 276.303 106.187 276.613 106.752C276.922 107.317 277.077 108 277.077 108.8V114H275.269V109.072C275.269 108.283 275.071 107.68 274.677 107.264C274.282 106.837 273.743 106.624 273.061 106.624C272.378 106.624 271.834 106.837 271.429 107.264C271.034 107.68 270.837 108.283 270.837 109.072V114H269.013V105.184H270.837V106.192C271.135 105.829 271.514 105.547 271.973 105.344C272.442 105.141 272.938 105.04 273.461 105.04ZM287.483 109.376C287.483 109.707 287.462 110.005 287.419 110.272H280.683C280.736 110.976 280.998 111.541 281.467 111.968C281.936 112.395 282.512 112.608 283.195 112.608C284.176 112.608 284.87 112.197 285.275 111.376H287.243C286.976 112.187 286.491 112.853 285.787 113.376C285.094 113.888 284.23 114.144 283.195 114.144C282.352 114.144 281.595 113.957 280.923 113.584C280.262 113.2 279.739 112.667 279.355 111.984C278.982 111.291 278.795 110.491 278.795 109.584C278.795 108.677 278.976 107.883 279.339 107.2C279.712 106.507 280.23 105.973 280.891 105.6C281.563 105.227 282.331 105.04 283.195 105.04C284.027 105.04 284.768 105.221 285.419 105.584C286.07 105.947 286.576 106.459 286.939 107.12C287.302 107.771 287.483 108.523 287.483 109.376ZM285.579 108.8C285.568 108.128 285.328 107.589 284.859 107.184C284.39 106.779 283.808 106.576 283.115 106.576C282.486 106.576 281.947 106.779 281.499 107.184C281.051 107.579 280.784 108.117 280.699 108.8H285.579ZM288.67 109.584C288.67 108.677 288.851 107.883 289.214 107.2C289.587 106.507 290.099 105.973 290.75 105.6C291.401 105.227 292.147 105.04 292.99 105.04C294.057 105.04 294.937 105.296 295.63 105.808C296.334 106.309 296.809 107.029 297.054 107.968H295.086C294.926 107.531 294.67 107.189 294.318 106.944C293.966 106.699 293.523 106.576 292.99 106.576C292.243 106.576 291.646 106.843 291.198 107.376C290.761 107.899 290.542 108.635 290.542 109.584C290.542 110.533 290.761 111.275 291.198 111.808C291.646 112.341 292.243 112.608 292.99 112.608C294.046 112.608 294.745 112.144 295.086 111.216H297.054C296.798 112.112 296.318 112.827 295.614 113.36C294.91 113.883 294.035 114.144 292.99 114.144C292.147 114.144 291.401 113.957 290.75 113.584C290.099 113.2 289.587 112.667 289.214 111.984C288.851 111.291 288.67 110.491 288.67 109.584ZM299.608 114.112C299.277 114.112 299 114 298.776 113.776C298.552 113.552 298.44 113.275 298.44 112.944C298.44 112.613 298.552 112.336 298.776 112.112C299 111.888 299.277 111.776 299.608 111.776C299.928 111.776 300.2 111.888 300.424 112.112C300.648 112.336 300.76 112.613 300.76 112.944C300.76 113.275 300.648 113.552 300.424 113.776C300.2 114 299.928 114.112 299.608 114.112Z" fill="#5E6282"/>
<path d="M34.63 171.7C34.63 170.464 34.906 169.36 35.458 168.388C36.022 167.404 36.784 166.642 37.744 166.102C38.716 165.55 39.802 165.274 41.002 165.274C42.406 165.274 43.636 165.634 44.692 166.354C45.748 167.074 46.486 168.07 46.906 169.342H44.008C43.72 168.742 43.312 168.292 42.784 167.992C42.268 167.692 41.668 167.542 40.984 167.542C40.252 167.542 39.598 167.716 39.022 168.064C38.458 168.4 38.014 168.88 37.69 169.504C37.378 170.128 37.222 170.86 37.222 171.7C37.222 172.528 37.378 173.26 37.69 173.896C38.014 174.52 38.458 175.006 39.022 175.354C39.598 175.69 40.252 175.858 40.984 175.858C41.668 175.858 42.268 175.708 42.784 175.408C43.312 175.096 43.72 174.64 44.008 174.04H46.906C46.486 175.324 45.748 176.326 44.692 177.046C43.648 177.754 42.418 178.108 41.002 178.108C39.802 178.108 38.716 177.838 37.744 177.298C36.784 176.746 36.022 175.984 35.458 175.012C34.906 174.04 34.63 172.936 34.63 171.7ZM54.6744 167.884C55.4304 167.884 56.1024 168.052 56.6904 168.388C57.2784 168.712 57.7344 169.198 58.0584 169.846C58.3944 170.482 58.5624 171.25 58.5624 172.15V178H56.0424V172.492C56.0424 171.7 55.8444 171.094 55.4484 170.674C55.0524 170.242 54.5124 170.026 53.8284 170.026C53.1324 170.026 52.5804 170.242 52.1724 170.674C51.7764 171.094 51.5784 171.7 51.5784 172.492V178H49.0584V164.68H51.5784V169.27C51.9024 168.838 52.3344 168.502 52.8744 168.262C53.4144 168.01 54.0144 167.884 54.6744 167.884ZM63.4788 169.576C63.8028 169.048 64.2228 168.634 64.7388 168.334C65.2668 168.034 65.8668 167.884 66.5388 167.884V170.53H65.8728C65.0808 170.53 64.4808 170.716 64.0728 171.088C63.6768 171.46 63.4788 172.108 63.4788 173.032V178H60.9588V168.028H63.4788V169.576ZM69.5141 166.84C69.0701 166.84 68.6981 166.702 68.3981 166.426C68.1101 166.138 67.9661 165.784 67.9661 165.364C67.9661 164.944 68.1101 164.596 68.3981 164.32C68.6981 164.032 69.0701 163.888 69.5141 163.888C69.9581 163.888 70.3241 164.032 70.6121 164.32C70.9121 164.596 71.0621 164.944 71.0621 165.364C71.0621 165.784 70.9121 166.138 70.6121 166.426C70.3241 166.702 69.9581 166.84 69.5141 166.84ZM70.7561 168.028V178H68.2361V168.028H70.7561ZM77.0619 178.162C76.2459 178.162 75.5139 178.018 74.8659 177.73C74.2179 177.43 73.7019 177.028 73.3179 176.524C72.9459 176.02 72.7419 175.462 72.7059 174.85H75.2439C75.2919 175.234 75.4779 175.552 75.8019 175.804C76.1379 176.056 76.5519 176.182 77.0439 176.182C77.5239 176.182 77.8959 176.086 78.1599 175.894C78.4359 175.702 78.5739 175.456 78.5739 175.156C78.5739 174.832 78.4059 174.592 78.0699 174.436C77.7459 174.268 77.2239 174.088 76.5039 173.896C75.7599 173.716 75.1479 173.53 74.6679 173.338C74.1999 173.146 73.7919 172.852 73.4439 172.456C73.1079 172.06 72.9399 171.526 72.9399 170.854C72.9399 170.302 73.0959 169.798 73.4079 169.342C73.7319 168.886 74.1879 168.526 74.7759 168.262C75.3759 167.998 76.0779 167.866 76.8819 167.866C78.0699 167.866 79.0179 168.166 79.7259 168.766C80.4339 169.354 80.8239 170.152 80.8959 171.16H78.4839C78.4479 170.764 78.2799 170.452 77.9799 170.224C77.6919 169.984 77.3019 169.864 76.8099 169.864C76.3539 169.864 75.9999 169.948 75.7479 170.116C75.5079 170.284 75.3879 170.518 75.3879 170.818C75.3879 171.154 75.5559 171.412 75.8919 171.592C76.2279 171.76 76.7499 171.934 77.4579 172.114C78.1779 172.294 78.7719 172.48 79.2399 172.672C79.7079 172.864 80.1099 173.164 80.4459 173.572C80.7939 173.968 80.9739 174.496 80.9859 175.156C80.9859 175.732 80.8239 176.248 80.4999 176.704C80.1879 177.16 79.7319 177.52 79.1319 177.784C78.5439 178.036 77.8539 178.162 77.0619 178.162ZM95.8936 165.436V167.47H92.5456V178H90.0256V167.47H86.6776V165.436H95.8936ZM103.348 167.884C104.104 167.884 104.776 168.052 105.364 168.388C105.952 168.712 106.408 169.198 106.732 169.846C107.068 170.482 107.236 171.25 107.236 172.15V178H104.716V172.492C104.716 171.7 104.518 171.094 104.122 170.674C103.726 170.242 103.186 170.026 102.502 170.026C101.806 170.026 101.254 170.242 100.846 170.674C100.45 171.094 100.252 171.7 100.252 172.492V178H97.7322V164.68H100.252V169.27C100.576 168.838 101.008 168.502 101.548 168.262C102.088 168.01 102.688 167.884 103.348 167.884ZM114.061 178.162C113.101 178.162 112.237 177.952 111.469 177.532C110.701 177.1 110.095 176.494 109.651 175.714C109.219 174.934 109.003 174.034 109.003 173.014C109.003 171.994 109.225 171.094 109.669 170.314C110.125 169.534 110.743 168.934 111.523 168.514C112.303 168.082 113.173 167.866 114.133 167.866C115.093 167.866 115.963 168.082 116.743 168.514C117.523 168.934 118.135 169.534 118.579 170.314C119.035 171.094 119.263 171.994 119.263 173.014C119.263 174.034 119.029 174.934 118.561 175.714C118.105 176.494 117.481 177.1 116.689 177.532C115.909 177.952 115.033 178.162 114.061 178.162ZM114.061 175.966C114.517 175.966 114.943 175.858 115.339 175.642C115.747 175.414 116.071 175.078 116.311 174.634C116.551 174.19 116.671 173.65 116.671 173.014C116.671 172.066 116.419 171.34 115.915 170.836C115.423 170.32 114.817 170.062 114.097 170.062C113.377 170.062 112.771 170.32 112.279 170.836C111.799 171.34 111.559 172.066 111.559 173.014C111.559 173.962 111.793 174.694 112.261 175.21C112.741 175.714 113.341 175.966 114.061 175.966ZM133.495 167.884C134.719 167.884 135.703 168.262 136.447 169.018C137.203 169.762 137.581 170.806 137.581 172.15V178H135.061V172.492C135.061 171.712 134.863 171.118 134.467 170.71C134.071 170.29 133.531 170.08 132.847 170.08C132.163 170.08 131.617 170.29 131.209 170.71C130.813 171.118 130.615 171.712 130.615 172.492V178H128.095V172.492C128.095 171.712 127.897 171.118 127.501 170.71C127.105 170.29 126.565 170.08 125.881 170.08C125.185 170.08 124.633 170.29 124.225 170.71C123.829 171.118 123.631 171.712 123.631 172.492V178H121.111V168.028H123.631V169.234C123.955 168.814 124.369 168.484 124.873 168.244C125.389 168.004 125.953 167.884 126.565 167.884C127.345 167.884 128.041 168.052 128.653 168.388C129.265 168.712 129.739 169.18 130.075 169.792C130.399 169.216 130.867 168.754 131.479 168.406C132.103 168.058 132.775 167.884 133.495 167.884ZM139.324 172.978C139.324 171.97 139.522 171.076 139.918 170.296C140.326 169.516 140.872 168.916 141.556 168.496C142.252 168.076 143.026 167.866 143.878 167.866C144.622 167.866 145.27 168.016 145.822 168.316C146.386 168.616 146.836 168.994 147.172 169.45V168.028H149.71V178H147.172V176.542C146.848 177.01 146.398 177.4 145.822 177.712C145.258 178.012 144.604 178.162 143.86 178.162C143.02 178.162 142.252 177.946 141.556 177.514C140.872 177.082 140.326 176.476 139.918 175.696C139.522 174.904 139.324 173.998 139.324 172.978ZM147.172 173.014C147.172 172.402 147.052 171.88 146.812 171.448C146.572 171.004 146.248 170.668 145.84 170.44C145.432 170.2 144.994 170.08 144.526 170.08C144.058 170.08 143.626 170.194 143.23 170.422C142.834 170.65 142.51 170.986 142.258 171.43C142.018 171.862 141.898 172.378 141.898 172.978C141.898 173.578 142.018 174.106 142.258 174.562C142.51 175.006 142.834 175.348 143.23 175.588C143.638 175.828 144.07 175.948 144.526 175.948C144.994 175.948 145.432 175.834 145.84 175.606C146.248 175.366 146.572 175.03 146.812 174.598C147.052 174.154 147.172 173.626 147.172 173.014ZM155.988 178.162C155.172 178.162 154.44 178.018 153.792 177.73C153.144 177.43 152.628 177.028 152.244 176.524C151.872 176.02 151.668 175.462 151.632 174.85H154.17C154.218 175.234 154.404 175.552 154.728 175.804C155.064 176.056 155.478 176.182 155.97 176.182C156.45 176.182 156.822 176.086 157.086 175.894C157.362 175.702 157.5 175.456 157.5 175.156C157.5 174.832 157.332 174.592 156.996 174.436C156.672 174.268 156.15 174.088 155.43 173.896C154.686 173.716 154.074 173.53 153.594 173.338C153.126 173.146 152.718 172.852 152.37 172.456C152.034 172.06 151.866 171.526 151.866 170.854C151.866 170.302 152.022 169.798 152.334 169.342C152.658 168.886 153.114 168.526 153.702 168.262C154.302 167.998 155.004 167.866 155.808 167.866C156.996 167.866 157.944 168.166 158.652 168.766C159.36 169.354 159.75 170.152 159.822 171.16H157.41C157.374 170.764 157.206 170.452 156.906 170.224C156.618 169.984 156.228 169.864 155.736 169.864C155.28 169.864 154.926 169.948 154.674 170.116C154.434 170.284 154.314 170.518 154.314 170.818C154.314 171.154 154.482 171.412 154.818 171.592C155.154 171.76 155.676 171.934 156.384 172.114C157.104 172.294 157.698 172.48 158.166 172.672C158.634 172.864 159.036 173.164 159.372 173.572C159.72 173.968 159.9 174.496 159.912 175.156C159.912 175.732 159.75 176.248 159.426 176.704C159.114 177.16 158.658 177.52 158.058 177.784C157.47 178.036 156.78 178.162 155.988 178.162Z" fill="#5E6282"/>
<path d="M34.518 200.114C34.518 199.162 34.7373 198.308 35.176 197.552C35.624 196.796 36.226 196.208 36.982 195.788C37.7473 195.359 38.5827 195.144 39.488 195.144C40.524 195.144 41.4433 195.401 42.246 195.914C43.058 196.418 43.646 197.137 44.01 198.07H42.092C41.84 197.557 41.49 197.174 41.042 196.922C40.594 196.67 40.076 196.544 39.488 196.544C38.844 196.544 38.27 196.689 37.766 196.978C37.262 197.267 36.8653 197.683 36.576 198.224C36.296 198.765 36.156 199.395 36.156 200.114C36.156 200.833 36.296 201.463 36.576 202.004C36.8653 202.545 37.262 202.965 37.766 203.264C38.27 203.553 38.844 203.698 39.488 203.698C40.076 203.698 40.594 203.572 41.042 203.32C41.49 203.068 41.84 202.685 42.092 202.172H44.01C43.646 203.105 43.058 203.824 42.246 204.328C41.4433 204.832 40.524 205.084 39.488 205.084C38.5733 205.084 37.738 204.874 36.982 204.454C36.226 204.025 35.624 203.432 35.176 202.676C34.7373 201.92 34.518 201.066 34.518 200.114ZM47.4741 196.558V199.414H50.8341V200.716H47.4741V203.698H51.2541V205H45.8781V195.256H51.2541V196.558H47.4741ZM57.6579 205.098C56.7526 205.098 55.9173 204.888 55.1519 204.468C54.3959 204.039 53.7939 203.446 53.3459 202.69C52.9073 201.925 52.6879 201.066 52.6879 200.114C52.6879 199.162 52.9073 198.308 53.3459 197.552C53.7939 196.796 54.3959 196.208 55.1519 195.788C55.9173 195.359 56.7526 195.144 57.6579 195.144C58.5726 195.144 59.4079 195.359 60.1639 195.788C60.9293 196.208 61.5313 196.796 61.9699 197.552C62.4086 198.308 62.6279 199.162 62.6279 200.114C62.6279 201.066 62.4086 201.925 61.9699 202.69C61.5313 203.446 60.9293 204.039 60.1639 204.468C59.4079 204.888 58.5726 205.098 57.6579 205.098ZM57.6579 203.712C58.3019 203.712 58.8759 203.567 59.3799 203.278C59.8839 202.979 60.2759 202.559 60.5559 202.018C60.8453 201.467 60.9899 200.833 60.9899 200.114C60.9899 199.395 60.8453 198.765 60.5559 198.224C60.2759 197.683 59.8839 197.267 59.3799 196.978C58.8759 196.689 58.3019 196.544 57.6579 196.544C57.0139 196.544 56.4399 196.689 55.9359 196.978C55.4319 197.267 55.0353 197.683 54.7459 198.224C54.4659 198.765 54.3259 199.395 54.3259 200.114C54.3259 200.833 54.4659 201.467 54.7459 202.018C55.0353 202.559 55.4319 202.979 55.9359 203.278C56.4399 203.567 57.0139 203.712 57.6579 203.712ZM71.1812 205.126C70.4532 205.126 69.7952 204.963 69.2072 204.636C68.6192 204.3 68.1572 203.833 67.8212 203.236C67.4852 202.629 67.3172 201.929 67.3172 201.136C67.3172 200.352 67.4898 199.657 67.8352 199.05C68.1805 198.443 68.6518 197.977 69.2492 197.65C69.8465 197.323 70.5138 197.16 71.2512 197.16C71.9885 197.16 72.6558 197.323 73.2532 197.65C73.8505 197.977 74.3218 198.443 74.6672 199.05C75.0125 199.657 75.1852 200.352 75.1852 201.136C75.1852 201.92 75.0078 202.615 74.6532 203.222C74.2985 203.829 73.8132 204.3 73.1972 204.636C72.5905 204.963 71.9185 205.126 71.1812 205.126ZM71.1812 203.74C71.5918 203.74 71.9745 203.642 72.3292 203.446C72.6932 203.25 72.9872 202.956 73.2112 202.564C73.4352 202.172 73.5472 201.696 73.5472 201.136C73.5472 200.576 73.4398 200.105 73.2252 199.722C73.0105 199.33 72.7258 199.036 72.3712 198.84C72.0165 198.644 71.6338 198.546 71.2232 198.546C70.8125 198.546 70.4298 198.644 70.0752 198.84C69.7298 199.036 69.4545 199.33 69.2492 199.722C69.0438 200.105 68.9412 200.576 68.9412 201.136C68.9412 201.967 69.1512 202.611 69.5712 203.068C70.0005 203.516 70.5372 203.74 71.1812 203.74ZM79.9969 198.588H78.5689V205H76.9589V198.588H76.0489V197.286H76.9589V196.74C76.9589 195.853 77.1922 195.209 77.6589 194.808C78.1349 194.397 78.8769 194.192 79.8849 194.192V195.522C79.3996 195.522 79.0589 195.615 78.8629 195.802C78.6669 195.979 78.5689 196.292 78.5689 196.74V197.286H79.9969V198.588ZM90.102 205L87.862 201.108H86.644V205H85.048V195.27H88.408C89.1547 195.27 89.7847 195.401 90.298 195.662C90.8207 195.923 91.208 196.273 91.46 196.712C91.7214 197.151 91.852 197.641 91.852 198.182C91.852 198.817 91.6654 199.395 91.292 199.918C90.928 200.431 90.3634 200.781 89.598 200.968L92.006 205H90.102ZM86.644 199.834H88.408C89.0054 199.834 89.4534 199.685 89.752 199.386C90.06 199.087 90.214 198.686 90.214 198.182C90.214 197.678 90.0647 197.286 89.766 197.006C89.4674 196.717 89.0147 196.572 88.408 196.572H86.644V199.834ZM100.964 200.954C100.964 201.243 100.945 201.505 100.908 201.738H95.0138C95.0604 202.354 95.2891 202.849 95.6998 203.222C96.1104 203.595 96.6144 203.782 97.2118 203.782C98.0704 203.782 98.6771 203.423 99.0318 202.704H100.754C100.52 203.413 100.096 203.997 99.4798 204.454C98.8731 204.902 98.1171 205.126 97.2118 205.126C96.4744 205.126 95.8118 204.963 95.2238 204.636C94.6451 204.3 94.1878 203.833 93.8518 203.236C93.5251 202.629 93.3618 201.929 93.3618 201.136C93.3618 200.343 93.5204 199.647 93.8378 199.05C94.1644 198.443 94.6171 197.977 95.1958 197.65C95.7838 197.323 96.4558 197.16 97.2118 197.16C97.9398 197.16 98.5884 197.319 99.1578 197.636C99.7271 197.953 100.17 198.401 100.488 198.98C100.805 199.549 100.964 200.207 100.964 200.954ZM99.2978 200.45C99.2884 199.862 99.0784 199.391 98.6678 199.036C98.2571 198.681 97.7484 198.504 97.1418 198.504C96.5911 198.504 96.1198 198.681 95.7278 199.036C95.3358 199.381 95.1024 199.853 95.0278 200.45H99.2978ZM102.002 201.108C102.002 200.333 102.161 199.647 102.478 199.05C102.805 198.453 103.244 197.991 103.794 197.664C104.354 197.328 104.975 197.16 105.656 197.16C106.16 197.16 106.655 197.272 107.14 197.496C107.635 197.711 108.027 198 108.316 198.364V194.64H109.926V205H108.316V203.838C108.055 204.211 107.691 204.519 107.224 204.762C106.767 205.005 106.24 205.126 105.642 205.126C104.97 205.126 104.354 204.958 103.794 204.622C103.244 204.277 102.805 203.801 102.478 203.194C102.161 202.578 102.002 201.883 102.002 201.108ZM108.316 201.136C108.316 200.604 108.204 200.142 107.98 199.75C107.766 199.358 107.481 199.059 107.126 198.854C106.772 198.649 106.389 198.546 105.978 198.546C105.568 198.546 105.185 198.649 104.83 198.854C104.476 199.05 104.186 199.344 103.962 199.736C103.748 200.119 103.64 200.576 103.64 201.108C103.64 201.64 103.748 202.107 103.962 202.508C104.186 202.909 104.476 203.217 104.83 203.432C105.194 203.637 105.577 203.74 105.978 203.74C106.389 203.74 106.772 203.637 107.126 203.432C107.481 203.227 107.766 202.928 107.98 202.536C108.204 202.135 108.316 201.668 108.316 201.136ZM120.867 200.002C121.39 200.095 121.833 200.371 122.197 200.828C122.561 201.285 122.743 201.803 122.743 202.382C122.743 202.877 122.613 203.325 122.351 203.726C122.099 204.118 121.731 204.431 121.245 204.664C120.76 204.888 120.195 205 119.551 205H115.659V195.27H119.369C120.032 195.27 120.601 195.382 121.077 195.606C121.553 195.83 121.913 196.133 122.155 196.516C122.398 196.889 122.519 197.309 122.519 197.776C122.519 198.336 122.37 198.803 122.071 199.176C121.773 199.549 121.371 199.825 120.867 200.002ZM117.255 199.358H119.229C119.752 199.358 120.158 199.241 120.447 199.008C120.746 198.765 120.895 198.42 120.895 197.972C120.895 197.533 120.746 197.193 120.447 196.95C120.158 196.698 119.752 196.572 119.229 196.572H117.255V199.358ZM119.411 203.698C119.953 203.698 120.377 203.567 120.685 203.306C120.993 203.045 121.147 202.681 121.147 202.214C121.147 201.738 120.984 201.36 120.657 201.08C120.331 200.8 119.897 200.66 119.355 200.66H117.255V203.698H119.411ZM131.464 197.286V205H129.868V204.09C129.616 204.407 129.284 204.659 128.874 204.846C128.472 205.023 128.043 205.112 127.586 205.112C126.979 205.112 126.433 204.986 125.948 204.734C125.472 204.482 125.094 204.109 124.814 203.614C124.543 203.119 124.408 202.522 124.408 201.822V197.286H125.99V201.584C125.99 202.275 126.162 202.807 126.508 203.18C126.853 203.544 127.324 203.726 127.922 203.726C128.519 203.726 128.99 203.544 129.336 203.18C129.69 202.807 129.868 202.275 129.868 201.584V197.286H131.464ZM135.432 198.588V202.858C135.432 203.147 135.497 203.357 135.628 203.488C135.768 203.609 136.001 203.67 136.328 203.67H137.308V205H136.048C135.329 205 134.778 204.832 134.396 204.496C134.013 204.16 133.822 203.614 133.822 202.858V198.588H132.912V197.286H133.822V195.368H135.432V197.286H137.308V198.588H135.432ZM140.641 198.588V202.858C140.641 203.147 140.706 203.357 140.837 203.488C140.977 203.609 141.21 203.67 141.537 203.67H142.517V205H141.257C140.538 205 139.987 204.832 139.605 204.496C139.222 204.16 139.031 203.614 139.031 202.858V198.588H138.121V197.286H139.031V195.368H140.641V197.286H142.517V198.588H140.641ZM147.334 205.126C146.606 205.126 145.948 204.963 145.36 204.636C144.772 204.3 144.31 203.833 143.974 203.236C143.638 202.629 143.47 201.929 143.47 201.136C143.47 200.352 143.642 199.657 143.988 199.05C144.333 198.443 144.804 197.977 145.402 197.65C145.999 197.323 146.666 197.16 147.404 197.16C148.141 197.16 148.808 197.323 149.406 197.65C150.003 197.977 150.474 198.443 150.82 199.05C151.165 199.657 151.338 200.352 151.338 201.136C151.338 201.92 151.16 202.615 150.806 203.222C150.451 203.829 149.966 204.3 149.35 204.636C148.743 204.963 148.071 205.126 147.334 205.126ZM147.334 203.74C147.744 203.74 148.127 203.642 148.482 203.446C148.846 203.25 149.14 202.956 149.364 202.564C149.588 202.172 149.7 201.696 149.7 201.136C149.7 200.576 149.592 200.105 149.378 199.722C149.163 199.33 148.878 199.036 148.524 198.84C148.169 198.644 147.786 198.546 147.376 198.546C146.965 198.546 146.582 198.644 146.228 198.84C145.882 199.036 145.607 199.33 145.402 199.722C145.196 200.105 145.094 200.576 145.094 201.136C145.094 201.967 145.304 202.611 145.724 203.068C146.153 203.516 146.69 203.74 147.334 203.74ZM156.807 197.16C157.414 197.16 157.955 197.286 158.431 197.538C158.917 197.79 159.295 198.163 159.565 198.658C159.836 199.153 159.971 199.75 159.971 200.45V205H158.389V200.688C158.389 199.997 158.217 199.47 157.871 199.106C157.526 198.733 157.055 198.546 156.457 198.546C155.86 198.546 155.384 198.733 155.029 199.106C154.684 199.47 154.511 199.997 154.511 200.688V205H152.915V197.286H154.511V198.168C154.773 197.851 155.104 197.603 155.505 197.426C155.916 197.249 156.35 197.16 156.807 197.16Z" fill="#5E6282"/>
</svg>
