<svg width="506" height="245" viewBox="0 0 506 245" fill="none" xmlns="http://www.w3.org/2000/svg">
<rect width="505.703" height="245" rx="10" fill="white"/>
<path d="M34.7069 44.416C34.7069 43.328 34.9575 42.352 35.4589 41.488C35.9709 40.624 36.6589 39.952 37.5229 39.472C38.3975 38.9813 39.3522 38.736 40.3869 38.736C41.5709 38.736 42.6215 39.0293 43.5389 39.616C44.4669 40.192 45.1389 41.0133 45.5549 42.08H43.3629C43.0749 41.4933 42.6749 41.056 42.1629 40.768C41.6509 40.48 41.0589 40.336 40.3869 40.336C39.6509 40.336 38.9949 40.5013 38.4189 40.832C37.8429 41.1627 37.3895 41.6373 37.0589 42.256C36.7389 42.8747 36.5789 43.5947 36.5789 44.416C36.5789 45.2373 36.7389 45.9573 37.0589 46.576C37.3895 47.1947 37.8429 47.6747 38.4189 48.016C38.9949 48.3467 39.6509 48.512 40.3869 48.512C41.0589 48.512 41.6509 48.368 42.1629 48.08C42.6749 47.792 43.0749 47.3547 43.3629 46.768H45.5549C45.1389 47.8347 44.4669 48.656 43.5389 49.232C42.6215 49.808 41.5709 50.096 40.3869 50.096C39.3415 50.096 38.3869 49.856 37.5229 49.376C36.6589 48.8853 35.9709 48.208 35.4589 47.344C34.9575 46.48 34.7069 45.504 34.7069 44.416ZM49.5139 42.464C49.7805 42.016 50.1325 41.6693 50.5699 41.424C51.0179 41.168 51.5459 41.04 52.1539 41.04V42.928H51.6899C50.9752 42.928 50.4312 43.1093 50.0579 43.472C49.6952 43.8347 49.5139 44.464 49.5139 45.36V50H47.6899V41.184H49.5139V42.464ZM53.2225 45.552C53.2225 44.6667 53.4038 43.8827 53.7665 43.2C54.1398 42.5173 54.6412 41.9893 55.2705 41.616C55.9105 41.232 56.6145 41.04 57.3825 41.04C58.0758 41.04 58.6785 41.1787 59.1905 41.456C59.7132 41.7227 60.1292 42.0587 60.4385 42.464V41.184H62.2785V50H60.4385V48.688C60.1292 49.104 59.7078 49.4507 59.1745 49.728C58.6412 50.0053 58.0332 50.144 57.3505 50.144C56.5932 50.144 55.8998 49.952 55.2705 49.568C54.6412 49.1733 54.1398 48.6293 53.7665 47.936C53.4038 47.232 53.2225 46.4373 53.2225 45.552ZM60.4385 45.584C60.4385 44.976 60.3105 44.448 60.0545 44C59.8092 43.552 59.4838 43.2107 59.0785 42.976C58.6732 42.7413 58.2358 42.624 57.7665 42.624C57.2972 42.624 56.8598 42.7413 56.4545 42.976C56.0492 43.2 55.7185 43.536 55.4625 43.984C55.2172 44.4213 55.0945 44.944 55.0945 45.552C55.0945 46.16 55.2172 46.6933 55.4625 47.152C55.7185 47.6107 56.0492 47.9627 56.4545 48.208C56.8705 48.4427 57.3078 48.56 57.7665 48.56C58.2358 48.56 58.6732 48.4427 59.0785 48.208C59.4838 47.9733 59.8092 47.632 60.0545 47.184C60.3105 46.7253 60.4385 46.192 60.4385 45.584ZM67.8742 50.144C67.1809 50.144 66.5569 50.0213 66.0022 49.776C65.4582 49.52 65.0262 49.1787 64.7062 48.752C64.3862 48.3147 64.2156 47.8293 64.1942 47.296H66.0822C66.1142 47.6693 66.2902 47.984 66.6102 48.24C66.9409 48.4853 67.3516 48.608 67.8422 48.608C68.3542 48.608 68.7489 48.512 69.0262 48.32C69.3142 48.1173 69.4582 47.8613 69.4582 47.552C69.4582 47.2213 69.2982 46.976 68.9782 46.816C68.6689 46.656 68.1729 46.48 67.4902 46.288C66.8289 46.1067 66.2902 45.9307 65.8742 45.76C65.4582 45.5893 65.0956 45.328 64.7862 44.976C64.4876 44.624 64.3382 44.16 64.3382 43.584C64.3382 43.1147 64.4769 42.688 64.7542 42.304C65.0316 41.9093 65.4262 41.6 65.9382 41.376C66.4609 41.152 67.0582 41.04 67.7302 41.04C68.7329 41.04 69.5382 41.296 70.1462 41.808C70.7649 42.3093 71.0956 42.9973 71.1382 43.872H69.3142C69.2822 43.4773 69.1222 43.1627 68.8342 42.928C68.5462 42.6933 68.1569 42.576 67.6662 42.576C67.1862 42.576 66.8182 42.6667 66.5622 42.848C66.3062 43.0293 66.1782 43.2693 66.1782 43.568C66.1782 43.8027 66.2636 44 66.4342 44.16C66.6049 44.32 66.8129 44.448 67.0582 44.544C67.3036 44.6293 67.6662 44.7413 68.1462 44.88C68.7862 45.0507 69.3089 45.2267 69.7142 45.408C70.1302 45.5787 70.4876 45.8347 70.7862 46.176C71.0849 46.5173 71.2396 46.9707 71.2502 47.536C71.2502 48.0373 71.1116 48.4853 70.8342 48.88C70.5569 49.2747 70.1622 49.584 69.6502 49.808C69.1489 50.032 68.5569 50.144 67.8742 50.144ZM85.4574 45.376C85.4574 45.7067 85.436 46.0053 85.3934 46.272H78.6574C78.7107 46.976 78.972 47.5413 79.4414 47.968C79.9107 48.3947 80.4867 48.608 81.1694 48.608C82.1507 48.608 82.844 48.1973 83.2494 47.376H85.2174C84.9507 48.1867 84.4654 48.8533 83.7614 49.376C83.068 49.888 82.204 50.144 81.1694 50.144C80.3267 50.144 79.5694 49.9573 78.8974 49.584C78.236 49.2 77.7134 48.6667 77.3294 47.984C76.956 47.2907 76.7694 46.4907 76.7694 45.584C76.7694 44.6773 76.9507 43.8827 77.3134 43.2C77.6867 42.5067 78.204 41.9733 78.8654 41.6C79.5374 41.2267 80.3054 41.04 81.1694 41.04C82.0014 41.04 82.7427 41.2213 83.3934 41.584C84.044 41.9467 84.5507 42.4587 84.9134 43.12C85.276 43.7707 85.4574 44.5227 85.4574 45.376ZM83.5534 44.8C83.5427 44.128 83.3027 43.5893 82.8334 43.184C82.364 42.7787 81.7827 42.576 81.0894 42.576C80.46 42.576 79.9214 42.7787 79.4734 43.184C79.0254 43.5787 78.7587 44.1173 78.6734 44.8H83.5534ZM91.0284 45.536L93.8764 50H91.8124L89.9084 47.008L88.1164 50H86.2124L89.0604 45.664L86.2124 41.184H88.2764L90.1804 44.176L91.9724 41.184H93.8764L91.0284 45.536ZM98.785 45.552C98.785 44.6667 98.9663 43.8827 99.329 43.2C99.7023 42.5173 100.204 41.9893 100.833 41.616C101.473 41.232 102.182 41.04 102.961 41.04C103.537 41.04 104.102 41.168 104.657 41.424C105.222 41.6693 105.67 42 106.001 42.416V38.16H107.841V50H106.001V48.672C105.702 49.0987 105.286 49.4507 104.753 49.728C104.23 50.0053 103.628 50.144 102.945 50.144C102.177 50.144 101.473 49.952 100.833 49.568C100.204 49.1733 99.7023 48.6293 99.329 47.936C98.9663 47.232 98.785 46.4373 98.785 45.552ZM106.001 45.584C106.001 44.976 105.873 44.448 105.617 44C105.372 43.552 105.046 43.2107 104.641 42.976C104.236 42.7413 103.798 42.624 103.329 42.624C102.86 42.624 102.422 42.7413 102.017 42.976C101.612 43.2 101.281 43.536 101.025 43.984C100.78 44.4213 100.657 44.944 100.657 45.552C100.657 46.16 100.78 46.6933 101.025 47.152C101.281 47.6107 101.612 47.9627 102.017 48.208C102.433 48.4427 102.87 48.56 103.329 48.56C103.798 48.56 104.236 48.4427 104.641 48.208C105.046 47.9733 105.372 47.632 105.617 47.184C105.873 46.7253 106.001 46.192 106.001 45.584ZM114.061 50.144C113.229 50.144 112.477 49.9573 111.805 49.584C111.133 49.2 110.605 48.6667 110.221 47.984C109.837 47.2907 109.645 46.4907 109.645 45.584C109.645 44.688 109.842 43.8933 110.237 43.2C110.631 42.5067 111.17 41.9733 111.853 41.6C112.535 41.2267 113.298 41.04 114.141 41.04C114.983 41.04 115.746 41.2267 116.429 41.6C117.111 41.9733 117.65 42.5067 118.045 43.2C118.439 43.8933 118.637 44.688 118.637 45.584C118.637 46.48 118.434 47.2747 118.029 47.968C117.623 48.6613 117.069 49.2 116.365 49.584C115.671 49.9573 114.903 50.144 114.061 50.144ZM114.061 48.56C114.53 48.56 114.967 48.448 115.373 48.224C115.789 48 116.125 47.664 116.381 47.216C116.637 46.768 116.765 46.224 116.765 45.584C116.765 44.944 116.642 44.4053 116.397 43.968C116.151 43.52 115.826 43.184 115.421 42.96C115.015 42.736 114.578 42.624 114.109 42.624C113.639 42.624 113.202 42.736 112.797 42.96C112.402 43.184 112.087 43.52 111.853 43.968C111.618 44.4053 111.501 44.944 111.501 45.584C111.501 46.5333 111.741 47.2693 112.221 47.792C112.711 48.304 113.325 48.56 114.061 48.56ZM122.264 38.16V50H120.44V38.16H122.264ZM128.483 50.144C127.651 50.144 126.899 49.9573 126.227 49.584C125.555 49.2 125.027 48.6667 124.643 47.984C124.259 47.2907 124.067 46.4907 124.067 45.584C124.067 44.688 124.264 43.8933 124.659 43.2C125.053 42.5067 125.592 41.9733 126.275 41.6C126.957 41.2267 127.72 41.04 128.563 41.04C129.405 41.04 130.168 41.2267 130.851 41.6C131.533 41.9733 132.072 42.5067 132.467 43.2C132.861 43.8933 133.059 44.688 133.059 45.584C133.059 46.48 132.856 47.2747 132.451 47.968C132.045 48.6613 131.491 49.2 130.787 49.584C130.093 49.9573 129.325 50.144 128.483 50.144ZM128.483 48.56C128.952 48.56 129.389 48.448 129.795 48.224C130.211 48 130.547 47.664 130.803 47.216C131.059 46.768 131.187 46.224 131.187 45.584C131.187 44.944 131.064 44.4053 130.819 43.968C130.573 43.52 130.248 43.184 129.843 42.96C129.437 42.736 129 42.624 128.531 42.624C128.061 42.624 127.624 42.736 127.219 42.96C126.824 43.184 126.509 43.52 126.275 43.968C126.04 44.4053 125.923 44.944 125.923 45.584C125.923 46.5333 126.163 47.2693 126.643 47.792C127.133 48.304 127.747 48.56 128.483 48.56ZM136.686 42.464C136.952 42.016 137.304 41.6693 137.742 41.424C138.19 41.168 138.718 41.04 139.326 41.04V42.928H138.862C138.147 42.928 137.603 43.1093 137.23 43.472C136.867 43.8347 136.686 44.464 136.686 45.36V50H134.862V41.184H136.686V42.464ZM143.002 47.808L141.066 52.224H139.882L141.018 47.808H143.002ZM156.832 45.376C156.832 45.7067 156.811 46.0053 156.768 46.272H150.032C150.086 46.976 150.347 47.5413 150.816 47.968C151.286 48.3947 151.862 48.608 152.544 48.608C153.526 48.608 154.219 48.1973 154.624 47.376H156.592C156.326 48.1867 155.84 48.8533 155.136 49.376C154.443 49.888 153.579 50.144 152.544 50.144C151.702 50.144 150.944 49.9573 150.272 49.584C149.611 49.2 149.088 48.6667 148.704 47.984C148.331 47.2907 148.144 46.4907 148.144 45.584C148.144 44.6773 148.326 43.8827 148.688 43.2C149.062 42.5067 149.579 41.9733 150.24 41.6C150.912 41.2267 151.68 41.04 152.544 41.04C153.376 41.04 154.118 41.2213 154.768 41.584C155.419 41.9467 155.926 42.4587 156.288 43.12C156.651 43.7707 156.832 44.5227 156.832 45.376ZM154.928 44.8C154.918 44.128 154.678 43.5893 154.208 43.184C153.739 42.7787 153.158 42.576 152.464 42.576C151.835 42.576 151.296 42.7787 150.848 43.184C150.4 43.5787 150.134 44.1173 150.048 44.8H154.928ZM160.451 38.16V50H158.627V38.16H160.451ZM170.926 45.376C170.926 45.7067 170.905 46.0053 170.862 46.272H164.126C164.179 46.976 164.441 47.5413 164.91 47.968C165.379 48.3947 165.955 48.608 166.638 48.608C167.619 48.608 168.313 48.1973 168.718 47.376H170.686C170.419 48.1867 169.934 48.8533 169.23 49.376C168.537 49.888 167.673 50.144 166.638 50.144C165.795 50.144 165.038 49.9573 164.366 49.584C163.705 49.2 163.182 48.6667 162.798 47.984C162.425 47.2907 162.238 46.4907 162.238 45.584C162.238 44.6773 162.419 43.8827 162.782 43.2C163.155 42.5067 163.673 41.9733 164.334 41.6C165.006 41.2267 165.774 41.04 166.638 41.04C167.47 41.04 168.211 41.2213 168.862 41.584C169.513 41.9467 170.019 42.4587 170.382 43.12C170.745 43.7707 170.926 44.5227 170.926 45.376ZM169.022 44.8C169.011 44.128 168.771 43.5893 168.302 43.184C167.833 42.7787 167.251 42.576 166.558 42.576C165.929 42.576 165.39 42.7787 164.942 43.184C164.494 43.5787 164.227 44.1173 164.142 44.8H169.022ZM183.393 41.04C184.086 41.04 184.705 41.184 185.249 41.472C185.804 41.76 186.236 42.1867 186.545 42.752C186.865 43.3173 187.025 44 187.025 44.8V50H185.217V45.072C185.217 44.2827 185.02 43.68 184.625 43.264C184.23 42.8373 183.692 42.624 183.009 42.624C182.326 42.624 181.782 42.8373 181.377 43.264C180.982 43.68 180.785 44.2827 180.785 45.072V50H178.977V45.072C178.977 44.2827 178.78 43.68 178.385 43.264C177.99 42.8373 177.452 42.624 176.769 42.624C176.086 42.624 175.542 42.8373 175.137 43.264C174.742 43.68 174.545 44.2827 174.545 45.072V50H172.721V41.184H174.545V42.192C174.844 41.8293 175.222 41.5467 175.681 41.344C176.14 41.1413 176.63 41.04 177.153 41.04C177.857 41.04 178.486 41.1893 179.041 41.488C179.596 41.7867 180.022 42.2187 180.321 42.784C180.588 42.2507 181.004 41.8293 181.569 41.52C182.134 41.2 182.742 41.04 183.393 41.04ZM197.426 45.376C197.426 45.7067 197.405 46.0053 197.362 46.272H190.626C190.679 46.976 190.941 47.5413 191.41 47.968C191.879 48.3947 192.455 48.608 193.138 48.608C194.119 48.608 194.813 48.1973 195.218 47.376H197.186C196.919 48.1867 196.434 48.8533 195.73 49.376C195.037 49.888 194.173 50.144 193.138 50.144C192.295 50.144 191.538 49.9573 190.866 49.584C190.205 49.2 189.682 48.6667 189.298 47.984C188.925 47.2907 188.738 46.4907 188.738 45.584C188.738 44.6773 188.919 43.8827 189.282 43.2C189.655 42.5067 190.173 41.9733 190.834 41.6C191.506 41.2267 192.274 41.04 193.138 41.04C193.97 41.04 194.711 41.2213 195.362 41.584C196.013 41.9467 196.519 42.4587 196.882 43.12C197.245 43.7707 197.426 44.5227 197.426 45.376ZM195.522 44.8C195.511 44.128 195.271 43.5893 194.802 43.184C194.333 42.7787 193.751 42.576 193.058 42.576C192.429 42.576 191.89 42.7787 191.442 43.184C190.994 43.5787 190.727 44.1173 190.642 44.8H195.522ZM203.669 41.04C204.362 41.04 204.981 41.184 205.525 41.472C206.08 41.76 206.512 42.1867 206.821 42.752C207.13 43.3173 207.285 44 207.285 44.8V50H205.477V45.072C205.477 44.2827 205.28 43.68 204.885 43.264C204.49 42.8373 203.952 42.624 203.269 42.624C202.586 42.624 202.042 42.8373 201.637 43.264C201.242 43.68 201.045 44.2827 201.045 45.072V50H199.221V41.184H201.045V42.192C201.344 41.8293 201.722 41.5467 202.181 41.344C202.65 41.1413 203.146 41.04 203.669 41.04ZM211.74 42.672V47.552C211.74 47.8827 211.814 48.1227 211.964 48.272C212.124 48.4107 212.39 48.48 212.764 48.48H213.884V50H212.444C211.622 50 210.993 49.808 210.556 49.424C210.118 49.04 209.9 48.416 209.9 47.552V42.672H208.86V41.184H209.9V38.992H211.74V41.184H213.884V42.672H211.74ZM223.549 41.184V50H221.725V48.96C221.437 49.3227 221.058 49.6107 220.589 49.824C220.13 50.0267 219.64 50.128 219.117 50.128C218.424 50.128 217.8 49.984 217.245 49.696C216.701 49.408 216.269 48.9813 215.949 48.416C215.64 47.8507 215.485 47.168 215.485 46.368V41.184H217.293V46.096C217.293 46.8853 217.49 47.4933 217.885 47.92C218.28 48.336 218.818 48.544 219.501 48.544C220.184 48.544 220.722 48.336 221.117 47.92C221.522 47.4933 221.725 46.8853 221.725 46.096V41.184H223.549ZM236.627 41.04C237.321 41.04 237.939 41.184 238.483 41.472C239.038 41.76 239.47 42.1867 239.779 42.752C240.099 43.3173 240.259 44 240.259 44.8V50H238.451V45.072C238.451 44.2827 238.254 43.68 237.859 43.264C237.465 42.8373 236.926 42.624 236.243 42.624C235.561 42.624 235.017 42.8373 234.611 43.264C234.217 43.68 234.019 44.2827 234.019 45.072V50H232.211V45.072C232.211 44.2827 232.014 43.68 231.619 43.264C231.225 42.8373 230.686 42.624 230.003 42.624C229.321 42.624 228.777 42.8373 228.371 43.264C227.977 43.68 227.779 44.2827 227.779 45.072V50H225.955V41.184H227.779V42.192C228.078 41.8293 228.457 41.5467 228.915 41.344C229.374 41.1413 229.865 41.04 230.387 41.04C231.091 41.04 231.721 41.1893 232.275 41.488C232.83 41.7867 233.257 42.2187 233.555 42.784C233.822 42.2507 234.238 41.8293 234.803 41.52C235.369 41.2 235.977 41.04 236.627 41.04ZM250.145 48.368L252.641 41.184H254.577L251.217 50H249.041L245.697 41.184H247.649L250.145 48.368ZM264.035 45.376C264.035 45.7067 264.014 46.0053 263.971 46.272H257.235C257.289 46.976 257.55 47.5413 258.019 47.968C258.489 48.3947 259.065 48.608 259.747 48.608C260.729 48.608 261.422 48.1973 261.827 47.376H263.795C263.529 48.1867 263.043 48.8533 262.339 49.376C261.646 49.888 260.782 50.144 259.747 50.144C258.905 50.144 258.147 49.9573 257.475 49.584C256.814 49.2 256.291 48.6667 255.907 47.984C255.534 47.2907 255.347 46.4907 255.347 45.584C255.347 44.6773 255.529 43.8827 255.891 43.2C256.265 42.5067 256.782 41.9733 257.443 41.6C258.115 41.2267 258.883 41.04 259.747 41.04C260.579 41.04 261.321 41.2213 261.971 41.584C262.622 41.9467 263.129 42.4587 263.491 43.12C263.854 43.7707 264.035 44.5227 264.035 45.376ZM262.131 44.8C262.121 44.128 261.881 43.5893 261.411 43.184C260.942 42.7787 260.361 42.576 259.667 42.576C259.038 42.576 258.499 42.7787 258.051 43.184C257.603 43.5787 257.337 44.1173 257.251 44.8H262.131ZM267.654 38.16V50H265.83V38.16H267.654ZM276.029 42.48C276.339 42.0747 276.76 41.7333 277.293 41.456C277.827 41.1787 278.429 41.04 279.101 41.04C279.869 41.04 280.568 41.232 281.197 41.616C281.837 41.9893 282.339 42.5173 282.701 43.2C283.064 43.8827 283.245 44.6667 283.245 45.552C283.245 46.4373 283.064 47.232 282.701 47.936C282.339 48.6293 281.837 49.1733 281.197 49.568C280.568 49.952 279.869 50.144 279.101 50.144C278.429 50.144 277.832 50.0107 277.309 49.744C276.787 49.4667 276.36 49.1253 276.029 48.72V54.192H274.205V41.184H276.029V42.48ZM281.389 45.552C281.389 44.944 281.261 44.4213 281.005 43.984C280.76 43.536 280.429 43.2 280.013 42.976C279.608 42.7413 279.171 42.624 278.701 42.624C278.243 42.624 277.805 42.7413 277.389 42.976C276.984 43.2107 276.653 43.552 276.397 44C276.152 44.448 276.029 44.976 276.029 45.584C276.029 46.192 276.152 46.7253 276.397 47.184C276.653 47.632 276.984 47.9733 277.389 48.208C277.805 48.4427 278.243 48.56 278.701 48.56C279.171 48.56 279.608 48.4427 280.013 48.208C280.429 47.9627 280.76 47.6107 281.005 47.152C281.261 46.6933 281.389 46.16 281.389 45.552ZM293.033 41.184V50H291.209V48.96C290.921 49.3227 290.543 49.6107 290.073 49.824C289.615 50.0267 289.124 50.128 288.601 50.128C287.908 50.128 287.284 49.984 286.729 49.696C286.185 49.408 285.753 48.9813 285.433 48.416C285.124 47.8507 284.969 47.168 284.969 46.368V41.184H286.777V46.096C286.777 46.8853 286.975 47.4933 287.369 47.92C287.764 48.336 288.303 48.544 288.985 48.544C289.668 48.544 290.207 48.336 290.601 47.92C291.007 47.4933 291.209 46.8853 291.209 46.096V41.184H293.033ZM297.264 38.16V50H295.44V38.16H297.264ZM303.067 48.368L305.563 41.184H307.499L304.139 50H301.963L298.619 41.184H300.571L303.067 48.368ZM309.805 40.016C309.475 40.016 309.197 39.904 308.973 39.68C308.749 39.456 308.637 39.1787 308.637 38.848C308.637 38.5173 308.749 38.24 308.973 38.016C309.197 37.792 309.475 37.68 309.805 37.68C310.125 37.68 310.397 37.792 310.621 38.016C310.845 38.24 310.957 38.5173 310.957 38.848C310.957 39.1787 310.845 39.456 310.621 39.68C310.397 39.904 310.125 40.016 309.805 40.016ZM310.701 41.184V50H308.877V41.184H310.701ZM317.544 41.04C318.237 41.04 318.856 41.184 319.4 41.472C319.955 41.76 320.387 42.1867 320.696 42.752C321.005 43.3173 321.16 44 321.16 44.8V50H319.352V45.072C319.352 44.2827 319.155 43.68 318.76 43.264C318.365 42.8373 317.827 42.624 317.144 42.624C316.461 42.624 315.917 42.8373 315.512 43.264C315.117 43.68 314.92 44.2827 314.92 45.072V50H313.096V41.184H314.92V42.192C315.219 41.8293 315.597 41.5467 316.056 41.344C316.525 41.1413 317.021 41.04 317.544 41.04ZM322.879 45.552C322.879 44.6667 323.06 43.8827 323.423 43.2C323.796 42.5173 324.297 41.9893 324.927 41.616C325.567 41.232 326.271 41.04 327.039 41.04C327.732 41.04 328.335 41.1787 328.847 41.456C329.369 41.7227 329.785 42.0587 330.095 42.464V41.184H331.935V50H330.095V48.688C329.785 49.104 329.364 49.4507 328.831 49.728C328.297 50.0053 327.689 50.144 327.007 50.144C326.249 50.144 325.556 49.952 324.927 49.568C324.297 49.1733 323.796 48.6293 323.423 47.936C323.06 47.232 322.879 46.4373 322.879 45.552ZM330.095 45.584C330.095 44.976 329.967 44.448 329.711 44C329.465 43.552 329.14 43.2107 328.735 42.976C328.329 42.7413 327.892 42.624 327.423 42.624C326.953 42.624 326.516 42.7413 326.111 42.976C325.705 43.2 325.375 43.536 325.119 43.984C324.873 44.4213 324.751 44.944 324.751 45.552C324.751 46.16 324.873 46.6933 325.119 47.152C325.375 47.6107 325.705 47.9627 326.111 48.208C326.527 48.4427 326.964 48.56 327.423 48.56C327.892 48.56 328.329 48.4427 328.735 48.208C329.14 47.9733 329.465 47.632 329.711 47.184C329.967 46.7253 330.095 46.192 330.095 45.584ZM336.154 42.464C336.421 42.016 336.773 41.6693 337.21 41.424C337.658 41.168 338.186 41.04 338.794 41.04V42.928H338.33C337.616 42.928 337.072 43.1093 336.698 43.472C336.336 43.8347 336.154 44.464 336.154 45.36V50H334.33V41.184H336.154V42.464ZM352.707 45.376C352.707 45.7067 352.686 46.0053 352.643 46.272H345.907C345.961 46.976 346.222 47.5413 346.691 47.968C347.161 48.3947 347.737 48.608 348.419 48.608C349.401 48.608 350.094 48.1973 350.499 47.376H352.467C352.201 48.1867 351.715 48.8533 351.011 49.376C350.318 49.888 349.454 50.144 348.419 50.144C347.577 50.144 346.819 49.9573 346.147 49.584C345.486 49.2 344.963 48.6667 344.579 47.984C344.206 47.2907 344.019 46.4907 344.019 45.584C344.019 44.6773 344.201 43.8827 344.563 43.2C344.937 42.5067 345.454 41.9733 346.115 41.6C346.787 41.2267 347.555 41.04 348.419 41.04C349.251 41.04 349.993 41.2213 350.643 41.584C351.294 41.9467 351.801 42.4587 352.163 43.12C352.526 43.7707 352.707 44.5227 352.707 45.376ZM350.803 44.8C350.793 44.128 350.553 43.5893 350.083 43.184C349.614 42.7787 349.033 42.576 348.339 42.576C347.71 42.576 347.171 42.7787 346.723 43.184C346.275 43.5787 346.009 44.1173 345.923 44.8H350.803ZM358.054 41.04C358.737 41.04 359.34 41.1787 359.862 41.456C360.396 41.7227 360.812 42.0587 361.11 42.464V41.184H362.95V50.144C362.95 50.9547 362.78 51.6747 362.438 52.304C362.097 52.944 361.601 53.4453 360.95 53.808C360.31 54.1707 359.542 54.352 358.646 54.352C357.452 54.352 356.46 54.0693 355.67 53.504C354.881 52.9493 354.433 52.192 354.326 51.232H356.134C356.273 51.6907 356.566 52.0587 357.014 52.336C357.473 52.624 358.017 52.768 358.646 52.768C359.382 52.768 359.974 52.544 360.422 52.096C360.881 51.648 361.11 50.9973 361.11 50.144V48.672C360.801 49.088 360.38 49.44 359.846 49.728C359.324 50.0053 358.726 50.144 358.054 50.144C357.286 50.144 356.582 49.952 355.942 49.568C355.313 49.1733 354.812 48.6293 354.438 47.936C354.076 47.232 353.894 46.4373 353.894 45.552C353.894 44.6667 354.076 43.8827 354.438 43.2C354.812 42.5173 355.313 41.9893 355.942 41.616C356.582 41.232 357.286 41.04 358.054 41.04ZM361.11 45.584C361.11 44.976 360.982 44.448 360.726 44C360.481 43.552 360.156 43.2107 359.75 42.976C359.345 42.7413 358.908 42.624 358.438 42.624C357.969 42.624 357.532 42.7413 357.126 42.976C356.721 43.2 356.39 43.536 356.134 43.984C355.889 44.4213 355.766 44.944 355.766 45.552C355.766 46.16 355.889 46.6933 356.134 47.152C356.39 47.6107 356.721 47.9627 357.126 48.208C357.542 48.4427 357.98 48.56 358.438 48.56C358.908 48.56 359.345 48.4427 359.75 48.208C360.156 47.9733 360.481 47.632 360.726 47.184C360.982 46.7253 361.11 46.192 361.11 45.584ZM373.426 45.376C373.426 45.7067 373.405 46.0053 373.362 46.272H366.626C366.679 46.976 366.941 47.5413 367.41 47.968C367.879 48.3947 368.455 48.608 369.138 48.608C370.119 48.608 370.813 48.1973 371.218 47.376H373.186C372.919 48.1867 372.434 48.8533 371.73 49.376C371.037 49.888 370.173 50.144 369.138 50.144C368.295 50.144 367.538 49.9573 366.866 49.584C366.205 49.2 365.682 48.6667 365.298 47.984C364.925 47.2907 364.738 46.4907 364.738 45.584C364.738 44.6773 364.919 43.8827 365.282 43.2C365.655 42.5067 366.173 41.9733 366.834 41.6C367.506 41.2267 368.274 41.04 369.138 41.04C369.97 41.04 370.711 41.2213 371.362 41.584C372.013 41.9467 372.519 42.4587 372.882 43.12C373.245 43.7707 373.426 44.5227 373.426 45.376ZM371.522 44.8C371.511 44.128 371.271 43.5893 370.802 43.184C370.333 42.7787 369.751 42.576 369.058 42.576C368.429 42.576 367.89 42.7787 367.442 43.184C366.994 43.5787 366.727 44.1173 366.642 44.8H371.522ZM377.349 42.672V47.552C377.349 47.8827 377.424 48.1227 377.573 48.272C377.733 48.4107 378 48.48 378.373 48.48H379.493V50H378.053C377.232 50 376.602 49.808 376.165 49.424C375.728 49.04 375.509 48.416 375.509 47.552V42.672H374.469V41.184H375.509V38.992H377.349V41.184H379.493V42.672H377.349ZM383.174 47.808L381.238 52.224H380.054L381.19 47.808H383.174ZM39.1389 82.144C38.3069 82.144 37.5549 81.9573 36.8829 81.584C36.2109 81.2 35.6829 80.6667 35.2989 79.984C34.9149 79.2907 34.7229 78.4907 34.7229 77.584C34.7229 76.688 34.9202 75.8933 35.3149 75.2C35.7095 74.5067 36.2482 73.9733 36.9309 73.6C37.6135 73.2267 38.3762 73.04 39.2189 73.04C40.0615 73.04 40.8242 73.2267 41.5069 73.6C42.1895 73.9733 42.7282 74.5067 43.1229 75.2C43.5175 75.8933 43.7149 76.688 43.7149 77.584C43.7149 78.48 43.5122 79.2747 43.1069 79.968C42.7015 80.6613 42.1469 81.2 41.4429 81.584C40.7495 81.9573 39.9815 82.144 39.1389 82.144ZM39.1389 80.56C39.6082 80.56 40.0455 80.448 40.4509 80.224C40.8669 80 41.2029 79.664 41.4589 79.216C41.7149 78.768 41.8429 78.224 41.8429 77.584C41.8429 76.944 41.7202 76.4053 41.4749 75.968C41.2295 75.52 40.9042 75.184 40.4989 74.96C40.0935 74.736 39.6562 74.624 39.1869 74.624C38.7175 74.624 38.2802 74.736 37.8749 74.96C37.4802 75.184 37.1655 75.52 36.9309 75.968C36.6962 76.4053 36.5789 76.944 36.5789 77.584C36.5789 78.5333 36.8189 79.2693 37.2989 79.792C37.7895 80.304 38.4029 80.56 39.1389 80.56ZM47.342 74.464C47.6087 74.016 47.9607 73.6693 48.398 73.424C48.846 73.168 49.374 73.04 49.982 73.04V74.928H49.518C48.8033 74.928 48.2593 75.1093 47.886 75.472C47.5233 75.8347 47.342 76.464 47.342 77.36V82H45.518V73.184H47.342V74.464ZM56.1066 73.04C56.8 73.04 57.4186 73.184 57.9626 73.472C58.5173 73.76 58.9493 74.1867 59.2586 74.752C59.568 75.3173 59.7226 76 59.7226 76.8V82H57.9146V77.072C57.9146 76.2827 57.7173 75.68 57.3226 75.264C56.928 74.8373 56.3893 74.624 55.7066 74.624C55.024 74.624 54.48 74.8373 54.0746 75.264C53.68 75.68 53.4826 76.2827 53.4826 77.072V82H51.6586V73.184H53.4826V74.192C53.7813 73.8293 54.16 73.5467 54.6186 73.344C55.088 73.1413 55.584 73.04 56.1066 73.04ZM61.4412 77.552C61.4412 76.6667 61.6226 75.8827 61.9852 75.2C62.3586 74.5173 62.8599 73.9893 63.4892 73.616C64.1292 73.232 64.8332 73.04 65.6012 73.04C66.2946 73.04 66.8972 73.1787 67.4092 73.456C67.9319 73.7227 68.3479 74.0587 68.6572 74.464V73.184H70.4972V82H68.6572V80.688C68.3479 81.104 67.9266 81.4507 67.3932 81.728C66.8599 82.0053 66.2519 82.144 65.5692 82.144C64.8119 82.144 64.1186 81.952 63.4892 81.568C62.8599 81.1733 62.3586 80.6293 61.9852 79.936C61.6226 79.232 61.4412 78.4373 61.4412 77.552ZM68.6572 77.584C68.6572 76.976 68.5292 76.448 68.2732 76C68.0279 75.552 67.7026 75.2107 67.2972 74.976C66.8919 74.7413 66.4546 74.624 65.9852 74.624C65.5159 74.624 65.0786 74.7413 64.6732 74.976C64.2679 75.2 63.9372 75.536 63.6812 75.984C63.4359 76.4213 63.3132 76.944 63.3132 77.552C63.3132 78.16 63.4359 78.6933 63.6812 79.152C63.9372 79.6107 64.2679 79.9627 64.6732 80.208C65.0892 80.4427 65.5266 80.56 65.9852 80.56C66.4546 80.56 66.8919 80.4427 67.2972 80.208C67.7026 79.9733 68.0279 79.632 68.2732 79.184C68.5292 78.7253 68.6572 78.192 68.6572 77.584ZM74.717 74.464C74.9837 74.016 75.3357 73.6693 75.773 73.424C76.221 73.168 76.749 73.04 77.357 73.04V74.928H76.893C76.1783 74.928 75.6343 75.1093 75.261 75.472C74.8983 75.8347 74.717 76.464 74.717 77.36V82H72.893V73.184H74.717V74.464ZM87.1136 77.376C87.1136 77.7067 87.0923 78.0053 87.0496 78.272H80.3136C80.367 78.976 80.6283 79.5413 81.0976 79.968C81.567 80.3947 82.143 80.608 82.8256 80.608C83.807 80.608 84.5003 80.1973 84.9056 79.376H86.8736C86.607 80.1867 86.1216 80.8533 85.4176 81.376C84.7243 81.888 83.8603 82.144 82.8256 82.144C81.983 82.144 81.2256 81.9573 80.5536 81.584C79.8923 81.2 79.3696 80.6667 78.9856 79.984C78.6123 79.2907 78.4256 78.4907 78.4256 77.584C78.4256 76.6773 78.607 75.8827 78.9696 75.2C79.343 74.5067 79.8603 73.9733 80.5216 73.6C81.1936 73.2267 81.9616 73.04 82.8256 73.04C83.6576 73.04 84.399 73.2213 85.0496 73.584C85.7003 73.9467 86.207 74.4587 86.5696 75.12C86.9323 75.7707 87.1136 76.5227 87.1136 77.376ZM85.2096 76.8C85.199 76.128 84.959 75.5893 84.4896 75.184C84.0203 74.7787 83.439 74.576 82.7456 74.576C82.1163 74.576 81.5776 74.7787 81.1296 75.184C80.6816 75.5787 80.415 76.1173 80.3296 76.8H85.2096ZM101.049 73.184V82H99.2249V80.96C98.9369 81.3227 98.5582 81.6107 98.0889 81.824C97.6302 82.0267 97.1395 82.128 96.6169 82.128C95.9235 82.128 95.2995 81.984 94.7449 81.696C94.2009 81.408 93.7689 80.9813 93.4489 80.416C93.1395 79.8507 92.9849 79.168 92.9849 78.368V73.184H94.7929V78.096C94.7929 78.8853 94.9902 79.4933 95.3849 79.92C95.7795 80.336 96.3182 80.544 97.0009 80.544C97.6835 80.544 98.2222 80.336 98.6169 79.92C99.0222 79.4933 99.2249 78.8853 99.2249 78.096V73.184H101.049ZM105.583 74.672V79.552C105.583 79.8827 105.658 80.1227 105.807 80.272C105.967 80.4107 106.234 80.48 106.607 80.48H107.727V82H106.287C105.466 82 104.837 81.808 104.399 81.424C103.962 81.04 103.743 80.416 103.743 79.552V74.672H102.703V73.184H103.743V70.992H105.583V73.184H107.727V74.672H105.583ZM121.549 73.184V82H119.725V80.96C119.437 81.3227 119.058 81.6107 118.589 81.824C118.13 82.0267 117.64 82.128 117.117 82.128C116.424 82.128 115.8 81.984 115.245 81.696C114.701 81.408 114.269 80.9813 113.949 80.416C113.64 79.8507 113.485 79.168 113.485 78.368V73.184H115.293V78.096C115.293 78.8853 115.49 79.4933 115.885 79.92C116.28 80.336 116.818 80.544 117.501 80.544C118.184 80.544 118.722 80.336 119.117 79.92C119.522 79.4933 119.725 78.8853 119.725 78.096V73.184H121.549ZM125.779 74.464C126.046 74.016 126.398 73.6693 126.835 73.424C127.283 73.168 127.811 73.04 128.419 73.04V74.928H127.955C127.241 74.928 126.697 75.1093 126.323 75.472C125.961 75.8347 125.779 76.464 125.779 77.36V82H123.955V73.184H125.779V74.464ZM134.544 73.04C135.237 73.04 135.856 73.184 136.4 73.472C136.955 73.76 137.387 74.1867 137.696 74.752C138.005 75.3173 138.16 76 138.16 76.8V82H136.352V77.072C136.352 76.2827 136.155 75.68 135.76 75.264C135.365 74.8373 134.827 74.624 134.144 74.624C133.461 74.624 132.917 74.8373 132.512 75.264C132.117 75.68 131.92 76.2827 131.92 77.072V82H130.096V73.184H131.92V74.192C132.219 73.8293 132.597 73.5467 133.056 73.344C133.525 73.1413 134.021 73.04 134.544 73.04ZM139.879 77.552C139.879 76.6667 140.06 75.8827 140.423 75.2C140.796 74.5173 141.297 73.9893 141.927 73.616C142.567 73.232 143.271 73.04 144.039 73.04C144.732 73.04 145.335 73.1787 145.847 73.456C146.369 73.7227 146.785 74.0587 147.095 74.464V73.184H148.935V82H147.095V80.688C146.785 81.104 146.364 81.4507 145.831 81.728C145.297 82.0053 144.689 82.144 144.007 82.144C143.249 82.144 142.556 81.952 141.927 81.568C141.297 81.1733 140.796 80.6293 140.423 79.936C140.06 79.232 139.879 78.4373 139.879 77.552ZM147.095 77.584C147.095 76.976 146.967 76.448 146.711 76C146.465 75.552 146.14 75.2107 145.735 74.976C145.329 74.7413 144.892 74.624 144.423 74.624C143.953 74.624 143.516 74.7413 143.111 74.976C142.705 75.2 142.375 75.536 142.119 75.984C141.873 76.4213 141.751 76.944 141.751 77.552C141.751 78.16 141.873 78.6933 142.119 79.152C142.375 79.6107 142.705 79.9627 143.111 80.208C143.527 80.4427 143.964 80.56 144.423 80.56C144.892 80.56 145.329 80.4427 145.735 80.208C146.14 79.9733 146.465 79.632 146.711 79.184C146.967 78.7253 147.095 78.192 147.095 77.584ZM152.066 82.112C151.736 82.112 151.458 82 151.234 81.776C151.01 81.552 150.898 81.2747 150.898 80.944C150.898 80.6133 151.01 80.336 151.234 80.112C151.458 79.888 151.736 79.776 152.066 79.776C152.386 79.776 152.658 79.888 152.882 80.112C153.106 80.336 153.218 80.6133 153.218 80.944C153.218 81.2747 153.106 81.552 152.882 81.776C152.658 82 152.386 82.112 152.066 82.112ZM168.482 82H166.658L161.17 73.696V82H159.346V70.864H161.17L166.658 79.152V70.864H168.482V82ZM178.861 73.184V82H177.037V80.96C176.749 81.3227 176.371 81.6107 175.901 81.824C175.443 82.0267 174.952 82.128 174.429 82.128C173.736 82.128 173.112 81.984 172.557 81.696C172.013 81.408 171.581 80.9813 171.261 80.416C170.952 79.8507 170.797 79.168 170.797 78.368V73.184H172.605V78.096C172.605 78.8853 172.803 79.4933 173.197 79.92C173.592 80.336 174.131 80.544 174.813 80.544C175.496 80.544 176.035 80.336 176.429 79.92C176.835 79.4933 177.037 78.8853 177.037 78.096V73.184H178.861ZM183.092 70.16V82H181.268V70.16H183.092ZM187.311 70.16V82H185.487V70.16H187.311ZM189.097 77.552C189.097 76.6667 189.279 75.8827 189.641 75.2C190.015 74.5173 190.516 73.9893 191.145 73.616C191.785 73.232 192.489 73.04 193.257 73.04C193.951 73.04 194.553 73.1787 195.065 73.456C195.588 73.7227 196.004 74.0587 196.313 74.464V73.184H198.153V82H196.313V80.688C196.004 81.104 195.583 81.4507 195.049 81.728C194.516 82.0053 193.908 82.144 193.225 82.144C192.468 82.144 191.775 81.952 191.145 81.568C190.516 81.1733 190.015 80.6293 189.641 79.936C189.279 79.232 189.097 78.4373 189.097 77.552ZM196.313 77.584C196.313 76.976 196.185 76.448 195.929 76C195.684 75.552 195.359 75.2107 194.953 74.976C194.548 74.7413 194.111 74.624 193.641 74.624C193.172 74.624 192.735 74.7413 192.329 74.976C191.924 75.2 191.593 75.536 191.337 75.984C191.092 76.4213 190.969 76.944 190.969 77.552C190.969 78.16 191.092 78.6933 191.337 79.152C191.593 79.6107 191.924 79.9627 192.329 80.208C192.745 80.4427 193.183 80.56 193.641 80.56C194.111 80.56 194.548 80.4427 194.953 80.208C195.359 79.9733 195.684 79.632 195.929 79.184C196.185 78.7253 196.313 78.192 196.313 77.584ZM211.221 73.04C211.915 73.04 212.533 73.184 213.077 73.472C213.632 73.76 214.064 74.1867 214.373 74.752C214.693 75.3173 214.853 76 214.853 76.8V82H213.045V77.072C213.045 76.2827 212.848 75.68 212.453 75.264C212.059 74.8373 211.52 74.624 210.837 74.624C210.155 74.624 209.611 74.8373 209.205 75.264C208.811 75.68 208.613 76.2827 208.613 77.072V82H206.805V77.072C206.805 76.2827 206.608 75.68 206.213 75.264C205.819 74.8373 205.28 74.624 204.597 74.624C203.915 74.624 203.371 74.8373 202.965 75.264C202.571 75.68 202.373 76.2827 202.373 77.072V82H200.549V73.184H202.373V74.192C202.672 73.8293 203.051 73.5467 203.509 73.344C203.968 73.1413 204.459 73.04 204.981 73.04C205.685 73.04 206.315 73.1893 206.869 73.488C207.424 73.7867 207.851 74.2187 208.149 74.784C208.416 74.2507 208.832 73.8293 209.397 73.52C209.963 73.2 210.571 73.04 211.221 73.04ZM220.722 77.552C220.722 76.6667 220.904 75.8827 221.266 75.2C221.64 74.5173 222.141 73.9893 222.77 73.616C223.41 73.232 224.114 73.04 224.882 73.04C225.576 73.04 226.178 73.1787 226.69 73.456C227.213 73.7227 227.629 74.0587 227.938 74.464V73.184H229.778V82H227.938V80.688C227.629 81.104 227.208 81.4507 226.674 81.728C226.141 82.0053 225.533 82.144 224.85 82.144C224.093 82.144 223.4 81.952 222.77 81.568C222.141 81.1733 221.64 80.6293 221.266 79.936C220.904 79.232 220.722 78.4373 220.722 77.552ZM227.938 77.584C227.938 76.976 227.81 76.448 227.554 76C227.309 75.552 226.984 75.2107 226.578 74.976C226.173 74.7413 225.736 74.624 225.266 74.624C224.797 74.624 224.36 74.7413 223.954 74.976C223.549 75.2 223.218 75.536 222.962 75.984C222.717 76.4213 222.594 76.944 222.594 77.552C222.594 78.16 222.717 78.6933 222.962 79.152C223.218 79.6107 223.549 79.9627 223.954 80.208C224.37 80.4427 224.808 80.56 225.266 80.56C225.736 80.56 226.173 80.4427 226.578 80.208C226.984 79.9733 227.309 79.632 227.554 79.184C227.81 78.7253 227.938 78.192 227.938 77.584ZM231.566 77.584C231.566 76.6773 231.748 75.8827 232.11 75.2C232.484 74.5067 232.996 73.9733 233.646 73.6C234.297 73.2267 235.044 73.04 235.886 73.04C236.953 73.04 237.833 73.296 238.526 73.808C239.23 74.3093 239.705 75.0293 239.95 75.968H237.982C237.822 75.5307 237.566 75.1893 237.214 74.944C236.862 74.6987 236.42 74.576 235.886 74.576C235.14 74.576 234.542 74.8427 234.094 75.376C233.657 75.8987 233.438 76.6347 233.438 77.584C233.438 78.5333 233.657 79.2747 234.094 79.808C234.542 80.3413 235.14 80.608 235.886 80.608C236.942 80.608 237.641 80.144 237.982 79.216H239.95C239.694 80.112 239.214 80.8267 238.51 81.36C237.806 81.8827 236.932 82.144 235.886 82.144C235.044 82.144 234.297 81.9573 233.646 81.584C232.996 81.2 232.484 80.6667 232.11 79.984C231.748 79.2907 231.566 78.4907 231.566 77.584ZM241.16 77.584C241.16 76.6773 241.341 75.8827 241.704 75.2C242.077 74.5067 242.589 73.9733 243.24 73.6C243.891 73.2267 244.637 73.04 245.48 73.04C246.547 73.04 247.427 73.296 248.12 73.808C248.824 74.3093 249.299 75.0293 249.544 75.968H247.576C247.416 75.5307 247.16 75.1893 246.808 74.944C246.456 74.6987 246.013 74.576 245.48 74.576C244.733 74.576 244.136 74.8427 243.688 75.376C243.251 75.8987 243.032 76.6347 243.032 77.584C243.032 78.5333 243.251 79.2747 243.688 79.808C244.136 80.3413 244.733 80.608 245.48 80.608C246.536 80.608 247.235 80.144 247.576 79.216H249.544C249.288 80.112 248.808 80.8267 248.104 81.36C247.4 81.8827 246.525 82.144 245.48 82.144C244.637 82.144 243.891 81.9573 243.24 81.584C242.589 81.2 242.077 80.6667 241.704 79.984C241.341 79.2907 241.16 78.4907 241.16 77.584ZM259.346 73.184V82H257.522V80.96C257.234 81.3227 256.855 81.6107 256.386 81.824C255.927 82.0267 255.436 82.128 254.914 82.128C254.22 82.128 253.596 81.984 253.042 81.696C252.498 81.408 252.066 80.9813 251.746 80.416C251.436 79.8507 251.282 79.168 251.282 78.368V73.184H253.09V78.096C253.09 78.8853 253.287 79.4933 253.682 79.92C254.076 80.336 254.615 80.544 255.298 80.544C255.98 80.544 256.519 80.336 256.914 79.92C257.319 79.4933 257.522 78.8853 257.522 78.096V73.184H259.346ZM272.424 73.04C273.118 73.04 273.736 73.184 274.28 73.472C274.835 73.76 275.267 74.1867 275.576 74.752C275.896 75.3173 276.056 76 276.056 76.8V82H274.248V77.072C274.248 76.2827 274.051 75.68 273.656 75.264C273.262 74.8373 272.723 74.624 272.04 74.624C271.358 74.624 270.814 74.8373 270.408 75.264C270.014 75.68 269.816 76.2827 269.816 77.072V82H268.008V77.072C268.008 76.2827 267.811 75.68 267.416 75.264C267.022 74.8373 266.483 74.624 265.8 74.624C265.118 74.624 264.574 74.8373 264.168 75.264C263.774 75.68 263.576 76.2827 263.576 77.072V82H261.752V73.184H263.576V74.192C263.875 73.8293 264.254 73.5467 264.712 73.344C265.171 73.1413 265.662 73.04 266.184 73.04C266.888 73.04 267.518 73.1893 268.072 73.488C268.627 73.7867 269.054 74.2187 269.352 74.784C269.619 74.2507 270.035 73.8293 270.6 73.52C271.166 73.2 271.774 73.04 272.424 73.04ZM281.577 82.144C280.884 82.144 280.26 82.0213 279.705 81.776C279.161 81.52 278.729 81.1787 278.409 80.752C278.089 80.3147 277.919 79.8293 277.897 79.296H279.785C279.817 79.6693 279.993 79.984 280.313 80.24C280.644 80.4853 281.055 80.608 281.545 80.608C282.057 80.608 282.452 80.512 282.729 80.32C283.017 80.1173 283.161 79.8613 283.161 79.552C283.161 79.2213 283.001 78.976 282.681 78.816C282.372 78.656 281.876 78.48 281.193 78.288C280.532 78.1067 279.993 77.9307 279.577 77.76C279.161 77.5893 278.799 77.328 278.489 76.976C278.191 76.624 278.041 76.16 278.041 75.584C278.041 75.1147 278.18 74.688 278.457 74.304C278.735 73.9093 279.129 73.6 279.641 73.376C280.164 73.152 280.761 73.04 281.433 73.04C282.436 73.04 283.241 73.296 283.849 73.808C284.468 74.3093 284.799 74.9973 284.841 75.872H283.017C282.985 75.4773 282.825 75.1627 282.537 74.928C282.249 74.6933 281.86 74.576 281.369 74.576C280.889 74.576 280.521 74.6667 280.265 74.848C280.009 75.0293 279.881 75.2693 279.881 75.568C279.881 75.8027 279.967 76 280.137 76.16C280.308 76.32 280.516 76.448 280.761 76.544C281.007 76.6293 281.369 76.7413 281.849 76.88C282.489 77.0507 283.012 77.2267 283.417 77.408C283.833 77.5787 284.191 77.8347 284.489 78.176C284.788 78.5173 284.943 78.9707 284.953 79.536C284.953 80.0373 284.815 80.4853 284.537 80.88C284.26 81.2747 283.865 81.584 283.353 81.808C282.852 82.032 282.26 82.144 281.577 82.144ZM286.316 77.552C286.316 76.6667 286.498 75.8827 286.86 75.2C287.234 74.5173 287.735 73.9893 288.364 73.616C289.004 73.232 289.708 73.04 290.476 73.04C291.17 73.04 291.772 73.1787 292.284 73.456C292.807 73.7227 293.223 74.0587 293.532 74.464V73.184H295.372V82H293.532V80.688C293.223 81.104 292.802 81.4507 292.268 81.728C291.735 82.0053 291.127 82.144 290.444 82.144C289.687 82.144 288.994 81.952 288.364 81.568C287.735 81.1733 287.234 80.6293 286.86 79.936C286.498 79.232 286.316 78.4373 286.316 77.552ZM293.532 77.584C293.532 76.976 293.404 76.448 293.148 76C292.903 75.552 292.578 75.2107 292.172 74.976C291.767 74.7413 291.33 74.624 290.86 74.624C290.391 74.624 289.954 74.7413 289.548 74.976C289.143 75.2 288.812 75.536 288.556 75.984C288.311 76.4213 288.188 76.944 288.188 77.552C288.188 78.16 288.311 78.6933 288.556 79.152C288.812 79.6107 289.143 79.9627 289.548 80.208C289.964 80.4427 290.402 80.56 290.86 80.56C291.33 80.56 291.767 80.4427 292.172 80.208C292.578 79.9733 292.903 79.632 293.148 79.184C293.404 78.7253 293.532 78.192 293.532 77.584ZM302.216 73.04C302.909 73.04 303.528 73.184 304.072 73.472C304.627 73.76 305.059 74.1867 305.368 74.752C305.677 75.3173 305.832 76 305.832 76.8V82H304.024V77.072C304.024 76.2827 303.827 75.68 303.432 75.264C303.037 74.8373 302.499 74.624 301.816 74.624C301.133 74.624 300.589 74.8373 300.184 75.264C299.789 75.68 299.592 76.2827 299.592 77.072V82H297.768V73.184H299.592V74.192C299.891 73.8293 300.269 73.5467 300.728 73.344C301.197 73.1413 301.693 73.04 302.216 73.04ZM315.515 82.144C314.822 82.144 314.198 82.0213 313.643 81.776C313.099 81.52 312.667 81.1787 312.347 80.752C312.027 80.3147 311.856 79.8293 311.835 79.296H313.723C313.755 79.6693 313.931 79.984 314.251 80.24C314.582 80.4853 314.992 80.608 315.483 80.608C315.995 80.608 316.39 80.512 316.667 80.32C316.955 80.1173 317.099 79.8613 317.099 79.552C317.099 79.2213 316.939 78.976 316.619 78.816C316.31 78.656 315.814 78.48 315.131 78.288C314.47 78.1067 313.931 77.9307 313.515 77.76C313.099 77.5893 312.736 77.328 312.427 76.976C312.128 76.624 311.979 76.16 311.979 75.584C311.979 75.1147 312.118 74.688 312.395 74.304C312.672 73.9093 313.067 73.6 313.579 73.376C314.102 73.152 314.699 73.04 315.371 73.04C316.374 73.04 317.179 73.296 317.787 73.808C318.406 74.3093 318.736 74.9973 318.779 75.872H316.955C316.923 75.4773 316.763 75.1627 316.475 74.928C316.187 74.6933 315.798 74.576 315.307 74.576C314.827 74.576 314.459 74.6667 314.203 74.848C313.947 75.0293 313.819 75.2693 313.819 75.568C313.819 75.8027 313.904 76 314.075 76.16C314.246 76.32 314.454 76.448 314.699 76.544C314.944 76.6293 315.307 76.7413 315.787 76.88C316.427 77.0507 316.95 77.2267 317.355 77.408C317.771 77.5787 318.128 77.8347 318.427 78.176C318.726 78.5173 318.88 78.9707 318.891 79.536C318.891 80.0373 318.752 80.4853 318.475 80.88C318.198 81.2747 317.803 81.584 317.291 81.808C316.79 82.032 316.198 82.144 315.515 82.144ZM328.942 77.376C328.942 77.7067 328.92 78.0053 328.878 78.272H322.142C322.195 78.976 322.456 79.5413 322.926 79.968C323.395 80.3947 323.971 80.608 324.654 80.608C325.635 80.608 326.328 80.1973 326.734 79.376H328.702C328.435 80.1867 327.95 80.8533 327.246 81.376C326.552 81.888 325.688 82.144 324.654 82.144C323.811 82.144 323.054 81.9573 322.382 81.584C321.72 81.2 321.198 80.6667 320.814 79.984C320.44 79.2907 320.254 78.4907 320.254 77.584C320.254 76.6773 320.435 75.8827 320.798 75.2C321.171 74.5067 321.688 73.9733 322.35 73.6C323.022 73.2267 323.79 73.04 324.654 73.04C325.486 73.04 326.227 73.2213 326.878 73.584C327.528 73.9467 328.035 74.4587 328.398 75.12C328.76 75.7707 328.942 76.5227 328.942 77.376ZM327.038 76.8C327.027 76.128 326.787 75.5893 326.318 75.184C325.848 74.7787 325.267 74.576 324.574 74.576C323.944 74.576 323.406 74.7787 322.958 75.184C322.51 75.5787 322.243 76.1173 322.158 76.8H327.038ZM341.409 73.04C342.102 73.04 342.721 73.184 343.265 73.472C343.819 73.76 344.251 74.1867 344.561 74.752C344.881 75.3173 345.041 76 345.041 76.8V82H343.233V77.072C343.233 76.2827 343.035 75.68 342.641 75.264C342.246 74.8373 341.707 74.624 341.025 74.624C340.342 74.624 339.798 74.8373 339.393 75.264C338.998 75.68 338.801 76.2827 338.801 77.072V82H336.993V77.072C336.993 76.2827 336.795 75.68 336.401 75.264C336.006 74.8373 335.467 74.624 334.785 74.624C334.102 74.624 333.558 74.8373 333.153 75.264C332.758 75.68 332.561 76.2827 332.561 77.072V82H330.737V73.184H332.561V74.192C332.859 73.8293 333.238 73.5467 333.697 73.344C334.155 73.1413 334.646 73.04 335.169 73.04C335.873 73.04 336.502 73.1893 337.057 73.488C337.611 73.7867 338.038 74.2187 338.337 74.784C338.603 74.2507 339.019 73.8293 339.585 73.52C340.15 73.2 340.758 73.04 341.409 73.04ZM355.342 82.144C354.51 82.144 353.758 81.9573 353.086 81.584C352.414 81.2 351.886 80.6667 351.502 79.984C351.118 79.2907 350.926 78.4907 350.926 77.584C350.926 76.688 351.123 75.8933 351.518 75.2C351.913 74.5067 352.451 73.9733 353.134 73.6C353.817 73.2267 354.579 73.04 355.422 73.04C356.265 73.04 357.027 73.2267 357.71 73.6C358.393 73.9733 358.931 74.5067 359.326 75.2C359.721 75.8933 359.918 76.688 359.918 77.584C359.918 78.48 359.715 79.2747 359.31 79.968C358.905 80.6613 358.35 81.2 357.646 81.584C356.953 81.9573 356.185 82.144 355.342 82.144ZM355.342 80.56C355.811 80.56 356.249 80.448 356.654 80.224C357.07 80 357.406 79.664 357.662 79.216C357.918 78.768 358.046 78.224 358.046 77.584C358.046 76.944 357.923 76.4053 357.678 75.968C357.433 75.52 357.107 75.184 356.702 74.96C356.297 74.736 355.859 74.624 355.39 74.624C354.921 74.624 354.483 74.736 354.078 74.96C353.683 75.184 353.369 75.52 353.134 75.968C352.899 76.4053 352.782 76.944 352.782 77.584C352.782 78.5333 353.022 79.2693 353.502 79.792C353.993 80.304 354.606 80.56 355.342 80.56ZM363.545 74.464C363.812 74.016 364.164 73.6693 364.601 73.424C365.049 73.168 365.577 73.04 366.185 73.04V74.928H365.721C365.006 74.928 364.462 75.1093 364.089 75.472C363.726 75.8347 363.545 76.464 363.545 77.36V82H361.721V73.184H363.545V74.464ZM367.254 77.584C367.254 76.6773 367.435 75.8827 367.798 75.2C368.171 74.5067 368.683 73.9733 369.334 73.6C369.984 73.2267 370.731 73.04 371.574 73.04C372.64 73.04 373.52 73.296 374.214 73.808C374.918 74.3093 375.392 75.0293 375.638 75.968H373.67C373.51 75.5307 373.254 75.1893 372.902 74.944C372.55 74.6987 372.107 74.576 371.574 74.576C370.827 74.576 370.23 74.8427 369.782 75.376C369.344 75.8987 369.126 76.6347 369.126 77.584C369.126 78.5333 369.344 79.2747 369.782 79.808C370.23 80.3413 370.827 80.608 371.574 80.608C372.63 80.608 373.328 80.144 373.67 79.216H375.638C375.382 80.112 374.902 80.8267 374.198 81.36C373.494 81.8827 372.619 82.144 371.574 82.144C370.731 82.144 369.984 81.9573 369.334 81.584C368.683 81.2 368.171 80.6667 367.798 79.984C367.435 79.2907 367.254 78.4907 367.254 77.584ZM378.383 72.016C378.053 72.016 377.775 71.904 377.551 71.68C377.327 71.456 377.215 71.1787 377.215 70.848C377.215 70.5173 377.327 70.24 377.551 70.016C377.775 69.792 378.053 69.68 378.383 69.68C378.703 69.68 378.975 69.792 379.199 70.016C379.423 70.24 379.535 70.5173 379.535 70.848C379.535 71.1787 379.423 71.456 379.199 71.68C378.975 71.904 378.703 72.016 378.383 72.016ZM379.279 73.184V82H377.455V73.184H379.279ZM383.674 79.808L381.738 84.224H380.554L381.69 79.808H383.674ZM388.816 77.552C388.816 76.6667 388.998 75.8827 389.36 75.2C389.734 74.5173 390.235 73.9893 390.864 73.616C391.504 73.232 392.208 73.04 392.976 73.04C393.67 73.04 394.272 73.1787 394.784 73.456C395.307 73.7227 395.723 74.0587 396.032 74.464V73.184H397.872V82H396.032V80.688C395.723 81.104 395.302 81.4507 394.768 81.728C394.235 82.0053 393.627 82.144 392.944 82.144C392.187 82.144 391.494 81.952 390.864 81.568C390.235 81.1733 389.734 80.6293 389.36 79.936C388.998 79.232 388.816 78.4373 388.816 77.552ZM396.032 77.584C396.032 76.976 395.904 76.448 395.648 76C395.403 75.552 395.078 75.2107 394.672 74.976C394.267 74.7413 393.83 74.624 393.36 74.624C392.891 74.624 392.454 74.7413 392.048 74.976C391.643 75.2 391.312 75.536 391.056 75.984C390.811 76.4213 390.688 76.944 390.688 77.552C390.688 78.16 390.811 78.6933 391.056 79.152C391.312 79.6107 391.643 79.9627 392.048 80.208C392.464 80.4427 392.902 80.56 393.36 80.56C393.83 80.56 394.267 80.4427 394.672 80.208C395.078 79.9733 395.403 79.632 395.648 79.184C395.904 78.7253 396.032 78.192 396.032 77.584ZM399.66 77.584C399.66 76.6773 399.841 75.8827 400.204 75.2C400.577 74.5067 401.089 73.9733 401.74 73.6C402.391 73.2267 403.137 73.04 403.98 73.04C405.047 73.04 405.927 73.296 406.62 73.808C407.324 74.3093 407.799 75.0293 408.044 75.968H406.076C405.916 75.5307 405.66 75.1893 405.308 74.944C404.956 74.6987 404.513 74.576 403.98 74.576C403.233 74.576 402.636 74.8427 402.188 75.376C401.751 75.8987 401.532 76.6347 401.532 77.584C401.532 78.5333 401.751 79.2747 402.188 79.808C402.636 80.3413 403.233 80.608 403.98 80.608C405.036 80.608 405.735 80.144 406.076 79.216H408.044C407.788 80.112 407.308 80.8267 406.604 81.36C405.9 81.8827 405.025 82.144 403.98 82.144C403.137 82.144 402.391 81.9573 401.74 81.584C401.089 81.2 400.577 80.6667 400.204 79.984C399.841 79.2907 399.66 78.4907 399.66 77.584ZM43.2989 105.184V114H41.4749V112.96C41.1869 113.323 40.8082 113.611 40.3389 113.824C39.8802 114.027 39.3895 114.128 38.8669 114.128C38.1735 114.128 37.5495 113.984 36.9949 113.696C36.4509 113.408 36.0189 112.981 35.6989 112.416C35.3895 111.851 35.2349 111.168 35.2349 110.368V105.184H37.0429V110.096C37.0429 110.885 37.2402 111.493 37.6349 111.92C38.0295 112.336 38.5682 112.544 39.2509 112.544C39.9335 112.544 40.4722 112.336 40.8669 111.92C41.2722 111.493 41.4749 110.885 41.4749 110.096V105.184H43.2989ZM47.5295 102.16V114H45.7055V102.16H47.5295ZM51.7482 102.16V114H49.9242V102.16H51.7482ZM53.535 109.552C53.535 108.667 53.7163 107.883 54.079 107.2C54.4523 106.517 54.9537 105.989 55.583 105.616C56.223 105.232 56.927 105.04 57.695 105.04C58.3883 105.04 58.991 105.179 59.503 105.456C60.0257 105.723 60.4417 106.059 60.751 106.464V105.184H62.591V114H60.751V112.688C60.4417 113.104 60.0203 113.451 59.487 113.728C58.9537 114.005 58.3457 114.144 57.663 114.144C56.9057 114.144 56.2123 113.952 55.583 113.568C54.9537 113.173 54.4523 112.629 54.079 111.936C53.7163 111.232 53.535 110.437 53.535 109.552ZM60.751 109.584C60.751 108.976 60.623 108.448 60.367 108C60.1217 107.552 59.7963 107.211 59.391 106.976C58.9857 106.741 58.5483 106.624 58.079 106.624C57.6097 106.624 57.1723 106.741 56.767 106.976C56.3617 107.2 56.031 107.536 55.775 107.984C55.5297 108.421 55.407 108.944 55.407 109.552C55.407 110.16 55.5297 110.693 55.775 111.152C56.031 111.611 56.3617 111.963 56.767 112.208C57.183 112.443 57.6203 112.56 58.079 112.56C58.5483 112.56 58.9857 112.443 59.391 112.208C59.7963 111.973 60.1217 111.632 60.367 111.184C60.623 110.725 60.751 110.192 60.751 109.584ZM75.6587 105.04C76.3521 105.04 76.9707 105.184 77.5147 105.472C78.0694 105.76 78.5014 106.187 78.8107 106.752C79.1307 107.317 79.2907 108 79.2907 108.8V114H77.4827V109.072C77.4827 108.283 77.2854 107.68 76.8907 107.264C76.4961 106.837 75.9574 106.624 75.2747 106.624C74.5921 106.624 74.0481 106.837 73.6427 107.264C73.2481 107.68 73.0507 108.283 73.0507 109.072V114H71.2427V109.072C71.2427 108.283 71.0454 107.68 70.6507 107.264C70.2561 106.837 69.7174 106.624 69.0347 106.624C68.3521 106.624 67.8081 106.837 67.4027 107.264C67.0081 107.68 66.8107 108.283 66.8107 109.072V114H64.9867V105.184H66.8107V106.192C67.1094 105.829 67.4881 105.547 67.9467 105.344C68.4054 105.141 68.8961 105.04 69.4187 105.04C70.1227 105.04 70.7521 105.189 71.3067 105.488C71.8614 105.787 72.2881 106.219 72.5867 106.784C72.8534 106.251 73.2694 105.829 73.8347 105.52C74.4001 105.2 75.0081 105.04 75.6587 105.04ZM81.0037 109.584C81.0037 108.677 81.1851 107.883 81.5477 107.2C81.9211 106.507 82.4331 105.973 83.0837 105.6C83.7344 105.227 84.4811 105.04 85.3237 105.04C86.3904 105.04 87.2704 105.296 87.9637 105.808C88.6677 106.309 89.1424 107.029 89.3877 107.968H87.4197C87.2597 107.531 87.0037 107.189 86.6517 106.944C86.2997 106.699 85.8571 106.576 85.3237 106.576C84.5771 106.576 83.9797 106.843 83.5317 107.376C83.0944 107.899 82.8757 108.635 82.8757 109.584C82.8757 110.533 83.0944 111.275 83.5317 111.808C83.9797 112.341 84.5771 112.608 85.3237 112.608C86.3797 112.608 87.0784 112.144 87.4197 111.216H89.3877C89.1317 112.112 88.6517 112.827 87.9477 113.36C87.2437 113.883 86.3691 114.144 85.3237 114.144C84.4811 114.144 83.7344 113.957 83.0837 113.584C82.4331 113.2 81.9211 112.667 81.5477 111.984C81.1851 111.291 81.0037 110.491 81.0037 109.584ZM95.0295 114.144C94.1975 114.144 93.4455 113.957 92.7735 113.584C92.1015 113.2 91.5735 112.667 91.1895 111.984C90.8055 111.291 90.6135 110.491 90.6135 109.584C90.6135 108.688 90.8108 107.893 91.2055 107.2C91.6002 106.507 92.1388 105.973 92.8215 105.6C93.5042 105.227 94.2668 105.04 95.1095 105.04C95.9522 105.04 96.7148 105.227 97.3975 105.6C98.0802 105.973 98.6188 106.507 99.0135 107.2C99.4082 107.893 99.6055 108.688 99.6055 109.584C99.6055 110.48 99.4028 111.275 98.9975 111.968C98.5922 112.661 98.0375 113.2 97.3335 113.584C96.6402 113.957 95.8722 114.144 95.0295 114.144ZM95.0295 112.56C95.4988 112.56 95.9362 112.448 96.3415 112.224C96.7575 112 97.0935 111.664 97.3495 111.216C97.6055 110.768 97.7335 110.224 97.7335 109.584C97.7335 108.944 97.6108 108.405 97.3655 107.968C97.1202 107.52 96.7948 107.184 96.3895 106.96C95.9842 106.736 95.5468 106.624 95.0775 106.624C94.6082 106.624 94.1708 106.736 93.7655 106.96C93.3708 107.184 93.0562 107.52 92.8215 107.968C92.5868 108.405 92.4695 108.944 92.4695 109.584C92.4695 110.533 92.7095 111.269 93.1895 111.792C93.6802 112.304 94.2935 112.56 95.0295 112.56ZM103.233 106.464C103.499 106.016 103.851 105.669 104.289 105.424C104.737 105.168 105.265 105.04 105.873 105.04V106.928H105.409C104.694 106.928 104.15 107.109 103.777 107.472C103.414 107.835 103.233 108.464 103.233 109.36V114H101.409V105.184H103.233V106.464ZM109.373 106.48C109.683 106.075 110.104 105.733 110.637 105.456C111.171 105.179 111.773 105.04 112.445 105.04C113.213 105.04 113.912 105.232 114.541 105.616C115.181 105.989 115.683 106.517 116.045 107.2C116.408 107.883 116.589 108.667 116.589 109.552C116.589 110.437 116.408 111.232 116.045 111.936C115.683 112.629 115.181 113.173 114.541 113.568C113.912 113.952 113.213 114.144 112.445 114.144C111.773 114.144 111.176 114.011 110.653 113.744C110.131 113.467 109.704 113.125 109.373 112.72V118.192H107.549V105.184H109.373V106.48ZM114.733 109.552C114.733 108.944 114.605 108.421 114.349 107.984C114.104 107.536 113.773 107.2 113.357 106.976C112.952 106.741 112.515 106.624 112.045 106.624C111.587 106.624 111.149 106.741 110.733 106.976C110.328 107.211 109.997 107.552 109.741 108C109.496 108.448 109.373 108.976 109.373 109.584C109.373 110.192 109.496 110.725 109.741 111.184C109.997 111.632 110.328 111.973 110.733 112.208C111.149 112.443 111.587 112.56 112.045 112.56C112.515 112.56 112.952 112.443 113.357 112.208C113.773 111.963 114.104 111.611 114.349 111.152C114.605 110.693 114.733 110.16 114.733 109.552ZM126.473 109.376C126.473 109.707 126.452 110.005 126.409 110.272H119.673C119.726 110.976 119.988 111.541 120.457 111.968C120.926 112.395 121.502 112.608 122.185 112.608C123.166 112.608 123.86 112.197 124.265 111.376H126.233C125.966 112.187 125.481 112.853 124.777 113.376C124.084 113.888 123.22 114.144 122.185 114.144C121.342 114.144 120.585 113.957 119.913 113.584C119.252 113.2 118.729 112.667 118.345 111.984C117.972 111.291 117.785 110.491 117.785 109.584C117.785 108.677 117.966 107.883 118.329 107.2C118.702 106.507 119.22 105.973 119.881 105.6C120.553 105.227 121.321 105.04 122.185 105.04C123.017 105.04 123.758 105.221 124.409 105.584C125.06 105.947 125.566 106.459 125.929 107.12C126.292 107.771 126.473 108.523 126.473 109.376ZM124.569 108.8C124.558 108.128 124.318 107.589 123.849 107.184C123.38 106.779 122.798 106.576 122.105 106.576C121.476 106.576 120.937 106.779 120.489 107.184C120.041 107.579 119.774 108.117 119.689 108.8H124.569ZM130.092 106.464C130.359 106.016 130.711 105.669 131.148 105.424C131.596 105.168 132.124 105.04 132.732 105.04V106.928H132.268C131.553 106.928 131.009 107.109 130.636 107.472C130.273 107.835 130.092 108.464 130.092 109.36V114H128.268V105.184H130.092V106.464ZM137.957 109.552C137.957 108.667 138.138 107.883 138.501 107.2C138.874 106.517 139.376 105.989 140.005 105.616C140.645 105.232 141.349 105.04 142.117 105.04C142.81 105.04 143.413 105.179 143.925 105.456C144.448 105.723 144.864 106.059 145.173 106.464V105.184H147.013V114H145.173V112.688C144.864 113.104 144.442 113.451 143.909 113.728C143.376 114.005 142.768 114.144 142.085 114.144C141.328 114.144 140.634 113.952 140.005 113.568C139.376 113.173 138.874 112.629 138.501 111.936C138.138 111.232 137.957 110.437 137.957 109.552ZM145.173 109.584C145.173 108.976 145.045 108.448 144.789 108C144.544 107.552 144.218 107.211 143.813 106.976C143.408 106.741 142.97 106.624 142.501 106.624C142.032 106.624 141.594 106.741 141.189 106.976C140.784 107.2 140.453 107.536 140.197 107.984C139.952 108.421 139.829 108.944 139.829 109.552C139.829 110.16 139.952 110.693 140.197 111.152C140.453 111.611 140.784 111.963 141.189 112.208C141.605 112.443 142.042 112.56 142.501 112.56C142.97 112.56 143.408 112.443 143.813 112.208C144.218 111.973 144.544 111.632 144.789 111.184C145.045 110.725 145.173 110.192 145.173 109.584ZM153.857 105.04C154.55 105.04 155.169 105.184 155.713 105.472C156.267 105.76 156.699 106.187 157.009 106.752C157.318 107.317 157.473 108 157.473 108.8V114H155.665V109.072C155.665 108.283 155.467 107.68 155.073 107.264C154.678 106.837 154.139 106.624 153.457 106.624C152.774 106.624 152.23 106.837 151.825 107.264C151.43 107.68 151.233 108.283 151.233 109.072V114H149.409V105.184H151.233V106.192C151.531 105.829 151.91 105.547 152.369 105.344C152.838 105.141 153.334 105.04 153.857 105.04ZM161.927 106.672V111.552C161.927 111.883 162.002 112.123 162.151 112.272C162.311 112.411 162.578 112.48 162.951 112.48H164.071V114H162.631C161.81 114 161.181 113.808 160.743 113.424C160.306 113.04 160.087 112.416 160.087 111.552V106.672H159.047V105.184H160.087V102.992H161.927V105.184H164.071V106.672H161.927ZM173.832 109.376C173.832 109.707 173.811 110.005 173.768 110.272H167.032C167.086 110.976 167.347 111.541 167.816 111.968C168.286 112.395 168.862 112.608 169.544 112.608C170.526 112.608 171.219 112.197 171.624 111.376H173.592C173.326 112.187 172.84 112.853 172.136 113.376C171.443 113.888 170.579 114.144 169.544 114.144C168.702 114.144 167.944 113.957 167.272 113.584C166.611 113.2 166.088 112.667 165.704 111.984C165.331 111.291 165.144 110.491 165.144 109.584C165.144 108.677 165.326 107.883 165.688 107.2C166.062 106.507 166.579 105.973 167.24 105.6C167.912 105.227 168.68 105.04 169.544 105.04C170.376 105.04 171.118 105.221 171.768 105.584C172.419 105.947 172.926 106.459 173.288 107.12C173.651 107.771 173.832 108.523 173.832 109.376ZM171.928 108.8C171.918 108.128 171.678 107.589 171.208 107.184C170.739 106.779 170.158 106.576 169.464 106.576C168.835 106.576 168.296 106.779 167.848 107.184C167.4 107.579 167.134 108.117 167.048 108.8H171.928ZM187.768 105.184V114H185.944V112.96C185.656 113.323 185.277 113.611 184.808 113.824C184.349 114.027 183.858 114.128 183.336 114.128C182.642 114.128 182.018 113.984 181.464 113.696C180.92 113.408 180.488 112.981 180.168 112.416C179.858 111.851 179.704 111.168 179.704 110.368V105.184H181.512V110.096C181.512 110.885 181.709 111.493 182.104 111.92C182.498 112.336 183.037 112.544 183.72 112.544C184.402 112.544 184.941 112.336 185.336 111.92C185.741 111.493 185.944 110.885 185.944 110.096V105.184H187.768ZM191.998 102.16V114H190.174V102.16H191.998ZM196.217 102.16V114H194.393V102.16H196.217ZM198.004 109.552C198.004 108.667 198.185 107.883 198.548 107.2C198.921 106.517 199.422 105.989 200.052 105.616C200.692 105.232 201.396 105.04 202.164 105.04C202.857 105.04 203.46 105.179 203.972 105.456C204.494 105.723 204.91 106.059 205.22 106.464V105.184H207.06V114H205.22V112.688C204.91 113.104 204.489 113.451 203.956 113.728C203.422 114.005 202.814 114.144 202.132 114.144C201.374 114.144 200.681 113.952 200.052 113.568C199.422 113.173 198.921 112.629 198.548 111.936C198.185 111.232 198.004 110.437 198.004 109.552ZM205.22 109.584C205.22 108.976 205.092 108.448 204.836 108C204.59 107.552 204.265 107.211 203.86 106.976C203.454 106.741 203.017 106.624 202.548 106.624C202.078 106.624 201.641 106.741 201.236 106.976C200.83 107.2 200.5 107.536 200.244 107.984C199.998 108.421 199.876 108.944 199.876 109.552C199.876 110.16 199.998 110.693 200.244 111.152C200.5 111.611 200.83 111.963 201.236 112.208C201.652 112.443 202.089 112.56 202.548 112.56C203.017 112.56 203.454 112.443 203.86 112.208C204.265 111.973 204.59 111.632 204.836 111.184C205.092 110.725 205.22 110.192 205.22 109.584ZM220.127 105.04C220.821 105.04 221.439 105.184 221.983 105.472C222.538 105.76 222.97 106.187 223.279 106.752C223.599 107.317 223.759 108 223.759 108.8V114H221.951V109.072C221.951 108.283 221.754 107.68 221.359 107.264C220.965 106.837 220.426 106.624 219.743 106.624C219.061 106.624 218.517 106.837 218.111 107.264C217.717 107.68 217.519 108.283 217.519 109.072V114H215.711V109.072C215.711 108.283 215.514 107.68 215.119 107.264C214.725 106.837 214.186 106.624 213.503 106.624C212.821 106.624 212.277 106.837 211.871 107.264C211.477 107.68 211.279 108.283 211.279 109.072V114H209.455V105.184H211.279V106.192C211.578 105.829 211.957 105.547 212.415 105.344C212.874 105.141 213.365 105.04 213.887 105.04C214.591 105.04 215.221 105.189 215.775 105.488C216.33 105.787 216.757 106.219 217.055 106.784C217.322 106.251 217.738 105.829 218.303 105.52C218.869 105.2 219.477 105.04 220.127 105.04ZM225.472 109.584C225.472 108.677 225.654 107.883 226.016 107.2C226.39 106.507 226.902 105.973 227.552 105.6C228.203 105.227 228.95 105.04 229.792 105.04C230.859 105.04 231.739 105.296 232.432 105.808C233.136 106.309 233.611 107.029 233.856 107.968H231.888C231.728 107.531 231.472 107.189 231.12 106.944C230.768 106.699 230.326 106.576 229.792 106.576C229.046 106.576 228.448 106.843 228 107.376C227.563 107.899 227.344 108.635 227.344 109.584C227.344 110.533 227.563 111.275 228 111.808C228.448 112.341 229.046 112.608 229.792 112.608C230.848 112.608 231.547 112.144 231.888 111.216H233.856C233.6 112.112 233.12 112.827 232.416 113.36C231.712 113.883 230.838 114.144 229.792 114.144C228.95 114.144 228.203 113.957 227.552 113.584C226.902 113.2 226.39 112.667 226.016 111.984C225.654 111.291 225.472 110.491 225.472 109.584ZM239.498 114.144C238.666 114.144 237.914 113.957 237.242 113.584C236.57 113.2 236.042 112.667 235.658 111.984C235.274 111.291 235.082 110.491 235.082 109.584C235.082 108.688 235.28 107.893 235.674 107.2C236.069 106.507 236.608 105.973 237.29 105.6C237.973 105.227 238.736 105.04 239.578 105.04C240.421 105.04 241.184 105.227 241.866 105.6C242.549 105.973 243.088 106.507 243.482 107.2C243.877 107.893 244.074 108.688 244.074 109.584C244.074 110.48 243.872 111.275 243.466 111.968C243.061 112.661 242.506 113.2 241.802 113.584C241.109 113.957 240.341 114.144 239.498 114.144ZM239.498 112.56C239.968 112.56 240.405 112.448 240.81 112.224C241.226 112 241.562 111.664 241.818 111.216C242.074 110.768 242.202 110.224 242.202 109.584C242.202 108.944 242.08 108.405 241.834 107.968C241.589 107.52 241.264 107.184 240.858 106.96C240.453 106.736 240.016 106.624 239.546 106.624C239.077 106.624 238.64 106.736 238.234 106.96C237.84 107.184 237.525 107.52 237.29 107.968C237.056 108.405 236.938 108.944 236.938 109.584C236.938 110.533 237.178 111.269 237.658 111.792C238.149 112.304 238.762 112.56 239.498 112.56ZM247.701 106.464C247.968 106.016 248.32 105.669 248.757 105.424C249.205 105.168 249.733 105.04 250.341 105.04V106.928H249.877C249.163 106.928 248.619 107.109 248.245 107.472C247.883 107.835 247.701 108.464 247.701 109.36V114H245.877V105.184H247.701V106.464ZM253.842 106.48C254.151 106.075 254.573 105.733 255.106 105.456C255.639 105.179 256.242 105.04 256.914 105.04C257.682 105.04 258.381 105.232 259.01 105.616C259.65 105.989 260.151 106.517 260.514 107.2C260.877 107.883 261.058 108.667 261.058 109.552C261.058 110.437 260.877 111.232 260.514 111.936C260.151 112.629 259.65 113.173 259.01 113.568C258.381 113.952 257.682 114.144 256.914 114.144C256.242 114.144 255.645 114.011 255.122 113.744C254.599 113.467 254.173 113.125 253.842 112.72V118.192H252.018V105.184H253.842V106.48ZM259.202 109.552C259.202 108.944 259.074 108.421 258.818 107.984C258.573 107.536 258.242 107.2 257.826 106.976C257.421 106.741 256.983 106.624 256.514 106.624C256.055 106.624 255.618 106.741 255.202 106.976C254.797 107.211 254.466 107.552 254.21 108C253.965 108.448 253.842 108.976 253.842 109.584C253.842 110.192 253.965 110.725 254.21 111.184C254.466 111.632 254.797 111.973 255.202 112.208C255.618 112.443 256.055 112.56 256.514 112.56C256.983 112.56 257.421 112.443 257.826 112.208C258.242 111.963 258.573 111.611 258.818 111.152C259.074 110.693 259.202 110.16 259.202 109.552ZM270.942 109.376C270.942 109.707 270.92 110.005 270.878 110.272H264.142C264.195 110.976 264.456 111.541 264.926 111.968C265.395 112.395 265.971 112.608 266.654 112.608C267.635 112.608 268.328 112.197 268.734 111.376H270.702C270.435 112.187 269.95 112.853 269.246 113.376C268.552 113.888 267.688 114.144 266.654 114.144C265.811 114.144 265.054 113.957 264.382 113.584C263.72 113.2 263.198 112.667 262.814 111.984C262.44 111.291 262.254 110.491 262.254 109.584C262.254 108.677 262.435 107.883 262.798 107.2C263.171 106.507 263.688 105.973 264.35 105.6C265.022 105.227 265.79 105.04 266.654 105.04C267.486 105.04 268.227 105.221 268.878 105.584C269.528 105.947 270.035 106.459 270.398 107.12C270.76 107.771 270.942 108.523 270.942 109.376ZM269.038 108.8C269.027 108.128 268.787 107.589 268.318 107.184C267.848 106.779 267.267 106.576 266.574 106.576C265.944 106.576 265.406 106.779 264.958 107.184C264.51 107.579 264.243 108.117 264.158 108.8H269.038ZM274.561 106.464C274.827 106.016 275.179 105.669 275.617 105.424C276.065 105.168 276.593 105.04 277.201 105.04V106.928H276.737C276.022 106.928 275.478 107.109 275.105 107.472C274.742 107.835 274.561 108.464 274.561 109.36V114H272.737V105.184H274.561V106.464ZM282.426 109.552C282.426 108.667 282.607 107.883 282.97 107.2C283.343 106.517 283.844 105.989 284.474 105.616C285.114 105.232 285.818 105.04 286.586 105.04C287.279 105.04 287.882 105.179 288.394 105.456C288.916 105.723 289.332 106.059 289.642 106.464V105.184H291.482V114H289.642V112.688C289.332 113.104 288.911 113.451 288.378 113.728C287.844 114.005 287.236 114.144 286.554 114.144C285.796 114.144 285.103 113.952 284.474 113.568C283.844 113.173 283.343 112.629 282.97 111.936C282.607 111.232 282.426 110.437 282.426 109.552ZM289.642 109.584C289.642 108.976 289.514 108.448 289.258 108C289.012 107.552 288.687 107.211 288.282 106.976C287.876 106.741 287.439 106.624 286.97 106.624C286.5 106.624 286.063 106.741 285.658 106.976C285.252 107.2 284.922 107.536 284.666 107.984C284.42 108.421 284.298 108.944 284.298 109.552C284.298 110.16 284.42 110.693 284.666 111.152C284.922 111.611 285.252 111.963 285.658 112.208C286.074 112.443 286.511 112.56 286.97 112.56C287.439 112.56 287.876 112.443 288.282 112.208C288.687 111.973 289.012 111.632 289.258 111.184C289.514 110.725 289.642 110.192 289.642 109.584ZM296.165 102.88L295.957 110.64H294.437L294.229 102.88H296.165ZM295.253 114.112C294.923 114.112 294.645 114 294.421 113.776C294.197 113.552 294.085 113.275 294.085 112.944C294.085 112.613 294.197 112.336 294.421 112.112C294.645 111.888 294.923 111.776 295.253 111.776C295.573 111.776 295.845 111.888 296.069 112.112C296.293 112.336 296.405 112.613 296.405 112.944C296.405 113.275 296.293 113.552 296.069 113.776C295.845 114 295.573 114.112 295.253 114.112Z" fill="#5E6282"/>
<path d="M34.7449 171.7C34.7449 170.464 35.0209 169.36 35.5729 168.388C36.1369 167.404 36.8989 166.642 37.8589 166.102C38.8309 165.55 39.9169 165.274 41.1169 165.274C42.5209 165.274 43.7509 165.634 44.8069 166.354C45.8629 167.074 46.6009 168.07 47.0209 169.342H44.1229C43.8349 168.742 43.4269 168.292 42.8989 167.992C42.3829 167.692 41.7829 167.542 41.0989 167.542C40.3669 167.542 39.7129 167.716 39.1369 168.064C38.5729 168.4 38.1289 168.88 37.8049 169.504C37.4929 170.128 37.3369 170.86 37.3369 171.7C37.3369 172.528 37.4929 173.26 37.8049 173.896C38.1289 174.52 38.5729 175.006 39.1369 175.354C39.7129 175.69 40.3669 175.858 41.0989 175.858C41.7829 175.858 42.3829 175.708 42.8989 175.408C43.4269 175.096 43.8349 174.64 44.1229 174.04H47.0209C46.6009 175.324 45.8629 176.326 44.8069 177.046C43.7629 177.754 42.5329 178.108 41.1169 178.108C39.9169 178.108 38.8309 177.838 37.8589 177.298C36.8989 176.746 36.1369 175.984 35.5729 175.012C35.0209 174.04 34.7449 172.936 34.7449 171.7ZM54.7893 167.884C55.5453 167.884 56.2173 168.052 56.8053 168.388C57.3933 168.712 57.8493 169.198 58.1733 169.846C58.5093 170.482 58.6773 171.25 58.6773 172.15V178H56.1573V172.492C56.1573 171.7 55.9593 171.094 55.5633 170.674C55.1673 170.242 54.6273 170.026 53.9433 170.026C53.2473 170.026 52.6953 170.242 52.2873 170.674C51.8913 171.094 51.6933 171.7 51.6933 172.492V178H49.1733V164.68H51.6933V169.27C52.0173 168.838 52.4493 168.502 52.9893 168.262C53.5293 168.01 54.1293 167.884 54.7893 167.884ZM63.5937 169.576C63.9177 169.048 64.3377 168.634 64.8537 168.334C65.3817 168.034 65.9817 167.884 66.6537 167.884V170.53H65.9877C65.1957 170.53 64.5957 170.716 64.1877 171.088C63.7917 171.46 63.5937 172.108 63.5937 173.032V178H61.0737V168.028H63.5937V169.576ZM69.629 166.84C69.185 166.84 68.813 166.702 68.513 166.426C68.225 166.138 68.081 165.784 68.081 165.364C68.081 164.944 68.225 164.596 68.513 164.32C68.813 164.032 69.185 163.888 69.629 163.888C70.073 163.888 70.439 164.032 70.727 164.32C71.027 164.596 71.177 164.944 71.177 165.364C71.177 165.784 71.027 166.138 70.727 166.426C70.439 166.702 70.073 166.84 69.629 166.84ZM70.871 168.028V178H68.351V168.028H70.871ZM77.1768 178.162C76.3608 178.162 75.6288 178.018 74.9808 177.73C74.3328 177.43 73.8168 177.028 73.4328 176.524C73.0608 176.02 72.8568 175.462 72.8208 174.85H75.3588C75.4068 175.234 75.5928 175.552 75.9168 175.804C76.2528 176.056 76.6668 176.182 77.1588 176.182C77.6388 176.182 78.0108 176.086 78.2748 175.894C78.5508 175.702 78.6888 175.456 78.6888 175.156C78.6888 174.832 78.5208 174.592 78.1848 174.436C77.8608 174.268 77.3388 174.088 76.6188 173.896C75.8748 173.716 75.2628 173.53 74.7828 173.338C74.3148 173.146 73.9068 172.852 73.5588 172.456C73.2228 172.06 73.0548 171.526 73.0548 170.854C73.0548 170.302 73.2108 169.798 73.5228 169.342C73.8468 168.886 74.3028 168.526 74.8908 168.262C75.4908 167.998 76.1928 167.866 76.9968 167.866C78.1848 167.866 79.1328 168.166 79.8408 168.766C80.5488 169.354 80.9388 170.152 81.0108 171.16H78.5988C78.5628 170.764 78.3948 170.452 78.0948 170.224C77.8068 169.984 77.4168 169.864 76.9248 169.864C76.4688 169.864 76.1148 169.948 75.8628 170.116C75.6228 170.284 75.5028 170.518 75.5028 170.818C75.5028 171.154 75.6708 171.412 76.0068 171.592C76.3428 171.76 76.8648 171.934 77.5728 172.114C78.2928 172.294 78.8868 172.48 79.3548 172.672C79.8228 172.864 80.2248 173.164 80.5608 173.572C80.9088 173.968 81.0888 174.496 81.1008 175.156C81.1008 175.732 80.9388 176.248 80.6148 176.704C80.3028 177.16 79.8468 177.52 79.2468 177.784C78.6588 178.036 77.9688 178.162 77.1768 178.162ZM96.0084 165.436V167.47H92.6604V178H90.1404V167.47H86.7924V165.436H96.0084ZM103.463 167.884C104.219 167.884 104.891 168.052 105.479 168.388C106.067 168.712 106.523 169.198 106.847 169.846C107.183 170.482 107.351 171.25 107.351 172.15V178H104.831V172.492C104.831 171.7 104.633 171.094 104.237 170.674C103.841 170.242 103.301 170.026 102.617 170.026C101.921 170.026 101.369 170.242 100.961 170.674C100.565 171.094 100.367 171.7 100.367 172.492V178H97.8471V164.68H100.367V169.27C100.691 168.838 101.123 168.502 101.663 168.262C102.203 168.01 102.803 167.884 103.463 167.884ZM114.175 178.162C113.215 178.162 112.351 177.952 111.583 177.532C110.815 177.1 110.209 176.494 109.765 175.714C109.333 174.934 109.117 174.034 109.117 173.014C109.117 171.994 109.339 171.094 109.783 170.314C110.239 169.534 110.857 168.934 111.637 168.514C112.417 168.082 113.287 167.866 114.247 167.866C115.207 167.866 116.077 168.082 116.857 168.514C117.637 168.934 118.249 169.534 118.693 170.314C119.149 171.094 119.377 171.994 119.377 173.014C119.377 174.034 119.143 174.934 118.675 175.714C118.219 176.494 117.595 177.1 116.803 177.532C116.023 177.952 115.147 178.162 114.175 178.162ZM114.175 175.966C114.631 175.966 115.057 175.858 115.453 175.642C115.861 175.414 116.185 175.078 116.425 174.634C116.665 174.19 116.785 173.65 116.785 173.014C116.785 172.066 116.533 171.34 116.029 170.836C115.537 170.32 114.931 170.062 114.211 170.062C113.491 170.062 112.885 170.32 112.393 170.836C111.913 171.34 111.673 172.066 111.673 173.014C111.673 173.962 111.907 174.694 112.375 175.21C112.855 175.714 113.455 175.966 114.175 175.966ZM133.61 167.884C134.834 167.884 135.818 168.262 136.562 169.018C137.318 169.762 137.696 170.806 137.696 172.15V178H135.176V172.492C135.176 171.712 134.978 171.118 134.582 170.71C134.186 170.29 133.646 170.08 132.962 170.08C132.278 170.08 131.732 170.29 131.324 170.71C130.928 171.118 130.73 171.712 130.73 172.492V178H128.21V172.492C128.21 171.712 128.012 171.118 127.616 170.71C127.22 170.29 126.68 170.08 125.996 170.08C125.3 170.08 124.748 170.29 124.34 170.71C123.944 171.118 123.746 171.712 123.746 172.492V178H121.226V168.028H123.746V169.234C124.07 168.814 124.484 168.484 124.988 168.244C125.504 168.004 126.068 167.884 126.68 167.884C127.46 167.884 128.156 168.052 128.768 168.388C129.38 168.712 129.854 169.18 130.19 169.792C130.514 169.216 130.982 168.754 131.594 168.406C132.218 168.058 132.89 167.884 133.61 167.884ZM139.439 172.978C139.439 171.97 139.637 171.076 140.033 170.296C140.441 169.516 140.987 168.916 141.671 168.496C142.367 168.076 143.141 167.866 143.993 167.866C144.737 167.866 145.385 168.016 145.937 168.316C146.501 168.616 146.951 168.994 147.287 169.45V168.028H149.825V178H147.287V176.542C146.963 177.01 146.513 177.4 145.937 177.712C145.373 178.012 144.719 178.162 143.975 178.162C143.135 178.162 142.367 177.946 141.671 177.514C140.987 177.082 140.441 176.476 140.033 175.696C139.637 174.904 139.439 173.998 139.439 172.978ZM147.287 173.014C147.287 172.402 147.167 171.88 146.927 171.448C146.687 171.004 146.363 170.668 145.955 170.44C145.547 170.2 145.109 170.08 144.641 170.08C144.173 170.08 143.741 170.194 143.345 170.422C142.949 170.65 142.625 170.986 142.373 171.43C142.133 171.862 142.013 172.378 142.013 172.978C142.013 173.578 142.133 174.106 142.373 174.562C142.625 175.006 142.949 175.348 143.345 175.588C143.753 175.828 144.185 175.948 144.641 175.948C145.109 175.948 145.547 175.834 145.955 175.606C146.363 175.366 146.687 175.03 146.927 174.598C147.167 174.154 147.287 173.626 147.287 173.014ZM156.103 178.162C155.287 178.162 154.555 178.018 153.907 177.73C153.259 177.43 152.743 177.028 152.359 176.524C151.987 176.02 151.783 175.462 151.747 174.85H154.285C154.333 175.234 154.519 175.552 154.843 175.804C155.179 176.056 155.593 176.182 156.085 176.182C156.565 176.182 156.937 176.086 157.201 175.894C157.477 175.702 157.615 175.456 157.615 175.156C157.615 174.832 157.447 174.592 157.111 174.436C156.787 174.268 156.265 174.088 155.545 173.896C154.801 173.716 154.189 173.53 153.709 173.338C153.241 173.146 152.833 172.852 152.485 172.456C152.149 172.06 151.981 171.526 151.981 170.854C151.981 170.302 152.137 169.798 152.449 169.342C152.773 168.886 153.229 168.526 153.817 168.262C154.417 167.998 155.119 167.866 155.923 167.866C157.111 167.866 158.059 168.166 158.767 168.766C159.475 169.354 159.865 170.152 159.937 171.16H157.525C157.489 170.764 157.321 170.452 157.021 170.224C156.733 169.984 156.343 169.864 155.851 169.864C155.395 169.864 155.041 169.948 154.789 170.116C154.549 170.284 154.429 170.518 154.429 170.818C154.429 171.154 154.597 171.412 154.933 171.592C155.269 171.76 155.791 171.934 156.499 172.114C157.219 172.294 157.813 172.48 158.281 172.672C158.749 172.864 159.151 173.164 159.487 173.572C159.835 173.968 160.015 174.496 160.027 175.156C160.027 175.732 159.865 176.248 159.541 176.704C159.229 177.16 158.773 177.52 158.173 177.784C157.585 178.036 156.895 178.162 156.103 178.162Z" fill="#5E6282"/>
<path d="M34.6329 200.114C34.6329 199.162 34.8522 198.308 35.2909 197.552C35.7389 196.796 36.3409 196.208 37.0969 195.788C37.8622 195.359 38.6975 195.144 39.6029 195.144C40.6389 195.144 41.5582 195.401 42.3609 195.914C43.1729 196.418 43.7609 197.137 44.1249 198.07H42.2069C41.9549 197.557 41.6049 197.174 41.1569 196.922C40.7089 196.67 40.1909 196.544 39.6029 196.544C38.9589 196.544 38.3849 196.689 37.8809 196.978C37.3769 197.267 36.9802 197.683 36.6909 198.224C36.4109 198.765 36.2709 199.395 36.2709 200.114C36.2709 200.833 36.4109 201.463 36.6909 202.004C36.9802 202.545 37.3769 202.965 37.8809 203.264C38.3849 203.553 38.9589 203.698 39.6029 203.698C40.1909 203.698 40.7089 203.572 41.1569 203.32C41.6049 203.068 41.9549 202.685 42.2069 202.172H44.1249C43.7609 203.105 43.1729 203.824 42.3609 204.328C41.5582 204.832 40.6389 205.084 39.6029 205.084C38.6882 205.084 37.8529 204.874 37.0969 204.454C36.3409 204.025 35.7389 203.432 35.2909 202.676C34.8522 201.92 34.6329 201.066 34.6329 200.114ZM47.589 196.558V199.414H50.949V200.716H47.589V203.698H51.369V205H45.993V195.256H51.369V196.558H47.589ZM57.7728 205.098C56.8675 205.098 56.0321 204.888 55.2668 204.468C54.5108 204.039 53.9088 203.446 53.4608 202.69C53.0221 201.925 52.8028 201.066 52.8028 200.114C52.8028 199.162 53.0221 198.308 53.4608 197.552C53.9088 196.796 54.5108 196.208 55.2668 195.788C56.0321 195.359 56.8675 195.144 57.7728 195.144C58.6875 195.144 59.5228 195.359 60.2788 195.788C61.0441 196.208 61.6461 196.796 62.0848 197.552C62.5235 198.308 62.7428 199.162 62.7428 200.114C62.7428 201.066 62.5235 201.925 62.0848 202.69C61.6461 203.446 61.0441 204.039 60.2788 204.468C59.5228 204.888 58.6875 205.098 57.7728 205.098ZM57.7728 203.712C58.4168 203.712 58.9908 203.567 59.4948 203.278C59.9988 202.979 60.3908 202.559 60.6708 202.018C60.9601 201.467 61.1048 200.833 61.1048 200.114C61.1048 199.395 60.9601 198.765 60.6708 198.224C60.3908 197.683 59.9988 197.267 59.4948 196.978C58.9908 196.689 58.4168 196.544 57.7728 196.544C57.1288 196.544 56.5548 196.689 56.0508 196.978C55.5468 197.267 55.1501 197.683 54.8608 198.224C54.5808 198.765 54.4408 199.395 54.4408 200.114C54.4408 200.833 54.5808 201.467 54.8608 202.018C55.1501 202.559 55.5468 202.979 56.0508 203.278C56.5548 203.567 57.1288 203.712 57.7728 203.712ZM71.296 205.126C70.568 205.126 69.91 204.963 69.322 204.636C68.734 204.3 68.272 203.833 67.936 203.236C67.6 202.629 67.432 201.929 67.432 201.136C67.432 200.352 67.6047 199.657 67.95 199.05C68.2954 198.443 68.7667 197.977 69.364 197.65C69.9614 197.323 70.6287 197.16 71.366 197.16C72.1034 197.16 72.7707 197.323 73.368 197.65C73.9654 197.977 74.4367 198.443 74.782 199.05C75.1274 199.657 75.3 200.352 75.3 201.136C75.3 201.92 75.1227 202.615 74.768 203.222C74.4134 203.829 73.928 204.3 73.312 204.636C72.7054 204.963 72.0334 205.126 71.296 205.126ZM71.296 203.74C71.7067 203.74 72.0894 203.642 72.444 203.446C72.808 203.25 73.102 202.956 73.326 202.564C73.55 202.172 73.662 201.696 73.662 201.136C73.662 200.576 73.5547 200.105 73.34 199.722C73.1254 199.33 72.8407 199.036 72.486 198.84C72.1314 198.644 71.7487 198.546 71.338 198.546C70.9274 198.546 70.5447 198.644 70.19 198.84C69.8447 199.036 69.5694 199.33 69.364 199.722C69.1587 200.105 69.056 200.576 69.056 201.136C69.056 201.967 69.266 202.611 69.686 203.068C70.1154 203.516 70.652 203.74 71.296 203.74ZM80.1118 198.588H78.6838V205H77.0738V198.588H76.1638V197.286H77.0738V196.74C77.0738 195.853 77.3071 195.209 77.7738 194.808C78.2498 194.397 78.9918 194.192 79.9998 194.192V195.522C79.5144 195.522 79.1738 195.615 78.9778 195.802C78.7818 195.979 78.6838 196.292 78.6838 196.74V197.286H80.1118V198.588ZM90.2169 205L87.9769 201.108H86.7589V205H85.1629V195.27H88.5229C89.2696 195.27 89.8996 195.401 90.4129 195.662C90.9356 195.923 91.3229 196.273 91.5749 196.712C91.8362 197.151 91.9669 197.641 91.9669 198.182C91.9669 198.817 91.7802 199.395 91.4069 199.918C91.0429 200.431 90.4782 200.781 89.7129 200.968L92.1209 205H90.2169ZM86.7589 199.834H88.5229C89.1202 199.834 89.5682 199.685 89.8669 199.386C90.1749 199.087 90.3289 198.686 90.3289 198.182C90.3289 197.678 90.1796 197.286 89.8809 197.006C89.5822 196.717 89.1296 196.572 88.5229 196.572H86.7589V199.834ZM101.079 200.954C101.079 201.243 101.06 201.505 101.023 201.738H95.1286C95.1753 202.354 95.404 202.849 95.8146 203.222C96.2253 203.595 96.7293 203.782 97.3266 203.782C98.1853 203.782 98.792 203.423 99.1466 202.704H100.869C100.635 203.413 100.211 203.997 99.5946 204.454C98.988 204.902 98.232 205.126 97.3266 205.126C96.5893 205.126 95.9266 204.963 95.3386 204.636C94.76 204.3 94.3026 203.833 93.9666 203.236C93.64 202.629 93.4766 201.929 93.4766 201.136C93.4766 200.343 93.6353 199.647 93.9526 199.05C94.2793 198.443 94.732 197.977 95.3106 197.65C95.8986 197.323 96.5706 197.16 97.3266 197.16C98.0546 197.16 98.7033 197.319 99.2726 197.636C99.842 197.953 100.285 198.401 100.603 198.98C100.92 199.549 101.079 200.207 101.079 200.954ZM99.4126 200.45C99.4033 199.862 99.1933 199.391 98.7826 199.036C98.372 198.681 97.8633 198.504 97.2566 198.504C96.706 198.504 96.2346 198.681 95.8426 199.036C95.4506 199.381 95.2173 199.853 95.1426 200.45H99.4126ZM102.117 201.108C102.117 200.333 102.276 199.647 102.593 199.05C102.92 198.453 103.359 197.991 103.909 197.664C104.469 197.328 105.09 197.16 105.771 197.16C106.275 197.16 106.77 197.272 107.255 197.496C107.75 197.711 108.142 198 108.431 198.364V194.64H110.041V205H108.431V203.838C108.17 204.211 107.806 204.519 107.339 204.762C106.882 205.005 106.355 205.126 105.757 205.126C105.085 205.126 104.469 204.958 103.909 204.622C103.359 204.277 102.92 203.801 102.593 203.194C102.276 202.578 102.117 201.883 102.117 201.108ZM108.431 201.136C108.431 200.604 108.319 200.142 108.095 199.75C107.881 199.358 107.596 199.059 107.241 198.854C106.887 198.649 106.504 198.546 106.093 198.546C105.683 198.546 105.3 198.649 104.945 198.854C104.591 199.05 104.301 199.344 104.077 199.736C103.863 200.119 103.755 200.576 103.755 201.108C103.755 201.64 103.863 202.107 104.077 202.508C104.301 202.909 104.591 203.217 104.945 203.432C105.309 203.637 105.692 203.74 106.093 203.74C106.504 203.74 106.887 203.637 107.241 203.432C107.596 203.227 107.881 202.928 108.095 202.536C108.319 202.135 108.431 201.668 108.431 201.136ZM120.982 200.002C121.505 200.095 121.948 200.371 122.312 200.828C122.676 201.285 122.858 201.803 122.858 202.382C122.858 202.877 122.728 203.325 122.466 203.726C122.214 204.118 121.846 204.431 121.36 204.664C120.875 204.888 120.31 205 119.666 205H115.774V195.27H119.484C120.147 195.27 120.716 195.382 121.192 195.606C121.668 195.83 122.028 196.133 122.27 196.516C122.513 196.889 122.634 197.309 122.634 197.776C122.634 198.336 122.485 198.803 122.186 199.176C121.888 199.549 121.486 199.825 120.982 200.002ZM117.37 199.358H119.344C119.867 199.358 120.273 199.241 120.562 199.008C120.861 198.765 121.01 198.42 121.01 197.972C121.01 197.533 120.861 197.193 120.562 196.95C120.273 196.698 119.867 196.572 119.344 196.572H117.37V199.358ZM119.526 203.698C120.068 203.698 120.492 203.567 120.8 203.306C121.108 203.045 121.262 202.681 121.262 202.214C121.262 201.738 121.099 201.36 120.772 201.08C120.446 200.8 120.012 200.66 119.47 200.66H117.37V203.698H119.526ZM131.579 197.286V205H129.983V204.09C129.731 204.407 129.399 204.659 128.989 204.846C128.587 205.023 128.158 205.112 127.701 205.112C127.094 205.112 126.548 204.986 126.063 204.734C125.587 204.482 125.209 204.109 124.929 203.614C124.658 203.119 124.523 202.522 124.523 201.822V197.286H126.105V201.584C126.105 202.275 126.277 202.807 126.623 203.18C126.968 203.544 127.439 203.726 128.037 203.726C128.634 203.726 129.105 203.544 129.451 203.18C129.805 202.807 129.983 202.275 129.983 201.584V197.286H131.579ZM135.546 198.588V202.858C135.546 203.147 135.612 203.357 135.742 203.488C135.882 203.609 136.116 203.67 136.442 203.67H137.422V205H136.162C135.444 205 134.893 204.832 134.51 204.496C134.128 204.16 133.936 203.614 133.936 202.858V198.588H133.026V197.286H133.936V195.368H135.546V197.286H137.422V198.588H135.546ZM140.755 198.588V202.858C140.755 203.147 140.821 203.357 140.951 203.488C141.091 203.609 141.325 203.67 141.651 203.67H142.631V205H141.371C140.653 205 140.102 204.832 139.719 204.496C139.337 204.16 139.145 203.614 139.145 202.858V198.588H138.235V197.286H139.145V195.368H140.755V197.286H142.631V198.588H140.755ZM147.448 205.126C146.72 205.126 146.062 204.963 145.474 204.636C144.886 204.3 144.424 203.833 144.088 203.236C143.752 202.629 143.584 201.929 143.584 201.136C143.584 200.352 143.757 199.657 144.102 199.05C144.448 198.443 144.919 197.977 145.516 197.65C146.114 197.323 146.781 197.16 147.518 197.16C148.256 197.16 148.923 197.323 149.52 197.65C150.118 197.977 150.589 198.443 150.934 199.05C151.28 199.657 151.452 200.352 151.452 201.136C151.452 201.92 151.275 202.615 150.92 203.222C150.566 203.829 150.08 204.3 149.464 204.636C148.858 204.963 148.186 205.126 147.448 205.126ZM147.448 203.74C147.859 203.74 148.242 203.642 148.596 203.446C148.96 203.25 149.254 202.956 149.478 202.564C149.702 202.172 149.814 201.696 149.814 201.136C149.814 200.576 149.707 200.105 149.492 199.722C149.278 199.33 148.993 199.036 148.638 198.84C148.284 198.644 147.901 198.546 147.49 198.546C147.08 198.546 146.697 198.644 146.342 198.84C145.997 199.036 145.722 199.33 145.516 199.722C145.311 200.105 145.208 200.576 145.208 201.136C145.208 201.967 145.418 202.611 145.838 203.068C146.268 203.516 146.804 203.74 147.448 203.74ZM156.922 197.16C157.529 197.16 158.07 197.286 158.546 197.538C159.031 197.79 159.409 198.163 159.68 198.658C159.951 199.153 160.086 199.75 160.086 200.45V205H158.504V200.688C158.504 199.997 158.331 199.47 157.986 199.106C157.641 198.733 157.169 198.546 156.572 198.546C155.975 198.546 155.499 198.733 155.144 199.106C154.799 199.47 154.626 199.997 154.626 200.688V205H153.03V197.286H154.626V198.168C154.887 197.851 155.219 197.603 155.62 197.426C156.031 197.249 156.465 197.16 156.922 197.16Z" fill="#5E6282"/>
</svg>
