<svg width="504" height="245" viewBox="0 0 504 245" fill="none" xmlns="http://www.w3.org/2000/svg">
<rect width="504" height="245" rx="10" fill="white"/>
<path d="M36.08 38.88L34.4 42.688H36.384L37.36 38.88H36.08ZM38.96 38.88L37.28 42.688H39.264L40.24 38.88H38.96ZM52.7645 44.416C52.7645 41.088 50.2525 38.736 47.0845 38.736C43.9485 38.736 41.4045 41.088 41.4045 44.416C41.4045 47.76 43.9485 50.112 47.0845 50.112C50.2525 50.112 52.7645 47.76 52.7645 44.416ZM43.2765 44.416C43.2765 41.904 44.8765 40.336 47.0845 40.336C49.2925 40.336 50.8925 41.904 50.8925 44.416C50.8925 46.928 49.2925 48.528 47.0845 48.528C44.8765 48.528 43.2765 46.928 43.2765 44.416ZM60.8154 50H62.6234V44.8C62.6234 42.336 61.0714 41.04 59.0074 41.04C57.9514 41.04 56.9754 41.472 56.3834 42.192V41.184H54.5594V50H56.3834V45.072C56.3834 43.456 57.2634 42.624 58.6074 42.624C59.9354 42.624 60.8154 43.456 60.8154 45.072V50ZM69.3943 47.552C69.3943 49.344 70.3703 50 71.9383 50H73.3783V48.48H72.2583C71.4903 48.48 71.2343 48.208 71.2343 47.552V42.672H73.3783V41.184H71.2343V38.992H69.3943V41.184H68.3543V42.672H69.3943V47.552ZM75.0594 50H76.8834V45.072C76.8834 43.456 77.7634 42.624 79.1074 42.624C80.4354 42.624 81.3154 43.456 81.3154 45.072V50H83.1234V44.8C83.1234 42.336 81.5874 41.04 79.6194 41.04C78.4834 41.04 77.4914 41.472 76.8834 42.208V38.16H75.0594V50ZM89.162 42.576C90.522 42.576 91.594 43.44 91.626 44.8H86.746C86.938 43.408 87.93 42.576 89.162 42.576ZM93.29 47.376H91.322C90.986 48.064 90.362 48.608 89.242 48.608C87.898 48.608 86.858 47.728 86.73 46.272H93.466C93.514 45.968 93.53 45.68 93.53 45.376C93.53 42.784 91.754 41.04 89.242 41.04C86.634 41.04 84.842 42.816 84.842 45.584C84.842 48.352 86.714 50.144 89.242 50.144C91.402 50.144 92.794 48.912 93.29 47.376ZM101.737 50.016L103.785 50L106.265 41.584L108.601 50H110.665L113.961 38.88H112.009L109.689 47.888L107.369 38.88H105.321L102.825 47.936L100.521 38.88H98.5853L101.737 50.016ZM115.466 50H117.29V41.184H115.466V50ZM116.394 40.016C117.034 40.016 117.546 39.504 117.546 38.848C117.546 38.192 117.034 37.68 116.394 37.68C115.738 37.68 115.226 38.192 115.226 38.848C115.226 39.504 115.738 40.016 116.394 40.016ZM125.94 50H127.748V44.8C127.748 42.336 126.196 41.04 124.132 41.04C123.076 41.04 122.1 41.472 121.508 42.192V41.184H119.684V50H121.508V45.072C121.508 43.456 122.388 42.624 123.732 42.624C125.06 42.624 125.94 43.456 125.94 45.072V50ZM129.467 45.552C129.467 48.272 131.307 50.144 133.627 50.144C135.067 50.144 136.123 49.472 136.683 48.672V50H138.523V38.16H136.683V42.416C136.011 41.584 134.795 41.04 133.643 41.04C131.307 41.04 129.467 42.832 129.467 45.552ZM136.683 45.584C136.683 47.488 135.387 48.56 134.011 48.56C132.651 48.56 131.339 47.456 131.339 45.552C131.339 43.648 132.651 42.624 134.011 42.624C135.387 42.624 136.683 43.696 136.683 45.584ZM149.319 45.584C149.319 42.816 147.335 41.04 144.823 41.04C142.311 41.04 140.327 42.816 140.327 45.584C140.327 48.352 142.231 50.144 144.743 50.144C147.271 50.144 149.319 48.352 149.319 45.584ZM142.183 45.584C142.183 43.584 143.415 42.624 144.791 42.624C146.151 42.624 147.447 43.584 147.447 45.584C147.447 47.584 146.103 48.56 144.743 48.56C143.367 48.56 142.183 47.584 142.183 45.584ZM152.834 50H154.754L156.53 43.488L158.306 50H160.226L162.962 41.184H161.17L159.346 48.24L157.554 41.184H155.65L153.778 48.272L151.938 41.184H150.082L152.834 50ZM170.901 47.536C170.805 44.352 165.829 45.344 165.829 43.568C165.829 42.976 166.341 42.576 167.317 42.576C168.309 42.576 168.901 43.104 168.965 43.872H170.789C170.693 42.112 169.381 41.04 167.381 41.04C165.301 41.04 163.989 42.176 163.989 43.584C163.989 46.816 169.109 45.824 169.109 47.552C169.109 48.16 168.549 48.608 167.493 48.608C166.485 48.608 165.797 48.016 165.733 47.296H163.845C163.925 48.896 165.413 50.144 167.525 50.144C169.605 50.144 170.901 49.024 170.901 47.536ZM177.316 47.552C177.316 49.344 178.292 50 179.86 50H181.3V48.48H180.18C179.412 48.48 179.156 48.208 179.156 47.552V42.672H181.3V41.184H179.156V38.992H177.316V41.184H176.276V42.672H177.316V47.552ZM182.373 45.552C182.373 48.272 184.213 50.144 186.501 50.144C187.973 50.144 189.029 49.44 189.589 48.688V50H191.429V41.184H189.589V42.464C189.045 41.744 188.021 41.04 186.533 41.04C184.213 41.04 182.373 42.832 182.373 45.552ZM189.589 45.584C189.589 47.488 188.293 48.56 186.917 48.56C185.557 48.56 184.245 47.456 184.245 45.552C184.245 43.648 185.557 42.624 186.917 42.624C188.293 42.624 189.589 43.696 189.589 45.584ZM193.825 50H195.649V38.16H193.825V50ZM198.044 50H199.868V46.208L203.132 50H205.596L201.532 45.6L205.596 41.184H203.068L199.868 45.04V38.16H198.044V50ZM206.903 50H208.727V41.184H206.903V50ZM207.831 40.016C208.471 40.016 208.983 39.504 208.983 38.848C208.983 38.192 208.471 37.68 207.831 37.68C207.175 37.68 206.663 38.192 206.663 38.848C206.663 39.504 207.175 40.016 207.831 40.016ZM217.378 50H219.186V44.8C219.186 42.336 217.634 41.04 215.57 41.04C214.514 41.04 213.538 41.472 212.946 42.192V41.184H211.122V50H212.946V45.072C212.946 43.456 213.826 42.624 215.17 42.624C216.498 42.624 217.378 43.456 217.378 45.072V50ZM220.905 45.552C220.905 48.272 222.745 50.144 225.065 50.144C226.505 50.144 227.561 49.424 228.121 48.672V50.144C228.121 51.904 227.065 52.768 225.657 52.768C224.393 52.768 223.417 52.144 223.145 51.232H221.337C221.561 53.184 223.305 54.352 225.657 54.352C228.409 54.352 229.961 52.544 229.961 50.144V41.184H228.121V42.464C227.577 41.712 226.505 41.04 225.065 41.04C222.745 41.04 220.905 42.832 220.905 45.552ZM228.121 45.584C228.121 47.488 226.825 48.56 225.449 48.56C224.089 48.56 222.777 47.456 222.777 45.552C222.777 43.648 224.089 42.624 225.449 42.624C226.825 42.624 228.121 43.696 228.121 45.584ZM238.337 42.48V41.184H236.513V54.192H238.337V48.72C238.913 49.408 239.953 50.144 241.409 50.144C243.729 50.144 245.553 48.272 245.553 45.552C245.553 42.832 243.729 41.04 241.409 41.04C239.969 41.04 238.897 41.744 238.337 42.48ZM243.697 45.552C243.697 47.456 242.385 48.56 241.009 48.56C239.649 48.56 238.337 47.488 238.337 45.584C238.337 43.696 239.649 42.624 241.009 42.624C242.385 42.624 243.697 43.648 243.697 45.552ZM246.748 45.552C246.748 48.272 248.588 50.144 250.876 50.144C252.348 50.144 253.404 49.44 253.964 48.688V50H255.804V41.184H253.964V42.464C253.42 41.744 252.396 41.04 250.908 41.04C248.588 41.04 246.748 42.832 246.748 45.552ZM253.964 45.584C253.964 47.488 252.668 48.56 251.292 48.56C249.932 48.56 248.62 47.456 248.62 45.552C248.62 43.648 249.932 42.624 251.292 42.624C252.668 42.624 253.964 43.696 253.964 45.584ZM258.2 50H260.024V41.184H258.2V50ZM259.128 40.016C259.768 40.016 260.28 39.504 260.28 38.848C260.28 38.192 259.768 37.68 259.128 37.68C258.472 37.68 257.96 38.192 257.96 38.848C257.96 39.504 258.472 40.016 259.128 40.016ZM268.675 50H270.483V44.8C270.483 42.336 268.931 41.04 266.867 41.04C265.811 41.04 264.835 41.472 264.243 42.192V41.184H262.419V50H264.243V45.072C264.243 43.456 265.123 42.624 266.467 42.624C267.795 42.624 268.675 43.456 268.675 45.072V50ZM273.097 47.552C273.097 49.344 274.073 50 275.641 50H277.081V48.48H275.961C275.193 48.48 274.937 48.208 274.937 47.552V42.672H277.081V41.184H274.937V38.992H273.097V41.184H272.057V42.672H273.097V47.552ZM282.475 42.576C283.835 42.576 284.907 43.44 284.939 44.8H280.059C280.251 43.408 281.243 42.576 282.475 42.576ZM286.602 47.376H284.635C284.299 48.064 283.675 48.608 282.555 48.608C281.211 48.608 280.171 47.728 280.043 46.272H286.779C286.827 45.968 286.843 45.68 286.843 45.376C286.843 42.784 285.067 41.04 282.555 41.04C279.947 41.04 278.155 42.816 278.155 45.584C278.155 48.352 280.027 50.144 282.555 50.144C284.715 50.144 286.107 48.912 286.602 47.376ZM288.03 45.552C288.03 48.272 289.87 50.144 292.19 50.144C293.63 50.144 294.686 49.472 295.246 48.672V50H297.086V38.16H295.246V42.416C294.574 41.584 293.358 41.04 292.206 41.04C289.87 41.04 288.03 42.832 288.03 45.552ZM295.246 45.584C295.246 47.488 293.95 48.56 292.574 48.56C291.214 48.56 289.902 47.456 289.902 45.552C289.902 43.648 291.214 42.624 292.574 42.624C293.95 42.624 295.246 43.696 295.246 45.584ZM305.462 42.48V41.184H303.638V54.192H305.462V48.72C306.038 49.408 307.078 50.144 308.534 50.144C310.854 50.144 312.678 48.272 312.678 45.552C312.678 42.832 310.854 41.04 308.534 41.04C307.094 41.04 306.022 41.744 305.462 42.48ZM310.822 45.552C310.822 47.456 309.51 48.56 308.134 48.56C306.774 48.56 305.462 47.488 305.462 45.584C305.462 43.696 306.774 42.624 308.134 42.624C309.51 42.624 310.822 43.648 310.822 45.552ZM313.873 45.552C313.873 48.272 315.713 50.144 318.001 50.144C319.473 50.144 320.529 49.44 321.089 48.688V50H322.929V41.184H321.089V42.464C320.545 41.744 319.521 41.04 318.033 41.04C315.713 41.04 313.873 42.832 313.873 45.552ZM321.089 45.584C321.089 47.488 319.793 48.56 318.417 48.56C317.057 48.56 315.745 47.456 315.745 45.552C315.745 43.648 317.057 42.624 318.417 42.624C319.793 42.624 321.089 43.696 321.089 45.584ZM331.901 47.536C331.805 44.352 326.829 45.344 326.829 43.568C326.829 42.976 327.341 42.576 328.317 42.576C329.309 42.576 329.901 43.104 329.965 43.872H331.789C331.693 42.112 330.381 41.04 328.381 41.04C326.301 41.04 324.989 42.176 324.989 43.584C324.989 46.816 330.109 45.824 330.109 47.552C330.109 48.16 329.549 48.608 328.493 48.608C327.485 48.608 326.797 48.016 326.733 47.296H324.845C324.925 48.896 326.413 50.144 328.525 50.144C330.605 50.144 331.901 49.024 331.901 47.536ZM334.16 47.552C334.16 49.344 335.136 50 336.704 50H338.144V48.48H337.024C336.256 48.48 336 48.208 336 47.552V42.672H338.144V41.184H336V38.992H334.16V41.184H333.12V42.672H334.16V47.552ZM347.809 41.184H345.985V46.096C345.985 47.712 345.105 48.544 343.761 48.544C342.433 48.544 341.553 47.712 341.553 46.096V41.184H339.745V46.368C339.745 48.832 341.313 50.128 343.377 50.128C344.417 50.128 345.409 49.696 345.985 48.944V50H347.809V41.184ZM352.04 45.36C352.04 43.488 352.872 42.928 354.216 42.928H354.68V41.04C353.432 41.04 352.552 41.584 352.04 42.464V41.184H350.216V50H352.04V45.36ZM360.068 42.576C361.428 42.576 362.5 43.44 362.532 44.8H357.652C357.844 43.408 358.836 42.576 360.068 42.576ZM364.196 47.376H362.228C361.892 48.064 361.268 48.608 360.148 48.608C358.804 48.608 357.764 47.728 357.636 46.272H364.372C364.42 45.968 364.436 45.68 364.436 45.376C364.436 42.784 362.66 41.04 360.148 41.04C357.54 41.04 355.748 42.816 355.748 45.584C355.748 48.352 357.62 50.144 360.148 50.144C362.308 50.144 363.7 48.912 364.196 47.376ZM373.86 47.904L371.38 41.184H369.348L372.82 49.856L371.028 54.144H372.916L378.324 41.184H376.436L373.86 47.904ZM383.412 42.576C384.772 42.576 385.844 43.44 385.876 44.8H380.996C381.188 43.408 382.18 42.576 383.412 42.576ZM387.54 47.376H385.572C385.236 48.064 384.612 48.608 383.492 48.608C382.148 48.608 381.108 47.728 380.98 46.272H387.716C387.764 45.968 387.78 45.68 387.78 45.376C387.78 42.784 386.004 41.04 383.492 41.04C380.884 41.04 379.092 42.816 379.092 45.584C379.092 48.352 380.964 50.144 383.492 50.144C385.652 50.144 387.044 48.912 387.54 47.376ZM389.863 47.552C389.863 49.344 390.839 50 392.407 50H393.847V48.48H392.727C391.959 48.48 391.703 48.208 391.703 47.552V42.672H393.847V41.184H391.703V38.992H389.863V41.184H388.823V42.672H389.863V47.552ZM399.684 50H401.508V41.184H399.684V50ZM400.612 40.016C401.252 40.016 401.764 39.504 401.764 38.848C401.764 38.192 401.252 37.68 400.612 37.68C399.956 37.68 399.444 38.192 399.444 38.848C399.444 39.504 399.956 40.016 400.612 40.016ZM404.191 47.552C404.191 49.344 405.167 50 406.735 50H408.175V48.48H407.055C406.287 48.48 406.031 48.208 406.031 47.552V42.672H408.175V41.184H406.031V38.992H404.191V41.184H403.151V42.672H404.191V47.552ZM416.432 47.536C416.336 44.352 411.36 45.344 411.36 43.568C411.36 42.976 411.872 42.576 412.848 42.576C413.84 42.576 414.432 43.104 414.496 43.872H416.32C416.224 42.112 414.912 41.04 412.912 41.04C410.832 41.04 409.52 42.176 409.52 43.584C409.52 46.816 414.64 45.824 414.64 47.552C414.64 48.16 414.08 48.608 413.024 48.608C412.016 48.608 411.328 48.016 411.264 47.296H409.376C409.456 48.896 410.944 50.144 413.056 50.144C415.136 50.144 416.432 49.024 416.432 47.536ZM38.912 74.576C40.272 74.576 41.344 75.44 41.376 76.8H36.496C36.688 75.408 37.68 74.576 38.912 74.576ZM43.04 79.376H41.072C40.736 80.064 40.112 80.608 38.992 80.608C37.648 80.608 36.608 79.728 36.48 78.272H43.216C43.264 77.968 43.28 77.68 43.28 77.376C43.28 74.784 41.504 73.04 38.992 73.04C36.384 73.04 34.592 74.816 34.592 77.584C34.592 80.352 36.464 82.144 38.992 82.144C41.152 82.144 42.544 80.912 43.04 79.376ZM49.635 82H51.699L48.851 77.536L51.699 73.184H49.795L48.003 76.176L46.099 73.184H44.035L46.883 77.664L44.035 82H45.939L47.731 79.008L49.635 82ZM54.8834 74.48V73.184H53.0594V86.192H54.8834V80.72C55.4594 81.408 56.4994 82.144 57.9554 82.144C60.2754 82.144 62.0994 80.272 62.0994 77.552C62.0994 74.832 60.2754 73.04 57.9554 73.04C56.5154 73.04 55.4434 73.744 54.8834 74.48ZM60.2434 77.552C60.2434 79.456 58.9314 80.56 57.5554 80.56C56.1954 80.56 54.8834 79.488 54.8834 77.584C54.8834 75.696 56.1954 74.624 57.5554 74.624C58.9314 74.624 60.2434 75.648 60.2434 77.552ZM65.7271 77.36C65.7271 75.488 66.5591 74.928 67.9031 74.928H68.3671V73.04C67.1191 73.04 66.2391 73.584 65.7271 74.464V73.184H63.9031V82H65.7271V77.36ZM73.7558 74.576C75.1158 74.576 76.1878 75.44 76.2198 76.8H71.3398C71.5318 75.408 72.5238 74.576 73.7558 74.576ZM77.8837 79.376H75.9158C75.5798 80.064 74.9558 80.608 73.8358 80.608C72.4918 80.608 71.4518 79.728 71.3238 78.272H78.0598C78.1078 77.968 78.1238 77.68 78.1238 77.376C78.1238 74.784 76.3478 73.04 73.8358 73.04C71.2278 73.04 69.4358 74.816 69.4358 77.584C69.4358 80.352 71.3078 82.144 73.8358 82.144C75.9958 82.144 77.3878 80.912 77.8837 79.376ZM86.4948 79.536C86.3988 76.352 81.4228 77.344 81.4228 75.568C81.4228 74.976 81.9348 74.576 82.9108 74.576C83.9028 74.576 84.4948 75.104 84.5588 75.872H86.3828C86.2868 74.112 84.9748 73.04 82.9748 73.04C80.8948 73.04 79.5828 74.176 79.5828 75.584C79.5828 78.816 84.7028 77.824 84.7028 79.552C84.7028 80.16 84.1428 80.608 83.0868 80.608C82.0788 80.608 81.3908 80.016 81.3268 79.296H79.4388C79.5188 80.896 81.0068 82.144 83.1188 82.144C85.1988 82.144 86.4948 81.024 86.4948 79.536ZM95.0416 79.536C94.9456 76.352 89.9696 77.344 89.9696 75.568C89.9696 74.976 90.4816 74.576 91.4576 74.576C92.4496 74.576 93.0416 75.104 93.1056 75.872H94.9296C94.8336 74.112 93.5216 73.04 91.5216 73.04C89.4416 73.04 88.1296 74.176 88.1296 75.584C88.1296 78.816 93.2496 77.824 93.2496 79.552C93.2496 80.16 92.6896 80.608 91.6336 80.608C90.6256 80.608 89.9376 80.016 89.8736 79.296H87.9856C88.0656 80.896 89.5536 82.144 91.6656 82.144C93.7456 82.144 95.0416 81.024 95.0416 79.536ZM102.993 74.48V73.184H101.169V86.192H102.993V80.72C103.569 81.408 104.609 82.144 106.065 82.144C108.385 82.144 110.209 80.272 110.209 77.552C110.209 74.832 108.385 73.04 106.065 73.04C104.625 73.04 103.553 73.744 102.993 74.48ZM108.353 77.552C108.353 79.456 107.041 80.56 105.665 80.56C104.305 80.56 102.993 79.488 102.993 77.584C102.993 75.696 104.305 74.624 105.665 74.624C107.041 74.624 108.353 75.648 108.353 77.552ZM111.405 77.552C111.405 80.272 113.245 82.144 115.533 82.144C117.005 82.144 118.061 81.44 118.621 80.688V82H120.461V73.184H118.621V74.464C118.077 73.744 117.053 73.04 115.565 73.04C113.245 73.04 111.405 74.832 111.405 77.552ZM118.621 77.584C118.621 79.488 117.325 80.56 115.949 80.56C114.589 80.56 113.277 79.456 113.277 77.552C113.277 75.648 114.589 74.624 115.949 74.624C117.325 74.624 118.621 75.696 118.621 77.584ZM124.68 77.36C124.68 75.488 125.512 74.928 126.856 74.928H127.32V73.04C126.072 73.04 125.192 73.584 124.68 74.464V73.184H122.856V82H124.68V77.36ZM129.285 79.552C129.285 81.344 130.261 82 131.829 82H133.269V80.48H132.149C131.381 80.48 131.125 80.208 131.125 79.552V74.672H133.269V73.184H131.125V70.992H129.285V73.184H128.245V74.672H129.285V79.552ZM134.95 82H136.774V73.184H134.95V82ZM135.878 72.016C136.518 72.016 137.03 71.504 137.03 70.848C137.03 70.192 136.518 69.68 135.878 69.68C135.222 69.68 134.71 70.192 134.71 70.848C134.71 71.504 135.222 72.016 135.878 72.016ZM142.881 74.576C144.241 74.576 145.313 75.44 145.345 76.8H140.465C140.657 75.408 141.649 74.576 142.881 74.576ZM147.009 79.376H145.041C144.705 80.064 144.081 80.608 142.961 80.608C141.617 80.608 140.577 79.728 140.449 78.272H147.185C147.233 77.968 147.249 77.68 147.249 77.376C147.249 74.784 145.473 73.04 142.961 73.04C140.353 73.04 138.561 74.816 138.561 77.584C138.561 80.352 140.433 82.144 142.961 82.144C145.121 82.144 146.513 80.912 147.009 79.376ZM155.62 79.536C155.524 76.352 150.548 77.344 150.548 75.568C150.548 74.976 151.06 74.576 152.036 74.576C153.028 74.576 153.62 75.104 153.684 75.872H155.508C155.412 74.112 154.1 73.04 152.1 73.04C150.02 73.04 148.708 74.176 148.708 75.584C148.708 78.816 153.828 77.824 153.828 79.552C153.828 80.16 153.268 80.608 152.212 80.608C151.204 80.608 150.516 80.016 150.452 79.296H148.564C148.644 80.896 150.132 82.144 152.244 82.144C154.324 82.144 155.62 81.024 155.62 79.536ZM169.731 73.184H167.907V78.096C167.907 79.712 167.027 80.544 165.683 80.544C164.355 80.544 163.475 79.712 163.475 78.096V73.184H161.667V78.368C161.667 80.832 163.235 82.128 165.299 82.128C166.339 82.128 167.331 81.696 167.907 80.944V82H169.731V73.184ZM178.714 79.536C178.618 76.352 173.642 77.344 173.642 75.568C173.642 74.976 174.154 74.576 175.13 74.576C176.122 74.576 176.714 75.104 176.778 75.872H178.602C178.506 74.112 177.194 73.04 175.194 73.04C173.114 73.04 171.802 74.176 171.802 75.584C171.802 78.816 176.922 77.824 176.922 79.552C176.922 80.16 176.362 80.608 175.306 80.608C174.298 80.608 173.61 80.016 173.546 79.296H171.658C171.738 80.896 173.226 82.144 175.338 82.144C177.418 82.144 178.714 81.024 178.714 79.536ZM184.396 74.576C185.756 74.576 186.828 75.44 186.86 76.8H181.98C182.172 75.408 183.164 74.576 184.396 74.576ZM188.524 79.376H186.556C186.22 80.064 185.596 80.608 184.476 80.608C183.132 80.608 182.092 79.728 181.964 78.272H188.7C188.748 77.968 188.764 77.68 188.764 77.376C188.764 74.784 186.988 73.04 184.476 73.04C181.868 73.04 180.076 74.816 180.076 77.584C180.076 80.352 181.948 82.144 184.476 82.144C186.636 82.144 188.028 80.912 188.524 79.376ZM192.447 80.944C192.447 80.288 191.935 79.776 191.295 79.776C190.639 79.776 190.127 80.288 190.127 80.944C190.127 81.6 190.639 82.112 191.295 82.112C191.935 82.112 192.447 81.6 192.447 80.944ZM206.079 78.848C206.079 74.784 200.191 76.352 200.191 73.84C200.191 72.768 201.007 72.256 202.063 72.288C203.215 72.32 203.871 73.008 203.935 73.76H205.951C205.791 71.856 204.287 70.736 202.159 70.736C199.887 70.736 198.335 71.952 198.335 73.904C198.335 78 204.239 76.256 204.239 78.944C204.239 79.888 203.519 80.576 202.239 80.576C200.975 80.576 200.335 79.84 200.255 78.928H198.303C198.303 80.896 200.015 82.112 202.239 82.112C204.719 82.112 206.079 80.512 206.079 78.848ZM216.215 73.184H214.391V78.096C214.391 79.712 213.511 80.544 212.167 80.544C210.839 80.544 209.959 79.712 209.959 78.096V73.184H208.151V78.368C208.151 80.832 209.719 82.128 211.783 82.128C212.823 82.128 213.815 81.696 214.391 80.944V82H216.215V73.184ZM220.446 77.36C220.446 75.488 221.278 74.928 222.622 74.928H223.086V73.04C221.838 73.04 220.958 73.584 220.446 74.464V73.184H218.622V82H220.446V77.36ZM228.475 74.576C229.835 74.576 230.907 75.44 230.939 76.8H226.059C226.251 75.408 227.243 74.576 228.475 74.576ZM232.602 79.376H230.635C230.299 80.064 229.675 80.608 228.555 80.608C227.211 80.608 226.171 79.728 226.043 78.272H232.779C232.827 77.968 232.843 77.68 232.843 77.376C232.843 74.784 231.067 73.04 228.555 73.04C225.947 73.04 224.155 74.816 224.155 77.584C224.155 80.352 226.027 82.144 228.555 82.144C230.715 82.144 232.107 80.912 232.602 79.376ZM238.794 82H240.618V70.16H238.794V82ZM242.405 77.552C242.405 80.272 244.245 82.144 246.533 82.144C248.005 82.144 249.061 81.44 249.621 80.688V82H251.461V73.184H249.621V74.464C249.077 73.744 248.053 73.04 246.565 73.04C244.245 73.04 242.405 74.832 242.405 77.552ZM249.621 77.584C249.621 79.488 248.325 80.56 246.949 80.56C245.589 80.56 244.277 79.456 244.277 77.552C244.277 75.648 245.589 74.624 246.949 74.624C248.325 74.624 249.621 75.696 249.621 77.584ZM260.432 79.536C260.336 76.352 255.36 77.344 255.36 75.568C255.36 74.976 255.872 74.576 256.848 74.576C257.84 74.576 258.432 75.104 258.496 75.872H260.32C260.224 74.112 258.912 73.04 256.912 73.04C254.832 73.04 253.52 74.176 253.52 75.584C253.52 78.816 258.64 77.824 258.64 79.552C258.64 80.16 258.08 80.608 257.024 80.608C256.016 80.608 255.328 80.016 255.264 79.296H253.376C253.456 80.896 254.944 82.144 257.056 82.144C259.136 82.144 260.432 81.024 260.432 79.536ZM262.691 79.552C262.691 81.344 263.667 82 265.235 82H266.675V80.48H265.555C264.787 80.48 264.531 80.208 264.531 79.552V74.672H266.675V73.184H264.531V70.992H262.691V73.184H261.651V74.672H262.691V79.552ZM280.497 73.184H278.673V78.096C278.673 79.712 277.793 80.544 276.449 80.544C275.121 80.544 274.241 79.712 274.241 78.096V73.184H272.433V78.368C272.433 80.832 274.001 82.128 276.065 82.128C277.105 82.128 278.097 81.696 278.673 80.944V82H280.497V73.184ZM284.727 74.48V73.184H282.903V86.192H284.727V80.72C285.303 81.408 286.343 82.144 287.799 82.144C290.119 82.144 291.943 80.272 291.943 77.552C291.943 74.832 290.119 73.04 287.799 73.04C286.359 73.04 285.287 73.744 284.727 74.48ZM290.087 77.552C290.087 79.456 288.775 80.56 287.399 80.56C286.039 80.56 284.727 79.488 284.727 77.584C284.727 75.696 286.039 74.624 287.399 74.624C288.775 74.624 290.087 75.648 290.087 77.552ZM302.147 77.584C302.147 74.816 300.163 73.04 297.651 73.04C295.139 73.04 293.155 74.816 293.155 77.584C293.155 80.352 295.059 82.144 297.571 82.144C300.099 82.144 302.147 80.352 302.147 77.584ZM295.011 77.584C295.011 75.584 296.243 74.624 297.619 74.624C298.979 74.624 300.275 75.584 300.275 77.584C300.275 79.584 298.931 80.56 297.571 80.56C296.195 80.56 295.011 79.584 295.011 77.584ZM310.206 82H312.014V76.8C312.014 74.336 310.462 73.04 308.398 73.04C307.342 73.04 306.366 73.472 305.774 74.192V73.184H303.95V82H305.774V77.072C305.774 75.456 306.654 74.624 307.998 74.624C309.326 74.624 310.206 75.456 310.206 77.072V82ZM318.497 82H320.321V77.072C320.321 75.456 321.201 74.624 322.545 74.624C323.873 74.624 324.753 75.456 324.753 77.072V82H326.561V76.8C326.561 74.336 325.025 73.04 323.057 73.04C321.921 73.04 320.929 73.472 320.321 74.208V70.16H318.497V82ZM332.6 74.576C333.96 74.576 335.032 75.44 335.064 76.8H330.184C330.376 75.408 331.368 74.576 332.6 74.576ZM336.727 79.376H334.76C334.424 80.064 333.8 80.608 332.68 80.608C331.336 80.608 330.296 79.728 330.168 78.272H336.904C336.952 77.968 336.968 77.68 336.968 77.376C336.968 74.784 335.192 73.04 332.68 73.04C330.072 73.04 328.28 74.816 328.28 77.584C328.28 80.352 330.152 82.144 332.68 82.144C334.84 82.144 336.232 80.912 336.727 79.376ZM349.495 79.536C349.399 76.352 344.423 77.344 344.423 75.568C344.423 74.976 344.935 74.576 345.911 74.576C346.903 74.576 347.495 75.104 347.559 75.872H349.383C349.287 74.112 347.975 73.04 345.975 73.04C343.895 73.04 342.583 74.176 342.583 75.584C342.583 78.816 347.703 77.824 347.703 79.552C347.703 80.16 347.143 80.608 346.087 80.608C345.079 80.608 344.391 80.016 344.327 79.296H342.439C342.519 80.896 344.007 82.144 346.119 82.144C348.199 82.144 349.495 81.024 349.495 79.536ZM350.858 77.552C350.858 80.272 352.698 82.144 354.986 82.144C356.458 82.144 357.514 81.44 358.074 80.688V82H359.914V73.184H358.074V74.464C357.53 73.744 356.506 73.04 355.018 73.04C352.698 73.04 350.858 74.832 350.858 77.552ZM358.074 77.584C358.074 79.488 356.778 80.56 355.402 80.56C354.042 80.56 352.73 79.456 352.73 77.552C352.73 75.648 354.042 74.624 355.402 74.624C356.778 74.624 358.074 75.696 358.074 77.584ZM374.805 82H376.613V76.8C376.613 74.336 375.045 73.04 372.981 73.04C371.701 73.04 370.453 73.712 369.909 74.784C369.301 73.632 368.133 73.04 366.741 73.04C365.685 73.04 364.725 73.472 364.133 74.192V73.184H362.309V82H364.133V77.072C364.133 75.456 365.013 74.624 366.357 74.624C367.685 74.624 368.565 75.456 368.565 77.072V82H370.373V77.072C370.373 75.456 371.253 74.624 372.597 74.624C373.925 74.624 374.805 75.456 374.805 77.072V82ZM382.646 74.576C384.006 74.576 385.078 75.44 385.11 76.8H380.23C380.422 75.408 381.414 74.576 382.646 74.576ZM386.774 79.376H384.806C384.47 80.064 383.846 80.608 382.726 80.608C381.382 80.608 380.342 79.728 380.214 78.272H386.95C386.998 77.968 387.014 77.68 387.014 77.376C387.014 74.784 385.238 73.04 382.726 73.04C380.118 73.04 378.326 74.816 378.326 77.584C378.326 80.352 380.198 82.144 382.726 82.144C384.886 82.144 386.278 80.912 386.774 79.376ZM392.358 77.552C392.358 80.272 394.198 82.144 396.486 82.144C397.958 82.144 399.014 81.44 399.574 80.688V82H401.414V73.184H399.574V74.464C399.03 73.744 398.006 73.04 396.518 73.04C394.198 73.04 392.358 74.832 392.358 77.552ZM399.574 77.584C399.574 79.488 398.278 80.56 396.902 80.56C395.542 80.56 394.23 79.456 394.23 77.552C394.23 75.648 395.542 74.624 396.902 74.624C398.278 74.624 399.574 75.696 399.574 77.584ZM410.385 79.536C410.289 76.352 405.313 77.344 405.313 75.568C405.313 74.976 405.825 74.576 406.801 74.576C407.793 74.576 408.385 75.104 408.449 75.872H410.273C410.177 74.112 408.865 73.04 406.865 73.04C404.785 73.04 403.473 74.176 403.473 75.584C403.473 78.816 408.593 77.824 408.593 79.552C408.593 80.16 408.033 80.608 406.977 80.608C405.969 80.608 405.281 80.016 405.217 79.296H403.329C403.409 80.896 404.897 82.144 407.009 82.144C409.089 82.144 410.385 81.024 410.385 79.536ZM35.2 114H37.024V110.208L40.288 114H42.752L38.688 109.6L42.752 105.184H40.224L37.024 109.04V102.16H35.2V114ZM50.3154 114H52.1234V108.8C52.1234 106.336 50.5714 105.04 48.5074 105.04C47.4514 105.04 46.4754 105.472 45.8834 106.192V105.184H44.0594V114H45.8834V109.072C45.8834 107.456 46.7634 106.624 48.1074 106.624C49.4354 106.624 50.3154 107.456 50.3154 109.072V114ZM58.162 106.576C59.522 106.576 60.594 107.44 60.626 108.8H55.746C55.938 107.408 56.93 106.576 58.162 106.576ZM62.29 111.376H60.322C59.986 112.064 59.362 112.608 58.242 112.608C56.898 112.608 55.858 111.728 55.73 110.272H62.466C62.514 109.968 62.53 109.68 62.53 109.376C62.53 106.784 60.754 105.04 58.242 105.04C55.634 105.04 53.842 106.816 53.842 109.584C53.842 112.352 55.714 114.144 58.242 114.144C60.402 114.144 61.794 112.912 62.29 111.376ZM66.037 114H67.957L69.733 107.488L71.509 114H73.429L76.165 105.184H74.373L72.549 112.24L70.757 105.184H68.853L66.981 112.272L65.141 105.184H63.285L66.037 114ZM87.9404 114H89.7484V108.8C89.7484 106.336 88.1964 105.04 86.1324 105.04C85.0764 105.04 84.1004 105.472 83.5084 106.192V105.184H81.6844V114H83.5084V109.072C83.5084 107.456 84.3884 106.624 85.7324 106.624C87.0604 106.624 87.9404 107.456 87.9404 109.072V114ZM95.787 106.576C97.147 106.576 98.219 107.44 98.251 108.8H93.371C93.563 107.408 94.555 106.576 95.787 106.576ZM99.915 111.376H97.947C97.611 112.064 96.987 112.608 95.867 112.608C94.523 112.608 93.483 111.728 93.355 110.272H100.091C100.139 109.968 100.155 109.68 100.155 109.376C100.155 106.784 98.379 105.04 95.867 105.04C93.259 105.04 91.467 106.816 91.467 109.584C91.467 112.352 93.339 114.144 95.867 114.144C98.027 114.144 99.419 112.912 99.915 111.376ZM106.51 114H108.574L105.726 109.536L108.574 105.184H106.67L104.878 108.176L102.974 105.184H100.91L103.758 109.664L100.91 114H102.814L104.606 111.008L106.51 114ZM110.222 111.552C110.222 113.344 111.198 114 112.766 114H114.206V112.48H113.086C112.318 112.48 112.062 112.208 112.062 111.552V106.672H114.206V105.184H112.062V102.992H110.222V105.184H109.182V106.672H110.222V111.552ZM117.776 112.944C117.776 112.288 117.264 111.776 116.624 111.776C115.968 111.776 115.456 112.288 115.456 112.944C115.456 113.6 115.968 114.112 116.624 114.112C117.264 114.112 117.776 113.6 117.776 112.944ZM134.655 108.416C134.655 105.088 132.143 102.736 128.975 102.736C125.839 102.736 123.295 105.088 123.295 108.416C123.295 111.76 125.839 114.112 128.975 114.112C132.143 114.112 134.655 111.76 134.655 108.416ZM125.167 108.416C125.167 105.904 126.767 104.336 128.975 104.336C131.183 104.336 132.783 105.904 132.783 108.416C132.783 110.928 131.183 112.528 128.975 112.528C126.767 112.528 125.167 110.928 125.167 108.416ZM136.674 114H138.514V106.672H140.146V105.184H138.514V104.56C138.514 103.552 138.898 103.168 140.018 103.168V101.648C137.714 101.648 136.674 102.528 136.674 104.56V105.184H135.634V106.672H136.674V114ZM147.743 106.496V102.16H145.919V114H147.743V112.72C148.319 113.488 149.359 114.144 150.815 114.144C153.135 114.144 154.959 112.272 154.959 109.552C154.959 106.832 153.151 105.04 150.815 105.04C149.423 105.04 148.319 105.696 147.743 106.496ZM153.103 109.552C153.103 111.456 151.791 112.56 150.415 112.56C149.055 112.56 147.743 111.488 147.743 109.584C147.743 107.696 149.055 106.624 150.415 106.624C151.791 106.624 153.103 107.648 153.103 109.552ZM160.475 106.576C161.835 106.576 162.907 107.44 162.939 108.8H158.059C158.251 107.408 159.243 106.576 160.475 106.576ZM164.602 111.376H162.635C162.299 112.064 161.675 112.608 160.555 112.608C159.211 112.608 158.171 111.728 158.043 110.272H164.779C164.827 109.968 164.843 109.68 164.843 109.376C164.843 106.784 163.067 105.04 160.555 105.04C157.947 105.04 156.155 106.816 156.155 109.584C156.155 112.352 158.027 114.144 160.555 114.144C162.715 114.144 164.107 112.912 164.602 111.376ZM166.638 114H168.462V102.16H166.638V114ZM170.856 114H172.68V105.184H170.856V114ZM171.784 104.016C172.424 104.016 172.936 103.504 172.936 102.848C172.936 102.192 172.424 101.68 171.784 101.68C171.128 101.68 170.616 102.192 170.616 102.848C170.616 103.504 171.128 104.016 171.784 104.016ZM178.787 106.576C180.147 106.576 181.219 107.44 181.251 108.8H176.371C176.563 107.408 177.555 106.576 178.787 106.576ZM182.915 111.376H180.947C180.611 112.064 179.987 112.608 178.867 112.608C177.523 112.608 176.483 111.728 176.355 110.272H183.091C183.139 109.968 183.155 109.68 183.155 109.376C183.155 106.784 181.379 105.04 178.867 105.04C176.259 105.04 174.467 106.816 174.467 109.584C174.467 112.352 176.339 114.144 178.867 114.144C181.027 114.144 182.419 112.912 182.915 111.376ZM183.91 105.184L187.254 114H189.43L192.79 105.184H190.854L188.358 112.368L185.862 105.184H183.91ZM197.881 106.576C199.241 106.576 200.313 107.44 200.345 108.8H195.465C195.657 107.408 196.649 106.576 197.881 106.576ZM202.009 111.376H200.041C199.705 112.064 199.081 112.608 197.961 112.608C196.617 112.608 195.577 111.728 195.449 110.272H202.185C202.233 109.968 202.249 109.68 202.249 109.376C202.249 106.784 200.473 105.04 197.961 105.04C195.353 105.04 193.561 106.816 193.561 109.584C193.561 112.352 195.433 114.144 197.961 114.144C200.121 114.144 201.513 112.912 202.009 111.376ZM203.436 109.552C203.436 112.272 205.276 114.144 207.596 114.144C209.036 114.144 210.092 113.472 210.652 112.672V114H212.492V102.16H210.652V106.416C209.98 105.584 208.764 105.04 207.612 105.04C205.276 105.04 203.436 106.832 203.436 109.552ZM210.652 109.584C210.652 111.488 209.356 112.56 207.98 112.56C206.62 112.56 205.308 111.456 205.308 109.552C205.308 107.648 206.62 106.624 207.98 106.624C209.356 106.624 210.652 107.696 210.652 109.584ZM227.444 109.584C227.444 106.816 225.46 105.04 222.948 105.04C220.436 105.04 218.452 106.816 218.452 109.584C218.452 112.352 220.356 114.144 222.868 114.144C225.396 114.144 227.444 112.352 227.444 109.584ZM220.308 109.584C220.308 107.584 221.54 106.624 222.916 106.624C224.276 106.624 225.572 107.584 225.572 109.584C225.572 111.584 224.228 112.56 222.868 112.56C221.492 112.56 220.308 111.584 220.308 109.584ZM231.071 109.36C231.071 107.488 231.903 106.928 233.247 106.928H233.711V105.04C232.463 105.04 231.583 105.584 231.071 106.464V105.184H229.247V114H231.071V109.36ZM238.936 109.552C238.936 112.272 240.776 114.144 243.096 114.144C244.536 114.144 245.592 113.472 246.152 112.672V114H247.992V102.16H246.152V106.416C245.48 105.584 244.264 105.04 243.112 105.04C240.776 105.04 238.936 106.832 238.936 109.552ZM246.152 109.584C246.152 111.488 244.856 112.56 243.48 112.56C242.12 112.56 240.808 111.456 240.808 109.552C240.808 107.648 242.12 106.624 243.48 106.624C244.856 106.624 246.152 107.696 246.152 109.584ZM250.388 114H252.212V105.184H250.388V114ZM251.316 104.016C251.956 104.016 252.468 103.504 252.468 102.848C252.468 102.192 251.956 101.68 251.316 101.68C250.66 101.68 250.148 102.192 250.148 102.848C250.148 103.504 250.66 104.016 251.316 104.016ZM253.566 105.184L256.91 114H259.086L262.446 105.184H260.51L258.014 112.368L255.518 105.184H253.566ZM267.537 106.576C268.897 106.576 269.969 107.44 270.001 108.8H265.121C265.313 107.408 266.305 106.576 267.537 106.576ZM271.665 111.376H269.697C269.361 112.064 268.737 112.608 267.617 112.608C266.273 112.608 265.233 111.728 265.105 110.272H271.841C271.889 109.968 271.905 109.68 271.905 109.376C271.905 106.784 270.129 105.04 267.617 105.04C265.009 105.04 263.217 106.816 263.217 109.584C263.217 112.352 265.089 114.144 267.617 114.144C269.777 114.144 271.169 112.912 271.665 111.376ZM275.524 109.36C275.524 107.488 276.356 106.928 277.7 106.928H278.164V105.04C276.916 105.04 276.036 105.584 275.524 106.464V105.184H273.7V114H275.524V109.36ZM280.129 111.552C280.129 113.344 281.105 114 282.673 114H284.113V112.48H282.993C282.225 112.48 281.969 112.208 281.969 111.552V106.672H284.113V105.184H281.969V102.992H280.129V105.184H279.089V106.672H280.129V111.552ZM289.506 106.576C290.866 106.576 291.938 107.44 291.97 108.8H287.09C287.282 107.408 288.274 106.576 289.506 106.576ZM293.634 111.376H291.666C291.33 112.064 290.706 112.608 289.586 112.608C288.242 112.608 287.202 111.728 287.074 110.272H293.81C293.858 109.968 293.874 109.68 293.874 109.376C293.874 106.784 292.098 105.04 289.586 105.04C286.978 105.04 285.186 106.816 285.186 109.584C285.186 112.352 287.058 114.144 289.586 114.144C291.746 114.144 293.138 112.912 293.634 111.376ZM295.061 109.552C295.061 112.272 296.901 114.144 299.221 114.144C300.661 114.144 301.717 113.472 302.277 112.672V114H304.117V102.16H302.277V106.416C301.605 105.584 300.389 105.04 299.237 105.04C296.901 105.04 295.061 106.832 295.061 109.552ZM302.277 109.584C302.277 111.488 300.981 112.56 299.605 112.56C298.245 112.56 296.933 111.456 296.933 109.552C296.933 107.648 298.245 106.624 299.605 106.624C300.981 106.624 302.277 107.696 302.277 109.584ZM316.925 114H318.733V108.8C318.733 106.336 317.181 105.04 315.117 105.04C314.061 105.04 313.085 105.472 312.493 106.192V105.184H310.669V114H312.493V109.072C312.493 107.456 313.373 106.624 314.717 106.624C316.045 106.624 316.925 107.456 316.925 109.072V114ZM329.459 109.584C329.459 106.816 327.475 105.04 324.963 105.04C322.451 105.04 320.467 106.816 320.467 109.584C320.467 112.352 322.371 114.144 324.883 114.144C327.411 114.144 329.459 112.352 329.459 109.584ZM322.323 109.584C322.323 107.584 323.555 106.624 324.931 106.624C326.291 106.624 327.587 107.584 327.587 109.584C327.587 111.584 326.243 112.56 324.883 112.56C323.507 112.56 322.323 111.584 322.323 109.584ZM333.151 112.944C333.151 112.288 332.639 111.776 331.999 111.776C331.343 111.776 330.831 112.288 330.831 112.944C330.831 113.6 331.343 114.112 331.999 114.112C332.639 114.112 333.151 113.6 333.151 112.944ZM338.77 106.688L340.45 102.88H338.466L337.49 106.688H338.77ZM335.89 106.688L337.57 102.88H335.586L334.61 106.688H335.89Z" fill="#5E6282"/>
<path d="M35.242 178H37.762V169.828L41.146 178H43.054L46.42 169.828V178H48.94V165.436H46.096L42.1 174.778L38.104 165.436H35.242V178ZM51.4315 178H53.9515V168.028H51.4315V178ZM52.7095 166.84C53.5915 166.84 54.2575 166.192 54.2575 165.364C54.2575 164.536 53.5915 163.888 52.7095 163.888C51.8095 163.888 51.1615 164.536 51.1615 165.364C51.1615 166.192 51.8095 166.84 52.7095 166.84ZM56.4412 178H58.9612V173.752L62.3452 178H65.6212L61.1932 173.032L65.5852 168.028H62.3092L58.9612 172.258V164.68H56.4412V178ZM71.2369 169.936C72.5329 169.936 73.5769 170.764 73.6129 172.078H68.8789C69.0769 170.71 70.0309 169.936 71.2369 169.936ZM75.9709 174.868H73.2529C72.9289 175.534 72.3349 176.074 71.2549 176.074C69.9949 176.074 68.9869 175.246 68.8609 173.77H76.1509C76.2049 173.446 76.2229 173.122 76.2229 172.798C76.2229 169.828 74.1889 167.866 71.3089 167.866C68.3569 167.866 66.3049 169.864 66.3049 173.014C66.3049 176.146 68.4109 178.162 71.3089 178.162C73.7749 178.162 75.4309 176.704 75.9709 174.868ZM82.7474 174.904C82.7474 177.19 84.0254 178 85.9334 178H87.5174V175.876H86.3474C85.5554 175.876 85.2854 175.588 85.2854 174.922V170.098H87.5174V168.028H85.2854V165.562H82.7474V168.028H81.5594V170.098H82.7474V174.904ZM88.6819 172.978C88.6819 176.092 90.6979 178.162 93.2179 178.162C94.8019 178.162 95.9359 177.406 96.5299 176.542V178H99.0679V168.028H96.5299V169.45C95.9359 168.622 94.8379 167.866 93.2359 167.866C90.6979 167.866 88.6819 169.864 88.6819 172.978ZM96.5299 173.014C96.5299 174.904 95.2699 175.948 93.8839 175.948C92.5339 175.948 91.2559 174.868 91.2559 172.978C91.2559 171.088 92.5339 170.08 93.8839 170.08C95.2699 170.08 96.5299 171.124 96.5299 173.014ZM105.777 174.994L103.203 168.028H100.377L104.373 177.748L102.213 182.716H104.895L111.069 168.028H108.387L105.777 174.994ZM112.428 178H114.948V164.68H112.428V178ZM127.067 173.014C127.067 169.864 124.817 167.866 121.937 167.866C119.057 167.866 116.807 169.864 116.807 173.014C116.807 176.146 118.985 178.162 121.865 178.162C124.763 178.162 127.067 176.146 127.067 173.014ZM119.363 173.014C119.363 171.016 120.569 170.062 121.901 170.062C123.233 170.062 124.475 171.016 124.475 173.014C124.475 174.994 123.197 175.966 121.865 175.966C120.515 175.966 119.363 174.994 119.363 173.014ZM131.436 173.032C131.436 171.106 132.336 170.53 133.83 170.53H134.496V167.884C133.11 167.884 132.066 168.55 131.436 169.576V168.028H128.916V178H131.436V173.032Z" fill="#5E6282"/>
<path d="M35.05 195.27V205H39.936V203.712H36.646V195.27H35.05ZM40.7387 201.108C40.7387 203.488 42.3487 205.126 44.3507 205.126C45.6387 205.126 46.5627 204.51 47.0527 203.852V205H48.6627V197.286H47.0527V198.406C46.5767 197.776 45.6807 197.16 44.3787 197.16C42.3487 197.16 40.7387 198.728 40.7387 201.108ZM47.0527 201.136C47.0527 202.802 45.9187 203.74 44.7147 203.74C43.5247 203.74 42.3767 202.774 42.3767 201.108C42.3767 199.442 43.5247 198.546 44.7147 198.546C45.9187 198.546 47.0527 199.484 47.0527 201.136ZM50.759 205H52.355V200.688C52.355 199.274 53.125 198.546 54.301 198.546C55.463 198.546 56.233 199.274 56.233 200.688V205H57.815V200.45C57.815 198.294 56.471 197.16 54.749 197.16C53.755 197.16 52.887 197.538 52.355 198.182V194.64H50.759V205ZM67.2008 201.136C67.2008 198.714 65.4648 197.16 63.2668 197.16C61.0688 197.16 59.3328 198.714 59.3328 201.136C59.3328 203.558 60.9988 205.126 63.1968 205.126C65.4088 205.126 67.2008 203.558 67.2008 201.136ZM60.9568 201.136C60.9568 199.386 62.0348 198.546 63.2388 198.546C64.4288 198.546 65.5628 199.386 65.5628 201.136C65.5628 202.886 64.3868 203.74 63.1968 203.74C61.9928 203.74 60.9568 202.886 60.9568 201.136ZM70.3745 200.94C70.3745 199.302 71.1025 198.812 72.2785 198.812H72.6845V197.16C71.5925 197.16 70.8225 197.636 70.3745 198.406V197.286H68.7785V205H70.3745V200.94ZM77.3996 198.504C78.5896 198.504 79.5276 199.26 79.5556 200.45H75.2856C75.4536 199.232 76.3216 198.504 77.3996 198.504ZM81.0116 202.704H79.2896C78.9956 203.306 78.4496 203.782 77.4696 203.782C76.2936 203.782 75.3836 203.012 75.2716 201.738H81.1656C81.2076 201.472 81.2216 201.22 81.2216 200.954C81.2216 198.686 79.6676 197.16 77.4696 197.16C75.1876 197.16 73.6196 198.714 73.6196 201.136C73.6196 203.558 75.2576 205.126 77.4696 205.126C79.3596 205.126 80.5776 204.048 81.0116 202.704ZM81.8122 206.946H82.8482L84.5422 203.082H82.8062L81.8122 206.946ZM91.1694 199.75V196.572H92.9334C94.1794 196.572 94.7394 197.16 94.7394 198.168C94.7394 199.148 94.1794 199.75 92.9334 199.75H91.1694ZM96.3774 198.168C96.3774 196.586 95.2434 195.27 92.9334 195.27H89.5734V205H91.1694V201.052H92.9334C95.4674 201.052 96.3774 199.554 96.3774 198.168ZM97.3676 201.108C97.3676 203.488 98.9776 205.126 100.98 205.126C102.268 205.126 103.192 204.51 103.682 203.852V205H105.292V197.286H103.682V198.406C103.206 197.776 102.31 197.16 101.008 197.16C98.9776 197.16 97.3676 198.728 97.3676 201.108ZM103.682 201.136C103.682 202.802 102.548 203.74 101.344 203.74C100.154 203.74 99.0056 202.774 99.0056 201.108C99.0056 199.442 100.154 198.546 101.344 198.546C102.548 198.546 103.682 199.484 103.682 201.136ZM107.388 205H108.984V201.682L111.84 205H113.996L110.44 201.15L113.996 197.286H111.784L108.984 200.66V194.64H107.388V205ZM115.14 205H116.736V197.286H115.14V205ZM115.952 196.264C116.512 196.264 116.96 195.816 116.96 195.242C116.96 194.668 116.512 194.22 115.952 194.22C115.378 194.22 114.93 194.668 114.93 195.242C114.93 195.816 115.378 196.264 115.952 196.264ZM124.585 202.844C124.501 200.058 120.147 200.926 120.147 199.372C120.147 198.854 120.595 198.504 121.449 198.504C122.317 198.504 122.835 198.966 122.891 199.638H124.487C124.403 198.098 123.255 197.16 121.505 197.16C119.685 197.16 118.537 198.154 118.537 199.386C118.537 202.214 123.017 201.346 123.017 202.858C123.017 203.39 122.527 203.782 121.603 203.782C120.721 203.782 120.119 203.264 120.063 202.634H118.411C118.481 204.034 119.783 205.126 121.631 205.126C123.451 205.126 124.585 204.146 124.585 202.844ZM126.562 202.858C126.562 204.426 127.416 205 128.788 205H130.048V203.67H129.068C128.396 203.67 128.172 203.432 128.172 202.858V198.588H130.048V197.286H128.172V195.368H126.562V197.286H125.652V198.588H126.562V202.858ZM130.987 201.108C130.987 203.488 132.597 205.126 134.599 205.126C135.887 205.126 136.811 204.51 137.301 203.852V205H138.911V197.286H137.301V198.406C136.825 197.776 135.929 197.16 134.627 197.16C132.597 197.16 130.987 198.728 130.987 201.108ZM137.301 201.136C137.301 202.802 136.167 203.74 134.963 203.74C133.773 203.74 132.625 202.774 132.625 201.108C132.625 199.442 133.773 198.546 134.963 198.546C136.167 198.546 137.301 199.484 137.301 201.136ZM146.481 205H148.063V200.45C148.063 198.294 146.705 197.16 144.899 197.16C143.975 197.16 143.121 197.538 142.603 198.168V197.286H141.007V205H142.603V200.688C142.603 199.274 143.373 198.546 144.549 198.546C145.711 198.546 146.481 199.274 146.481 200.688V205Z" fill="#5E6282"/>
</svg>
