<svg width="504" height="245" viewBox="0 0 504 245" fill="none" xmlns="http://www.w3.org/2000/svg">
<rect width="504" height="245" rx="10" fill="white"/>
<path d="M37.024 38.88V50H35.2V38.88H37.024ZM50.0908 41.04C50.7841 41.04 51.4028 41.184 51.9468 41.472C52.5014 41.76 52.9334 42.1867 53.2428 42.752C53.5628 43.3173 53.7228 44 53.7228 44.8V50H51.9148V45.072C51.9148 44.2827 51.7174 43.68 51.3228 43.264C50.9281 42.8373 50.3894 42.624 49.7068 42.624C49.0241 42.624 48.4801 42.8373 48.0748 43.264C47.6801 43.68 47.4828 44.2827 47.4828 45.072V50H45.6748V45.072C45.6748 44.2827 45.4774 43.68 45.0828 43.264C44.6881 42.8373 44.1494 42.624 43.4668 42.624C42.7841 42.624 42.2401 42.8373 41.8348 43.264C41.4401 43.68 41.2428 44.2827 41.2428 45.072V50H39.4188V41.184H41.2428V42.192C41.5414 41.8293 41.9201 41.5467 42.3788 41.344C42.8374 41.1413 43.3281 41.04 43.8508 41.04C44.5548 41.04 45.1841 41.1893 45.7388 41.488C46.2934 41.7867 46.7201 42.2187 47.0188 42.784C47.2854 42.2507 47.7014 41.8293 48.2668 41.52C48.8321 41.2 49.4401 41.04 50.0908 41.04ZM57.8678 42.48C58.1771 42.0747 58.5984 41.7333 59.1318 41.456C59.6651 41.1787 60.2678 41.04 60.9398 41.04C61.7078 41.04 62.4064 41.232 63.0358 41.616C63.6758 41.9893 64.1771 42.5173 64.5398 43.2C64.9024 43.8827 65.0838 44.6667 65.0838 45.552C65.0838 46.4373 64.9024 47.232 64.5398 47.936C64.1771 48.6293 63.6758 49.1733 63.0358 49.568C62.4064 49.952 61.7078 50.144 60.9398 50.144C60.2678 50.144 59.6704 50.0107 59.1478 49.744C58.6251 49.4667 58.1984 49.1253 57.8678 48.72V54.192H56.0438V41.184H57.8678V42.48ZM63.2278 45.552C63.2278 44.944 63.0998 44.4213 62.8438 43.984C62.5984 43.536 62.2678 43.2 61.8518 42.976C61.4464 42.7413 61.0091 42.624 60.5398 42.624C60.0811 42.624 59.6438 42.7413 59.2278 42.976C58.8224 43.2107 58.4918 43.552 58.2358 44C57.9904 44.448 57.8678 44.976 57.8678 45.584C57.8678 46.192 57.9904 46.7253 58.2358 47.184C58.4918 47.632 58.8224 47.9733 59.2278 48.208C59.6438 48.4427 60.0811 48.56 60.5398 48.56C61.0091 48.56 61.4464 48.4427 61.8518 48.208C62.2678 47.9627 62.5984 47.6107 62.8438 47.152C63.0998 46.6933 63.2278 46.16 63.2278 45.552ZM68.7115 42.464C68.9782 42.016 69.3302 41.6693 69.7675 41.424C70.2155 41.168 70.7435 41.04 71.3515 41.04V42.928H70.8875C70.1728 42.928 69.6288 43.1093 69.2555 43.472C68.8928 43.8347 68.7115 44.464 68.7115 45.36V50H66.8875V41.184H68.7115V42.464ZM76.8521 50.144C76.0201 50.144 75.2681 49.9573 74.5961 49.584C73.9241 49.2 73.3961 48.6667 73.0121 47.984C72.6281 47.2907 72.4361 46.4907 72.4361 45.584C72.4361 44.688 72.6335 43.8933 73.0281 43.2C73.4228 42.5067 73.9615 41.9733 74.6441 41.6C75.3268 41.2267 76.0895 41.04 76.9321 41.04C77.7748 41.04 78.5375 41.2267 79.2201 41.6C79.9028 41.9733 80.4415 42.5067 80.8361 43.2C81.2308 43.8933 81.4281 44.688 81.4281 45.584C81.4281 46.48 81.2255 47.2747 80.8201 47.968C80.4148 48.6613 79.8601 49.2 79.1561 49.584C78.4628 49.9573 77.6948 50.144 76.8521 50.144ZM76.8521 48.56C77.3215 48.56 77.7588 48.448 78.1641 48.224C78.5801 48 78.9161 47.664 79.1721 47.216C79.4281 46.768 79.5561 46.224 79.5561 45.584C79.5561 44.944 79.4335 44.4053 79.1881 43.968C78.9428 43.52 78.6175 43.184 78.2121 42.96C77.8068 42.736 77.3695 42.624 76.9001 42.624C76.4308 42.624 75.9935 42.736 75.5881 42.96C75.1935 43.184 74.8788 43.52 74.6441 43.968C74.4095 44.4053 74.2921 44.944 74.2921 45.584C74.2921 46.5333 74.5321 47.2693 75.0121 47.792C75.5028 48.304 76.1161 48.56 76.8521 48.56ZM86.6393 48.368L89.1353 41.184H91.0712L87.7113 50H85.5353L82.1913 41.184H84.1432L86.6393 48.368ZM100.53 45.376C100.53 45.7067 100.509 46.0053 100.466 46.272H93.73C93.7833 46.976 94.0447 47.5413 94.514 47.968C94.9833 48.3947 95.5593 48.608 96.242 48.608C97.2233 48.608 97.9167 48.1973 98.322 47.376H100.29C100.023 48.1867 99.538 48.8533 98.834 49.376C98.1407 49.888 97.2767 50.144 96.242 50.144C95.3993 50.144 94.642 49.9573 93.97 49.584C93.3087 49.2 92.786 48.6667 92.402 47.984C92.0287 47.2907 91.842 46.4907 91.842 45.584C91.842 44.6773 92.0233 43.8827 92.386 43.2C92.7593 42.5067 93.2767 41.9733 93.938 41.6C94.61 41.2267 95.378 41.04 96.242 41.04C97.074 41.04 97.8153 41.2213 98.466 41.584C99.1167 41.9467 99.6233 42.4587 99.986 43.12C100.349 43.7707 100.53 44.5227 100.53 45.376ZM98.626 44.8C98.6153 44.128 98.3753 43.5893 97.906 43.184C97.4367 42.7787 96.8553 42.576 96.162 42.576C95.5327 42.576 94.994 42.7787 94.546 43.184C94.098 43.5787 93.8313 44.1173 93.746 44.8H98.626ZM101.717 45.552C101.717 44.6667 101.898 43.8827 102.261 43.2C102.634 42.5173 103.136 41.9893 103.765 41.616C104.405 41.232 105.114 41.04 105.893 41.04C106.469 41.04 107.034 41.168 107.589 41.424C108.154 41.6693 108.602 42 108.933 42.416V38.16H110.773V50H108.933V48.672C108.634 49.0987 108.218 49.4507 107.685 49.728C107.162 50.0053 106.56 50.144 105.877 50.144C105.109 50.144 104.405 49.952 103.765 49.568C103.136 49.1733 102.634 48.6293 102.261 47.936C101.898 47.232 101.717 46.4373 101.717 45.552ZM108.933 45.584C108.933 44.976 108.805 44.448 108.549 44C108.304 43.552 107.978 43.2107 107.573 42.976C107.168 42.7413 106.73 42.624 106.261 42.624C105.792 42.624 105.354 42.7413 104.949 42.976C104.544 43.2 104.213 43.536 103.957 43.984C103.712 44.4213 103.589 44.944 103.589 45.552C103.589 46.16 103.712 46.6933 103.957 47.152C104.213 47.6107 104.544 47.9627 104.949 48.208C105.365 48.4427 105.802 48.56 106.261 48.56C106.73 48.56 107.168 48.4427 107.573 48.208C107.978 47.9733 108.304 47.632 108.549 47.184C108.805 46.7253 108.933 46.192 108.933 45.584ZM121.149 50.144C120.317 50.144 119.565 49.9573 118.893 49.584C118.221 49.2 117.693 48.6667 117.309 47.984C116.925 47.2907 116.733 46.4907 116.733 45.584C116.733 44.688 116.93 43.8933 117.325 43.2C117.72 42.5067 118.258 41.9733 118.941 41.6C119.624 41.2267 120.386 41.04 121.229 41.04C122.072 41.04 122.834 41.2267 123.517 41.6C124.2 41.9733 124.738 42.5067 125.133 43.2C125.528 43.8933 125.725 44.688 125.725 45.584C125.725 46.48 125.522 47.2747 125.117 47.968C124.712 48.6613 124.157 49.2 123.453 49.584C122.76 49.9573 121.992 50.144 121.149 50.144ZM121.149 48.56C121.618 48.56 122.056 48.448 122.461 48.224C122.877 48 123.213 47.664 123.469 47.216C123.725 46.768 123.853 46.224 123.853 45.584C123.853 44.944 123.73 44.4053 123.485 43.968C123.24 43.52 122.914 43.184 122.509 42.96C122.104 42.736 121.666 42.624 121.197 42.624C120.728 42.624 120.29 42.736 119.885 42.96C119.49 43.184 119.176 43.52 118.941 43.968C118.706 44.4053 118.589 44.944 118.589 45.584C118.589 46.5333 118.829 47.2693 119.309 47.792C119.8 48.304 120.413 48.56 121.149 48.56ZM139.368 41.184L136.632 50H134.712L132.936 43.488L131.16 50H129.24L126.488 41.184H128.344L130.184 48.272L132.056 41.184H133.96L135.752 48.24L137.576 41.184H139.368ZM145.179 41.04C145.873 41.04 146.491 41.184 147.035 41.472C147.59 41.76 148.022 42.1867 148.331 42.752C148.641 43.3173 148.795 44 148.795 44.8V50H146.987V45.072C146.987 44.2827 146.79 43.68 146.395 43.264C146.001 42.8373 145.462 42.624 144.779 42.624C144.097 42.624 143.553 42.8373 143.147 43.264C142.753 43.68 142.555 44.2827 142.555 45.072V50H140.731V41.184H142.555V42.192C142.854 41.8293 143.233 41.5467 143.691 41.344C144.161 41.1413 144.657 41.04 145.179 41.04ZM157.102 42.48C157.411 42.0747 157.833 41.7333 158.366 41.456C158.899 41.1787 159.502 41.04 160.174 41.04C160.942 41.04 161.641 41.232 162.27 41.616C162.91 41.9893 163.411 42.5173 163.774 43.2C164.137 43.8827 164.318 44.6667 164.318 45.552C164.318 46.4373 164.137 47.232 163.774 47.936C163.411 48.6293 162.91 49.1733 162.27 49.568C161.641 49.952 160.942 50.144 160.174 50.144C159.502 50.144 158.905 50.0107 158.382 49.744C157.859 49.4667 157.433 49.1253 157.102 48.72V54.192H155.278V41.184H157.102V42.48ZM162.462 45.552C162.462 44.944 162.334 44.4213 162.078 43.984C161.833 43.536 161.502 43.2 161.086 42.976C160.681 42.7413 160.243 42.624 159.774 42.624C159.315 42.624 158.878 42.7413 158.462 42.976C158.057 43.2107 157.726 43.552 157.47 44C157.225 44.448 157.102 44.976 157.102 45.584C157.102 46.192 157.225 46.7253 157.47 47.184C157.726 47.632 158.057 47.9733 158.462 48.208C158.878 48.4427 159.315 48.56 159.774 48.56C160.243 48.56 160.681 48.4427 161.086 48.208C161.502 47.9627 161.833 47.6107 162.078 47.152C162.334 46.6933 162.462 46.16 162.462 45.552ZM167.946 42.464C168.213 42.016 168.565 41.6693 169.002 41.424C169.45 41.168 169.978 41.04 170.586 41.04V42.928H170.122C169.407 42.928 168.863 43.1093 168.49 43.472C168.127 43.8347 167.946 44.464 167.946 45.36V50H166.122V41.184H167.946V42.464ZM176.087 50.144C175.255 50.144 174.503 49.9573 173.831 49.584C173.159 49.2 172.631 48.6667 172.247 47.984C171.863 47.2907 171.671 46.4907 171.671 45.584C171.671 44.688 171.868 43.8933 172.263 43.2C172.657 42.5067 173.196 41.9733 173.879 41.6C174.561 41.2267 175.324 41.04 176.167 41.04C177.009 41.04 177.772 41.2267 178.455 41.6C179.137 41.9733 179.676 42.5067 180.071 43.2C180.465 43.8933 180.663 44.688 180.663 45.584C180.663 46.48 180.46 47.2747 180.055 47.968C179.649 48.6613 179.095 49.2 178.391 49.584C177.697 49.9573 176.929 50.144 176.087 50.144ZM176.087 48.56C176.556 48.56 176.993 48.448 177.399 48.224C177.815 48 178.151 47.664 178.407 47.216C178.663 46.768 178.791 46.224 178.791 45.584C178.791 44.944 178.668 44.4053 178.423 43.968C178.177 43.52 177.852 43.184 177.447 42.96C177.041 42.736 176.604 42.624 176.135 42.624C175.665 42.624 175.228 42.736 174.823 42.96C174.428 43.184 174.113 43.52 173.879 43.968C173.644 44.4053 173.527 44.944 173.527 45.584C173.527 46.5333 173.767 47.2693 174.247 47.792C174.737 48.304 175.351 48.56 176.087 48.56ZM185.874 48.368L188.37 41.184H190.306L186.946 50H184.77L181.426 41.184H183.378L185.874 48.368ZM192.612 40.016C192.282 40.016 192.004 39.904 191.78 39.68C191.556 39.456 191.444 39.1787 191.444 38.848C191.444 38.5173 191.556 38.24 191.78 38.016C192.004 37.792 192.282 37.68 192.612 37.68C192.932 37.68 193.204 37.792 193.428 38.016C193.652 38.24 193.764 38.5173 193.764 38.848C193.764 39.1787 193.652 39.456 193.428 39.68C193.204 39.904 192.932 40.016 192.612 40.016ZM193.508 41.184V50H191.684V41.184H193.508ZM195.295 45.552C195.295 44.6667 195.476 43.8827 195.839 43.2C196.212 42.5173 196.714 41.9893 197.343 41.616C197.983 41.232 198.692 41.04 199.471 41.04C200.047 41.04 200.612 41.168 201.167 41.424C201.732 41.6693 202.18 42 202.511 42.416V38.16H204.351V50H202.511V48.672C202.212 49.0987 201.796 49.4507 201.263 49.728C200.74 50.0053 200.138 50.144 199.455 50.144C198.687 50.144 197.983 49.952 197.343 49.568C196.714 49.1733 196.212 48.6293 195.839 47.936C195.476 47.232 195.295 46.4373 195.295 45.552ZM202.511 45.584C202.511 44.976 202.383 44.448 202.127 44C201.882 43.552 201.556 43.2107 201.151 42.976C200.746 42.7413 200.308 42.624 199.839 42.624C199.37 42.624 198.932 42.7413 198.527 42.976C198.122 43.2 197.791 43.536 197.535 43.984C197.29 44.4213 197.167 44.944 197.167 45.552C197.167 46.16 197.29 46.6933 197.535 47.152C197.791 47.6107 198.122 47.9627 198.527 48.208C198.943 48.4427 199.38 48.56 199.839 48.56C200.308 48.56 200.746 48.4427 201.151 48.208C201.556 47.9733 201.882 47.632 202.127 47.184C202.383 46.7253 202.511 46.192 202.511 45.584ZM214.827 45.376C214.827 45.7067 214.806 46.0053 214.763 46.272H208.027C208.08 46.976 208.342 47.5413 208.811 47.968C209.28 48.3947 209.856 48.608 210.539 48.608C211.52 48.608 212.214 48.1973 212.619 47.376H214.587C214.32 48.1867 213.835 48.8533 213.131 49.376C212.438 49.888 211.574 50.144 210.539 50.144C209.696 50.144 208.939 49.9573 208.267 49.584C207.606 49.2 207.083 48.6667 206.699 47.984C206.326 47.2907 206.139 46.4907 206.139 45.584C206.139 44.6773 206.32 43.8827 206.683 43.2C207.056 42.5067 207.574 41.9733 208.235 41.6C208.907 41.2267 209.675 41.04 210.539 41.04C211.371 41.04 212.112 41.2213 212.763 41.584C213.414 41.9467 213.92 42.4587 214.283 43.12C214.646 43.7707 214.827 44.5227 214.827 45.376ZM212.923 44.8C212.912 44.128 212.672 43.5893 212.203 43.184C211.734 42.7787 211.152 42.576 210.459 42.576C209.83 42.576 209.291 42.7787 208.843 43.184C208.395 43.5787 208.128 44.1173 208.043 44.8H212.923ZM216.014 45.552C216.014 44.6667 216.195 43.8827 216.558 43.2C216.931 42.5173 217.433 41.9893 218.062 41.616C218.702 41.232 219.411 41.04 220.19 41.04C220.766 41.04 221.331 41.168 221.886 41.424C222.451 41.6693 222.899 42 223.23 42.416V38.16H225.07V50H223.23V48.672C222.931 49.0987 222.515 49.4507 221.982 49.728C221.459 50.0053 220.857 50.144 220.174 50.144C219.406 50.144 218.702 49.952 218.062 49.568C217.433 49.1733 216.931 48.6293 216.558 47.936C216.195 47.232 216.014 46.4373 216.014 45.552ZM223.23 45.584C223.23 44.976 223.102 44.448 222.846 44C222.601 43.552 222.275 43.2107 221.87 42.976C221.465 42.7413 221.027 42.624 220.558 42.624C220.089 42.624 219.651 42.7413 219.246 42.976C218.841 43.2 218.51 43.536 218.254 43.984C218.009 44.4213 217.886 44.944 217.886 45.552C217.886 46.16 218.009 46.6933 218.254 47.152C218.51 47.6107 218.841 47.9627 219.246 48.208C219.662 48.4427 220.099 48.56 220.558 48.56C221.027 48.56 221.465 48.4427 221.87 48.208C222.275 47.9733 222.601 47.632 222.846 47.184C223.102 46.7253 223.23 46.192 223.23 45.584ZM233.446 42.496C233.755 42.0693 234.177 41.7227 234.71 41.456C235.254 41.1787 235.857 41.04 236.518 41.04C237.297 41.04 238.001 41.2267 238.63 41.6C239.259 41.9733 239.755 42.5067 240.118 43.2C240.481 43.8827 240.662 44.6667 240.662 45.552C240.662 46.4373 240.481 47.232 240.118 47.936C239.755 48.6293 239.254 49.1733 238.614 49.568C237.985 49.952 237.286 50.144 236.518 50.144C235.835 50.144 235.227 50.0107 234.694 49.744C234.171 49.4773 233.755 49.136 233.446 48.72V50H231.622V38.16H233.446V42.496ZM238.806 45.552C238.806 44.944 238.678 44.4213 238.422 43.984C238.177 43.536 237.846 43.2 237.43 42.976C237.025 42.7413 236.587 42.624 236.118 42.624C235.659 42.624 235.222 42.7413 234.806 42.976C234.401 43.2107 234.07 43.552 233.814 44C233.569 44.448 233.446 44.976 233.446 45.584C233.446 46.192 233.569 46.7253 233.814 47.184C234.07 47.632 234.401 47.9733 234.806 48.208C235.222 48.4427 235.659 48.56 236.118 48.56C236.587 48.56 237.025 48.4427 237.43 48.208C237.846 47.9627 238.177 47.6107 238.422 47.152C238.678 46.6933 238.806 46.16 238.806 45.552ZM244.29 38.16V50H242.466V38.16H244.29ZM254.764 45.376C254.764 45.7067 254.743 46.0053 254.7 46.272H247.964C248.018 46.976 248.279 47.5413 248.748 47.968C249.218 48.3947 249.794 48.608 250.476 48.608C251.458 48.608 252.151 48.1973 252.556 47.376H254.524C254.258 48.1867 253.772 48.8533 253.068 49.376C252.375 49.888 251.511 50.144 250.476 50.144C249.634 50.144 248.876 49.9573 248.204 49.584C247.543 49.2 247.02 48.6667 246.636 47.984C246.263 47.2907 246.076 46.4907 246.076 45.584C246.076 44.6773 246.258 43.8827 246.62 43.2C246.994 42.5067 247.511 41.9733 248.172 41.6C248.844 41.2267 249.612 41.04 250.476 41.04C251.308 41.04 252.05 41.2213 252.7 41.584C253.351 41.9467 253.858 42.4587 254.22 43.12C254.583 43.7707 254.764 44.5227 254.764 45.376ZM252.86 44.8C252.85 44.128 252.61 43.5893 252.14 43.184C251.671 42.7787 251.09 42.576 250.396 42.576C249.767 42.576 249.228 42.7787 248.78 43.184C248.332 43.5787 248.066 44.1173 247.98 44.8H252.86ZM259.759 50.144C259.066 50.144 258.442 50.0213 257.887 49.776C257.343 49.52 256.911 49.1787 256.591 48.752C256.271 48.3147 256.101 47.8293 256.079 47.296H257.967C257.999 47.6693 258.175 47.984 258.495 48.24C258.826 48.4853 259.237 48.608 259.727 48.608C260.239 48.608 260.634 48.512 260.911 48.32C261.199 48.1173 261.343 47.8613 261.343 47.552C261.343 47.2213 261.183 46.976 260.863 46.816C260.554 46.656 260.058 46.48 259.375 46.288C258.714 46.1067 258.175 45.9307 257.759 45.76C257.343 45.5893 256.981 45.328 256.671 44.976C256.373 44.624 256.223 44.16 256.223 43.584C256.223 43.1147 256.362 42.688 256.639 42.304C256.917 41.9093 257.311 41.6 257.823 41.376C258.346 41.152 258.943 41.04 259.615 41.04C260.618 41.04 261.423 41.296 262.031 41.808C262.65 42.3093 262.981 42.9973 263.023 43.872H261.199C261.167 43.4773 261.007 43.1627 260.719 42.928C260.431 42.6933 260.042 42.576 259.551 42.576C259.071 42.576 258.703 42.6667 258.447 42.848C258.191 43.0293 258.063 43.2693 258.063 43.568C258.063 43.8027 258.149 44 258.319 44.16C258.49 44.32 258.698 44.448 258.943 44.544C259.189 44.6293 259.551 44.7413 260.031 44.88C260.671 45.0507 261.194 45.2267 261.599 45.408C262.015 45.5787 262.373 45.8347 262.671 46.176C262.97 46.5173 263.125 46.9707 263.135 47.536C263.135 48.0373 262.997 48.4853 262.719 48.88C262.442 49.2747 262.047 49.584 261.535 49.808C261.034 50.032 260.442 50.144 259.759 50.144ZM268.306 50.144C267.613 50.144 266.989 50.0213 266.434 49.776C265.89 49.52 265.458 49.1787 265.138 48.752C264.818 48.3147 264.648 47.8293 264.626 47.296H266.514C266.546 47.6693 266.722 47.984 267.042 48.24C267.373 48.4853 267.784 48.608 268.274 48.608C268.786 48.608 269.181 48.512 269.458 48.32C269.746 48.1173 269.89 47.8613 269.89 47.552C269.89 47.2213 269.73 46.976 269.41 46.816C269.101 46.656 268.605 46.48 267.922 46.288C267.261 46.1067 266.722 45.9307 266.306 45.76C265.89 45.5893 265.528 45.328 265.218 44.976C264.92 44.624 264.77 44.16 264.77 43.584C264.77 43.1147 264.909 42.688 265.186 42.304C265.464 41.9093 265.858 41.6 266.37 41.376C266.893 41.152 267.49 41.04 268.162 41.04C269.165 41.04 269.97 41.296 270.578 41.808C271.197 42.3093 271.528 42.9973 271.57 43.872H269.746C269.714 43.4773 269.554 43.1627 269.266 42.928C268.978 42.6933 268.589 42.576 268.098 42.576C267.618 42.576 267.25 42.6667 266.994 42.848C266.738 43.0293 266.61 43.2693 266.61 43.568C266.61 43.8027 266.696 44 266.866 44.16C267.037 44.32 267.245 44.448 267.49 44.544C267.736 44.6293 268.098 44.7413 268.578 44.88C269.218 45.0507 269.741 45.2267 270.146 45.408C270.562 45.5787 270.92 45.8347 271.218 46.176C271.517 46.5173 271.672 46.9707 271.682 47.536C271.682 48.0373 271.544 48.4853 271.266 48.88C270.989 49.2747 270.594 49.584 270.082 49.808C269.581 50.032 268.989 50.144 268.306 50.144ZM274.581 40.016C274.25 40.016 273.973 39.904 273.749 39.68C273.525 39.456 273.413 39.1787 273.413 38.848C273.413 38.5173 273.525 38.24 273.749 38.016C273.973 37.792 274.25 37.68 274.581 37.68C274.901 37.68 275.173 37.792 275.397 38.016C275.621 38.24 275.733 38.5173 275.733 38.848C275.733 39.1787 275.621 39.456 275.397 39.68C275.173 39.904 274.901 40.016 274.581 40.016ZM275.477 41.184V50H273.653V41.184H275.477ZM282.32 41.04C283.013 41.04 283.632 41.184 284.176 41.472C284.731 41.76 285.163 42.1867 285.472 42.752C285.781 43.3173 285.936 44 285.936 44.8V50H284.128V45.072C284.128 44.2827 283.931 43.68 283.536 43.264C283.141 42.8373 282.603 42.624 281.92 42.624C281.237 42.624 280.693 42.8373 280.288 43.264C279.893 43.68 279.696 44.2827 279.696 45.072V50H277.872V41.184H279.696V42.192C279.995 41.8293 280.373 41.5467 280.832 41.344C281.301 41.1413 281.797 41.04 282.32 41.04ZM291.815 41.04C292.497 41.04 293.1 41.1787 293.623 41.456C294.156 41.7227 294.572 42.0587 294.871 42.464V41.184H296.711V50.144C296.711 50.9547 296.54 51.6747 296.199 52.304C295.857 52.944 295.361 53.4453 294.711 53.808C294.071 54.1707 293.303 54.352 292.407 54.352C291.212 54.352 290.22 54.0693 289.431 53.504C288.641 52.9493 288.193 52.192 288.087 51.232H289.895C290.033 51.6907 290.327 52.0587 290.775 52.336C291.233 52.624 291.777 52.768 292.407 52.768C293.143 52.768 293.735 52.544 294.183 52.096C294.641 51.648 294.871 50.9973 294.871 50.144V48.672C294.561 49.088 294.14 49.44 293.607 49.728C293.084 50.0053 292.487 50.144 291.815 50.144C291.047 50.144 290.343 49.952 289.703 49.568C289.073 49.1733 288.572 48.6293 288.199 47.936C287.836 47.232 287.655 46.4373 287.655 45.552C287.655 44.6667 287.836 43.8827 288.199 43.2C288.572 42.5173 289.073 41.9893 289.703 41.616C290.343 41.232 291.047 41.04 291.815 41.04ZM294.871 45.584C294.871 44.976 294.743 44.448 294.487 44C294.241 43.552 293.916 43.2107 293.511 42.976C293.105 42.7413 292.668 42.624 292.199 42.624C291.729 42.624 291.292 42.7413 290.887 42.976C290.481 43.2 290.151 43.536 289.895 43.984C289.649 44.4213 289.527 44.944 289.527 45.552C289.527 46.16 289.649 46.6933 289.895 47.152C290.151 47.6107 290.481 47.9627 290.887 48.208C291.303 48.4427 291.74 48.56 292.199 48.56C292.668 48.56 293.105 48.4427 293.511 48.208C293.916 47.9733 294.241 47.632 294.487 47.184C294.743 46.7253 294.871 46.192 294.871 45.584ZM313.935 41.04C314.628 41.04 315.247 41.184 315.791 41.472C316.345 41.76 316.777 42.1867 317.087 42.752C317.407 43.3173 317.567 44 317.567 44.8V50H315.759V45.072C315.759 44.2827 315.561 43.68 315.167 43.264C314.772 42.8373 314.233 42.624 313.551 42.624C312.868 42.624 312.324 42.8373 311.919 43.264C311.524 43.68 311.327 44.2827 311.327 45.072V50H309.519V45.072C309.519 44.2827 309.321 43.68 308.927 43.264C308.532 42.8373 307.993 42.624 307.311 42.624C306.628 42.624 306.084 42.8373 305.679 43.264C305.284 43.68 305.087 44.2827 305.087 45.072V50H303.263V41.184H305.087V42.192C305.385 41.8293 305.764 41.5467 306.223 41.344C306.681 41.1413 307.172 41.04 307.695 41.04C308.399 41.04 309.028 41.1893 309.583 41.488C310.137 41.7867 310.564 42.2187 310.863 42.784C311.129 42.2507 311.545 41.8293 312.111 41.52C312.676 41.2 313.284 41.04 313.935 41.04ZM319.28 45.552C319.28 44.6667 319.461 43.8827 319.824 43.2C320.197 42.5173 320.698 41.9893 321.328 41.616C321.968 41.232 322.672 41.04 323.44 41.04C324.133 41.04 324.736 41.1787 325.248 41.456C325.77 41.7227 326.186 42.0587 326.496 42.464V41.184H328.336V50H326.496V48.688C326.186 49.104 325.765 49.4507 325.232 49.728C324.698 50.0053 324.09 50.144 323.408 50.144C322.65 50.144 321.957 49.952 321.328 49.568C320.698 49.1733 320.197 48.6293 319.824 47.936C319.461 47.232 319.28 46.4373 319.28 45.552ZM326.496 45.584C326.496 44.976 326.368 44.448 326.112 44C325.866 43.552 325.541 43.2107 325.136 42.976C324.73 42.7413 324.293 42.624 323.824 42.624C323.354 42.624 322.917 42.7413 322.512 42.976C322.106 43.2 321.776 43.536 321.52 43.984C321.274 44.4213 321.152 44.944 321.152 45.552C321.152 46.16 321.274 46.6933 321.52 47.152C321.776 47.6107 322.106 47.9627 322.512 48.208C322.928 48.4427 323.365 48.56 323.824 48.56C324.293 48.56 324.73 48.4427 325.136 48.208C325.541 47.9733 325.866 47.632 326.112 47.184C326.368 46.7253 326.496 46.192 326.496 45.584ZM338.667 41.184L333.259 54.144H331.371L333.163 49.856L329.691 41.184H331.723L334.203 47.904L336.779 41.184H338.667ZM346.024 42.48C346.333 42.0747 346.755 41.7333 347.288 41.456C347.821 41.1787 348.424 41.04 349.096 41.04C349.864 41.04 350.563 41.232 351.192 41.616C351.832 41.9893 352.333 42.5173 352.696 43.2C353.059 43.8827 353.24 44.6667 353.24 45.552C353.24 46.4373 353.059 47.232 352.696 47.936C352.333 48.6293 351.832 49.1733 351.192 49.568C350.563 49.952 349.864 50.144 349.096 50.144C348.424 50.144 347.827 50.0107 347.304 49.744C346.781 49.4667 346.355 49.1253 346.024 48.72V54.192H344.2V41.184H346.024V42.48ZM351.384 45.552C351.384 44.944 351.256 44.4213 351 43.984C350.755 43.536 350.424 43.2 350.008 42.976C349.603 42.7413 349.165 42.624 348.696 42.624C348.237 42.624 347.8 42.7413 347.384 42.976C346.979 43.2107 346.648 43.552 346.392 44C346.147 44.448 346.024 44.976 346.024 45.584C346.024 46.192 346.147 46.7253 346.392 47.184C346.648 47.632 346.979 47.9733 347.384 48.208C347.8 48.4427 348.237 48.56 348.696 48.56C349.165 48.56 349.603 48.4427 350.008 48.208C350.424 47.9627 350.755 47.6107 351 47.152C351.256 46.6933 351.384 46.16 351.384 45.552ZM363.124 45.376C363.124 45.7067 363.102 46.0053 363.06 46.272H356.324C356.377 46.976 356.638 47.5413 357.108 47.968C357.577 48.3947 358.153 48.608 358.836 48.608C359.817 48.608 360.51 48.1973 360.916 47.376H362.884C362.617 48.1867 362.132 48.8533 361.428 49.376C360.734 49.888 359.87 50.144 358.836 50.144C357.993 50.144 357.236 49.9573 356.564 49.584C355.902 49.2 355.38 48.6667 354.996 47.984C354.622 47.2907 354.436 46.4907 354.436 45.584C354.436 44.6773 354.617 43.8827 354.98 43.2C355.353 42.5067 355.87 41.9733 356.532 41.6C357.204 41.2267 357.972 41.04 358.836 41.04C359.668 41.04 360.409 41.2213 361.06 41.584C361.71 41.9467 362.217 42.4587 362.58 43.12C362.942 43.7707 363.124 44.5227 363.124 45.376ZM361.22 44.8C361.209 44.128 360.969 43.5893 360.5 43.184C360.03 42.7787 359.449 42.576 358.756 42.576C358.126 42.576 357.588 42.7787 357.14 43.184C356.692 43.5787 356.425 44.1173 356.34 44.8H361.22ZM364.311 45.584C364.311 44.6773 364.492 43.8827 364.855 43.2C365.228 42.5067 365.74 41.9733 366.391 41.6C367.041 41.2267 367.788 41.04 368.631 41.04C369.697 41.04 370.577 41.296 371.271 41.808C371.975 42.3093 372.449 43.0293 372.695 43.968H370.727C370.567 43.5307 370.311 43.1893 369.959 42.944C369.607 42.6987 369.164 42.576 368.631 42.576C367.884 42.576 367.287 42.8427 366.839 43.376C366.401 43.8987 366.183 44.6347 366.183 45.584C366.183 46.5333 366.401 47.2747 366.839 47.808C367.287 48.3413 367.884 48.608 368.631 48.608C369.687 48.608 370.385 48.144 370.727 47.216H372.695C372.439 48.112 371.959 48.8267 371.255 49.36C370.551 49.8827 369.676 50.144 368.631 50.144C367.788 50.144 367.041 49.9573 366.391 49.584C365.74 49.2 365.228 48.6667 364.855 47.984C364.492 47.2907 364.311 46.4907 364.311 45.584ZM382.497 41.184V50H380.673V48.96C380.385 49.3227 380.006 49.6107 379.537 49.824C379.078 50.0267 378.587 50.128 378.065 50.128C377.371 50.128 376.747 49.984 376.193 49.696C375.649 49.408 375.217 48.9813 374.897 48.416C374.587 47.8507 374.433 47.168 374.433 46.368V41.184H376.241V46.096C376.241 46.8853 376.438 47.4933 376.833 47.92C377.227 48.336 377.766 48.544 378.449 48.544C379.131 48.544 379.67 48.336 380.065 47.92C380.47 47.4933 380.673 46.8853 380.673 46.096V41.184H382.497ZM386.727 38.16V50H384.903V38.16H386.727ZM390.05 40.016C389.719 40.016 389.442 39.904 389.218 39.68C388.994 39.456 388.882 39.1787 388.882 38.848C388.882 38.5173 388.994 38.24 389.218 38.016C389.442 37.792 389.719 37.68 390.05 37.68C390.37 37.68 390.642 37.792 390.866 38.016C391.09 38.24 391.202 38.5173 391.202 38.848C391.202 39.1787 391.09 39.456 390.866 39.68C390.642 39.904 390.37 40.016 390.05 40.016ZM390.946 41.184V50H389.122V41.184H390.946ZM392.733 45.552C392.733 44.6667 392.914 43.8827 393.277 43.2C393.65 42.5173 394.151 41.9893 394.781 41.616C395.421 41.232 396.125 41.04 396.893 41.04C397.586 41.04 398.189 41.1787 398.701 41.456C399.223 41.7227 399.639 42.0587 399.949 42.464V41.184H401.789V50H399.949V48.688C399.639 49.104 399.218 49.4507 398.685 49.728C398.151 50.0053 397.543 50.144 396.861 50.144C396.103 50.144 395.41 49.952 394.781 49.568C394.151 49.1733 393.65 48.6293 393.277 47.936C392.914 47.232 392.733 46.4373 392.733 45.552ZM399.949 45.584C399.949 44.976 399.821 44.448 399.565 44C399.319 43.552 398.994 43.2107 398.589 42.976C398.183 42.7413 397.746 42.624 397.277 42.624C396.807 42.624 396.37 42.7413 395.965 42.976C395.559 43.2 395.229 43.536 394.973 43.984C394.727 44.4213 394.605 44.944 394.605 45.552C394.605 46.16 394.727 46.6933 394.973 47.152C395.229 47.6107 395.559 47.9627 395.965 48.208C396.381 48.4427 396.818 48.56 397.277 48.56C397.746 48.56 398.183 48.4427 398.589 48.208C398.994 47.9733 399.319 47.632 399.565 47.184C399.821 46.7253 399.949 46.192 399.949 45.584ZM406.008 42.464C406.275 42.016 406.627 41.6693 407.064 41.424C407.512 41.168 408.04 41.04 408.648 41.04V42.928H408.184C407.47 42.928 406.926 43.1093 406.552 43.472C406.19 43.8347 406.008 44.464 406.008 45.36V50H404.184V41.184H406.008V42.464ZM34.592 77.552C34.592 76.6667 34.7733 75.8827 35.136 75.2C35.5093 74.5173 36.0107 73.9893 36.64 73.616C37.28 73.232 37.9893 73.04 38.768 73.04C39.344 73.04 39.9093 73.168 40.464 73.424C41.0293 73.6693 41.4773 74 41.808 74.416V70.16H43.648V82H41.808V80.672C41.5093 81.0987 41.0933 81.4507 40.56 81.728C40.0373 82.0053 39.4347 82.144 38.752 82.144C37.984 82.144 37.28 81.952 36.64 81.568C36.0107 81.1733 35.5093 80.6293 35.136 79.936C34.7733 79.232 34.592 78.4373 34.592 77.552ZM41.808 77.584C41.808 76.976 41.68 76.448 41.424 76C41.1787 75.552 40.8533 75.2107 40.448 74.976C40.0427 74.7413 39.6053 74.624 39.136 74.624C38.6667 74.624 38.2293 74.7413 37.824 74.976C37.4187 75.2 37.088 75.536 36.832 75.984C36.5867 76.4213 36.464 76.944 36.464 77.552C36.464 78.16 36.5867 78.6933 36.832 79.152C37.088 79.6107 37.4187 79.9627 37.824 80.208C38.24 80.4427 38.6773 80.56 39.136 80.56C39.6053 80.56 40.0427 80.4427 40.448 80.208C40.8533 79.9733 41.1787 79.632 41.424 79.184C41.68 78.7253 41.808 78.192 41.808 77.584ZM49.8678 82.144C49.0358 82.144 48.2838 81.9573 47.6118 81.584C46.9398 81.2 46.4118 80.6667 46.0278 79.984C45.6438 79.2907 45.4518 78.4907 45.4518 77.584C45.4518 76.688 45.6491 75.8933 46.0438 75.2C46.4384 74.5067 46.9771 73.9733 47.6598 73.6C48.3424 73.2267 49.1051 73.04 49.9478 73.04C50.7904 73.04 51.5531 73.2267 52.2358 73.6C52.9184 73.9733 53.4571 74.5067 53.8518 75.2C54.2464 75.8933 54.4438 76.688 54.4438 77.584C54.4438 78.48 54.2411 79.2747 53.8358 79.968C53.4304 80.6613 52.8758 81.2 52.1718 81.584C51.4784 81.9573 50.7104 82.144 49.8678 82.144ZM49.8678 80.56C50.3371 80.56 50.7744 80.448 51.1798 80.224C51.5958 80 51.9318 79.664 52.1878 79.216C52.4438 78.768 52.5718 78.224 52.5718 77.584C52.5718 76.944 52.4491 76.4053 52.2038 75.968C51.9584 75.52 51.6331 75.184 51.2278 74.96C50.8224 74.736 50.3851 74.624 49.9158 74.624C49.4464 74.624 49.0091 74.736 48.6038 74.96C48.2091 75.184 47.8944 75.52 47.6598 75.968C47.4251 76.4053 47.3078 76.944 47.3078 77.584C47.3078 78.5333 47.5478 79.2693 48.0278 79.792C48.5184 80.304 49.1318 80.56 49.8678 80.56ZM66.9189 73.04C67.6122 73.04 68.2309 73.184 68.7749 73.472C69.3295 73.76 69.7615 74.1867 70.0709 74.752C70.3909 75.3173 70.5509 76 70.5509 76.8V82H68.7429V77.072C68.7429 76.2827 68.5455 75.68 68.1509 75.264C67.7562 74.8373 67.2175 74.624 66.5349 74.624C65.8522 74.624 65.3082 74.8373 64.9029 75.264C64.5082 75.68 64.3109 76.2827 64.3109 77.072V82H62.5029V77.072C62.5029 76.2827 62.3055 75.68 61.9109 75.264C61.5162 74.8373 60.9775 74.624 60.2949 74.624C59.6122 74.624 59.0682 74.8373 58.6629 75.264C58.2682 75.68 58.0709 76.2827 58.0709 77.072V82H56.2469V73.184H58.0709V74.192C58.3695 73.8293 58.7482 73.5467 59.2069 73.344C59.6655 73.1413 60.1562 73.04 60.6789 73.04C61.3829 73.04 62.0122 73.1893 62.5669 73.488C63.1215 73.7867 63.5482 74.2187 63.8469 74.784C64.1135 74.2507 64.5295 73.8293 65.0949 73.52C65.6602 73.2 66.2682 73.04 66.9189 73.04ZM80.9519 77.376C80.9519 77.7067 80.9305 78.0053 80.8879 78.272H74.1519C74.2052 78.976 74.4665 79.5413 74.9359 79.968C75.4052 80.3947 75.9812 80.608 76.6639 80.608C77.6452 80.608 78.3385 80.1973 78.7439 79.376H80.7119C80.4452 80.1867 79.9599 80.8533 79.2559 81.376C78.5625 81.888 77.6985 82.144 76.6639 82.144C75.8212 82.144 75.0639 81.9573 74.3919 81.584C73.7305 81.2 73.2079 80.6667 72.8239 79.984C72.4505 79.2907 72.2639 78.4907 72.2639 77.584C72.2639 76.6773 72.4452 75.8827 72.8079 75.2C73.1812 74.5067 73.6985 73.9733 74.3599 73.6C75.0319 73.2267 75.7999 73.04 76.6639 73.04C77.4959 73.04 78.2372 73.2213 78.8879 73.584C79.5385 73.9467 80.0452 74.4587 80.4079 75.12C80.7705 75.7707 80.9519 76.5227 80.9519 77.376ZM79.0479 76.8C79.0372 76.128 78.7972 75.5893 78.3279 75.184C77.8585 74.7787 77.2772 74.576 76.5839 74.576C75.9545 74.576 75.4159 74.7787 74.9679 75.184C74.5199 75.5787 74.2532 76.1173 74.1679 76.8H79.0479ZM85.9469 82.144C85.2535 82.144 84.6295 82.0213 84.0749 81.776C83.5309 81.52 83.0989 81.1787 82.7789 80.752C82.4589 80.3147 82.2882 79.8293 82.2669 79.296H84.1549C84.1869 79.6693 84.3629 79.984 84.6829 80.24C85.0135 80.4853 85.4242 80.608 85.9149 80.608C86.4269 80.608 86.8215 80.512 87.0989 80.32C87.3869 80.1173 87.5309 79.8613 87.5309 79.552C87.5309 79.2213 87.3709 78.976 87.0509 78.816C86.7415 78.656 86.2455 78.48 85.5629 78.288C84.9015 78.1067 84.3629 77.9307 83.9469 77.76C83.5309 77.5893 83.1682 77.328 82.8589 76.976C82.5602 76.624 82.4109 76.16 82.4109 75.584C82.4109 75.1147 82.5495 74.688 82.8269 74.304C83.1042 73.9093 83.4989 73.6 84.0109 73.376C84.5335 73.152 85.1309 73.04 85.8029 73.04C86.8055 73.04 87.6109 73.296 88.2189 73.808C88.8375 74.3093 89.1682 74.9973 89.2109 75.872H87.3869C87.3549 75.4773 87.1949 75.1627 86.9069 74.928C86.6189 74.6933 86.2295 74.576 85.7389 74.576C85.2589 74.576 84.8909 74.6667 84.6349 74.848C84.3789 75.0293 84.2509 75.2693 84.2509 75.568C84.2509 75.8027 84.3362 76 84.5069 76.16C84.6775 76.32 84.8855 76.448 85.1309 76.544C85.3762 76.6293 85.7389 76.7413 86.2189 76.88C86.8589 77.0507 87.3815 77.2267 87.7869 77.408C88.2029 77.5787 88.5602 77.8347 88.8589 78.176C89.1575 78.5173 89.3122 78.9707 89.3229 79.536C89.3229 80.0373 89.1842 80.4853 88.9069 80.88C88.6295 81.2747 88.2349 81.584 87.7229 81.808C87.2215 82.032 86.6295 82.144 85.9469 82.144ZM93.4218 74.672V79.552C93.4218 79.8827 93.4964 80.1227 93.6458 80.272C93.8058 80.4107 94.0724 80.48 94.4458 80.48H95.5658V82H94.1258C93.3044 82 92.6751 81.808 92.2378 81.424C91.8004 81.04 91.5818 80.416 91.5818 79.552V74.672H90.5418V73.184H91.5818V70.992H93.4218V73.184H95.5658V74.672H93.4218ZM98.1749 72.016C97.8442 72.016 97.5669 71.904 97.3429 71.68C97.1189 71.456 97.0069 71.1787 97.0069 70.848C97.0069 70.5173 97.1189 70.24 97.3429 70.016C97.5669 69.792 97.8442 69.68 98.1749 69.68C98.4949 69.68 98.7669 69.792 98.9909 70.016C99.2149 70.24 99.3269 70.5173 99.3269 70.848C99.3269 71.1787 99.2149 71.456 98.9909 71.68C98.7669 71.904 98.4949 72.016 98.1749 72.016ZM99.0709 73.184V82H97.2469V73.184H99.0709ZM100.858 77.584C100.858 76.6773 101.039 75.8827 101.402 75.2C101.775 74.5067 102.287 73.9733 102.938 73.6C103.588 73.2267 104.335 73.04 105.178 73.04C106.244 73.04 107.124 73.296 107.818 73.808C108.522 74.3093 108.996 75.0293 109.242 75.968H107.274C107.114 75.5307 106.858 75.1893 106.506 74.944C106.154 74.6987 105.711 74.576 105.178 74.576C104.431 74.576 103.834 74.8427 103.386 75.376C102.948 75.8987 102.73 76.6347 102.73 77.584C102.73 78.5333 102.948 79.2747 103.386 79.808C103.834 80.3413 104.431 80.608 105.178 80.608C106.234 80.608 106.932 80.144 107.274 79.216H109.242C108.986 80.112 108.506 80.8267 107.802 81.36C107.098 81.8827 106.223 82.144 105.178 82.144C104.335 82.144 103.588 81.9573 102.938 81.584C102.287 81.2 101.775 80.6667 101.402 79.984C101.039 79.2907 100.858 78.4907 100.858 77.584ZM111.795 82.112C111.465 82.112 111.187 82 110.963 81.776C110.739 81.552 110.627 81.2747 110.627 80.944C110.627 80.6133 110.739 80.336 110.963 80.112C111.187 79.888 111.465 79.776 111.795 79.776C112.115 79.776 112.387 79.888 112.611 80.112C112.835 80.336 112.947 80.6133 112.947 80.944C112.947 81.2747 112.835 81.552 112.611 81.776C112.387 82 112.115 82.112 111.795 82.112ZM122.739 82.112C121.992 82.112 121.32 81.984 120.723 81.728C120.126 81.4613 119.656 81.088 119.315 80.608C118.974 80.128 118.803 79.568 118.803 78.928H120.755C120.798 79.408 120.984 79.8027 121.315 80.112C121.656 80.4213 122.131 80.576 122.739 80.576C123.368 80.576 123.859 80.4267 124.211 80.128C124.563 79.8187 124.739 79.424 124.739 78.944C124.739 78.5707 124.627 78.2667 124.403 78.032C124.19 77.7973 123.918 77.616 123.587 77.488C123.267 77.36 122.819 77.2213 122.243 77.072C121.518 76.88 120.926 76.688 120.467 76.496C120.019 76.2933 119.635 75.984 119.315 75.568C118.995 75.152 118.835 74.5973 118.835 73.904C118.835 73.264 118.995 72.704 119.315 72.224C119.635 71.744 120.083 71.376 120.659 71.12C121.235 70.864 121.902 70.736 122.659 70.736C123.736 70.736 124.616 71.008 125.299 71.552C125.992 72.0853 126.376 72.8213 126.451 73.76H124.435C124.403 73.3547 124.211 73.008 123.859 72.72C123.507 72.432 123.043 72.288 122.467 72.288C121.944 72.288 121.518 72.4213 121.187 72.688C120.856 72.9547 120.691 73.3387 120.691 73.84C120.691 74.1813 120.792 74.464 120.995 74.688C121.208 74.9013 121.475 75.072 121.795 75.2C122.115 75.328 122.552 75.4667 123.107 75.616C123.843 75.8187 124.44 76.0213 124.899 76.224C125.368 76.4267 125.763 76.7413 126.083 77.168C126.414 77.584 126.579 78.144 126.579 78.848C126.579 79.4133 126.424 79.9467 126.115 80.448C125.816 80.9493 125.374 81.3547 124.787 81.664C124.211 81.9627 123.528 82.112 122.739 82.112ZM129.659 72.016C129.329 72.016 129.051 71.904 128.827 71.68C128.603 71.456 128.491 71.1787 128.491 70.848C128.491 70.5173 128.603 70.24 128.827 70.016C129.051 69.792 129.329 69.68 129.659 69.68C129.979 69.68 130.251 69.792 130.475 70.016C130.699 70.24 130.811 70.5173 130.811 70.848C130.811 71.1787 130.699 71.456 130.475 71.68C130.251 71.904 129.979 72.016 129.659 72.016ZM130.555 73.184V82H128.731V73.184H130.555ZM136.502 73.04C137.185 73.04 137.787 73.1787 138.31 73.456C138.843 73.7227 139.259 74.0587 139.558 74.464V73.184H141.398V82.144C141.398 82.9547 141.227 83.6747 140.886 84.304C140.545 84.944 140.049 85.4453 139.398 85.808C138.758 86.1707 137.99 86.352 137.094 86.352C135.899 86.352 134.907 86.0693 134.118 85.504C133.329 84.9493 132.881 84.192 132.774 83.232H134.582C134.721 83.6907 135.014 84.0587 135.462 84.336C135.921 84.624 136.465 84.768 137.094 84.768C137.83 84.768 138.422 84.544 138.87 84.096C139.329 83.648 139.558 82.9973 139.558 82.144V80.672C139.249 81.088 138.827 81.44 138.294 81.728C137.771 82.0053 137.174 82.144 136.502 82.144C135.734 82.144 135.03 81.952 134.39 81.568C133.761 81.1733 133.259 80.6293 132.886 79.936C132.523 79.232 132.342 78.4373 132.342 77.552C132.342 76.6667 132.523 75.8827 132.886 75.2C133.259 74.5173 133.761 73.9893 134.39 73.616C135.03 73.232 135.734 73.04 136.502 73.04ZM139.558 77.584C139.558 76.976 139.43 76.448 139.174 76C138.929 75.552 138.603 75.2107 138.198 74.976C137.793 74.7413 137.355 74.624 136.886 74.624C136.417 74.624 135.979 74.7413 135.574 74.976C135.169 75.2 134.838 75.536 134.582 75.984C134.337 76.4213 134.214 76.944 134.214 77.552C134.214 78.16 134.337 78.6933 134.582 79.152C134.838 79.6107 135.169 79.9627 135.574 80.208C135.99 80.4427 136.427 80.56 136.886 80.56C137.355 80.56 137.793 80.4427 138.198 80.208C138.603 79.9733 138.929 79.632 139.174 79.184C139.43 78.7253 139.558 78.192 139.558 77.584ZM148.354 73.04C149.026 73.04 149.623 73.184 150.146 73.472C150.679 73.76 151.095 74.1867 151.394 74.752C151.703 75.3173 151.858 76 151.858 76.8V82H150.05V77.072C150.05 76.2827 149.852 75.68 149.458 75.264C149.063 74.8373 148.524 74.624 147.842 74.624C147.159 74.624 146.615 74.8373 146.21 75.264C145.815 75.68 145.618 76.2827 145.618 77.072V82H143.794V70.16H145.618V74.208C145.927 73.8347 146.316 73.5467 146.786 73.344C147.266 73.1413 147.788 73.04 148.354 73.04ZM156.312 74.672V79.552C156.312 79.8827 156.387 80.1227 156.536 80.272C156.696 80.4107 156.963 80.48 157.336 80.48H158.456V82H157.016C156.195 82 155.566 81.808 155.128 81.424C154.691 81.04 154.472 80.416 154.472 79.552V74.672H153.432V73.184H154.472V70.992H156.312V73.184H158.456V74.672H156.312ZM168.854 73.04C169.526 73.04 170.123 73.184 170.646 73.472C171.179 73.76 171.595 74.1867 171.894 74.752C172.203 75.3173 172.358 76 172.358 76.8V82H170.55V77.072C170.55 76.2827 170.352 75.68 169.958 75.264C169.563 74.8373 169.024 74.624 168.342 74.624C167.659 74.624 167.115 74.8373 166.71 75.264C166.315 75.68 166.118 76.2827 166.118 77.072V82H164.294V70.16H166.118V74.208C166.427 73.8347 166.816 73.5467 167.286 73.344C167.766 73.1413 168.288 73.04 168.854 73.04ZM178.508 82.144C177.676 82.144 176.924 81.9573 176.252 81.584C175.58 81.2 175.052 80.6667 174.668 79.984C174.284 79.2907 174.092 78.4907 174.092 77.584C174.092 76.688 174.29 75.8933 174.684 75.2C175.079 74.5067 175.618 73.9733 176.3 73.6C176.983 73.2267 177.746 73.04 178.588 73.04C179.431 73.04 180.194 73.2267 180.876 73.6C181.559 73.9733 182.098 74.5067 182.492 75.2C182.887 75.8933 183.084 76.688 183.084 77.584C183.084 78.48 182.882 79.2747 182.476 79.968C182.071 80.6613 181.516 81.2 180.812 81.584C180.119 81.9573 179.351 82.144 178.508 82.144ZM178.508 80.56C178.978 80.56 179.415 80.448 179.82 80.224C180.236 80 180.572 79.664 180.828 79.216C181.084 78.768 181.212 78.224 181.212 77.584C181.212 76.944 181.09 76.4053 180.844 75.968C180.599 75.52 180.274 75.184 179.868 74.96C179.463 74.736 179.026 74.624 178.556 74.624C178.087 74.624 177.65 74.736 177.244 74.96C176.85 75.184 176.535 75.52 176.3 75.968C176.066 76.4053 175.948 76.944 175.948 77.584C175.948 78.5333 176.188 79.2693 176.668 79.792C177.159 80.304 177.772 80.56 178.508 80.56ZM192.872 73.184V82H191.048V80.96C190.76 81.3227 190.381 81.6107 189.912 81.824C189.453 82.0267 188.962 82.128 188.44 82.128C187.746 82.128 187.122 81.984 186.568 81.696C186.024 81.408 185.592 80.9813 185.272 80.416C184.962 79.8507 184.808 79.168 184.808 78.368V73.184H186.616V78.096C186.616 78.8853 186.813 79.4933 187.208 79.92C187.602 80.336 188.141 80.544 188.824 80.544C189.506 80.544 190.045 80.336 190.44 79.92C190.845 79.4933 191.048 78.8853 191.048 78.096V73.184H192.872ZM198.478 82.144C197.785 82.144 197.161 82.0213 196.606 81.776C196.062 81.52 195.63 81.1787 195.31 80.752C194.99 80.3147 194.819 79.8293 194.798 79.296H196.686C196.718 79.6693 196.894 79.984 197.214 80.24C197.545 80.4853 197.955 80.608 198.446 80.608C198.958 80.608 199.353 80.512 199.63 80.32C199.918 80.1173 200.062 79.8613 200.062 79.552C200.062 79.2213 199.902 78.976 199.582 78.816C199.273 78.656 198.777 78.48 198.094 78.288C197.433 78.1067 196.894 77.9307 196.478 77.76C196.062 77.5893 195.699 77.328 195.39 76.976C195.091 76.624 194.942 76.16 194.942 75.584C194.942 75.1147 195.081 74.688 195.358 74.304C195.635 73.9093 196.03 73.6 196.542 73.376C197.065 73.152 197.662 73.04 198.334 73.04C199.337 73.04 200.142 73.296 200.75 73.808C201.369 74.3093 201.699 74.9973 201.742 75.872H199.918C199.886 75.4773 199.726 75.1627 199.438 74.928C199.15 74.6933 198.761 74.576 198.27 74.576C197.79 74.576 197.422 74.6667 197.166 74.848C196.91 75.0293 196.782 75.2693 196.782 75.568C196.782 75.8027 196.867 76 197.038 76.16C197.209 76.32 197.417 76.448 197.662 76.544C197.907 76.6293 198.27 76.7413 198.75 76.88C199.39 77.0507 199.913 77.2267 200.318 77.408C200.734 77.5787 201.091 77.8347 201.39 78.176C201.689 78.5173 201.843 78.9707 201.854 79.536C201.854 80.0373 201.715 80.4853 201.438 80.88C201.161 81.2747 200.766 81.584 200.254 81.808C199.753 82.032 199.161 82.144 198.478 82.144ZM211.905 77.376C211.905 77.7067 211.884 78.0053 211.841 78.272H205.105C205.158 78.976 205.42 79.5413 205.889 79.968C206.358 80.3947 206.934 80.608 207.617 80.608C208.598 80.608 209.292 80.1973 209.697 79.376H211.665C211.398 80.1867 210.913 80.8533 210.209 81.376C209.516 81.888 208.652 82.144 207.617 82.144C206.774 82.144 206.017 81.9573 205.345 81.584C204.684 81.2 204.161 80.6667 203.777 79.984C203.404 79.2907 203.217 78.4907 203.217 77.584C203.217 76.6773 203.398 75.8827 203.761 75.2C204.134 74.5067 204.652 73.9733 205.313 73.6C205.985 73.2267 206.753 73.04 207.617 73.04C208.449 73.04 209.19 73.2213 209.841 73.584C210.492 73.9467 210.998 74.4587 211.361 75.12C211.724 75.7707 211.905 76.5227 211.905 77.376ZM210.001 76.8C209.99 76.128 209.75 75.5893 209.281 75.184C208.812 74.7787 208.23 74.576 207.537 74.576C206.908 74.576 206.369 74.7787 205.921 75.184C205.473 75.5787 205.206 76.1173 205.121 76.8H210.001ZM222.416 73.04C223.088 73.04 223.686 73.184 224.208 73.472C224.742 73.76 225.158 74.1867 225.456 74.752C225.766 75.3173 225.92 76 225.92 76.8V82H224.112V77.072C224.112 76.2827 223.915 75.68 223.52 75.264C223.126 74.8373 222.587 74.624 221.904 74.624C221.222 74.624 220.678 74.8373 220.272 75.264C219.878 75.68 219.68 76.2827 219.68 77.072V82H217.856V70.16H219.68V74.208C219.99 73.8347 220.379 73.5467 220.848 73.344C221.328 73.1413 221.851 73.04 222.416 73.04ZM227.639 77.552C227.639 76.6667 227.82 75.8827 228.183 75.2C228.556 74.5173 229.058 73.9893 229.687 73.616C230.327 73.232 231.031 73.04 231.799 73.04C232.492 73.04 233.095 73.1787 233.607 73.456C234.13 73.7227 234.546 74.0587 234.855 74.464V73.184H236.695V82H234.855V80.688C234.546 81.104 234.124 81.4507 233.591 81.728C233.058 82.0053 232.45 82.144 231.767 82.144C231.01 82.144 230.316 81.952 229.687 81.568C229.058 81.1733 228.556 80.6293 228.183 79.936C227.82 79.232 227.639 78.4373 227.639 77.552ZM234.855 77.584C234.855 76.976 234.727 76.448 234.471 76C234.226 75.552 233.9 75.2107 233.495 74.976C233.09 74.7413 232.652 74.624 232.183 74.624C231.714 74.624 231.276 74.7413 230.871 74.976C230.466 75.2 230.135 75.536 229.879 75.984C229.634 76.4213 229.511 76.944 229.511 77.552C229.511 78.16 229.634 78.6933 229.879 79.152C230.135 79.6107 230.466 79.9627 230.871 80.208C231.287 80.4427 231.724 80.56 232.183 80.56C232.652 80.56 233.09 80.4427 233.495 80.208C233.9 79.9733 234.226 79.632 234.471 79.184C234.727 78.7253 234.855 78.192 234.855 77.584ZM242.291 82.144C241.597 82.144 240.973 82.0213 240.419 81.776C239.875 81.52 239.443 81.1787 239.123 80.752C238.803 80.3147 238.632 79.8293 238.611 79.296H240.499C240.531 79.6693 240.707 79.984 241.027 80.24C241.357 80.4853 241.768 80.608 242.259 80.608C242.771 80.608 243.165 80.512 243.443 80.32C243.731 80.1173 243.875 79.8613 243.875 79.552C243.875 79.2213 243.715 78.976 243.395 78.816C243.085 78.656 242.589 78.48 241.907 78.288C241.245 78.1067 240.707 77.9307 240.291 77.76C239.875 77.5893 239.512 77.328 239.203 76.976C238.904 76.624 238.755 76.16 238.755 75.584C238.755 75.1147 238.893 74.688 239.171 74.304C239.448 73.9093 239.843 73.6 240.355 73.376C240.877 73.152 241.475 73.04 242.147 73.04C243.149 73.04 243.955 73.296 244.563 73.808C245.181 74.3093 245.512 74.9973 245.555 75.872H243.731C243.699 75.4773 243.539 75.1627 243.251 74.928C242.963 74.6933 242.573 74.576 242.083 74.576C241.603 74.576 241.235 74.6667 240.979 74.848C240.723 75.0293 240.595 75.2693 240.595 75.568C240.595 75.8027 240.68 76 240.851 76.16C241.021 76.32 241.229 76.448 241.475 76.544C241.72 76.6293 242.083 76.7413 242.563 76.88C243.203 77.0507 243.725 77.2267 244.131 77.408C244.547 77.5787 244.904 77.8347 245.203 78.176C245.501 78.5173 245.656 78.9707 245.667 79.536C245.667 80.0373 245.528 80.4853 245.251 80.88C244.973 81.2747 244.579 81.584 244.067 81.808C243.565 82.032 242.973 82.144 242.291 82.144ZM254.994 82.144C254.3 82.144 253.676 82.0213 253.122 81.776C252.578 81.52 252.146 81.1787 251.826 80.752C251.506 80.3147 251.335 79.8293 251.314 79.296H253.202C253.234 79.6693 253.41 79.984 253.73 80.24C254.06 80.4853 254.471 80.608 254.962 80.608C255.474 80.608 255.868 80.512 256.146 80.32C256.434 80.1173 256.578 79.8613 256.578 79.552C256.578 79.2213 256.418 78.976 256.098 78.816C255.788 78.656 255.292 78.48 254.61 78.288C253.948 78.1067 253.41 77.9307 252.994 77.76C252.578 77.5893 252.215 77.328 251.906 76.976C251.607 76.624 251.458 76.16 251.458 75.584C251.458 75.1147 251.596 74.688 251.874 74.304C252.151 73.9093 252.546 73.6 253.058 73.376C253.58 73.152 254.178 73.04 254.85 73.04C255.852 73.04 256.658 73.296 257.266 73.808C257.884 74.3093 258.215 74.9973 258.258 75.872H256.434C256.402 75.4773 256.242 75.1627 255.954 74.928C255.666 74.6933 255.276 74.576 254.786 74.576C254.306 74.576 253.938 74.6667 253.682 74.848C253.426 75.0293 253.298 75.2693 253.298 75.568C253.298 75.8027 253.383 76 253.554 76.16C253.724 76.32 253.932 76.448 254.178 76.544C254.423 76.6293 254.786 76.7413 255.266 76.88C255.906 77.0507 256.428 77.2267 256.834 77.408C257.25 77.5787 257.607 77.8347 257.906 78.176C258.204 78.5173 258.359 78.9707 258.37 79.536C258.37 80.0373 258.231 80.4853 257.954 80.88C257.676 81.2747 257.282 81.584 256.77 81.808C256.268 82.032 255.676 82.144 254.994 82.144ZM268.421 77.376C268.421 77.7067 268.399 78.0053 268.357 78.272H261.621C261.674 78.976 261.935 79.5413 262.405 79.968C262.874 80.3947 263.45 80.608 264.133 80.608C265.114 80.608 265.807 80.1973 266.213 79.376H268.181C267.914 80.1867 267.429 80.8533 266.725 81.376C266.031 81.888 265.167 82.144 264.133 82.144C263.29 82.144 262.533 81.9573 261.861 81.584C261.199 81.2 260.677 80.6667 260.293 79.984C259.919 79.2907 259.733 78.4907 259.733 77.584C259.733 76.6773 259.914 75.8827 260.277 75.2C260.65 74.5067 261.167 73.9733 261.829 73.6C262.501 73.2267 263.269 73.04 264.133 73.04C264.965 73.04 265.706 73.2213 266.357 73.584C267.007 73.9467 267.514 74.4587 267.877 75.12C268.239 75.7707 268.421 76.5227 268.421 77.376ZM266.517 76.8C266.506 76.128 266.266 75.5893 265.797 75.184C265.327 74.7787 264.746 74.576 264.053 74.576C263.423 74.576 262.885 74.7787 262.437 75.184C261.989 75.5787 261.722 76.1173 261.637 76.8H266.517ZM273.992 77.536L276.84 82H274.776L272.872 79.008L271.08 82H269.176L272.024 77.664L269.176 73.184H271.24L273.144 76.176L274.936 73.184H276.84L273.992 77.536ZM286.804 73.04C287.498 73.04 288.116 73.184 288.66 73.472C289.215 73.76 289.647 74.1867 289.956 74.752C290.266 75.3173 290.42 76 290.42 76.8V82H288.612V77.072C288.612 76.2827 288.415 75.68 288.02 75.264C287.626 74.8373 287.087 74.624 286.404 74.624C285.722 74.624 285.178 74.8373 284.772 75.264C284.378 75.68 284.18 76.2827 284.18 77.072V82H282.356V73.184H284.18V74.192C284.479 73.8293 284.858 73.5467 285.316 73.344C285.786 73.1413 286.282 73.04 286.804 73.04ZM300.827 77.376C300.827 77.7067 300.806 78.0053 300.763 78.272H294.027C294.08 78.976 294.342 79.5413 294.811 79.968C295.28 80.3947 295.856 80.608 296.539 80.608C297.52 80.608 298.214 80.1973 298.619 79.376H300.587C300.32 80.1867 299.835 80.8533 299.131 81.376C298.438 81.888 297.574 82.144 296.539 82.144C295.696 82.144 294.939 81.9573 294.267 81.584C293.606 81.2 293.083 80.6667 292.699 79.984C292.326 79.2907 292.139 78.4907 292.139 77.584C292.139 76.6773 292.32 75.8827 292.683 75.2C293.056 74.5067 293.574 73.9733 294.235 73.6C294.907 73.2267 295.675 73.04 296.539 73.04C297.371 73.04 298.112 73.2213 298.763 73.584C299.414 73.9467 299.92 74.4587 300.283 75.12C300.646 75.7707 300.827 76.5227 300.827 77.376ZM298.923 76.8C298.912 76.128 298.672 75.5893 298.203 75.184C297.734 74.7787 297.152 74.576 296.459 74.576C295.83 74.576 295.291 74.7787 294.843 75.184C294.395 75.5787 294.128 76.1173 294.043 76.8H298.923ZM306.03 80.368L308.526 73.184H310.462L307.102 82H304.926L301.582 73.184H303.534L306.03 80.368ZM319.921 77.376C319.921 77.7067 319.899 78.0053 319.857 78.272H313.121C313.174 78.976 313.435 79.5413 313.905 79.968C314.374 80.3947 314.95 80.608 315.633 80.608C316.614 80.608 317.307 80.1973 317.713 79.376H319.681C319.414 80.1867 318.929 80.8533 318.225 81.376C317.531 81.888 316.667 82.144 315.633 82.144C314.79 82.144 314.033 81.9573 313.361 81.584C312.699 81.2 312.177 80.6667 311.793 79.984C311.419 79.2907 311.233 78.4907 311.233 77.584C311.233 76.6773 311.414 75.8827 311.777 75.2C312.15 74.5067 312.667 73.9733 313.329 73.6C314.001 73.2267 314.769 73.04 315.633 73.04C316.465 73.04 317.206 73.2213 317.857 73.584C318.507 73.9467 319.014 74.4587 319.377 75.12C319.739 75.7707 319.921 76.5227 319.921 77.376ZM318.017 76.8C318.006 76.128 317.766 75.5893 317.297 75.184C316.827 74.7787 316.246 74.576 315.553 74.576C314.923 74.576 314.385 74.7787 313.937 75.184C313.489 75.5787 313.222 76.1173 313.137 76.8H318.017ZM323.54 74.464C323.806 74.016 324.158 73.6693 324.596 73.424C325.044 73.168 325.572 73.04 326.18 73.04V74.928H325.716C325.001 74.928 324.457 75.1093 324.084 75.472C323.721 75.8347 323.54 76.464 323.54 77.36V82H321.716V73.184H323.54V74.464ZM328.592 82.112C328.262 82.112 327.984 82 327.76 81.776C327.536 81.552 327.424 81.2747 327.424 80.944C327.424 80.6133 327.536 80.336 327.76 80.112C327.984 79.888 328.262 79.776 328.592 79.776C328.912 79.776 329.184 79.888 329.408 80.112C329.632 80.336 329.744 80.6133 329.744 80.944C329.744 81.2747 329.632 81.552 329.408 81.776C329.184 82 328.912 82.112 328.592 82.112ZM345.008 82H343.184L337.696 73.696V82H335.872V70.864H337.696L343.184 79.152V70.864H345.008V82ZM351.227 82.144C350.395 82.144 349.643 81.9573 348.971 81.584C348.299 81.2 347.771 80.6667 347.387 79.984C347.003 79.2907 346.811 78.4907 346.811 77.584C346.811 76.688 347.008 75.8933 347.403 75.2C347.798 74.5067 348.336 73.9733 349.019 73.6C349.702 73.2267 350.464 73.04 351.307 73.04C352.15 73.04 352.912 73.2267 353.595 73.6C354.278 73.9733 354.816 74.5067 355.211 75.2C355.606 75.8933 355.803 76.688 355.803 77.584C355.803 78.48 355.6 79.2747 355.195 79.968C354.79 80.6613 354.235 81.2 353.531 81.584C352.838 81.9573 352.07 82.144 351.227 82.144ZM351.227 80.56C351.696 80.56 352.134 80.448 352.539 80.224C352.955 80 353.291 79.664 353.547 79.216C353.803 78.768 353.931 78.224 353.931 77.584C353.931 76.944 353.808 76.4053 353.563 75.968C353.318 75.52 352.992 75.184 352.587 74.96C352.182 74.736 351.744 74.624 351.275 74.624C350.806 74.624 350.368 74.736 349.963 74.96C349.568 75.184 349.254 75.52 349.019 75.968C348.784 76.4053 348.667 76.944 348.667 77.584C348.667 78.5333 348.907 79.2693 349.387 79.792C349.878 80.304 350.491 80.56 351.227 80.56ZM365.171 80.368L367.667 73.184H369.602L366.243 82H364.067L360.723 73.184H362.674L365.171 80.368ZM371.909 72.016C371.579 72.016 371.301 71.904 371.077 71.68C370.853 71.456 370.741 71.1787 370.741 70.848C370.741 70.5173 370.853 70.24 371.077 70.016C371.301 69.792 371.579 69.68 371.909 69.68C372.229 69.68 372.501 69.792 372.725 70.016C372.949 70.24 373.061 70.5173 373.061 70.848C373.061 71.1787 372.949 71.456 372.725 71.68C372.501 71.904 372.229 72.016 371.909 72.016ZM372.805 73.184V82H370.981V73.184H372.805ZM378.4 82.144C377.707 82.144 377.083 82.0213 376.528 81.776C375.984 81.52 375.552 81.1787 375.232 80.752C374.912 80.3147 374.741 79.8293 374.72 79.296H376.608C376.64 79.6693 376.816 79.984 377.136 80.24C377.467 80.4853 377.877 80.608 378.368 80.608C378.88 80.608 379.275 80.512 379.552 80.32C379.84 80.1173 379.984 79.8613 379.984 79.552C379.984 79.2213 379.824 78.976 379.504 78.816C379.195 78.656 378.699 78.48 378.016 78.288C377.355 78.1067 376.816 77.9307 376.4 77.76C375.984 77.5893 375.621 77.328 375.312 76.976C375.013 76.624 374.864 76.16 374.864 75.584C374.864 75.1147 375.003 74.688 375.28 74.304C375.557 73.9093 375.952 73.6 376.464 73.376C376.987 73.152 377.584 73.04 378.256 73.04C379.259 73.04 380.064 73.296 380.672 73.808C381.291 74.3093 381.621 74.9973 381.664 75.872H379.84C379.808 75.4773 379.648 75.1627 379.36 74.928C379.072 74.6933 378.683 74.576 378.192 74.576C377.712 74.576 377.344 74.6667 377.088 74.848C376.832 75.0293 376.704 75.2693 376.704 75.568C376.704 75.8027 376.789 76 376.96 76.16C377.131 76.32 377.339 76.448 377.584 76.544C377.829 76.6293 378.192 76.7413 378.672 76.88C379.312 77.0507 379.835 77.2267 380.24 77.408C380.656 77.5787 381.013 77.8347 381.312 78.176C381.611 78.5173 381.765 78.9707 381.776 79.536C381.776 80.0373 381.637 80.4853 381.36 80.88C381.083 81.2747 380.688 81.584 380.176 81.808C379.675 82.032 379.083 82.144 378.4 82.144ZM384.675 72.016C384.344 72.016 384.067 71.904 383.843 71.68C383.619 71.456 383.507 71.1787 383.507 70.848C383.507 70.5173 383.619 70.24 383.843 70.016C384.067 69.792 384.344 69.68 384.675 69.68C384.995 69.68 385.267 69.792 385.491 70.016C385.715 70.24 385.827 70.5173 385.827 70.848C385.827 71.1787 385.715 71.456 385.491 71.68C385.267 71.904 384.995 72.016 384.675 72.016ZM385.571 73.184V82H383.747V73.184H385.571ZM390.094 74.672V79.552C390.094 79.8827 390.168 80.1227 390.318 80.272C390.478 80.4107 390.744 80.48 391.118 80.48H392.238V82H390.798C389.976 82 389.347 81.808 388.91 81.424C388.472 81.04 388.254 80.416 388.254 79.552V74.672H387.214V73.184H388.254V70.992H390.094V73.184H392.238V74.672H390.094ZM401.999 77.376C401.999 77.7067 401.977 78.0053 401.935 78.272H395.199C395.252 78.976 395.513 79.5413 395.983 79.968C396.452 80.3947 397.028 80.608 397.711 80.608C398.692 80.608 399.385 80.1973 399.791 79.376H401.759C401.492 80.1867 401.007 80.8533 400.303 81.376C399.609 81.888 398.745 82.144 397.711 82.144C396.868 82.144 396.111 81.9573 395.439 81.584C394.777 81.2 394.255 80.6667 393.871 79.984C393.497 79.2907 393.311 78.4907 393.311 77.584C393.311 76.6773 393.492 75.8827 393.855 75.2C394.228 74.5067 394.745 73.9733 395.407 73.6C396.079 73.2267 396.847 73.04 397.711 73.04C398.543 73.04 399.284 73.2213 399.935 73.584C400.585 73.9467 401.092 74.4587 401.455 75.12C401.817 75.7707 401.999 76.5227 401.999 77.376ZM400.095 76.8C400.084 76.128 399.844 75.5893 399.375 75.184C398.905 74.7787 398.324 74.576 397.631 74.576C397.001 74.576 396.463 74.7787 396.015 75.184C395.567 75.5787 395.3 76.1173 395.215 76.8H400.095ZM403.186 77.552C403.186 76.6667 403.367 75.8827 403.73 75.2C404.103 74.5173 404.604 73.9893 405.234 73.616C405.874 73.232 406.583 73.04 407.362 73.04C407.938 73.04 408.503 73.168 409.058 73.424C409.623 73.6693 410.071 74 410.402 74.416V70.16H412.242V82H410.402V80.672C410.103 81.0987 409.687 81.4507 409.154 81.728C408.631 82.0053 408.028 82.144 407.346 82.144C406.578 82.144 405.874 81.952 405.234 81.568C404.604 81.1733 404.103 80.6293 403.73 79.936C403.367 79.232 403.186 78.4373 403.186 77.552ZM410.402 77.584C410.402 76.976 410.274 76.448 410.018 76C409.772 75.552 409.447 75.2107 409.042 74.976C408.636 74.7413 408.199 74.624 407.73 74.624C407.26 74.624 406.823 74.7413 406.418 74.976C406.012 75.2 405.682 75.536 405.426 75.984C405.18 76.4213 405.058 76.944 405.058 77.552C405.058 78.16 405.18 78.6933 405.426 79.152C405.682 79.6107 406.012 79.9627 406.418 80.208C406.834 80.4427 407.271 80.56 407.73 80.56C408.199 80.56 408.636 80.4427 409.042 80.208C409.447 79.9733 409.772 79.632 410.018 79.184C410.274 78.7253 410.402 78.192 410.402 77.584ZM37.024 106.464C37.2907 106.016 37.6427 105.669 38.08 105.424C38.528 105.168 39.056 105.04 39.664 105.04V106.928H39.2C38.4853 106.928 37.9413 107.109 37.568 107.472C37.2053 107.835 37.024 108.464 37.024 109.36V114H35.2V105.184H37.024V106.464ZM40.7326 109.552C40.7326 108.667 40.914 107.883 41.2766 107.2C41.65 106.517 42.1513 105.989 42.7806 105.616C43.4206 105.232 44.1246 105.04 44.8926 105.04C45.586 105.04 46.1886 105.179 46.7006 105.456C47.2233 105.723 47.6393 106.059 47.9486 106.464V105.184H49.7886V114H47.9486V112.688C47.6393 113.104 47.218 113.451 46.6846 113.728C46.1513 114.005 45.5433 114.144 44.8606 114.144C44.1033 114.144 43.41 113.952 42.7806 113.568C42.1513 113.173 41.65 112.629 41.2766 111.936C40.914 111.232 40.7326 110.437 40.7326 109.552ZM47.9486 109.584C47.9486 108.976 47.8206 108.448 47.5646 108C47.3193 107.552 46.994 107.211 46.5886 106.976C46.1833 106.741 45.746 106.624 45.2766 106.624C44.8073 106.624 44.37 106.741 43.9646 106.976C43.5593 107.2 43.2286 107.536 42.9726 107.984C42.7273 108.421 42.6046 108.944 42.6046 109.552C42.6046 110.16 42.7273 110.693 42.9726 111.152C43.2286 111.611 43.5593 111.963 43.9646 112.208C44.3806 112.443 44.818 112.56 45.2766 112.56C45.746 112.56 46.1833 112.443 46.5886 112.208C46.994 111.973 47.3193 111.632 47.5646 111.184C47.8206 110.725 47.9486 110.192 47.9486 109.584ZM53.1124 104.016C52.7817 104.016 52.5044 103.904 52.2804 103.68C52.0564 103.456 51.9444 103.179 51.9444 102.848C51.9444 102.517 52.0564 102.24 52.2804 102.016C52.5044 101.792 52.7817 101.68 53.1124 101.68C53.4324 101.68 53.7044 101.792 53.9284 102.016C54.1524 102.24 54.2644 102.517 54.2644 102.848C54.2644 103.179 54.1524 103.456 53.9284 103.68C53.7044 103.904 53.4324 104.016 53.1124 104.016ZM54.0084 105.184V114H52.1844V105.184H54.0084ZM59.6031 114.144C58.9098 114.144 58.2858 114.021 57.7311 113.776C57.1871 113.52 56.7551 113.179 56.4351 112.752C56.1151 112.315 55.9445 111.829 55.9231 111.296H57.8111C57.8431 111.669 58.0191 111.984 58.3391 112.24C58.6698 112.485 59.0805 112.608 59.5711 112.608C60.0831 112.608 60.4778 112.512 60.7551 112.32C61.0431 112.117 61.1871 111.861 61.1871 111.552C61.1871 111.221 61.0271 110.976 60.7071 110.816C60.3978 110.656 59.9018 110.48 59.2191 110.288C58.5578 110.107 58.0191 109.931 57.6031 109.76C57.1871 109.589 56.8245 109.328 56.5151 108.976C56.2165 108.624 56.0671 108.16 56.0671 107.584C56.0671 107.115 56.2058 106.688 56.4831 106.304C56.7605 105.909 57.1551 105.6 57.6671 105.376C58.1898 105.152 58.7871 105.04 59.4591 105.04C60.4618 105.04 61.2671 105.296 61.8751 105.808C62.4938 106.309 62.8245 106.997 62.8671 107.872H61.0431C61.0111 107.477 60.8511 107.163 60.5631 106.928C60.2751 106.693 59.8858 106.576 59.3951 106.576C58.9151 106.576 58.5471 106.667 58.2911 106.848C58.0351 107.029 57.9071 107.269 57.9071 107.568C57.9071 107.803 57.9925 108 58.1631 108.16C58.3338 108.32 58.5418 108.448 58.7871 108.544C59.0325 108.629 59.3951 108.741 59.8751 108.88C60.5151 109.051 61.0378 109.227 61.4431 109.408C61.8591 109.579 62.2165 109.835 62.5151 110.176C62.8138 110.517 62.9685 110.971 62.9791 111.536C62.9791 112.037 62.8405 112.485 62.5631 112.88C62.2858 113.275 61.8911 113.584 61.3791 113.808C60.8778 114.032 60.2858 114.144 59.6031 114.144ZM65.878 104.016C65.5473 104.016 65.27 103.904 65.046 103.68C64.822 103.456 64.71 103.179 64.71 102.848C64.71 102.517 64.822 102.24 65.046 102.016C65.27 101.792 65.5473 101.68 65.878 101.68C66.198 101.68 66.47 101.792 66.694 102.016C66.918 102.24 67.03 102.517 67.03 102.848C67.03 103.179 66.918 103.456 66.694 103.68C66.47 103.904 66.198 104.016 65.878 104.016ZM66.774 105.184V114H64.95V105.184H66.774ZM73.6168 105.04C74.3101 105.04 74.9288 105.184 75.4728 105.472C76.0274 105.76 76.4594 106.187 76.7688 106.752C77.0781 107.317 77.2328 108 77.2328 108.8V114H75.4248V109.072C75.4248 108.283 75.2274 107.68 74.8328 107.264C74.4381 106.837 73.8994 106.624 73.2168 106.624C72.5341 106.624 71.9901 106.837 71.5848 107.264C71.1901 107.68 70.9928 108.283 70.9928 109.072V114H69.1688V105.184H70.9928V106.192C71.2914 105.829 71.6701 105.547 72.1288 105.344C72.5981 105.141 73.0941 105.04 73.6168 105.04ZM83.1114 105.04C83.794 105.04 84.3967 105.179 84.9194 105.456C85.4527 105.723 85.8687 106.059 86.1674 106.464V105.184H88.0074V114.144C88.0074 114.955 87.8367 115.675 87.4954 116.304C87.154 116.944 86.658 117.445 86.0074 117.808C85.3674 118.171 84.5994 118.352 83.7034 118.352C82.5087 118.352 81.5167 118.069 80.7274 117.504C79.938 116.949 79.49 116.192 79.3834 115.232H81.1914C81.33 115.691 81.6234 116.059 82.0714 116.336C82.53 116.624 83.074 116.768 83.7034 116.768C84.4394 116.768 85.0314 116.544 85.4794 116.096C85.938 115.648 86.1674 114.997 86.1674 114.144V112.672C85.858 113.088 85.4367 113.44 84.9034 113.728C84.3807 114.005 83.7834 114.144 83.1114 114.144C82.3434 114.144 81.6394 113.952 80.9994 113.568C80.37 113.173 79.8687 112.629 79.4954 111.936C79.1327 111.232 78.9514 110.437 78.9514 109.552C78.9514 108.667 79.1327 107.883 79.4954 107.2C79.8687 106.517 80.37 105.989 80.9994 105.616C81.6394 105.232 82.3434 105.04 83.1114 105.04ZM86.1674 109.584C86.1674 108.976 86.0394 108.448 85.7834 108C85.538 107.552 85.2127 107.211 84.8074 106.976C84.402 106.741 83.9647 106.624 83.4954 106.624C83.026 106.624 82.5887 106.741 82.1834 106.976C81.778 107.2 81.4474 107.536 81.1914 107.984C80.946 108.421 80.8234 108.944 80.8234 109.552C80.8234 110.16 80.946 110.693 81.1914 111.152C81.4474 111.611 81.778 111.963 82.1834 112.208C82.5994 112.443 83.0367 112.56 83.4954 112.56C83.9647 112.56 84.402 112.443 84.8074 112.208C85.2127 111.973 85.538 111.632 85.7834 111.184C86.0394 110.725 86.1674 110.192 86.1674 109.584ZM98.1114 105.04C98.794 105.04 99.3967 105.179 99.9194 105.456C100.453 105.723 100.869 106.059 101.167 106.464V105.184H103.007V114.144C103.007 114.955 102.837 115.675 102.495 116.304C102.154 116.944 101.658 117.445 101.007 117.808C100.367 118.171 99.5994 118.352 98.7034 118.352C97.5087 118.352 96.5167 118.069 95.7274 117.504C94.938 116.949 94.49 116.192 94.3834 115.232H96.1914C96.33 115.691 96.6234 116.059 97.0714 116.336C97.53 116.624 98.074 116.768 98.7034 116.768C99.4394 116.768 100.031 116.544 100.479 116.096C100.938 115.648 101.167 114.997 101.167 114.144V112.672C100.858 113.088 100.437 113.44 99.9034 113.728C99.3807 114.005 98.7834 114.144 98.1114 114.144C97.3434 114.144 96.6394 113.952 95.9994 113.568C95.37 113.173 94.8687 112.629 94.4954 111.936C94.1327 111.232 93.9514 110.437 93.9514 109.552C93.9514 108.667 94.1327 107.883 94.4954 107.2C94.8687 106.517 95.37 105.989 95.9994 105.616C96.6394 105.232 97.3434 105.04 98.1114 105.04ZM101.167 109.584C101.167 108.976 101.039 108.448 100.783 108C100.538 107.552 100.213 107.211 99.8074 106.976C99.402 106.741 98.9647 106.624 98.4954 106.624C98.026 106.624 97.5887 106.741 97.1834 106.976C96.778 107.2 96.4474 107.536 96.1914 107.984C95.946 108.421 95.8234 108.944 95.8234 109.552C95.8234 110.16 95.946 110.693 96.1914 111.152C96.4474 111.611 96.778 111.963 97.1834 112.208C97.5994 112.443 98.0367 112.56 98.4954 112.56C98.9647 112.56 99.402 112.443 99.8074 112.208C100.213 111.973 100.538 111.632 100.783 111.184C101.039 110.725 101.167 110.192 101.167 109.584ZM107.227 106.464C107.494 106.016 107.846 105.669 108.283 105.424C108.731 105.168 109.259 105.04 109.867 105.04V106.928H109.403C108.688 106.928 108.144 107.109 107.771 107.472C107.408 107.835 107.227 108.464 107.227 109.36V114H105.403V105.184H107.227V106.464ZM110.936 109.552C110.936 108.667 111.117 107.883 111.48 107.2C111.853 106.517 112.354 105.989 112.984 105.616C113.624 105.232 114.328 105.04 115.096 105.04C115.789 105.04 116.392 105.179 116.904 105.456C117.426 105.723 117.842 106.059 118.152 106.464V105.184H119.992V114H118.152V112.688C117.842 113.104 117.421 113.451 116.888 113.728C116.354 114.005 115.746 114.144 115.064 114.144C114.306 114.144 113.613 113.952 112.984 113.568C112.354 113.173 111.853 112.629 111.48 111.936C111.117 111.232 110.936 110.437 110.936 109.552ZM118.152 109.584C118.152 108.976 118.024 108.448 117.768 108C117.522 107.552 117.197 107.211 116.792 106.976C116.386 106.741 115.949 106.624 115.48 106.624C115.01 106.624 114.573 106.741 114.168 106.976C113.762 107.2 113.432 107.536 113.176 107.984C112.93 108.421 112.808 108.944 112.808 109.552C112.808 110.16 112.93 110.693 113.176 111.152C113.432 111.611 113.762 111.963 114.168 112.208C114.584 112.443 115.021 112.56 115.48 112.56C115.949 112.56 116.386 112.443 116.792 112.208C117.197 111.973 117.522 111.632 117.768 111.184C118.024 110.725 118.152 110.192 118.152 109.584ZM125.796 112.368L128.292 105.184H130.227L126.868 114H124.692L121.348 105.184H123.299L125.796 112.368ZM132.534 104.016C132.204 104.016 131.926 103.904 131.702 103.68C131.478 103.456 131.366 103.179 131.366 102.848C131.366 102.517 131.478 102.24 131.702 102.016C131.926 101.792 132.204 101.68 132.534 101.68C132.854 101.68 133.126 101.792 133.35 102.016C133.574 102.24 133.686 102.517 133.686 102.848C133.686 103.179 133.574 103.456 133.35 103.68C133.126 103.904 132.854 104.016 132.534 104.016ZM133.43 105.184V114H131.606V105.184H133.43ZM137.953 106.672V111.552C137.953 111.883 138.028 112.123 138.177 112.272C138.337 112.411 138.604 112.48 138.977 112.48H140.097V114H138.657C137.836 114 137.206 113.808 136.769 113.424C136.332 113.04 136.113 112.416 136.113 111.552V106.672H135.073V105.184H136.113V102.992H137.953V105.184H140.097V106.672H137.953ZM149.714 105.184L144.306 118.144H142.418L144.21 113.856L140.738 105.184H142.77L145.25 111.904L147.826 105.184H149.714ZM159.071 114.144C158.239 114.144 157.487 113.957 156.815 113.584C156.143 113.2 155.615 112.667 155.231 111.984C154.847 111.291 154.655 110.491 154.655 109.584C154.655 108.688 154.852 107.893 155.247 107.2C155.642 106.507 156.18 105.973 156.863 105.6C157.546 105.227 158.308 105.04 159.151 105.04C159.994 105.04 160.756 105.227 161.439 105.6C162.122 105.973 162.66 106.507 163.055 107.2C163.45 107.893 163.647 108.688 163.647 109.584C163.647 110.48 163.444 111.275 163.039 111.968C162.634 112.661 162.079 113.2 161.375 113.584C160.682 113.957 159.914 114.144 159.071 114.144ZM159.071 112.56C159.54 112.56 159.978 112.448 160.383 112.224C160.799 112 161.135 111.664 161.391 111.216C161.647 110.768 161.775 110.224 161.775 109.584C161.775 108.944 161.652 108.405 161.407 107.968C161.162 107.52 160.836 107.184 160.431 106.96C160.026 106.736 159.588 106.624 159.119 106.624C158.65 106.624 158.212 106.736 157.807 106.96C157.412 107.184 157.098 107.52 156.863 107.968C156.628 108.405 156.511 108.944 156.511 109.584C156.511 110.533 156.751 111.269 157.231 111.792C157.722 112.304 158.335 112.56 159.071 112.56ZM173.434 105.184V114H171.61V112.96C171.322 113.323 170.943 113.611 170.474 113.824C170.015 114.027 169.525 114.128 169.002 114.128C168.309 114.128 167.685 113.984 167.13 113.696C166.586 113.408 166.154 112.981 165.834 112.416C165.525 111.851 165.37 111.168 165.37 110.368V105.184H167.178V110.096C167.178 110.885 167.375 111.493 167.77 111.92C168.165 112.336 168.703 112.544 169.386 112.544C170.069 112.544 170.607 112.336 171.002 111.92C171.407 111.493 171.61 110.885 171.61 110.096V105.184H173.434ZM177.969 106.672V111.552C177.969 111.883 178.043 112.123 178.193 112.272C178.353 112.411 178.619 112.48 178.993 112.48H180.113V114H178.673C177.851 114 177.222 113.808 176.785 113.424C176.347 113.04 176.129 112.416 176.129 111.552V106.672H175.089V105.184H176.129V102.992H177.969V105.184H180.113V106.672H177.969ZM193.634 105.184L190.898 114H188.978L187.202 107.488L185.426 114H183.506L180.754 105.184H182.61L184.45 112.272L186.322 105.184H188.226L190.018 112.24L191.842 105.184H193.634ZM194.389 109.552C194.389 108.667 194.57 107.883 194.933 107.2C195.306 106.517 195.808 105.989 196.437 105.616C197.077 105.232 197.781 105.04 198.549 105.04C199.242 105.04 199.845 105.179 200.357 105.456C200.88 105.723 201.296 106.059 201.605 106.464V105.184H203.445V114H201.605V112.688C201.296 113.104 200.874 113.451 200.341 113.728C199.808 114.005 199.2 114.144 198.517 114.144C197.76 114.144 197.066 113.952 196.437 113.568C195.808 113.173 195.306 112.629 194.933 111.936C194.57 111.232 194.389 110.437 194.389 109.552ZM201.605 109.584C201.605 108.976 201.477 108.448 201.221 108C200.976 107.552 200.65 107.211 200.245 106.976C199.84 106.741 199.402 106.624 198.933 106.624C198.464 106.624 198.026 106.741 197.621 106.976C197.216 107.2 196.885 107.536 196.629 107.984C196.384 108.421 196.261 108.944 196.261 109.552C196.261 110.16 196.384 110.693 196.629 111.152C196.885 111.611 197.216 111.963 197.621 112.208C198.037 112.443 198.474 112.56 198.933 112.56C199.402 112.56 199.84 112.443 200.245 112.208C200.65 111.973 200.976 111.632 201.221 111.184C201.477 110.725 201.605 110.192 201.605 109.584ZM207.665 106.464C207.931 106.016 208.283 105.669 208.721 105.424C209.169 105.168 209.697 105.04 210.305 105.04V106.928H209.841C209.126 106.928 208.582 107.109 208.209 107.472C207.846 107.835 207.665 108.464 207.665 109.36V114H205.841V105.184H207.665V106.464ZM211.373 109.552C211.373 108.667 211.555 107.883 211.917 107.2C212.291 106.517 212.792 105.989 213.421 105.616C214.061 105.232 214.771 105.04 215.549 105.04C216.125 105.04 216.691 105.168 217.245 105.424C217.811 105.669 218.259 106 218.589 106.416V102.16H220.429V114H218.589V112.672C218.291 113.099 217.875 113.451 217.341 113.728C216.819 114.005 216.216 114.144 215.533 114.144C214.765 114.144 214.061 113.952 213.421 113.568C212.792 113.173 212.291 112.629 211.917 111.936C211.555 111.232 211.373 110.437 211.373 109.552ZM218.589 109.584C218.589 108.976 218.461 108.448 218.205 108C217.96 107.552 217.635 107.211 217.229 106.976C216.824 106.741 216.387 106.624 215.917 106.624C215.448 106.624 215.011 106.741 214.605 106.976C214.2 107.2 213.869 107.536 213.613 107.984C213.368 108.421 213.245 108.944 213.245 109.552C213.245 110.16 213.368 110.693 213.613 111.152C213.869 111.611 214.2 111.963 214.605 112.208C215.021 112.443 215.459 112.56 215.917 112.56C216.387 112.56 216.824 112.443 217.229 112.208C217.635 111.973 217.96 111.632 218.205 111.184C218.461 110.725 218.589 110.192 218.589 109.584ZM230.181 114.144C229.488 114.144 228.864 114.021 228.309 113.776C227.765 113.52 227.333 113.179 227.013 112.752C226.693 112.315 226.523 111.829 226.501 111.296H228.389C228.421 111.669 228.597 111.984 228.917 112.24C229.248 112.485 229.659 112.608 230.149 112.608C230.661 112.608 231.056 112.512 231.333 112.32C231.621 112.117 231.765 111.861 231.765 111.552C231.765 111.221 231.605 110.976 231.285 110.816C230.976 110.656 230.48 110.48 229.797 110.288C229.136 110.107 228.597 109.931 228.181 109.76C227.765 109.589 227.403 109.328 227.093 108.976C226.795 108.624 226.645 108.16 226.645 107.584C226.645 107.115 226.784 106.688 227.061 106.304C227.339 105.909 227.733 105.6 228.245 105.376C228.768 105.152 229.365 105.04 230.037 105.04C231.04 105.04 231.845 105.296 232.453 105.808C233.072 106.309 233.403 106.997 233.445 107.872H231.621C231.589 107.477 231.429 107.163 231.141 106.928C230.853 106.693 230.464 106.576 229.973 106.576C229.493 106.576 229.125 106.667 228.869 106.848C228.613 107.029 228.485 107.269 228.485 107.568C228.485 107.803 228.571 108 228.741 108.16C228.912 108.32 229.12 108.448 229.365 108.544C229.611 108.629 229.973 108.741 230.453 108.88C231.093 109.051 231.616 109.227 232.021 109.408C232.437 109.579 232.795 109.835 233.093 110.176C233.392 110.517 233.547 110.971 233.557 111.536C233.557 112.037 233.419 112.485 233.141 112.88C232.864 113.275 232.469 113.584 231.957 113.808C231.456 114.032 230.864 114.144 230.181 114.144ZM243.512 105.184V114H241.688V112.96C241.4 113.323 241.021 113.611 240.552 113.824C240.093 114.027 239.603 114.128 239.08 114.128C238.387 114.128 237.763 113.984 237.208 113.696C236.664 113.408 236.232 112.981 235.912 112.416C235.603 111.851 235.448 111.168 235.448 110.368V105.184H237.256V110.096C237.256 110.885 237.453 111.493 237.848 111.92C238.243 112.336 238.781 112.544 239.464 112.544C240.147 112.544 240.685 112.336 241.08 111.92C241.485 111.493 241.688 110.885 241.688 110.096V105.184H243.512ZM247.743 106.496C248.052 106.069 248.473 105.723 249.007 105.456C249.551 105.179 250.153 105.04 250.815 105.04C251.593 105.04 252.297 105.227 252.927 105.6C253.556 105.973 254.052 106.507 254.415 107.2C254.777 107.883 254.959 108.667 254.959 109.552C254.959 110.437 254.777 111.232 254.415 111.936C254.052 112.629 253.551 113.173 252.911 113.568C252.281 113.952 251.583 114.144 250.815 114.144C250.132 114.144 249.524 114.011 248.991 113.744C248.468 113.477 248.052 113.136 247.743 112.72V114H245.919V102.16H247.743V106.496ZM253.103 109.552C253.103 108.944 252.975 108.421 252.719 107.984C252.473 107.536 252.143 107.2 251.727 106.976C251.321 106.741 250.884 106.624 250.415 106.624C249.956 106.624 249.519 106.741 249.103 106.976C248.697 107.211 248.367 107.552 248.111 108C247.865 108.448 247.743 108.976 247.743 109.584C247.743 110.192 247.865 110.725 248.111 111.184C248.367 111.632 248.697 111.973 249.103 112.208C249.519 112.443 249.956 112.56 250.415 112.56C250.884 112.56 251.321 112.443 251.727 112.208C252.143 111.963 252.473 111.611 252.719 111.152C252.975 110.693 253.103 110.16 253.103 109.552ZM257.691 104.016C257.36 104.016 257.083 103.904 256.859 103.68C256.635 103.456 256.523 103.179 256.523 102.848C256.523 102.517 256.635 102.24 256.859 102.016C257.083 101.792 257.36 101.68 257.691 101.68C258.011 101.68 258.283 101.792 258.507 102.016C258.731 102.24 258.843 102.517 258.843 102.848C258.843 103.179 258.731 103.456 258.507 103.68C258.283 103.904 258.011 104.016 257.691 104.016ZM258.587 115.728C258.587 116.592 258.368 117.216 257.931 117.6C257.504 117.995 256.88 118.192 256.059 118.192H255.114V116.656H255.739C256.112 116.656 256.373 116.581 256.523 116.432C256.683 116.293 256.763 116.059 256.763 115.728V105.184H258.587V115.728ZM269.061 109.376C269.061 109.707 269.04 110.005 268.997 110.272H262.261C262.315 110.976 262.576 111.541 263.045 111.968C263.515 112.395 264.091 112.608 264.773 112.608C265.755 112.608 266.448 112.197 266.853 111.376H268.821C268.555 112.187 268.069 112.853 267.365 113.376C266.672 113.888 265.808 114.144 264.773 114.144C263.931 114.144 263.173 113.957 262.501 113.584C261.84 113.2 261.317 112.667 260.933 111.984C260.56 111.291 260.373 110.491 260.373 109.584C260.373 108.677 260.555 107.883 260.917 107.2C261.291 106.507 261.808 105.973 262.469 105.6C263.141 105.227 263.909 105.04 264.773 105.04C265.605 105.04 266.347 105.221 266.997 105.584C267.648 105.947 268.155 106.459 268.517 107.12C268.88 107.771 269.061 108.523 269.061 109.376ZM267.157 108.8C267.147 108.128 266.907 107.589 266.437 107.184C265.968 106.779 265.387 106.576 264.693 106.576C264.064 106.576 263.525 106.779 263.077 107.184C262.629 107.579 262.363 108.117 262.277 108.8H267.157ZM270.248 109.584C270.248 108.677 270.43 107.883 270.792 107.2C271.166 106.507 271.678 105.973 272.328 105.6C272.979 105.227 273.726 105.04 274.568 105.04C275.635 105.04 276.515 105.296 277.208 105.808C277.912 106.309 278.387 107.029 278.632 107.968H276.664C276.504 107.531 276.248 107.189 275.896 106.944C275.544 106.699 275.102 106.576 274.568 106.576C273.822 106.576 273.224 106.843 272.776 107.376C272.339 107.899 272.12 108.635 272.12 109.584C272.12 110.533 272.339 111.275 272.776 111.808C273.224 112.341 273.822 112.608 274.568 112.608C275.624 112.608 276.323 112.144 276.664 111.216H278.632C278.376 112.112 277.896 112.827 277.192 113.36C276.488 113.883 275.614 114.144 274.568 114.144C273.726 114.144 272.979 113.957 272.328 113.584C271.678 113.2 271.166 112.667 270.792 111.984C270.43 111.291 270.248 110.491 270.248 109.584ZM282.578 106.672V111.552C282.578 111.883 282.653 112.123 282.802 112.272C282.962 112.411 283.229 112.48 283.602 112.48H284.722V114H283.282C282.461 114 281.831 113.808 281.394 113.424C280.957 113.04 280.738 112.416 280.738 111.552V106.672H279.698V105.184H280.738V102.992H282.578V105.184H284.722V106.672H282.578ZM288.691 102.88L288.483 110.64H286.963L286.755 102.88H288.691ZM287.779 114.112C287.448 114.112 287.171 114 286.947 113.776C286.723 113.552 286.611 113.275 286.611 112.944C286.611 112.613 286.723 112.336 286.947 112.112C287.171 111.888 287.448 111.776 287.779 111.776C288.099 111.776 288.371 111.888 288.595 112.112C288.819 112.336 288.931 112.613 288.931 112.944C288.931 113.275 288.819 113.552 288.595 113.776C288.371 114 288.099 114.112 287.779 114.112ZM293.832 102.88L293.624 110.64H292.104L291.896 102.88H293.832ZM292.92 114.112C292.589 114.112 292.312 114 292.088 113.776C291.864 113.552 291.752 113.275 291.752 112.944C291.752 112.613 291.864 112.336 292.088 112.112C292.312 111.888 292.589 111.776 292.92 111.776C293.24 111.776 293.512 111.888 293.736 112.112C293.96 112.336 294.072 112.613 294.072 112.944C294.072 113.275 293.96 113.552 293.736 113.776C293.512 114 293.24 114.112 292.92 114.112Z" fill="#5E6282"/>
<path d="M45.232 165.436L40.984 173.626V178H38.464V173.626L34.198 165.436H37.042L39.742 171.178L42.424 165.436H45.232ZM51.1134 178.162C50.1534 178.162 49.2894 177.952 48.5214 177.532C47.7534 177.1 47.1474 176.494 46.7034 175.714C46.2714 174.934 46.0554 174.034 46.0554 173.014C46.0554 171.994 46.2774 171.094 46.7214 170.314C47.1774 169.534 47.7954 168.934 48.5754 168.514C49.3554 168.082 50.2254 167.866 51.1854 167.866C52.1454 167.866 53.0154 168.082 53.7954 168.514C54.5754 168.934 55.1874 169.534 55.6314 170.314C56.0874 171.094 56.3154 171.994 56.3154 173.014C56.3154 174.034 56.0814 174.934 55.6134 175.714C55.1574 176.494 54.5334 177.1 53.7414 177.532C52.9614 177.952 52.0854 178.162 51.1134 178.162ZM51.1134 175.966C51.5694 175.966 51.9954 175.858 52.3914 175.642C52.7994 175.414 53.1234 175.078 53.3634 174.634C53.6034 174.19 53.7234 173.65 53.7234 173.014C53.7234 172.066 53.4714 171.34 52.9674 170.836C52.4754 170.32 51.8694 170.062 51.1494 170.062C50.4294 170.062 49.8234 170.32 49.3314 170.836C48.8514 171.34 48.6114 172.066 48.6114 173.014C48.6114 173.962 48.8454 174.694 49.3134 175.21C49.7934 175.714 50.3934 175.966 51.1134 175.966ZM54.7314 164.698V166.498H47.8554V164.698H54.7314ZM64.0679 178L60.6839 173.752V178H58.1639V164.68H60.6839V172.258L64.0319 168.028H67.3079L62.9159 173.032L67.3439 178H64.0679ZM73.1036 178.162C72.1436 178.162 71.2796 177.952 70.5116 177.532C69.7436 177.1 69.1376 176.494 68.6936 175.714C68.2616 174.934 68.0456 174.034 68.0456 173.014C68.0456 171.994 68.2676 171.094 68.7116 170.314C69.1676 169.534 69.7856 168.934 70.5656 168.514C71.3456 168.082 72.2156 167.866 73.1756 167.866C74.1356 167.866 75.0056 168.082 75.7856 168.514C76.5656 168.934 77.1776 169.534 77.6216 170.314C78.0776 171.094 78.3056 171.994 78.3056 173.014C78.3056 174.034 78.0716 174.934 77.6036 175.714C77.1476 176.494 76.5236 177.1 75.7316 177.532C74.9516 177.952 74.0756 178.162 73.1036 178.162ZM73.1036 175.966C73.5596 175.966 73.9856 175.858 74.3816 175.642C74.7896 175.414 75.1136 175.078 75.3536 174.634C75.5936 174.19 75.7136 173.65 75.7136 173.014C75.7136 172.066 75.4616 171.34 74.9576 170.836C74.4656 170.32 73.8596 170.062 73.1396 170.062C72.4196 170.062 71.8136 170.32 71.3216 170.836C70.8416 171.34 70.6016 172.066 70.6016 173.014C70.6016 173.962 70.8356 174.694 71.3036 175.21C71.7836 175.714 72.3836 175.966 73.1036 175.966ZM92.1472 175.606H87.1432L86.3152 178H83.6692L88.1872 165.418H91.1212L95.6392 178H92.9752L92.1472 175.606ZM91.4632 173.59L89.6452 168.334L87.8272 173.59H91.4632ZM100.262 170.098V174.922C100.262 175.258 100.34 175.504 100.496 175.66C100.664 175.804 100.94 175.876 101.324 175.876H102.494V178H100.91C98.7859 178 97.7239 176.968 97.7239 174.904V170.098H96.5359V168.028H97.7239V165.562H100.262V168.028H102.494V170.098H100.262ZM108.122 178.162C107.306 178.162 106.574 178.018 105.926 177.73C105.278 177.43 104.762 177.028 104.378 176.524C104.006 176.02 103.802 175.462 103.766 174.85H106.304C106.352 175.234 106.538 175.552 106.862 175.804C107.198 176.056 107.612 176.182 108.104 176.182C108.584 176.182 108.956 176.086 109.22 175.894C109.496 175.702 109.634 175.456 109.634 175.156C109.634 174.832 109.466 174.592 109.13 174.436C108.806 174.268 108.284 174.088 107.564 173.896C106.82 173.716 106.208 173.53 105.728 173.338C105.26 173.146 104.852 172.852 104.504 172.456C104.168 172.06 104 171.526 104 170.854C104 170.302 104.156 169.798 104.468 169.342C104.792 168.886 105.248 168.526 105.836 168.262C106.436 167.998 107.138 167.866 107.942 167.866C109.13 167.866 110.078 168.166 110.786 168.766C111.494 169.354 111.884 170.152 111.956 171.16H109.544C109.508 170.764 109.34 170.452 109.04 170.224C108.752 169.984 108.362 169.864 107.87 169.864C107.414 169.864 107.06 169.948 106.808 170.116C106.568 170.284 106.448 170.518 106.448 170.818C106.448 171.154 106.616 171.412 106.952 171.592C107.288 171.76 107.81 171.934 108.518 172.114C109.238 172.294 109.832 172.48 110.3 172.672C110.768 172.864 111.17 173.164 111.506 173.572C111.854 173.968 112.034 174.496 112.046 175.156C112.046 175.732 111.884 176.248 111.56 176.704C111.248 177.16 110.792 177.52 110.192 177.784C109.604 178.036 108.914 178.162 108.122 178.162ZM123.529 168.028V178H120.991V176.74C120.667 177.172 120.241 177.514 119.713 177.766C119.197 178.006 118.633 178.126 118.021 178.126C117.241 178.126 116.551 177.964 115.951 177.64C115.351 177.304 114.877 176.818 114.529 176.182C114.193 175.534 114.025 174.766 114.025 173.878V168.028H116.545V173.518C116.545 174.31 116.743 174.922 117.139 175.354C117.535 175.774 118.075 175.984 118.759 175.984C119.455 175.984 120.001 175.774 120.397 175.354C120.793 174.922 120.991 174.31 120.991 173.518V168.028H123.529ZM131.919 178L128.535 173.752V178H126.015V164.68H128.535V172.258L131.883 168.028H135.159L130.767 173.032L135.195 178H131.919ZM140.955 178.162C139.995 178.162 139.131 177.952 138.363 177.532C137.595 177.1 136.989 176.494 136.545 175.714C136.113 174.934 135.897 174.034 135.897 173.014C135.897 171.994 136.119 171.094 136.563 170.314C137.019 169.534 137.637 168.934 138.417 168.514C139.197 168.082 140.067 167.866 141.027 167.866C141.987 167.866 142.857 168.082 143.637 168.514C144.417 168.934 145.029 169.534 145.473 170.314C145.929 171.094 146.157 171.994 146.157 173.014C146.157 174.034 145.923 174.934 145.455 175.714C144.999 176.494 144.375 177.1 143.583 177.532C142.803 177.952 141.927 178.162 140.955 178.162ZM140.955 175.966C141.411 175.966 141.837 175.858 142.233 175.642C142.641 175.414 142.965 175.078 143.205 174.634C143.445 174.19 143.565 173.65 143.565 173.014C143.565 172.066 143.313 171.34 142.809 170.836C142.317 170.32 141.711 170.062 140.991 170.062C140.271 170.062 139.665 170.32 139.173 170.836C138.693 171.34 138.453 172.066 138.453 173.014C138.453 173.962 138.687 174.694 139.155 175.21C139.635 175.714 140.235 175.966 140.955 175.966Z" fill="#5E6282"/>
<a href="https://www.behindthename.com/name/yo23ko">
<rect fill="black" fill-opacity="0" width="44.9176" height="27"/>
</a>
<a href="https://www.behindthename.com/name/atsuko">
<rect fill="black" fill-opacity="0" x="49.2012" width="63.568" height="27"/>
</a>
<path d="M42.26 195.27L39.04 201.472V205H37.444V201.472L34.21 195.27H35.988L38.242 200.044L40.496 195.27H42.26ZM46.8726 205.126C46.1446 205.126 45.4866 204.963 44.8986 204.636C44.3106 204.3 43.8486 203.833 43.5126 203.236C43.1766 202.629 43.0086 201.929 43.0086 201.136C43.0086 200.352 43.1812 199.657 43.5266 199.05C43.8719 198.443 44.3432 197.977 44.9406 197.65C45.5379 197.323 46.2052 197.16 46.9426 197.16C47.6799 197.16 48.3472 197.323 48.9446 197.65C49.5419 197.977 50.0132 198.443 50.3586 199.05C50.7039 199.657 50.8766 200.352 50.8766 201.136C50.8766 201.92 50.6992 202.615 50.3446 203.222C49.9899 203.829 49.5046 204.3 48.8886 204.636C48.2819 204.963 47.6099 205.126 46.8726 205.126ZM46.8726 203.74C47.2832 203.74 47.6659 203.642 48.0206 203.446C48.3846 203.25 48.6786 202.956 48.9026 202.564C49.1266 202.172 49.2386 201.696 49.2386 201.136C49.2386 200.576 49.1312 200.105 48.9166 199.722C48.7019 199.33 48.4172 199.036 48.0626 198.84C47.7079 198.644 47.3252 198.546 46.9146 198.546C46.5039 198.546 46.1212 198.644 45.7666 198.84C45.4212 199.036 45.1459 199.33 44.9406 199.722C44.7352 200.105 44.6326 200.576 44.6326 201.136C44.6326 201.967 44.8426 202.611 45.2626 203.068C45.6919 203.516 46.2286 203.74 46.8726 203.74ZM55.5063 201.15L59.0623 205H56.9063L54.0503 201.682V205H52.4543V194.64H54.0503V200.66L56.8503 197.286H59.0623L55.5063 201.15ZM63.5523 205.126C62.8243 205.126 62.1663 204.963 61.5783 204.636C60.9903 204.3 60.5283 203.833 60.1923 203.236C59.8563 202.629 59.6883 201.929 59.6883 201.136C59.6883 200.352 59.8609 199.657 60.2063 199.05C60.5516 198.443 61.0229 197.977 61.6203 197.65C62.2176 197.323 62.8849 197.16 63.6223 197.16C64.3596 197.16 65.0269 197.323 65.6243 197.65C66.2216 197.977 66.6929 198.443 67.0383 199.05C67.3836 199.657 67.5563 200.352 67.5563 201.136C67.5563 201.92 67.3789 202.615 67.0243 203.222C66.6696 203.829 66.1843 204.3 65.5683 204.636C64.9616 204.963 64.2896 205.126 63.5523 205.126ZM63.5523 203.74C63.9629 203.74 64.3456 203.642 64.7003 203.446C65.0643 203.25 65.3583 202.956 65.5823 202.564C65.8063 202.172 65.9183 201.696 65.9183 201.136C65.9183 200.576 65.8109 200.105 65.5963 199.722C65.3816 199.33 65.0969 199.036 64.7423 198.84C64.3876 198.644 64.0049 198.546 63.5943 198.546C63.1836 198.546 62.8009 198.644 62.4463 198.84C62.1009 199.036 61.8256 199.33 61.6203 199.722C61.4149 200.105 61.3123 200.576 61.3123 201.136C61.3123 201.967 61.5223 202.611 61.9423 203.068C62.3716 203.516 62.9083 203.74 63.5523 203.74ZM73.124 197.16C73.712 197.16 74.2347 197.286 74.692 197.538C75.1587 197.79 75.5227 198.163 75.784 198.658C76.0547 199.153 76.19 199.75 76.19 200.45V205H74.608V200.688C74.608 199.997 74.4353 199.47 74.09 199.106C73.7447 198.733 73.2733 198.546 72.676 198.546C72.0787 198.546 71.6027 198.733 71.248 199.106C70.9027 199.47 70.73 199.997 70.73 200.688V205H69.134V194.64H70.73V198.182C71.0007 197.855 71.3413 197.603 71.752 197.426C72.172 197.249 72.6293 197.16 73.124 197.16ZM77.6938 201.108C77.6938 200.333 77.8524 199.647 78.1698 199.05C78.4964 198.453 78.9351 197.991 79.4858 197.664C80.0458 197.328 80.6618 197.16 81.3338 197.16C81.9404 197.16 82.4678 197.281 82.9158 197.524C83.3731 197.757 83.7371 198.051 84.0078 198.406V197.286H85.6178V205H84.0078V203.852C83.7371 204.216 83.3684 204.519 82.9018 204.762C82.4351 205.005 81.9031 205.126 81.3058 205.126C80.6431 205.126 80.0364 204.958 79.4858 204.622C78.9351 204.277 78.4964 203.801 78.1698 203.194C77.8524 202.578 77.6938 201.883 77.6938 201.108ZM84.0078 201.136C84.0078 200.604 83.8958 200.142 83.6718 199.75C83.4571 199.358 83.1724 199.059 82.8178 198.854C82.4631 198.649 82.0804 198.546 81.6698 198.546C81.2591 198.546 80.8764 198.649 80.5218 198.854C80.1671 199.05 79.8778 199.344 79.6538 199.736C79.4391 200.119 79.3318 200.576 79.3318 201.108C79.3318 201.64 79.4391 202.107 79.6538 202.508C79.8778 202.909 80.1671 203.217 80.5218 203.432C80.8858 203.637 81.2684 203.74 81.6698 203.74C82.0804 203.74 82.4631 203.637 82.8178 203.432C83.1724 203.227 83.4571 202.928 83.6718 202.536C83.8958 202.135 84.0078 201.668 84.0078 201.136ZM97.0521 197.16C97.6587 197.16 98.2001 197.286 98.6761 197.538C99.1614 197.79 99.5394 198.163 99.8101 198.658C100.09 199.153 100.23 199.75 100.23 200.45V205H98.6481V200.688C98.6481 199.997 98.4754 199.47 98.1301 199.106C97.7847 198.733 97.3134 198.546 96.7161 198.546C96.1187 198.546 95.6427 198.733 95.2881 199.106C94.9427 199.47 94.7701 199.997 94.7701 200.688V205H93.1881V200.688C93.1881 199.997 93.0154 199.47 92.6701 199.106C92.3247 198.733 91.8534 198.546 91.2561 198.546C90.6587 198.546 90.1827 198.733 89.8281 199.106C89.4827 199.47 89.3101 199.997 89.3101 200.688V205H87.7141V197.286H89.3101V198.168C89.5714 197.851 89.9027 197.603 90.3041 197.426C90.7054 197.249 91.1347 197.16 91.5921 197.16C92.2081 197.16 92.7587 197.291 93.2441 197.552C93.7294 197.813 94.1027 198.191 94.3641 198.686C94.5974 198.219 94.9614 197.851 95.4561 197.58C95.9507 197.3 96.4827 197.16 97.0521 197.16ZM101.729 201.108C101.729 200.333 101.888 199.647 102.205 199.05C102.532 198.453 102.97 197.991 103.521 197.664C104.081 197.328 104.697 197.16 105.369 197.16C105.976 197.16 106.503 197.281 106.951 197.524C107.408 197.757 107.772 198.051 108.043 198.406V197.286H109.653V205H108.043V203.852C107.772 204.216 107.404 204.519 106.937 204.762C106.47 205.005 105.938 205.126 105.341 205.126C104.678 205.126 104.072 204.958 103.521 204.622C102.97 204.277 102.532 203.801 102.205 203.194C101.888 202.578 101.729 201.883 101.729 201.108ZM108.043 201.136C108.043 200.604 107.931 200.142 107.707 199.75C107.492 199.358 107.208 199.059 106.853 198.854C106.498 198.649 106.116 198.546 105.705 198.546C105.294 198.546 104.912 198.649 104.557 198.854C104.202 199.05 103.913 199.344 103.689 199.736C103.474 200.119 103.367 200.576 103.367 201.108C103.367 201.64 103.474 202.107 103.689 202.508C103.913 202.909 104.202 203.217 104.557 203.432C104.921 203.637 105.304 203.74 105.705 203.74C106.116 203.74 106.498 203.637 106.853 203.432C107.208 203.227 107.492 202.928 107.707 202.536C107.931 202.135 108.043 201.668 108.043 201.136ZM113.499 203.082L111.805 206.946H110.769L111.763 203.082H113.499ZM123.836 195.27V202.284C123.836 203.152 123.57 203.838 123.038 204.342C122.516 204.846 121.825 205.098 120.966 205.098C120.108 205.098 119.412 204.846 118.88 204.342C118.358 203.838 118.096 203.152 118.096 202.284H119.706C119.716 202.713 119.823 203.054 120.028 203.306C120.243 203.558 120.556 203.684 120.966 203.684C121.377 203.684 121.69 203.558 121.904 203.306C122.119 203.045 122.226 202.704 122.226 202.284V195.27H123.836ZM125.901 201.108C125.901 200.333 126.059 199.647 126.377 199.05C126.703 198.453 127.142 197.991 127.693 197.664C128.253 197.328 128.869 197.16 129.541 197.16C130.147 197.16 130.675 197.281 131.123 197.524C131.58 197.757 131.944 198.051 132.215 198.406V197.286H133.825V205H132.215V203.852C131.944 204.216 131.575 204.519 131.109 204.762C130.642 205.005 130.11 205.126 129.513 205.126C128.85 205.126 128.243 204.958 127.693 204.622C127.142 204.277 126.703 203.801 126.377 203.194C126.059 202.578 125.901 201.883 125.901 201.108ZM132.215 201.136C132.215 200.604 132.103 200.142 131.879 199.75C131.664 199.358 131.379 199.059 131.025 198.854C130.67 198.649 130.287 198.546 129.877 198.546C129.466 198.546 129.083 198.649 128.729 198.854C128.374 199.05 128.085 199.344 127.861 199.736C127.646 200.119 127.539 200.576 127.539 201.108C127.539 201.64 127.646 202.107 127.861 202.508C128.085 202.909 128.374 203.217 128.729 203.432C129.093 203.637 129.475 203.74 129.877 203.74C130.287 203.74 130.67 203.637 131.025 203.432C131.379 203.227 131.664 202.928 131.879 202.536C132.103 202.135 132.215 201.668 132.215 201.136ZM137.517 198.42C137.788 198.065 138.156 197.767 138.623 197.524C139.09 197.281 139.617 197.16 140.205 197.16C140.877 197.16 141.488 197.328 142.039 197.664C142.599 197.991 143.038 198.453 143.355 199.05C143.672 199.647 143.831 200.333 143.831 201.108C143.831 201.883 143.672 202.578 143.355 203.194C143.038 203.801 142.599 204.277 142.039 204.622C141.488 204.958 140.877 205.126 140.205 205.126C139.617 205.126 139.094 205.009 138.637 204.776C138.18 204.533 137.806 204.235 137.517 203.88V208.668H135.921V197.286H137.517V198.42ZM142.207 201.108C142.207 200.576 142.095 200.119 141.871 199.736C141.656 199.344 141.367 199.05 141.003 198.854C140.648 198.649 140.266 198.546 139.855 198.546C139.454 198.546 139.071 198.649 138.707 198.854C138.352 199.059 138.063 199.358 137.839 199.75C137.624 200.142 137.517 200.604 137.517 201.136C137.517 201.668 137.624 202.135 137.839 202.536C138.063 202.928 138.352 203.227 138.707 203.432C139.071 203.637 139.454 203.74 139.855 203.74C140.266 203.74 140.648 203.637 141.003 203.432C141.367 203.217 141.656 202.909 141.871 202.508C142.095 202.107 142.207 201.64 142.207 201.108ZM144.877 201.108C144.877 200.333 145.036 199.647 145.353 199.05C145.68 198.453 146.119 197.991 146.669 197.664C147.229 197.328 147.845 197.16 148.517 197.16C149.124 197.16 149.651 197.281 150.099 197.524C150.557 197.757 150.921 198.051 151.191 198.406V197.286H152.801V205H151.191V203.852C150.921 204.216 150.552 204.519 150.085 204.762C149.619 205.005 149.087 205.126 148.489 205.126C147.827 205.126 147.22 204.958 146.669 204.622C146.119 204.277 145.68 203.801 145.353 203.194C145.036 202.578 144.877 201.883 144.877 201.108ZM151.191 201.136C151.191 200.604 151.079 200.142 150.855 199.75C150.641 199.358 150.356 199.059 150.001 198.854C149.647 198.649 149.264 198.546 148.853 198.546C148.443 198.546 148.06 198.649 147.705 198.854C147.351 199.05 147.061 199.344 146.837 199.736C146.623 200.119 146.515 200.576 146.515 201.108C146.515 201.64 146.623 202.107 146.837 202.508C147.061 202.909 147.351 203.217 147.705 203.432C148.069 203.637 148.452 203.74 148.853 203.74C149.264 203.74 149.647 203.637 150.001 203.432C150.356 203.227 150.641 202.928 150.855 202.536C151.079 202.135 151.191 201.668 151.191 201.136ZM158.79 197.16C159.396 197.16 159.938 197.286 160.414 197.538C160.899 197.79 161.277 198.163 161.548 198.658C161.818 199.153 161.954 199.75 161.954 200.45V205H160.372V200.688C160.372 199.997 160.199 199.47 159.854 199.106C159.508 198.733 159.037 198.546 158.44 198.546C157.842 198.546 157.366 198.733 157.012 199.106C156.666 199.47 156.494 199.997 156.494 200.688V205H154.898V197.286H156.494V198.168C156.755 197.851 157.086 197.603 157.488 197.426C157.898 197.249 158.332 197.16 158.79 197.16Z" fill="#5E6282"/>
</svg>
