<svg width="506" height="245" viewBox="0 0 506 245" fill="none" xmlns="http://www.w3.org/2000/svg">
<rect width="505.703" height="245" rx="10" fill="white"/>
<path d="M43.2989 41.184V50H41.4749V48.96C41.1869 49.3227 40.8082 49.6107 40.3389 49.824C39.8802 50.0267 39.3895 50.128 38.8669 50.128C38.1735 50.128 37.5495 49.984 36.9949 49.696C36.4509 49.408 36.0189 48.9813 35.6989 48.416C35.3895 47.8507 35.2349 47.168 35.2349 46.368V41.184H37.0429V46.096C37.0429 46.8853 37.2402 47.4933 37.6349 47.92C38.0295 48.336 38.5682 48.544 39.2509 48.544C39.9335 48.544 40.4722 48.336 40.8669 47.92C41.2722 47.4933 41.4749 46.8853 41.4749 46.096V41.184H43.2989ZM47.5295 42.464C47.7962 42.016 48.1482 41.6693 48.5855 41.424C49.0335 41.168 49.5615 41.04 50.1695 41.04V42.928H49.7055C48.9908 42.928 48.4468 43.1093 48.0735 43.472C47.7108 43.8347 47.5295 44.464 47.5295 45.36V50H45.7055V41.184H47.5295V42.464ZM51.2381 45.552C51.2381 44.6667 51.4195 43.8827 51.7821 43.2C52.1555 42.5173 52.6568 41.9893 53.2861 41.616C53.9261 41.232 54.6301 41.04 55.3981 41.04C56.0915 41.04 56.6941 41.1787 57.2061 41.456C57.7288 41.7227 58.1448 42.0587 58.4541 42.464V41.184H60.2941V50H58.4541V48.688C58.1448 49.104 57.7235 49.4507 57.1901 49.728C56.6568 50.0053 56.0488 50.144 55.3661 50.144C54.6088 50.144 53.9155 49.952 53.2861 49.568C52.6568 49.1733 52.1555 48.6293 51.7821 47.936C51.4195 47.232 51.2381 46.4373 51.2381 45.552ZM58.4541 45.584C58.4541 44.976 58.3261 44.448 58.0701 44C57.8248 43.552 57.4995 43.2107 57.0941 42.976C56.6888 42.7413 56.2515 42.624 55.7821 42.624C55.3128 42.624 54.8755 42.7413 54.4701 42.976C54.0648 43.2 53.7341 43.536 53.4781 43.984C53.2328 44.4213 53.1101 44.944 53.1101 45.552C53.1101 46.16 53.2328 46.6933 53.4781 47.152C53.7341 47.6107 54.0648 47.9627 54.4701 48.208C54.8861 48.4427 55.3235 48.56 55.7821 48.56C56.2515 48.56 56.6888 48.4427 57.0941 48.208C57.4995 47.9733 57.8248 47.632 58.0701 47.184C58.3261 46.7253 58.4541 46.192 58.4541 45.584ZM64.5139 42.496C64.8232 42.0693 65.2445 41.7227 65.7779 41.456C66.3219 41.1787 66.9245 41.04 67.5859 41.04C68.3645 41.04 69.0685 41.2267 69.6979 41.6C70.3272 41.9733 70.8232 42.5067 71.1859 43.2C71.5485 43.8827 71.7299 44.6667 71.7299 45.552C71.7299 46.4373 71.5485 47.232 71.1859 47.936C70.8232 48.6293 70.3219 49.1733 69.6819 49.568C69.0525 49.952 68.3539 50.144 67.5859 50.144C66.9032 50.144 66.2952 50.0107 65.7619 49.744C65.2392 49.4773 64.8232 49.136 64.5139 48.72V50H62.6899V38.16H64.5139V42.496ZM69.8739 45.552C69.8739 44.944 69.7459 44.4213 69.4899 43.984C69.2445 43.536 68.9139 43.2 68.4979 42.976C68.0925 42.7413 67.6552 42.624 67.1859 42.624C66.7272 42.624 66.2899 42.7413 65.8739 42.976C65.4685 43.2107 65.1379 43.552 64.8819 44C64.6365 44.448 64.5139 44.976 64.5139 45.584C64.5139 46.192 64.6365 46.7253 64.8819 47.184C65.1379 47.632 65.4685 47.9733 65.8739 48.208C66.2899 48.4427 66.7272 48.56 67.1859 48.56C67.6552 48.56 68.0925 48.4427 68.4979 48.208C68.9139 47.9627 69.2445 47.6107 69.4899 47.152C69.7459 46.6933 69.8739 46.16 69.8739 45.552ZM74.4616 40.016C74.131 40.016 73.8536 39.904 73.6296 39.68C73.4056 39.456 73.2936 39.1787 73.2936 38.848C73.2936 38.5173 73.4056 38.24 73.6296 38.016C73.8536 37.792 74.131 37.68 74.4616 37.68C74.7816 37.68 75.0536 37.792 75.2776 38.016C75.5016 38.24 75.6136 38.5173 75.6136 38.848C75.6136 39.1787 75.5016 39.456 75.2776 39.68C75.0536 39.904 74.7816 40.016 74.4616 40.016ZM75.3576 41.184V50H73.5336V41.184H75.3576ZM79.8804 42.672V47.552C79.8804 47.8827 79.955 48.1227 80.1044 48.272C80.2644 48.4107 80.531 48.48 80.9044 48.48H82.0244V50H80.5844C79.763 50 79.1337 49.808 78.6964 49.424C78.259 49.04 78.0404 48.416 78.0404 47.552V42.672H77.0004V41.184H78.0404V38.992H79.8804V41.184H82.0244V42.672H79.8804ZM91.6895 41.184V50H89.8655V48.96C89.5775 49.3227 89.1988 49.6107 88.7295 49.824C88.2708 50.0267 87.7802 50.128 87.2575 50.128C86.5642 50.128 85.9402 49.984 85.3855 49.696C84.8415 49.408 84.4095 48.9813 84.0895 48.416C83.7802 47.8507 83.6255 47.168 83.6255 46.368V41.184H85.4335V46.096C85.4335 46.8853 85.6308 47.4933 86.0255 47.92C86.4202 48.336 86.9588 48.544 87.6415 48.544C88.3242 48.544 88.8628 48.336 89.2575 47.92C89.6628 47.4933 89.8655 46.8853 89.8655 46.096V41.184H91.6895ZM95.9201 42.464C96.1868 42.016 96.5388 41.6693 96.9761 41.424C97.4241 41.168 97.9521 41.04 98.5601 41.04V42.928H98.0961C97.3815 42.928 96.8375 43.1093 96.4641 43.472C96.1015 43.8347 95.9201 44.464 95.9201 45.36V50H94.0961V41.184H95.9201V42.464ZM115.065 41.04C115.758 41.04 116.377 41.184 116.921 41.472C117.476 41.76 117.908 42.1867 118.217 42.752C118.537 43.3173 118.697 44 118.697 44.8V50H116.889V45.072C116.889 44.2827 116.692 43.68 116.297 43.264C115.902 42.8373 115.364 42.624 114.681 42.624C113.998 42.624 113.454 42.8373 113.049 43.264C112.654 43.68 112.457 44.2827 112.457 45.072V50H110.649V45.072C110.649 44.2827 110.452 43.68 110.057 43.264C109.662 42.8373 109.124 42.624 108.441 42.624C107.758 42.624 107.214 42.8373 106.809 43.264C106.414 43.68 106.217 44.2827 106.217 45.072V50H104.393V41.184H106.217V42.192C106.516 41.8293 106.894 41.5467 107.353 41.344C107.812 41.1413 108.302 41.04 108.825 41.04C109.529 41.04 110.158 41.1893 110.713 41.488C111.268 41.7867 111.694 42.2187 111.993 42.784C112.26 42.2507 112.676 41.8293 113.241 41.52C113.806 41.2 114.414 41.04 115.065 41.04ZM120.41 45.552C120.41 44.6667 120.591 43.8827 120.954 43.2C121.327 42.5173 121.829 41.9893 122.458 41.616C123.098 41.232 123.802 41.04 124.57 41.04C125.263 41.04 125.866 41.1787 126.378 41.456C126.901 41.7227 127.317 42.0587 127.626 42.464V41.184H129.466V50H127.626V48.688C127.317 49.104 126.895 49.4507 126.362 49.728C125.829 50.0053 125.221 50.144 124.538 50.144C123.781 50.144 123.087 49.952 122.458 49.568C121.829 49.1733 121.327 48.6293 120.954 47.936C120.591 47.232 120.41 46.4373 120.41 45.552ZM127.626 45.584C127.626 44.976 127.498 44.448 127.242 44C126.997 43.552 126.671 43.2107 126.266 42.976C125.861 42.7413 125.423 42.624 124.954 42.624C124.485 42.624 124.047 42.7413 123.642 42.976C123.237 43.2 122.906 43.536 122.65 43.984C122.405 44.4213 122.282 44.944 122.282 45.552C122.282 46.16 122.405 46.6933 122.65 47.152C122.906 47.6107 123.237 47.9627 123.642 48.208C124.058 48.4427 124.495 48.56 124.954 48.56C125.423 48.56 125.861 48.4427 126.266 48.208C126.671 47.9733 126.997 47.632 127.242 47.184C127.498 46.7253 127.626 46.192 127.626 45.584ZM133.99 42.672V47.552C133.99 47.8827 134.064 48.1227 134.214 48.272C134.374 48.4107 134.64 48.48 135.014 48.48H136.134V50H134.694C133.872 50 133.243 49.808 132.806 49.424C132.368 49.04 132.15 48.416 132.15 47.552V42.672H131.11V41.184H132.15V38.992H133.99V41.184H136.134V42.672H133.99ZM139.943 42.672V47.552C139.943 47.8827 140.018 48.1227 140.167 48.272C140.327 48.4107 140.594 48.48 140.967 48.48H142.087V50H140.647C139.826 50 139.196 49.808 138.759 49.424C138.322 49.04 138.103 48.416 138.103 47.552V42.672H137.063V41.184H138.103V38.992H139.943V41.184H142.087V42.672H139.943ZM144.696 40.016C144.365 40.016 144.088 39.904 143.864 39.68C143.64 39.456 143.528 39.1787 143.528 38.848C143.528 38.5173 143.64 38.24 143.864 38.016C144.088 37.792 144.365 37.68 144.696 37.68C145.016 37.68 145.288 37.792 145.512 38.016C145.736 38.24 145.848 38.5173 145.848 38.848C145.848 39.1787 145.736 39.456 145.512 39.68C145.288 39.904 145.016 40.016 144.696 40.016ZM145.592 41.184V50H143.768V41.184H145.592ZM151.187 50.144C150.493 50.144 149.869 50.0213 149.315 49.776C148.771 49.52 148.339 49.1787 148.019 48.752C147.699 48.3147 147.528 47.8293 147.507 47.296H149.395C149.427 47.6693 149.603 47.984 149.923 48.24C150.253 48.4853 150.664 48.608 151.155 48.608C151.667 48.608 152.061 48.512 152.339 48.32C152.627 48.1173 152.771 47.8613 152.771 47.552C152.771 47.2213 152.611 46.976 152.291 46.816C151.981 46.656 151.485 46.48 150.803 46.288C150.141 46.1067 149.603 45.9307 149.187 45.76C148.771 45.5893 148.408 45.328 148.099 44.976C147.8 44.624 147.651 44.16 147.651 43.584C147.651 43.1147 147.789 42.688 148.067 42.304C148.344 41.9093 148.739 41.6 149.251 41.376C149.773 41.152 150.371 41.04 151.043 41.04C152.045 41.04 152.851 41.296 153.459 41.808C154.077 42.3093 154.408 42.9973 154.451 43.872H152.627C152.595 43.4773 152.435 43.1627 152.147 42.928C151.859 42.6933 151.469 42.576 150.979 42.576C150.499 42.576 150.131 42.6667 149.875 42.848C149.619 43.0293 149.491 43.2693 149.491 43.568C149.491 43.8027 149.576 44 149.747 44.16C149.917 44.32 150.125 44.448 150.371 44.544C150.616 44.6293 150.979 44.7413 151.459 44.88C152.099 45.0507 152.621 45.2267 153.027 45.408C153.443 45.5787 153.8 45.8347 154.099 46.176C154.397 46.5173 154.552 46.9707 154.563 47.536C154.563 48.0373 154.424 48.4853 154.147 48.88C153.869 49.2747 153.475 49.584 152.963 49.808C152.461 50.032 151.869 50.144 151.187 50.144ZM165.138 41.04C165.831 41.04 166.45 41.184 166.994 41.472C167.549 41.76 167.981 42.1867 168.29 42.752C168.599 43.3173 168.754 44 168.754 44.8V50H166.946V45.072C166.946 44.2827 166.749 43.68 166.354 43.264C165.959 42.8373 165.421 42.624 164.738 42.624C164.055 42.624 163.511 42.8373 163.106 43.264C162.711 43.68 162.514 44.2827 162.514 45.072V50H160.69V41.184H162.514V42.192C162.813 41.8293 163.191 41.5467 163.65 41.344C164.119 41.1413 164.615 41.04 165.138 41.04ZM172.008 40.016C171.678 40.016 171.4 39.904 171.176 39.68C170.952 39.456 170.84 39.1787 170.84 38.848C170.84 38.5173 170.952 38.24 171.176 38.016C171.4 37.792 171.678 37.68 172.008 37.68C172.328 37.68 172.6 37.792 172.824 38.016C173.048 38.24 173.16 38.5173 173.16 38.848C173.16 39.1787 173.048 39.456 172.824 39.68C172.6 39.904 172.328 40.016 172.008 40.016ZM172.904 41.184V50H171.08V41.184H172.904ZM178.499 50.144C177.806 50.144 177.182 50.0213 176.627 49.776C176.083 49.52 175.651 49.1787 175.331 48.752C175.011 48.3147 174.841 47.8293 174.819 47.296H176.707C176.739 47.6693 176.915 47.984 177.235 48.24C177.566 48.4853 177.977 48.608 178.467 48.608C178.979 48.608 179.374 48.512 179.651 48.32C179.939 48.1173 180.083 47.8613 180.083 47.552C180.083 47.2213 179.923 46.976 179.603 46.816C179.294 46.656 178.798 46.48 178.115 46.288C177.454 46.1067 176.915 45.9307 176.499 45.76C176.083 45.5893 175.721 45.328 175.411 44.976C175.113 44.624 174.963 44.16 174.963 43.584C174.963 43.1147 175.102 42.688 175.379 42.304C175.657 41.9093 176.051 41.6 176.563 41.376C177.086 41.152 177.683 41.04 178.355 41.04C179.358 41.04 180.163 41.296 180.771 41.808C181.39 42.3093 181.721 42.9973 181.763 43.872H179.939C179.907 43.4773 179.747 43.1627 179.459 42.928C179.171 42.6933 178.782 42.576 178.291 42.576C177.811 42.576 177.443 42.6667 177.187 42.848C176.931 43.0293 176.803 43.2693 176.803 43.568C176.803 43.8027 176.889 44 177.059 44.16C177.23 44.32 177.438 44.448 177.683 44.544C177.929 44.6293 178.291 44.7413 178.771 44.88C179.411 45.0507 179.934 45.2267 180.339 45.408C180.755 45.5787 181.113 45.8347 181.411 46.176C181.71 46.5173 181.865 46.9707 181.875 47.536C181.875 48.0373 181.737 48.4853 181.459 48.88C181.182 49.2747 180.787 49.584 180.275 49.808C179.774 50.032 179.182 50.144 178.499 50.144ZM185.67 38.16V50H183.846V38.16H185.67ZM200.301 45.376C200.301 45.7067 200.28 46.0053 200.237 46.272H193.501C193.554 46.976 193.816 47.5413 194.285 47.968C194.754 48.3947 195.33 48.608 196.013 48.608C196.994 48.608 197.688 48.1973 198.093 47.376H200.061C199.794 48.1867 199.309 48.8533 198.605 49.376C197.912 49.888 197.048 50.144 196.013 50.144C195.17 50.144 194.413 49.9573 193.741 49.584C193.08 49.2 192.557 48.6667 192.173 47.984C191.8 47.2907 191.613 46.4907 191.613 45.584C191.613 44.6773 191.794 43.8827 192.157 43.2C192.53 42.5067 193.048 41.9733 193.709 41.6C194.381 41.2267 195.149 41.04 196.013 41.04C196.845 41.04 197.586 41.2213 198.237 41.584C198.888 41.9467 199.394 42.4587 199.757 43.12C200.12 43.7707 200.301 44.5227 200.301 45.376ZM198.397 44.8C198.386 44.128 198.146 43.5893 197.677 43.184C197.208 42.7787 196.626 42.576 195.933 42.576C195.304 42.576 194.765 42.7787 194.317 43.184C193.869 43.5787 193.602 44.1173 193.517 44.8H198.397ZM205.648 41.04C206.331 41.04 206.933 41.1787 207.456 41.456C207.989 41.7227 208.405 42.0587 208.704 42.464V41.184H210.544V50.144C210.544 50.9547 210.373 51.6747 210.032 52.304C209.691 52.944 209.195 53.4453 208.544 53.808C207.904 54.1707 207.136 54.352 206.24 54.352C205.045 54.352 204.053 54.0693 203.264 53.504C202.475 52.9493 202.027 52.192 201.92 51.232H203.728C203.867 51.6907 204.16 52.0587 204.608 52.336C205.067 52.624 205.611 52.768 206.24 52.768C206.976 52.768 207.568 52.544 208.016 52.096C208.475 51.648 208.704 50.9973 208.704 50.144V48.672C208.395 49.088 207.973 49.44 207.44 49.728C206.917 50.0053 206.32 50.144 205.648 50.144C204.88 50.144 204.176 49.952 203.536 49.568C202.907 49.1733 202.405 48.6293 202.032 47.936C201.669 47.232 201.488 46.4373 201.488 45.552C201.488 44.6667 201.669 43.8827 202.032 43.2C202.405 42.5173 202.907 41.9893 203.536 41.616C204.176 41.232 204.88 41.04 205.648 41.04ZM208.704 45.584C208.704 44.976 208.576 44.448 208.32 44C208.075 43.552 207.749 43.2107 207.344 42.976C206.939 42.7413 206.501 42.624 206.032 42.624C205.563 42.624 205.125 42.7413 204.72 42.976C204.315 43.2 203.984 43.536 203.728 43.984C203.483 44.4213 203.36 44.944 203.36 45.552C203.36 46.16 203.483 46.6933 203.728 47.152C203.984 47.6107 204.315 47.9627 204.72 48.208C205.136 48.4427 205.573 48.56 206.032 48.56C206.501 48.56 206.939 48.4427 207.344 48.208C207.749 47.9733 208.075 47.632 208.32 47.184C208.576 46.7253 208.704 46.192 208.704 45.584ZM221.02 45.376C221.02 45.7067 220.999 46.0053 220.956 46.272H214.22C214.273 46.976 214.535 47.5413 215.004 47.968C215.473 48.3947 216.049 48.608 216.732 48.608C217.713 48.608 218.407 48.1973 218.812 47.376H220.78C220.513 48.1867 220.028 48.8533 219.324 49.376C218.631 49.888 217.767 50.144 216.732 50.144C215.889 50.144 215.132 49.9573 214.46 49.584C213.799 49.2 213.276 48.6667 212.892 47.984C212.519 47.2907 212.332 46.4907 212.332 45.584C212.332 44.6773 212.513 43.8827 212.876 43.2C213.249 42.5067 213.767 41.9733 214.428 41.6C215.1 41.2267 215.868 41.04 216.732 41.04C217.564 41.04 218.305 41.2213 218.956 41.584C219.607 41.9467 220.113 42.4587 220.476 43.12C220.839 43.7707 221.02 44.5227 221.02 45.376ZM219.116 44.8C219.105 44.128 218.865 43.5893 218.396 43.184C217.927 42.7787 217.345 42.576 216.652 42.576C216.023 42.576 215.484 42.7787 215.036 43.184C214.588 43.5787 214.321 44.1173 214.236 44.8H219.116ZM224.943 42.672V47.552C224.943 47.8827 225.018 48.1227 225.167 48.272C225.327 48.4107 225.594 48.48 225.967 48.48H227.087V50H225.647C224.826 50 224.196 49.808 223.759 49.424C223.322 49.04 223.103 48.416 223.103 47.552V42.672H222.063V41.184H223.103V38.992H224.943V41.184H227.087V42.672H224.943ZM234.748 42.464C235.015 42.016 235.367 41.6693 235.804 41.424C236.252 41.168 236.78 41.04 237.388 41.04V42.928H236.924C236.21 42.928 235.666 43.1093 235.292 43.472C234.93 43.8347 234.748 44.464 234.748 45.36V50H232.924V41.184H234.748V42.464ZM239.993 40.016C239.662 40.016 239.385 39.904 239.161 39.68C238.937 39.456 238.825 39.1787 238.825 38.848C238.825 38.5173 238.937 38.24 239.161 38.016C239.385 37.792 239.662 37.68 239.993 37.68C240.313 37.68 240.585 37.792 240.809 38.016C241.033 38.24 241.145 38.5173 241.145 38.848C241.145 39.1787 241.033 39.456 240.809 39.68C240.585 39.904 240.313 40.016 239.993 40.016ZM240.889 41.184V50H239.065V41.184H240.889ZM246.484 50.144C245.79 50.144 245.166 50.0213 244.612 49.776C244.068 49.52 243.636 49.1787 243.316 48.752C242.996 48.3147 242.825 47.8293 242.804 47.296H244.692C244.724 47.6693 244.9 47.984 245.22 48.24C245.55 48.4853 245.961 48.608 246.452 48.608C246.964 48.608 247.358 48.512 247.636 48.32C247.924 48.1173 248.068 47.8613 248.068 47.552C248.068 47.2213 247.908 46.976 247.588 46.816C247.278 46.656 246.782 46.48 246.1 46.288C245.438 46.1067 244.9 45.9307 244.484 45.76C244.068 45.5893 243.705 45.328 243.396 44.976C243.097 44.624 242.948 44.16 242.948 43.584C242.948 43.1147 243.086 42.688 243.364 42.304C243.641 41.9093 244.036 41.6 244.548 41.376C245.07 41.152 245.668 41.04 246.34 41.04C247.342 41.04 248.148 41.296 248.756 41.808C249.374 42.3093 249.705 42.9973 249.748 43.872H247.924C247.892 43.4773 247.732 43.1627 247.444 42.928C247.156 42.6933 246.766 42.576 246.276 42.576C245.796 42.576 245.428 42.6667 245.172 42.848C244.916 43.0293 244.788 43.2693 244.788 43.568C244.788 43.8027 244.873 44 245.044 44.16C245.214 44.32 245.422 44.448 245.668 44.544C245.913 44.6293 246.276 44.7413 246.756 44.88C247.396 45.0507 247.918 45.2267 248.324 45.408C248.74 45.5787 249.097 45.8347 249.396 46.176C249.694 46.5173 249.849 46.9707 249.86 47.536C249.86 48.0373 249.721 48.4853 249.444 48.88C249.166 49.2747 248.772 49.584 248.26 49.808C247.758 50.032 247.166 50.144 246.484 50.144ZM259.814 41.184V50H257.99V48.96C257.702 49.3227 257.324 49.6107 256.854 49.824C256.396 50.0267 255.905 50.128 255.382 50.128C254.689 50.128 254.065 49.984 253.51 49.696C252.966 49.408 252.534 48.9813 252.214 48.416C251.905 47.8507 251.75 47.168 251.75 46.368V41.184H253.558V46.096C253.558 46.8853 253.756 47.4933 254.15 47.92C254.545 48.336 255.084 48.544 255.766 48.544C256.449 48.544 256.988 48.336 257.382 47.92C257.788 47.4933 257.99 46.8853 257.99 46.096V41.184H259.814ZM265.421 50.144C264.728 50.144 264.104 50.0213 263.549 49.776C263.005 49.52 262.573 49.1787 262.253 48.752C261.933 48.3147 261.762 47.8293 261.741 47.296H263.629C263.661 47.6693 263.837 47.984 264.157 48.24C264.488 48.4853 264.898 48.608 265.389 48.608C265.901 48.608 266.296 48.512 266.573 48.32C266.861 48.1173 267.005 47.8613 267.005 47.552C267.005 47.2213 266.845 46.976 266.525 46.816C266.216 46.656 265.72 46.48 265.037 46.288C264.376 46.1067 263.837 45.9307 263.421 45.76C263.005 45.5893 262.642 45.328 262.333 44.976C262.034 44.624 261.885 44.16 261.885 43.584C261.885 43.1147 262.024 42.688 262.301 42.304C262.578 41.9093 262.973 41.6 263.485 41.376C264.008 41.152 264.605 41.04 265.277 41.04C266.28 41.04 267.085 41.296 267.693 41.808C268.312 42.3093 268.642 42.9973 268.685 43.872H266.861C266.829 43.4773 266.669 43.1627 266.381 42.928C266.093 42.6933 265.704 42.576 265.213 42.576C264.733 42.576 264.365 42.6667 264.109 42.848C263.853 43.0293 263.725 43.2693 263.725 43.568C263.725 43.8027 263.81 44 263.981 44.16C264.152 44.32 264.36 44.448 264.605 44.544C264.85 44.6293 265.213 44.7413 265.693 44.88C266.333 45.0507 266.856 45.2267 267.261 45.408C267.677 45.5787 268.034 45.8347 268.333 46.176C268.632 46.5173 268.786 46.9707 268.797 47.536C268.797 48.0373 268.658 48.4853 268.381 48.88C268.104 49.2747 267.709 49.584 267.197 49.808C266.696 50.032 266.104 50.144 265.421 50.144ZM274.316 45.552C274.316 44.6667 274.498 43.8827 274.86 43.2C275.234 42.5173 275.735 41.9893 276.364 41.616C277.004 41.232 277.708 41.04 278.476 41.04C279.17 41.04 279.772 41.1787 280.284 41.456C280.807 41.7227 281.223 42.0587 281.532 42.464V41.184H283.372V50H281.532V48.688C281.223 49.104 280.802 49.4507 280.268 49.728C279.735 50.0053 279.127 50.144 278.444 50.144C277.687 50.144 276.994 49.952 276.364 49.568C275.735 49.1733 275.234 48.6293 274.86 47.936C274.498 47.232 274.316 46.4373 274.316 45.552ZM281.532 45.584C281.532 44.976 281.404 44.448 281.148 44C280.903 43.552 280.578 43.2107 280.172 42.976C279.767 42.7413 279.33 42.624 278.86 42.624C278.391 42.624 277.954 42.7413 277.548 42.976C277.143 43.2 276.812 43.536 276.556 43.984C276.311 44.4213 276.188 44.944 276.188 45.552C276.188 46.16 276.311 46.6933 276.556 47.152C276.812 47.6107 277.143 47.9627 277.548 48.208C277.964 48.4427 278.402 48.56 278.86 48.56C279.33 48.56 279.767 48.4427 280.172 48.208C280.578 47.9733 280.903 47.632 281.148 47.184C281.404 46.7253 281.532 46.192 281.532 45.584ZM285.16 45.584C285.16 44.6773 285.341 43.8827 285.704 43.2C286.077 42.5067 286.589 41.9733 287.24 41.6C287.891 41.2267 288.637 41.04 289.48 41.04C290.547 41.04 291.427 41.296 292.12 41.808C292.824 42.3093 293.299 43.0293 293.544 43.968H291.576C291.416 43.5307 291.16 43.1893 290.808 42.944C290.456 42.6987 290.013 42.576 289.48 42.576C288.733 42.576 288.136 42.8427 287.688 43.376C287.251 43.8987 287.032 44.6347 287.032 45.584C287.032 46.5333 287.251 47.2747 287.688 47.808C288.136 48.3413 288.733 48.608 289.48 48.608C290.536 48.608 291.235 48.144 291.576 47.216H293.544C293.288 48.112 292.808 48.8267 292.104 49.36C291.4 49.8827 290.525 50.144 289.48 50.144C288.637 50.144 287.891 49.9573 287.24 49.584C286.589 49.2 286.077 48.6667 285.704 47.984C285.341 47.2907 285.16 46.4907 285.16 45.584ZM294.754 45.584C294.754 44.6773 294.935 43.8827 295.298 43.2C295.671 42.5067 296.183 41.9733 296.834 41.6C297.484 41.2267 298.231 41.04 299.074 41.04C300.14 41.04 301.02 41.296 301.714 41.808C302.418 42.3093 302.892 43.0293 303.138 43.968H301.17C301.01 43.5307 300.754 43.1893 300.402 42.944C300.05 42.6987 299.607 42.576 299.074 42.576C298.327 42.576 297.73 42.8427 297.282 43.376C296.844 43.8987 296.626 44.6347 296.626 45.584C296.626 46.5333 296.844 47.2747 297.282 47.808C297.73 48.3413 298.327 48.608 299.074 48.608C300.13 48.608 300.828 48.144 301.17 47.216H303.138C302.882 48.112 302.402 48.8267 301.698 49.36C300.994 49.8827 300.119 50.144 299.074 50.144C298.231 50.144 297.484 49.9573 296.834 49.584C296.183 49.2 295.671 48.6667 295.298 47.984C294.935 47.2907 294.754 46.4907 294.754 45.584ZM312.939 41.184V50H311.115V48.96C310.827 49.3227 310.449 49.6107 309.979 49.824C309.521 50.0267 309.03 50.128 308.507 50.128C307.814 50.128 307.19 49.984 306.635 49.696C306.091 49.408 305.659 48.9813 305.339 48.416C305.03 47.8507 304.875 47.168 304.875 46.368V41.184H306.683V46.096C306.683 46.8853 306.881 47.4933 307.275 47.92C307.67 48.336 308.209 48.544 308.891 48.544C309.574 48.544 310.113 48.336 310.507 47.92C310.913 47.4933 311.115 46.8853 311.115 46.096V41.184H312.939ZM326.018 41.04C326.711 41.04 327.33 41.184 327.874 41.472C328.429 41.76 328.861 42.1867 329.17 42.752C329.49 43.3173 329.65 44 329.65 44.8V50H327.842V45.072C327.842 44.2827 327.645 43.68 327.25 43.264C326.855 42.8373 326.317 42.624 325.634 42.624C324.951 42.624 324.407 42.8373 324.002 43.264C323.607 43.68 323.41 44.2827 323.41 45.072V50H321.602V45.072C321.602 44.2827 321.405 43.68 321.01 43.264C320.615 42.8373 320.077 42.624 319.394 42.624C318.711 42.624 318.167 42.8373 317.762 43.264C317.367 43.68 317.17 44.2827 317.17 45.072V50H315.346V41.184H317.17V42.192C317.469 41.8293 317.847 41.5467 318.306 41.344C318.765 41.1413 319.255 41.04 319.778 41.04C320.482 41.04 321.111 41.1893 321.666 41.488C322.221 41.7867 322.647 42.2187 322.946 42.784C323.213 42.2507 323.629 41.8293 324.194 41.52C324.759 41.2 325.367 41.04 326.018 41.04ZM335.171 50.144C334.478 50.144 333.854 50.0213 333.299 49.776C332.755 49.52 332.323 49.1787 332.003 48.752C331.683 48.3147 331.512 47.8293 331.491 47.296H333.379C333.411 47.6693 333.587 47.984 333.907 48.24C334.238 48.4853 334.648 48.608 335.139 48.608C335.651 48.608 336.046 48.512 336.323 48.32C336.611 48.1173 336.755 47.8613 336.755 47.552C336.755 47.2213 336.595 46.976 336.275 46.816C335.966 46.656 335.47 46.48 334.787 46.288C334.126 46.1067 333.587 45.9307 333.171 45.76C332.755 45.5893 332.392 45.328 332.083 44.976C331.784 44.624 331.635 44.16 331.635 43.584C331.635 43.1147 331.774 42.688 332.051 42.304C332.328 41.9093 332.723 41.6 333.235 41.376C333.758 41.152 334.355 41.04 335.027 41.04C336.03 41.04 336.835 41.296 337.443 41.808C338.062 42.3093 338.392 42.9973 338.435 43.872H336.611C336.579 43.4773 336.419 43.1627 336.131 42.928C335.843 42.6933 335.454 42.576 334.963 42.576C334.483 42.576 334.115 42.6667 333.859 42.848C333.603 43.0293 333.475 43.2693 333.475 43.568C333.475 43.8027 333.56 44 333.731 44.16C333.902 44.32 334.11 44.448 334.355 44.544C334.6 44.6293 334.963 44.7413 335.443 44.88C336.083 45.0507 336.606 45.2267 337.011 45.408C337.427 45.5787 337.784 45.8347 338.083 46.176C338.382 46.5173 338.536 46.9707 338.547 47.536C338.547 48.0373 338.408 48.4853 338.131 48.88C337.854 49.2747 337.459 49.584 336.947 49.808C336.446 50.032 335.854 50.144 335.171 50.144ZM339.91 45.552C339.91 44.6667 340.091 43.8827 340.454 43.2C340.827 42.5173 341.329 41.9893 341.958 41.616C342.598 41.232 343.302 41.04 344.07 41.04C344.763 41.04 345.366 41.1787 345.878 41.456C346.401 41.7227 346.817 42.0587 347.126 42.464V41.184H348.966V50H347.126V48.688C346.817 49.104 346.395 49.4507 345.862 49.728C345.329 50.0053 344.721 50.144 344.038 50.144C343.281 50.144 342.587 49.952 341.958 49.568C341.329 49.1733 340.827 48.6293 340.454 47.936C340.091 47.232 339.91 46.4373 339.91 45.552ZM347.126 45.584C347.126 44.976 346.998 44.448 346.742 44C346.497 43.552 346.171 43.2107 345.766 42.976C345.361 42.7413 344.923 42.624 344.454 42.624C343.985 42.624 343.547 42.7413 343.142 42.976C342.737 43.2 342.406 43.536 342.15 43.984C341.905 44.4213 341.782 44.944 341.782 45.552C341.782 46.16 341.905 46.6933 342.15 47.152C342.406 47.6107 342.737 47.9627 343.142 48.208C343.558 48.4427 343.995 48.56 344.454 48.56C344.923 48.56 345.361 48.4427 345.766 48.208C346.171 47.9733 346.497 47.632 346.742 47.184C346.998 46.7253 347.126 46.192 347.126 45.584ZM355.81 41.04C356.503 41.04 357.122 41.184 357.666 41.472C358.22 41.76 358.652 42.1867 358.962 42.752C359.271 43.3173 359.426 44 359.426 44.8V50H357.618V45.072C357.618 44.2827 357.42 43.68 357.026 43.264C356.631 42.8373 356.092 42.624 355.41 42.624C354.727 42.624 354.183 42.8373 353.778 43.264C353.383 43.68 353.186 44.2827 353.186 45.072V50H351.362V41.184H353.186V42.192C353.484 41.8293 353.863 41.5467 354.322 41.344C354.791 41.1413 355.287 41.04 355.81 41.04ZM363.752 47.808L361.816 52.224H360.632L361.768 47.808H363.752ZM372.91 48.368L375.406 41.184H377.342L373.982 50H371.806L368.462 41.184H370.414L372.91 48.368ZM386.801 45.376C386.801 45.7067 386.78 46.0053 386.737 46.272H380.001C380.054 46.976 380.316 47.5413 380.785 47.968C381.254 48.3947 381.83 48.608 382.513 48.608C383.494 48.608 384.188 48.1973 384.593 47.376H386.561C386.294 48.1867 385.809 48.8533 385.105 49.376C384.412 49.888 383.548 50.144 382.513 50.144C381.67 50.144 380.913 49.9573 380.241 49.584C379.58 49.2 379.057 48.6667 378.673 47.984C378.3 47.2907 378.113 46.4907 378.113 45.584C378.113 44.6773 378.294 43.8827 378.657 43.2C379.03 42.5067 379.548 41.9733 380.209 41.6C380.881 41.2267 381.649 41.04 382.513 41.04C383.345 41.04 384.086 41.2213 384.737 41.584C385.388 41.9467 385.894 42.4587 386.257 43.12C386.62 43.7707 386.801 44.5227 386.801 45.376ZM384.897 44.8C384.886 44.128 384.646 43.5893 384.177 43.184C383.708 42.7787 383.126 42.576 382.433 42.576C381.804 42.576 381.265 42.7787 380.817 43.184C380.369 43.5787 380.102 44.1173 380.017 44.8H384.897ZM390.42 38.16V50H388.596V38.16H390.42ZM34.7069 77.584C34.7069 76.6773 34.8882 75.8827 35.2509 75.2C35.6242 74.5067 36.1362 73.9733 36.7869 73.6C37.4375 73.2267 38.1842 73.04 39.0269 73.04C40.0935 73.04 40.9735 73.296 41.6669 73.808C42.3709 74.3093 42.8455 75.0293 43.0909 75.968H41.1229C40.9629 75.5307 40.7069 75.1893 40.3549 74.944C40.0029 74.6987 39.5602 74.576 39.0269 74.576C38.2802 74.576 37.6829 74.8427 37.2349 75.376C36.7975 75.8987 36.5789 76.6347 36.5789 77.584C36.5789 78.5333 36.7975 79.2747 37.2349 79.808C37.6829 80.3413 38.2802 80.608 39.0269 80.608C40.0829 80.608 40.7815 80.144 41.1229 79.216H43.0909C42.8349 80.112 42.3549 80.8267 41.6509 81.36C40.9469 81.8827 40.0722 82.144 39.0269 82.144C38.1842 82.144 37.4375 81.9573 36.7869 81.584C36.1362 81.2 35.6242 80.6667 35.2509 79.984C34.8882 79.2907 34.7069 78.4907 34.7069 77.584ZM48.7326 82.144C47.9006 82.144 47.1486 81.9573 46.4766 81.584C45.8046 81.2 45.2766 80.6667 44.8926 79.984C44.5086 79.2907 44.3166 78.4907 44.3166 77.584C44.3166 76.688 44.514 75.8933 44.9086 75.2C45.3033 74.5067 45.842 73.9733 46.5246 73.6C47.2073 73.2267 47.97 73.04 48.8126 73.04C49.6553 73.04 50.418 73.2267 51.1006 73.6C51.7833 73.9733 52.322 74.5067 52.7166 75.2C53.1113 75.8933 53.3086 76.688 53.3086 77.584C53.3086 78.48 53.106 79.2747 52.7006 79.968C52.2953 80.6613 51.7406 81.2 51.0366 81.584C50.3433 81.9573 49.5753 82.144 48.7326 82.144ZM48.7326 80.56C49.202 80.56 49.6393 80.448 50.0446 80.224C50.4606 80 50.7966 79.664 51.0526 79.216C51.3086 78.768 51.4366 78.224 51.4366 77.584C51.4366 76.944 51.314 76.4053 51.0686 75.968C50.8233 75.52 50.498 75.184 50.0926 74.96C49.6873 74.736 49.25 74.624 48.7806 74.624C48.3113 74.624 47.874 74.736 47.4686 74.96C47.074 75.184 46.7593 75.52 46.5246 75.968C46.29 76.4053 46.1726 76.944 46.1726 77.584C46.1726 78.5333 46.4126 79.2693 46.8926 79.792C47.3833 80.304 47.9966 80.56 48.7326 80.56ZM59.5597 73.04C60.2531 73.04 60.8717 73.184 61.4157 73.472C61.9704 73.76 62.4024 74.1867 62.7117 74.752C63.0211 75.3173 63.1757 76 63.1757 76.8V82H61.3677V77.072C61.3677 76.2827 61.1704 75.68 60.7757 75.264C60.3811 74.8373 59.8424 74.624 59.1597 74.624C58.4771 74.624 57.9331 74.8373 57.5277 75.264C57.1331 75.68 56.9357 76.2827 56.9357 77.072V82H55.1117V73.184H56.9357V74.192C57.2344 73.8293 57.6131 73.5467 58.0717 73.344C58.5411 73.1413 59.0371 73.04 59.5597 73.04ZM68.9104 80.368L71.4064 73.184H73.3424L69.9824 82H67.8064L64.4624 73.184H66.4144L68.9104 80.368ZM74.1131 77.552C74.1131 76.6667 74.2945 75.8827 74.6571 75.2C75.0305 74.5173 75.5318 73.9893 76.1611 73.616C76.8011 73.232 77.5051 73.04 78.2731 73.04C78.9665 73.04 79.5691 73.1787 80.0811 73.456C80.6038 73.7227 81.0198 74.0587 81.3291 74.464V73.184H83.1691V82H81.3291V80.688C81.0198 81.104 80.5985 81.4507 80.0651 81.728C79.5318 82.0053 78.9238 82.144 78.2411 82.144C77.4838 82.144 76.7905 81.952 76.1611 81.568C75.5318 81.1733 75.0305 80.6293 74.6571 79.936C74.2945 79.232 74.1131 78.4373 74.1131 77.552ZM81.3291 77.584C81.3291 76.976 81.2011 76.448 80.9451 76C80.6998 75.552 80.3745 75.2107 79.9691 74.976C79.5638 74.7413 79.1265 74.624 78.6571 74.624C78.1878 74.624 77.7505 74.7413 77.3451 74.976C76.9398 75.2 76.6091 75.536 76.3531 75.984C76.1078 76.4213 75.9851 76.944 75.9851 77.552C75.9851 78.16 76.1078 78.6933 76.3531 79.152C76.6091 79.6107 76.9398 79.9627 77.3451 80.208C77.7611 80.4427 78.1985 80.56 78.6571 80.56C79.1265 80.56 79.5638 80.4427 79.9691 80.208C80.3745 79.9733 80.6998 79.632 80.9451 79.184C81.2011 78.7253 81.3291 78.192 81.3291 77.584ZM87.3889 70.16V82H85.5649V70.16H87.3889ZM91.6076 70.16V82H89.7836V70.16H91.6076ZM94.9304 72.016C94.5997 72.016 94.3224 71.904 94.0984 71.68C93.8744 71.456 93.7624 71.1787 93.7624 70.848C93.7624 70.5173 93.8744 70.24 94.0984 70.016C94.3224 69.792 94.5997 69.68 94.9304 69.68C95.2504 69.68 95.5224 69.792 95.7464 70.016C95.9704 70.24 96.0824 70.5173 96.0824 70.848C96.0824 71.1787 95.9704 71.456 95.7464 71.68C95.5224 71.904 95.2504 72.016 94.9304 72.016ZM95.8264 73.184V82H94.0024V73.184H95.8264ZM101.421 82.144C100.728 82.144 100.104 82.0213 99.5491 81.776C99.0051 81.52 98.5731 81.1787 98.2531 80.752C97.9331 80.3147 97.7625 79.8293 97.7411 79.296H99.6291C99.6611 79.6693 99.8371 79.984 100.157 80.24C100.488 80.4853 100.898 80.608 101.389 80.608C101.901 80.608 102.296 80.512 102.573 80.32C102.861 80.1173 103.005 79.8613 103.005 79.552C103.005 79.2213 102.845 78.976 102.525 78.816C102.216 78.656 101.72 78.48 101.037 78.288C100.376 78.1067 99.8371 77.9307 99.4211 77.76C99.0051 77.5893 98.6425 77.328 98.3331 76.976C98.0345 76.624 97.8851 76.16 97.8851 75.584C97.8851 75.1147 98.0238 74.688 98.3011 74.304C98.5785 73.9093 98.9731 73.6 99.4851 73.376C100.008 73.152 100.605 73.04 101.277 73.04C102.28 73.04 103.085 73.296 103.693 73.808C104.312 74.3093 104.642 74.9973 104.685 75.872H102.861C102.829 75.4773 102.669 75.1627 102.381 74.928C102.093 74.6933 101.704 74.576 101.213 74.576C100.733 74.576 100.365 74.6667 100.109 74.848C99.8531 75.0293 99.7251 75.2693 99.7251 75.568C99.7251 75.8027 99.8105 76 99.9811 76.16C100.152 76.32 100.36 76.448 100.605 76.544C100.85 76.6293 101.213 76.7413 101.693 76.88C102.333 77.0507 102.856 77.2267 103.261 77.408C103.677 77.5787 104.034 77.8347 104.333 78.176C104.632 78.5173 104.786 78.9707 104.797 79.536C104.797 80.0373 104.658 80.4853 104.381 80.88C104.104 81.2747 103.709 81.584 103.197 81.808C102.696 82.032 102.104 82.144 101.421 82.144ZM114.124 82.144C113.431 82.144 112.807 82.0213 112.252 81.776C111.708 81.52 111.276 81.1787 110.956 80.752C110.636 80.3147 110.466 79.8293 110.444 79.296H112.332C112.364 79.6693 112.54 79.984 112.86 80.24C113.191 80.4853 113.602 80.608 114.092 80.608C114.604 80.608 114.999 80.512 115.276 80.32C115.564 80.1173 115.708 79.8613 115.708 79.552C115.708 79.2213 115.548 78.976 115.228 78.816C114.919 78.656 114.423 78.48 113.74 78.288C113.079 78.1067 112.54 77.9307 112.124 77.76C111.708 77.5893 111.346 77.328 111.036 76.976C110.738 76.624 110.588 76.16 110.588 75.584C110.588 75.1147 110.727 74.688 111.004 74.304C111.282 73.9093 111.676 73.6 112.188 73.376C112.711 73.152 113.308 73.04 113.98 73.04C114.983 73.04 115.788 73.296 116.396 73.808C117.015 74.3093 117.346 74.9973 117.388 75.872H115.564C115.532 75.4773 115.372 75.1627 115.084 74.928C114.796 74.6933 114.407 74.576 113.916 74.576C113.436 74.576 113.068 74.6667 112.812 74.848C112.556 75.0293 112.428 75.2693 112.428 75.568C112.428 75.8027 112.514 76 112.684 76.16C112.855 76.32 113.063 76.448 113.308 76.544C113.554 76.6293 113.916 76.7413 114.396 76.88C115.036 77.0507 115.559 77.2267 115.964 77.408C116.38 77.5787 116.738 77.8347 117.036 78.176C117.335 78.5173 117.49 78.9707 117.5 79.536C117.5 80.0373 117.362 80.4853 117.084 80.88C116.807 81.2747 116.412 81.584 115.9 81.808C115.399 82.032 114.807 82.144 114.124 82.144ZM127.551 77.376C127.551 77.7067 127.53 78.0053 127.487 78.272H120.751C120.804 78.976 121.066 79.5413 121.535 79.968C122.004 80.3947 122.58 80.608 123.263 80.608C124.244 80.608 124.938 80.1973 125.343 79.376H127.311C127.044 80.1867 126.559 80.8533 125.855 81.376C125.162 81.888 124.298 82.144 123.263 82.144C122.42 82.144 121.663 81.9573 120.991 81.584C120.33 81.2 119.807 80.6667 119.423 79.984C119.05 79.2907 118.863 78.4907 118.863 77.584C118.863 76.6773 119.044 75.8827 119.407 75.2C119.78 74.5067 120.298 73.9733 120.959 73.6C121.631 73.2267 122.399 73.04 123.263 73.04C124.095 73.04 124.836 73.2213 125.487 73.584C126.138 73.9467 126.644 74.4587 127.007 75.12C127.37 75.7707 127.551 76.5227 127.551 77.376ZM125.647 76.8C125.636 76.128 125.396 75.5893 124.927 75.184C124.458 74.7787 123.876 74.576 123.183 74.576C122.554 74.576 122.015 74.7787 121.567 75.184C121.119 75.5787 120.852 76.1173 120.767 76.8H125.647ZM140.018 73.04C140.711 73.04 141.33 73.184 141.874 73.472C142.429 73.76 142.861 74.1867 143.17 74.752C143.49 75.3173 143.65 76 143.65 76.8V82H141.842V77.072C141.842 76.2827 141.645 75.68 141.25 75.264C140.855 74.8373 140.317 74.624 139.634 74.624C138.951 74.624 138.407 74.8373 138.002 75.264C137.607 75.68 137.41 76.2827 137.41 77.072V82H135.602V77.072C135.602 76.2827 135.405 75.68 135.01 75.264C134.615 74.8373 134.077 74.624 133.394 74.624C132.711 74.624 132.167 74.8373 131.762 75.264C131.367 75.68 131.17 76.2827 131.17 77.072V82H129.346V73.184H131.17V74.192C131.469 73.8293 131.847 73.5467 132.306 73.344C132.765 73.1413 133.255 73.04 133.778 73.04C134.482 73.04 135.111 73.1893 135.666 73.488C136.221 73.7867 136.647 74.2187 136.946 74.784C137.213 74.2507 137.629 73.8293 138.194 73.52C138.759 73.2 139.367 73.04 140.018 73.04ZM160.799 73.04C161.493 73.04 162.111 73.184 162.655 73.472C163.21 73.76 163.642 74.1867 163.951 74.752C164.271 75.3173 164.431 76 164.431 76.8V82H162.623V77.072C162.623 76.2827 162.426 75.68 162.031 75.264C161.637 74.8373 161.098 74.624 160.415 74.624C159.733 74.624 159.189 74.8373 158.783 75.264C158.389 75.68 158.191 76.2827 158.191 77.072V82H156.383V77.072C156.383 76.2827 156.186 75.68 155.791 75.264C155.397 74.8373 154.858 74.624 154.175 74.624C153.493 74.624 152.949 74.8373 152.543 75.264C152.149 75.68 151.951 76.2827 151.951 77.072V82H150.127V73.184H151.951V74.192C152.25 73.8293 152.629 73.5467 153.087 73.344C153.546 73.1413 154.037 73.04 154.559 73.04C155.263 73.04 155.893 73.1893 156.447 73.488C157.002 73.7867 157.429 74.2187 157.727 74.784C157.994 74.2507 158.41 73.8293 158.975 73.52C159.541 73.2 160.149 73.04 160.799 73.04ZM166.144 77.552C166.144 76.6667 166.326 75.8827 166.688 75.2C167.062 74.5173 167.563 73.9893 168.192 73.616C168.832 73.232 169.536 73.04 170.304 73.04C170.998 73.04 171.6 73.1787 172.112 73.456C172.635 73.7227 173.051 74.0587 173.36 74.464V73.184H175.2V82H173.36V80.688C173.051 81.104 172.63 81.4507 172.096 81.728C171.563 82.0053 170.955 82.144 170.272 82.144C169.515 82.144 168.822 81.952 168.192 81.568C167.563 81.1733 167.062 80.6293 166.688 79.936C166.326 79.232 166.144 78.4373 166.144 77.552ZM173.36 77.584C173.36 76.976 173.232 76.448 172.976 76C172.731 75.552 172.406 75.2107 172 74.976C171.595 74.7413 171.158 74.624 170.688 74.624C170.219 74.624 169.782 74.7413 169.376 74.976C168.971 75.2 168.64 75.536 168.384 75.984C168.139 76.4213 168.016 76.944 168.016 77.552C168.016 78.16 168.139 78.6933 168.384 79.152C168.64 79.6107 168.971 79.9627 169.376 80.208C169.792 80.4427 170.23 80.56 170.688 80.56C171.158 80.56 171.595 80.4427 172 80.208C172.406 79.9733 172.731 79.632 172.976 79.184C173.232 78.7253 173.36 78.192 173.36 77.584ZM181.372 77.536L184.22 82H182.156L180.252 79.008L178.46 82H176.556L179.404 77.664L176.556 73.184H178.62L180.524 76.176L182.316 73.184H184.22L181.372 77.536ZM186.508 72.016C186.178 72.016 185.9 71.904 185.676 71.68C185.452 71.456 185.34 71.1787 185.34 70.848C185.34 70.5173 185.452 70.24 185.676 70.016C185.9 69.792 186.178 69.68 186.508 69.68C186.828 69.68 187.1 69.792 187.324 70.016C187.548 70.24 187.66 70.5173 187.66 70.848C187.66 71.1787 187.548 71.456 187.324 71.68C187.1 71.904 186.828 72.016 186.508 72.016ZM187.404 73.184V82H185.58V73.184H187.404ZM200.471 73.04C201.165 73.04 201.783 73.184 202.327 73.472C202.882 73.76 203.314 74.1867 203.623 74.752C203.943 75.3173 204.103 76 204.103 76.8V82H202.295V77.072C202.295 76.2827 202.098 75.68 201.703 75.264C201.309 74.8373 200.77 74.624 200.087 74.624C199.405 74.624 198.861 74.8373 198.455 75.264C198.061 75.68 197.863 76.2827 197.863 77.072V82H196.055V77.072C196.055 76.2827 195.858 75.68 195.463 75.264C195.069 74.8373 194.53 74.624 193.847 74.624C193.165 74.624 192.621 74.8373 192.215 75.264C191.821 75.68 191.623 76.2827 191.623 77.072V82H189.799V73.184H191.623V74.192C191.922 73.8293 192.301 73.5467 192.759 73.344C193.218 73.1413 193.709 73.04 194.231 73.04C194.935 73.04 195.565 73.1893 196.119 73.488C196.674 73.7867 197.101 74.2187 197.399 74.784C197.666 74.2507 198.082 73.8293 198.647 73.52C199.213 73.2 199.821 73.04 200.471 73.04ZM214.408 73.184V82H212.584V80.96C212.296 81.3227 211.918 81.6107 211.448 81.824C210.99 82.0267 210.499 82.128 209.976 82.128C209.283 82.128 208.659 81.984 208.104 81.696C207.56 81.408 207.128 80.9813 206.808 80.416C206.499 79.8507 206.344 79.168 206.344 78.368V73.184H208.152V78.096C208.152 78.8853 208.35 79.4933 208.744 79.92C209.139 80.336 209.678 80.544 210.36 80.544C211.043 80.544 211.582 80.336 211.976 79.92C212.382 79.4933 212.584 78.8853 212.584 78.096V73.184H214.408ZM220.015 82.144C219.322 82.144 218.698 82.0213 218.143 81.776C217.599 81.52 217.167 81.1787 216.847 80.752C216.527 80.3147 216.356 79.8293 216.335 79.296H218.223C218.255 79.6693 218.431 79.984 218.751 80.24C219.082 80.4853 219.492 80.608 219.983 80.608C220.495 80.608 220.89 80.512 221.167 80.32C221.455 80.1173 221.599 79.8613 221.599 79.552C221.599 79.2213 221.439 78.976 221.119 78.816C220.81 78.656 220.314 78.48 219.631 78.288C218.97 78.1067 218.431 77.9307 218.015 77.76C217.599 77.5893 217.236 77.328 216.927 76.976C216.628 76.624 216.479 76.16 216.479 75.584C216.479 75.1147 216.618 74.688 216.895 74.304C217.172 73.9093 217.567 73.6 218.079 73.376C218.602 73.152 219.199 73.04 219.871 73.04C220.874 73.04 221.679 73.296 222.287 73.808C222.906 74.3093 223.236 74.9973 223.279 75.872H221.455C221.423 75.4773 221.263 75.1627 220.975 74.928C220.687 74.6933 220.298 74.576 219.807 74.576C219.327 74.576 218.959 74.6667 218.703 74.848C218.447 75.0293 218.319 75.2693 218.319 75.568C218.319 75.8027 218.404 76 218.575 76.16C218.746 76.32 218.954 76.448 219.199 76.544C219.444 76.6293 219.807 76.7413 220.287 76.88C220.927 77.0507 221.45 77.2267 221.855 77.408C222.271 77.5787 222.628 77.8347 222.927 78.176C223.226 78.5173 223.38 78.9707 223.391 79.536C223.391 80.0373 223.252 80.4853 222.975 80.88C222.698 81.2747 222.303 81.584 221.791 81.808C221.29 82.032 220.698 82.144 220.015 82.144ZM226.098 82.112C225.767 82.112 225.49 82 225.266 81.776C225.042 81.552 224.93 81.2747 224.93 80.944C224.93 80.6133 225.042 80.336 225.266 80.112C225.49 79.888 225.767 79.776 226.098 79.776C226.418 79.776 226.69 79.888 226.914 80.112C227.138 80.336 227.25 80.6133 227.25 80.944C227.25 81.2747 227.138 81.552 226.914 81.776C226.69 82 226.418 82.112 226.098 82.112ZM238.449 82.112C237.415 82.112 236.46 81.872 235.585 81.392C234.721 80.9013 234.033 80.224 233.521 79.36C233.02 78.4853 232.769 77.504 232.769 76.416C232.769 75.328 233.02 74.352 233.521 73.488C234.033 72.624 234.721 71.952 235.585 71.472C236.46 70.9813 237.415 70.736 238.449 70.736C239.495 70.736 240.449 70.9813 241.313 71.472C242.188 71.952 242.876 72.624 243.377 73.488C243.879 74.352 244.129 75.328 244.129 76.416C244.129 77.504 243.879 78.4853 243.377 79.36C242.876 80.224 242.188 80.9013 241.313 81.392C240.449 81.872 239.495 82.112 238.449 82.112ZM238.449 80.528C239.185 80.528 239.841 80.3627 240.417 80.032C240.993 79.6907 241.441 79.2107 241.761 78.592C242.092 77.9627 242.257 77.2373 242.257 76.416C242.257 75.5947 242.092 74.8747 241.761 74.256C241.441 73.6373 240.993 73.1627 240.417 72.832C239.841 72.5013 239.185 72.336 238.449 72.336C237.713 72.336 237.057 72.5013 236.481 72.832C235.905 73.1627 235.452 73.6373 235.121 74.256C234.801 74.8747 234.641 75.5947 234.641 76.416C234.641 77.2373 234.801 77.9627 235.121 78.592C235.452 79.2107 235.905 79.6907 236.481 80.032C237.057 80.3627 237.713 80.528 238.449 80.528ZM247.748 74.464C248.015 74.016 248.367 73.6693 248.804 73.424C249.252 73.168 249.78 73.04 250.388 73.04V74.928H249.924C249.21 74.928 248.666 75.1093 248.292 75.472C247.93 75.8347 247.748 76.464 247.748 77.36V82H245.924V73.184H247.748V74.464ZM251.457 77.584C251.457 76.6773 251.638 75.8827 252.001 75.2C252.374 74.5067 252.886 73.9733 253.537 73.6C254.188 73.2267 254.934 73.04 255.777 73.04C256.844 73.04 257.724 73.296 258.417 73.808C259.121 74.3093 259.596 75.0293 259.841 75.968H257.873C257.713 75.5307 257.457 75.1893 257.105 74.944C256.753 74.6987 256.31 74.576 255.777 74.576C255.03 74.576 254.433 74.8427 253.985 75.376C253.548 75.8987 253.329 76.6347 253.329 77.584C253.329 78.5333 253.548 79.2747 253.985 79.808C254.433 80.3413 255.03 80.608 255.777 80.608C256.833 80.608 257.532 80.144 257.873 79.216H259.841C259.585 80.112 259.105 80.8267 258.401 81.36C257.697 81.8827 256.822 82.144 255.777 82.144C254.934 82.144 254.188 81.9573 253.537 81.584C252.886 81.2 252.374 80.6667 252.001 79.984C251.638 79.2907 251.457 78.4907 251.457 77.584ZM262.587 72.016C262.256 72.016 261.979 71.904 261.755 71.68C261.531 71.456 261.419 71.1787 261.419 70.848C261.419 70.5173 261.531 70.24 261.755 70.016C261.979 69.792 262.256 69.68 262.587 69.68C262.907 69.68 263.179 69.792 263.403 70.016C263.627 70.24 263.739 70.5173 263.739 70.848C263.739 71.1787 263.627 71.456 263.403 71.68C263.179 71.904 262.907 72.016 262.587 72.016ZM263.483 73.184V82H261.659V73.184H263.483ZM273.442 80.368L275.938 73.184H277.874L274.514 82H272.338L268.994 73.184H270.946L273.442 80.368ZM278.644 77.552C278.644 76.6667 278.826 75.8827 279.188 75.2C279.562 74.5173 280.063 73.9893 280.692 73.616C281.332 73.232 282.036 73.04 282.804 73.04C283.498 73.04 284.1 73.1787 284.612 73.456C285.135 73.7227 285.551 74.0587 285.86 74.464V73.184H287.7V82H285.86V80.688C285.551 81.104 285.13 81.4507 284.596 81.728C284.063 82.0053 283.455 82.144 282.772 82.144C282.015 82.144 281.322 81.952 280.692 81.568C280.063 81.1733 279.562 80.6293 279.188 79.936C278.826 79.232 278.644 78.4373 278.644 77.552ZM285.86 77.584C285.86 76.976 285.732 76.448 285.476 76C285.231 75.552 284.906 75.2107 284.5 74.976C284.095 74.7413 283.658 74.624 283.188 74.624C282.719 74.624 282.282 74.7413 281.876 74.976C281.471 75.2 281.14 75.536 280.884 75.984C280.639 76.4213 280.516 76.944 280.516 77.552C280.516 78.16 280.639 78.6933 280.884 79.152C281.14 79.6107 281.471 79.9627 281.876 80.208C282.292 80.4427 282.73 80.56 283.188 80.56C283.658 80.56 284.095 80.4427 284.5 80.208C284.906 79.9733 285.231 79.632 285.476 79.184C285.732 78.7253 285.86 78.192 285.86 77.584ZM291.92 74.464C292.187 74.016 292.539 73.6693 292.976 73.424C293.424 73.168 293.952 73.04 294.56 73.04V74.928H294.096C293.381 74.928 292.837 75.1093 292.464 75.472C292.101 75.8347 291.92 76.464 291.92 77.36V82H290.096V73.184H291.92V74.464ZM297.165 72.016C296.834 72.016 296.557 71.904 296.333 71.68C296.109 71.456 295.997 71.1787 295.997 70.848C295.997 70.5173 296.109 70.24 296.333 70.016C296.557 69.792 296.834 69.68 297.165 69.68C297.485 69.68 297.757 69.792 297.981 70.016C298.205 70.24 298.317 70.5173 298.317 70.848C298.317 71.1787 298.205 71.456 297.981 71.68C297.757 71.904 297.485 72.016 297.165 72.016ZM298.061 73.184V82H296.237V73.184H298.061ZM308.439 73.184V82H306.615V80.96C306.327 81.3227 305.949 81.6107 305.479 81.824C305.021 82.0267 304.53 82.128 304.007 82.128C303.314 82.128 302.69 81.984 302.135 81.696C301.591 81.408 301.159 80.9813 300.839 80.416C300.53 79.8507 300.375 79.168 300.375 78.368V73.184H302.183V78.096C302.183 78.8853 302.381 79.4933 302.775 79.92C303.17 80.336 303.709 80.544 304.391 80.544C305.074 80.544 305.613 80.336 306.007 79.92C306.413 79.4933 306.615 78.8853 306.615 78.096V73.184H308.439ZM314.046 82.144C313.353 82.144 312.729 82.0213 312.174 81.776C311.63 81.52 311.198 81.1787 310.878 80.752C310.558 80.3147 310.387 79.8293 310.366 79.296H312.254C312.286 79.6693 312.462 79.984 312.782 80.24C313.113 80.4853 313.523 80.608 314.014 80.608C314.526 80.608 314.921 80.512 315.198 80.32C315.486 80.1173 315.63 79.8613 315.63 79.552C315.63 79.2213 315.47 78.976 315.15 78.816C314.841 78.656 314.345 78.48 313.662 78.288C313.001 78.1067 312.462 77.9307 312.046 77.76C311.63 77.5893 311.267 77.328 310.958 76.976C310.659 76.624 310.51 76.16 310.51 75.584C310.51 75.1147 310.649 74.688 310.926 74.304C311.203 73.9093 311.598 73.6 312.11 73.376C312.633 73.152 313.23 73.04 313.902 73.04C314.905 73.04 315.71 73.296 316.318 73.808C316.937 74.3093 317.267 74.9973 317.31 75.872H315.486C315.454 75.4773 315.294 75.1627 315.006 74.928C314.718 74.6933 314.329 74.576 313.838 74.576C313.358 74.576 312.99 74.6667 312.734 74.848C312.478 75.0293 312.35 75.2693 312.35 75.568C312.35 75.8027 312.435 76 312.606 76.16C312.777 76.32 312.985 76.448 313.23 76.544C313.475 76.6293 313.838 76.7413 314.318 76.88C314.958 77.0507 315.481 77.2267 315.886 77.408C316.302 77.5787 316.659 77.8347 316.958 78.176C317.257 78.5173 317.411 78.9707 317.422 79.536C317.422 80.0373 317.283 80.4853 317.006 80.88C316.729 81.2747 316.334 81.584 315.822 81.808C315.321 82.032 314.729 82.144 314.046 82.144ZM327.997 73.04C328.691 73.04 329.309 73.184 329.853 73.472C330.408 73.76 330.84 74.1867 331.149 74.752C331.459 75.3173 331.613 76 331.613 76.8V82H329.805V77.072C329.805 76.2827 329.608 75.68 329.213 75.264C328.819 74.8373 328.28 74.624 327.597 74.624C326.915 74.624 326.371 74.8373 325.965 75.264C325.571 75.68 325.373 76.2827 325.373 77.072V82H323.549V73.184H325.373V74.192C325.672 73.8293 326.051 73.5467 326.509 73.344C326.979 73.1413 327.475 73.04 327.997 73.04ZM333.332 77.552C333.332 76.6667 333.513 75.8827 333.876 75.2C334.249 74.5173 334.751 73.9893 335.38 73.616C336.02 73.232 336.724 73.04 337.492 73.04C338.185 73.04 338.788 73.1787 339.3 73.456C339.823 73.7227 340.239 74.0587 340.548 74.464V73.184H342.388V82H340.548V80.688C340.239 81.104 339.817 81.4507 339.284 81.728C338.751 82.0053 338.143 82.144 337.46 82.144C336.703 82.144 336.009 81.952 335.38 81.568C334.751 81.1733 334.249 80.6293 333.876 79.936C333.513 79.232 333.332 78.4373 333.332 77.552ZM340.548 77.584C340.548 76.976 340.42 76.448 340.164 76C339.919 75.552 339.593 75.2107 339.188 74.976C338.783 74.7413 338.345 74.624 337.876 74.624C337.407 74.624 336.969 74.7413 336.564 74.976C336.159 75.2 335.828 75.536 335.572 75.984C335.327 76.4213 335.204 76.944 335.204 77.552C335.204 78.16 335.327 78.6933 335.572 79.152C335.828 79.6107 336.159 79.9627 336.564 80.208C336.98 80.4427 337.417 80.56 337.876 80.56C338.345 80.56 338.783 80.4427 339.188 80.208C339.593 79.9733 339.919 79.632 340.164 79.184C340.42 78.7253 340.548 78.192 340.548 77.584ZM346.912 74.672V79.552C346.912 79.8827 346.986 80.1227 347.136 80.272C347.296 80.4107 347.562 80.48 347.936 80.48H349.056V82H347.616C346.794 82 346.165 81.808 345.728 81.424C345.29 81.04 345.072 80.416 345.072 79.552V74.672H344.032V73.184H345.072V70.992H346.912V73.184H349.056V74.672H346.912ZM354.561 82.144C353.729 82.144 352.977 81.9573 352.305 81.584C351.633 81.2 351.105 80.6667 350.721 79.984C350.337 79.2907 350.145 78.4907 350.145 77.584C350.145 76.688 350.342 75.8933 350.737 75.2C351.131 74.5067 351.67 73.9733 352.353 73.6C353.035 73.2267 353.798 73.04 354.641 73.04C355.483 73.04 356.246 73.2267 356.929 73.6C357.611 73.9733 358.15 74.5067 358.545 75.2C358.939 75.8933 359.137 76.688 359.137 77.584C359.137 78.48 358.934 79.2747 358.529 79.968C358.123 80.6613 357.569 81.2 356.865 81.584C356.171 81.9573 355.403 82.144 354.561 82.144ZM354.561 80.56C355.03 80.56 355.467 80.448 355.873 80.224C356.289 80 356.625 79.664 356.881 79.216C357.137 78.768 357.265 78.224 357.265 77.584C357.265 76.944 357.142 76.4053 356.897 75.968C356.651 75.52 356.326 75.184 355.921 74.96C355.515 74.736 355.078 74.624 354.609 74.624C354.139 74.624 353.702 74.736 353.297 74.96C352.902 75.184 352.587 75.52 352.353 75.968C352.118 76.4053 352.001 76.944 352.001 77.584C352.001 78.5333 352.241 79.2693 352.721 79.792C353.211 80.304 353.825 80.56 354.561 80.56ZM360.332 77.552C360.332 76.6667 360.513 75.8827 360.876 75.2C361.249 74.5173 361.751 73.9893 362.38 73.616C363.02 73.232 363.729 73.04 364.508 73.04C365.191 73.04 365.793 73.1787 366.316 73.456C366.849 73.7333 367.26 74.0693 367.548 74.464V73.184H369.388V86.192H367.548V80.72C367.26 81.1147 366.844 81.4507 366.3 81.728C365.756 82.0053 365.137 82.144 364.444 82.144C363.687 82.144 362.993 81.952 362.364 81.568C361.745 81.1733 361.249 80.6293 360.876 79.936C360.513 79.232 360.332 78.4373 360.332 77.552ZM367.548 77.584C367.548 76.976 367.42 76.448 367.164 76C366.919 75.552 366.593 75.2107 366.188 74.976C365.783 74.7413 365.345 74.624 364.876 74.624C364.407 74.624 363.969 74.7413 363.564 74.976C363.159 75.2 362.828 75.536 362.572 75.984C362.327 76.4213 362.204 76.944 362.204 77.552C362.204 78.16 362.327 78.6933 362.572 79.152C362.828 79.6107 363.159 79.9627 363.564 80.208C363.98 80.4427 364.417 80.56 364.876 80.56C365.345 80.56 365.783 80.4427 366.188 80.208C366.593 79.9733 366.919 79.632 367.164 79.184C367.42 78.7253 367.548 78.192 367.548 77.584ZM379.768 73.184V82H377.944V80.96C377.656 81.3227 377.277 81.6107 376.808 81.824C376.349 82.0267 375.858 82.128 375.336 82.128C374.642 82.128 374.018 81.984 373.464 81.696C372.92 81.408 372.488 80.9813 372.168 80.416C371.858 79.8507 371.704 79.168 371.704 78.368V73.184H373.512V78.096C373.512 78.8853 373.709 79.4933 374.104 79.92C374.498 80.336 375.037 80.544 375.72 80.544C376.402 80.544 376.941 80.336 377.336 79.92C377.741 79.4933 377.944 78.8853 377.944 78.096V73.184H379.768ZM390.254 77.376C390.254 77.7067 390.233 78.0053 390.19 78.272H383.454C383.508 78.976 383.769 79.5413 384.238 79.968C384.708 80.3947 385.284 80.608 385.966 80.608C386.948 80.608 387.641 80.1973 388.046 79.376H390.014C389.748 80.1867 389.262 80.8533 388.558 81.376C387.865 81.888 387.001 82.144 385.966 82.144C385.124 82.144 384.366 81.9573 383.694 81.584C383.033 81.2 382.51 80.6667 382.126 79.984C381.753 79.2907 381.566 78.4907 381.566 77.584C381.566 76.6773 381.748 75.8827 382.11 75.2C382.484 74.5067 383.001 73.9733 383.662 73.6C384.334 73.2267 385.102 73.04 385.966 73.04C386.798 73.04 387.54 73.2213 388.19 73.584C388.841 73.9467 389.348 74.4587 389.71 75.12C390.073 75.7707 390.254 76.5227 390.254 77.376ZM388.35 76.8C388.34 76.128 388.1 75.5893 387.63 75.184C387.161 74.7787 386.58 74.576 385.886 74.576C385.257 74.576 384.718 74.7787 384.27 75.184C383.822 75.5787 383.556 76.1173 383.47 76.8H388.35ZM37.1389 106.48C37.4482 106.075 37.8695 105.733 38.4029 105.456C38.9362 105.179 39.5389 105.04 40.2109 105.04C40.9789 105.04 41.6775 105.232 42.3069 105.616C42.9469 105.989 43.4482 106.517 43.8109 107.2C44.1735 107.883 44.3549 108.667 44.3549 109.552C44.3549 110.437 44.1735 111.232 43.8109 111.936C43.4482 112.629 42.9469 113.173 42.3069 113.568C41.6775 113.952 40.9789 114.144 40.2109 114.144C39.5389 114.144 38.9415 114.011 38.4189 113.744C37.8962 113.467 37.4695 113.125 37.1389 112.72V118.192H35.3149V105.184H37.1389V106.48ZM42.4989 109.552C42.4989 108.944 42.3709 108.421 42.1149 107.984C41.8695 107.536 41.5389 107.2 41.1229 106.976C40.7175 106.741 40.2802 106.624 39.8109 106.624C39.3522 106.624 38.9149 106.741 38.4989 106.976C38.0935 107.211 37.7629 107.552 37.5069 108C37.2615 108.448 37.1389 108.976 37.1389 109.584C37.1389 110.192 37.2615 110.725 37.5069 111.184C37.7629 111.632 38.0935 111.973 38.4989 112.208C38.9149 112.443 39.3522 112.56 39.8109 112.56C40.2802 112.56 40.7175 112.443 41.1229 112.208C41.5389 111.963 41.8695 111.611 42.1149 111.152C42.3709 110.693 42.4989 110.16 42.4989 109.552ZM54.2386 109.376C54.2386 109.707 54.2173 110.005 54.1746 110.272H47.4386C47.492 110.976 47.7533 111.541 48.2226 111.968C48.692 112.395 49.268 112.608 49.9506 112.608C50.932 112.608 51.6253 112.197 52.0306 111.376H53.9986C53.732 112.187 53.2466 112.853 52.5426 113.376C51.8493 113.888 50.9853 114.144 49.9506 114.144C49.108 114.144 48.3506 113.957 47.6786 113.584C47.0173 113.2 46.4946 112.667 46.1106 111.984C45.7373 111.291 45.5506 110.491 45.5506 109.584C45.5506 108.677 45.732 107.883 46.0946 107.2C46.468 106.507 46.9853 105.973 47.6466 105.6C48.3186 105.227 49.0866 105.04 49.9506 105.04C50.7826 105.04 51.524 105.221 52.1746 105.584C52.8253 105.947 53.332 106.459 53.6946 107.12C54.0573 107.771 54.2386 108.523 54.2386 109.376ZM52.3346 108.8C52.324 108.128 52.084 107.589 51.6146 107.184C51.1453 106.779 50.564 106.576 49.8706 106.576C49.2413 106.576 48.7026 106.779 48.2546 107.184C47.8066 107.579 47.54 108.117 47.4546 108.8H52.3346ZM60.4816 105.04C61.175 105.04 61.7936 105.184 62.3376 105.472C62.8923 105.76 63.3243 106.187 63.6336 106.752C63.943 107.317 64.0976 108 64.0976 108.8V114H62.2896V109.072C62.2896 108.283 62.0923 107.68 61.6976 107.264C61.303 106.837 60.7643 106.624 60.0816 106.624C59.399 106.624 58.855 106.837 58.4496 107.264C58.055 107.68 57.8576 108.283 57.8576 109.072V114H56.0336V105.184H57.8576V106.192C58.1563 105.829 58.535 105.547 58.9936 105.344C59.463 105.141 59.959 105.04 60.4816 105.04ZM65.8162 109.552C65.8162 108.667 65.9976 107.883 66.3602 107.2C66.7336 106.517 67.2349 105.989 67.8642 105.616C68.5042 105.232 69.2082 105.04 69.9762 105.04C70.6696 105.04 71.2722 105.179 71.7842 105.456C72.3069 105.723 72.7229 106.059 73.0322 106.464V105.184H74.8722V114H73.0322V112.688C72.7229 113.104 72.3016 113.451 71.7682 113.728C71.2349 114.005 70.6269 114.144 69.9442 114.144C69.1869 114.144 68.4936 113.952 67.8642 113.568C67.2349 113.173 66.7336 112.629 66.3602 111.936C65.9976 111.232 65.8162 110.437 65.8162 109.552ZM73.0322 109.584C73.0322 108.976 72.9042 108.448 72.6482 108C72.4029 107.552 72.0776 107.211 71.6722 106.976C71.2669 106.741 70.8296 106.624 70.3602 106.624C69.8909 106.624 69.4536 106.741 69.0482 106.976C68.6429 107.2 68.3122 107.536 68.0562 107.984C67.8109 108.421 67.6882 108.944 67.6882 109.552C67.6882 110.16 67.8109 110.693 68.0562 111.152C68.3122 111.611 68.6429 111.963 69.0482 112.208C69.4642 112.443 69.9016 112.56 70.3602 112.56C70.8296 112.56 71.2669 112.443 71.6722 112.208C72.0776 111.973 72.4029 111.632 72.6482 111.184C72.9042 110.725 73.0322 110.192 73.0322 109.584ZM79.396 106.672V111.552C79.396 111.883 79.4707 112.123 79.62 112.272C79.78 112.411 80.0467 112.48 80.42 112.48H81.54V114H80.1C79.2787 114 78.6493 113.808 78.212 113.424C77.7747 113.04 77.556 112.416 77.556 111.552V106.672H76.516V105.184H77.556V102.992H79.396V105.184H81.54V106.672H79.396ZM84.1491 104.016C83.8185 104.016 83.5411 103.904 83.3171 103.68C83.0931 103.456 82.9811 103.179 82.9811 102.848C82.9811 102.517 83.0931 102.24 83.3171 102.016C83.5411 101.792 83.8185 101.68 84.1491 101.68C84.4691 101.68 84.7411 101.792 84.9651 102.016C85.1891 102.24 85.3011 102.517 85.3011 102.848C85.3011 103.179 85.1891 103.456 84.9651 103.68C84.7411 103.904 84.4691 104.016 84.1491 104.016ZM85.0451 105.184V114H83.2211V105.184H85.0451ZM89.2639 106.496C89.5732 106.069 89.9945 105.723 90.5279 105.456C91.0719 105.179 91.6745 105.04 92.3359 105.04C93.1145 105.04 93.8185 105.227 94.4479 105.6C95.0772 105.973 95.5732 106.507 95.9359 107.2C96.2985 107.883 96.4799 108.667 96.4799 109.552C96.4799 110.437 96.2985 111.232 95.9359 111.936C95.5732 112.629 95.0719 113.173 94.4319 113.568C93.8025 113.952 93.1039 114.144 92.3359 114.144C91.6532 114.144 91.0452 114.011 90.5119 113.744C89.9892 113.477 89.5732 113.136 89.2639 112.72V114H87.4399V102.16H89.2639V106.496ZM94.6239 109.552C94.6239 108.944 94.4959 108.421 94.2399 107.984C93.9945 107.536 93.6639 107.2 93.2479 106.976C92.8425 106.741 92.4052 106.624 91.9359 106.624C91.4772 106.624 91.0399 106.741 90.6239 106.976C90.2185 107.211 89.8879 107.552 89.6319 108C89.3865 108.448 89.2639 108.976 89.2639 109.584C89.2639 110.192 89.3865 110.725 89.6319 111.184C89.8879 111.632 90.2185 111.973 90.6239 112.208C91.0399 112.443 91.4772 112.56 91.9359 112.56C92.4052 112.56 92.8425 112.443 93.2479 112.208C93.6639 111.963 93.9945 111.611 94.2399 111.152C94.4959 110.693 94.6239 110.16 94.6239 109.552ZM106.268 105.184V114H104.444V112.96C104.156 113.323 103.777 113.611 103.308 113.824C102.849 114.027 102.358 114.128 101.836 114.128C101.142 114.128 100.518 113.984 99.9636 113.696C99.4196 113.408 98.9876 112.981 98.6676 112.416C98.3583 111.851 98.2036 111.168 98.2036 110.368V105.184H100.012V110.096C100.012 110.885 100.209 111.493 100.604 111.92C100.998 112.336 101.537 112.544 102.22 112.544C102.902 112.544 103.441 112.336 103.836 111.92C104.241 111.493 104.444 110.885 104.444 110.096V105.184H106.268ZM111.874 114.144C111.181 114.144 110.557 114.021 110.002 113.776C109.458 113.52 109.026 113.179 108.706 112.752C108.386 112.315 108.216 111.829 108.194 111.296H110.082C110.114 111.669 110.29 111.984 110.61 112.24C110.941 112.485 111.352 112.608 111.842 112.608C112.354 112.608 112.749 112.512 113.026 112.32C113.314 112.117 113.458 111.861 113.458 111.552C113.458 111.221 113.298 110.976 112.978 110.816C112.669 110.656 112.173 110.48 111.49 110.288C110.829 110.107 110.29 109.931 109.874 109.76C109.458 109.589 109.096 109.328 108.786 108.976C108.488 108.624 108.338 108.16 108.338 107.584C108.338 107.115 108.477 106.688 108.754 106.304C109.032 105.909 109.426 105.6 109.938 105.376C110.461 105.152 111.058 105.04 111.73 105.04C112.733 105.04 113.538 105.296 114.146 105.808C114.765 106.309 115.096 106.997 115.138 107.872H113.314C113.282 107.477 113.122 107.163 112.834 106.928C112.546 106.693 112.157 106.576 111.666 106.576C111.186 106.576 110.818 106.667 110.562 106.848C110.306 107.029 110.178 107.269 110.178 107.568C110.178 107.803 110.264 108 110.434 108.16C110.605 108.32 110.813 108.448 111.058 108.544C111.304 108.629 111.666 108.741 112.146 108.88C112.786 109.051 113.309 109.227 113.714 109.408C114.13 109.579 114.488 109.835 114.786 110.176C115.085 110.517 115.24 110.971 115.25 111.536C115.25 112.037 115.112 112.485 114.834 112.88C114.557 113.275 114.162 113.584 113.65 113.808C113.149 114.032 112.557 114.144 111.874 114.144ZM129.457 109.376C129.457 109.707 129.436 110.005 129.393 110.272H122.657C122.711 110.976 122.972 111.541 123.441 111.968C123.911 112.395 124.487 112.608 125.169 112.608C126.151 112.608 126.844 112.197 127.249 111.376H129.217C128.951 112.187 128.465 112.853 127.761 113.376C127.068 113.888 126.204 114.144 125.169 114.144C124.327 114.144 123.569 113.957 122.897 113.584C122.236 113.2 121.713 112.667 121.329 111.984C120.956 111.291 120.769 110.491 120.769 109.584C120.769 108.677 120.951 107.883 121.313 107.2C121.687 106.507 122.204 105.973 122.865 105.6C123.537 105.227 124.305 105.04 125.169 105.04C126.001 105.04 126.743 105.221 127.393 105.584C128.044 105.947 128.551 106.459 128.913 107.12C129.276 107.771 129.457 108.523 129.457 109.376ZM127.553 108.8C127.543 108.128 127.303 107.589 126.833 107.184C126.364 106.779 125.783 106.576 125.089 106.576C124.46 106.576 123.921 106.779 123.473 107.184C123.025 107.579 122.759 108.117 122.673 108.8H127.553ZM133.38 106.672V111.552C133.38 111.883 133.455 112.123 133.604 112.272C133.764 112.411 134.031 112.48 134.404 112.48H135.524V114H134.084C133.263 114 132.634 113.808 132.196 113.424C131.759 113.04 131.54 112.416 131.54 111.552V106.672H130.5V105.184H131.54V102.992H133.38V105.184H135.524V106.672H133.38ZM152.034 105.04C152.727 105.04 153.346 105.184 153.89 105.472C154.444 105.76 154.876 106.187 155.186 106.752C155.506 107.317 155.666 108 155.666 108.8V114H153.858V109.072C153.858 108.283 153.66 107.68 153.266 107.264C152.871 106.837 152.332 106.624 151.65 106.624C150.967 106.624 150.423 106.837 150.018 107.264C149.623 107.68 149.426 108.283 149.426 109.072V114H147.618V109.072C147.618 108.283 147.42 107.68 147.026 107.264C146.631 106.837 146.092 106.624 145.41 106.624C144.727 106.624 144.183 106.837 143.778 107.264C143.383 107.68 143.186 108.283 143.186 109.072V114H141.362V105.184H143.186V106.192C143.484 105.829 143.863 105.547 144.322 105.344C144.78 105.141 145.271 105.04 145.794 105.04C146.498 105.04 147.127 105.189 147.682 105.488C148.236 105.787 148.663 106.219 148.962 106.784C149.228 106.251 149.644 105.829 150.21 105.52C150.775 105.2 151.383 105.04 152.034 105.04ZM157.379 109.552C157.379 108.667 157.56 107.883 157.923 107.2C158.296 106.517 158.797 105.989 159.427 105.616C160.067 105.232 160.771 105.04 161.539 105.04C162.232 105.04 162.835 105.179 163.347 105.456C163.869 105.723 164.285 106.059 164.595 106.464V105.184H166.435V114H164.595V112.688C164.285 113.104 163.864 113.451 163.331 113.728C162.797 114.005 162.189 114.144 161.507 114.144C160.749 114.144 160.056 113.952 159.427 113.568C158.797 113.173 158.296 112.629 157.923 111.936C157.56 111.232 157.379 110.437 157.379 109.552ZM164.595 109.584C164.595 108.976 164.467 108.448 164.211 108C163.965 107.552 163.64 107.211 163.235 106.976C162.829 106.741 162.392 106.624 161.923 106.624C161.453 106.624 161.016 106.741 160.611 106.976C160.205 107.2 159.875 107.536 159.619 107.984C159.373 108.421 159.251 108.944 159.251 109.552C159.251 110.16 159.373 110.693 159.619 111.152C159.875 111.611 160.205 111.963 160.611 112.208C161.027 112.443 161.464 112.56 161.923 112.56C162.392 112.56 162.829 112.443 163.235 112.208C163.64 111.973 163.965 111.632 164.211 111.184C164.467 110.725 164.595 110.192 164.595 109.584ZM172.382 105.04C173.065 105.04 173.668 105.179 174.19 105.456C174.724 105.723 175.14 106.059 175.438 106.464V105.184H177.278V114.144C177.278 114.955 177.108 115.675 176.766 116.304C176.425 116.944 175.929 117.445 175.278 117.808C174.638 118.171 173.87 118.352 172.974 118.352C171.78 118.352 170.788 118.069 169.998 117.504C169.209 116.949 168.761 116.192 168.654 115.232H170.462C170.601 115.691 170.894 116.059 171.342 116.336C171.801 116.624 172.345 116.768 172.974 116.768C173.71 116.768 174.302 116.544 174.75 116.096C175.209 115.648 175.438 114.997 175.438 114.144V112.672C175.129 113.088 174.708 113.44 174.174 113.728C173.652 114.005 173.054 114.144 172.382 114.144C171.614 114.144 170.91 113.952 170.27 113.568C169.641 113.173 169.14 112.629 168.766 111.936C168.404 111.232 168.222 110.437 168.222 109.552C168.222 108.667 168.404 107.883 168.766 107.2C169.14 106.517 169.641 105.989 170.27 105.616C170.91 105.232 171.614 105.04 172.382 105.04ZM175.438 109.584C175.438 108.976 175.31 108.448 175.054 108C174.809 107.552 174.484 107.211 174.078 106.976C173.673 106.741 173.236 106.624 172.766 106.624C172.297 106.624 171.86 106.741 171.454 106.976C171.049 107.2 170.718 107.536 170.462 107.984C170.217 108.421 170.094 108.944 170.094 109.552C170.094 110.16 170.217 110.693 170.462 111.152C170.718 111.611 171.049 111.963 171.454 112.208C171.87 112.443 172.308 112.56 172.766 112.56C173.236 112.56 173.673 112.443 174.078 112.208C174.484 111.973 174.809 111.632 175.054 111.184C175.31 110.725 175.438 110.192 175.438 109.584ZM184.122 105.04C184.816 105.04 185.434 105.184 185.978 105.472C186.533 105.76 186.965 106.187 187.274 106.752C187.584 107.317 187.738 108 187.738 108.8V114H185.93V109.072C185.93 108.283 185.733 107.68 185.338 107.264C184.944 106.837 184.405 106.624 183.722 106.624C183.04 106.624 182.496 106.837 182.09 107.264C181.696 107.68 181.498 108.283 181.498 109.072V114H179.674V105.184H181.498V106.192C181.797 105.829 182.176 105.547 182.634 105.344C183.104 105.141 183.6 105.04 184.122 105.04ZM190.993 104.016C190.662 104.016 190.385 103.904 190.161 103.68C189.937 103.456 189.825 103.179 189.825 102.848C189.825 102.517 189.937 102.24 190.161 102.016C190.385 101.792 190.662 101.68 190.993 101.68C191.313 101.68 191.585 101.792 191.809 102.016C192.033 102.24 192.145 102.517 192.145 102.848C192.145 103.179 192.033 103.456 191.809 103.68C191.585 103.904 191.313 104.016 190.993 104.016ZM191.889 105.184V114H190.065V105.184H191.889ZM197.484 114.144C196.79 114.144 196.166 114.021 195.612 113.776C195.068 113.52 194.636 113.179 194.316 112.752C193.996 112.315 193.825 111.829 193.804 111.296H195.692C195.724 111.669 195.9 111.984 196.22 112.24C196.55 112.485 196.961 112.608 197.452 112.608C197.964 112.608 198.358 112.512 198.636 112.32C198.924 112.117 199.068 111.861 199.068 111.552C199.068 111.221 198.908 110.976 198.588 110.816C198.278 110.656 197.782 110.48 197.1 110.288C196.438 110.107 195.9 109.931 195.484 109.76C195.068 109.589 194.705 109.328 194.396 108.976C194.097 108.624 193.948 108.16 193.948 107.584C193.948 107.115 194.086 106.688 194.364 106.304C194.641 105.909 195.036 105.6 195.548 105.376C196.07 105.152 196.668 105.04 197.34 105.04C198.342 105.04 199.148 105.296 199.756 105.808C200.374 106.309 200.705 106.997 200.748 107.872H198.924C198.892 107.477 198.732 107.163 198.444 106.928C198.156 106.693 197.766 106.576 197.276 106.576C196.796 106.576 196.428 106.667 196.172 106.848C195.916 107.029 195.788 107.269 195.788 107.568C195.788 107.803 195.873 108 196.044 108.16C196.214 108.32 196.422 108.448 196.668 108.544C196.913 108.629 197.276 108.741 197.756 108.88C198.396 109.051 198.918 109.227 199.324 109.408C199.74 109.579 200.097 109.835 200.396 110.176C200.694 110.517 200.849 110.971 200.86 111.536C200.86 112.037 200.721 112.485 200.444 112.88C200.166 113.275 199.772 113.584 199.26 113.808C198.758 114.032 198.166 114.144 197.484 114.144ZM203.566 114.112C203.236 114.112 202.958 114 202.734 113.776C202.51 113.552 202.398 113.275 202.398 112.944C202.398 112.613 202.51 112.336 202.734 112.112C202.958 111.888 203.236 111.776 203.566 111.776C203.886 111.776 204.158 111.888 204.382 112.112C204.606 112.336 204.718 112.613 204.718 112.944C204.718 113.275 204.606 113.552 204.382 113.776C204.158 114 203.886 114.112 203.566 114.112Z" fill="#5E6282"/>
<path d="M45.3469 165.436L41.0989 173.626V178H38.5789V173.626L34.3129 165.436H37.1569L39.8569 171.178L42.5389 165.436H45.3469ZM51.2282 178.162C50.2682 178.162 49.4042 177.952 48.6362 177.532C47.8682 177.1 47.2622 176.494 46.8182 175.714C46.3862 174.934 46.1702 174.034 46.1702 173.014C46.1702 171.994 46.3922 171.094 46.8362 170.314C47.2922 169.534 47.9102 168.934 48.6902 168.514C49.4702 168.082 50.3402 167.866 51.3002 167.866C52.2602 167.866 53.1302 168.082 53.9102 168.514C54.6902 168.934 55.3022 169.534 55.7462 170.314C56.2022 171.094 56.4302 171.994 56.4302 173.014C56.4302 174.034 56.1962 174.934 55.7282 175.714C55.2722 176.494 54.6482 177.1 53.8562 177.532C53.0762 177.952 52.2002 178.162 51.2282 178.162ZM51.2282 175.966C51.6842 175.966 52.1102 175.858 52.5062 175.642C52.9142 175.414 53.2382 175.078 53.4782 174.634C53.7182 174.19 53.8382 173.65 53.8382 173.014C53.8382 172.066 53.5862 171.34 53.0822 170.836C52.5902 170.32 51.9842 170.062 51.2642 170.062C50.5442 170.062 49.9382 170.32 49.4462 170.836C48.9662 171.34 48.7262 172.066 48.7262 173.014C48.7262 173.962 48.9602 174.694 49.4282 175.21C49.9082 175.714 50.5082 175.966 51.2282 175.966ZM64.1827 178L60.7987 173.752V178H58.2787V164.68H60.7987V172.258L64.1467 168.028H67.4227L63.0307 173.032L67.4587 178H64.1827ZM73.2185 178.162C72.2585 178.162 71.3945 177.952 70.6265 177.532C69.8585 177.1 69.2525 176.494 68.8085 175.714C68.3765 174.934 68.1605 174.034 68.1605 173.014C68.1605 171.994 68.3825 171.094 68.8265 170.314C69.2825 169.534 69.9005 168.934 70.6805 168.514C71.4605 168.082 72.3305 167.866 73.2905 167.866C74.2505 167.866 75.1205 168.082 75.9005 168.514C76.6805 168.934 77.2925 169.534 77.7365 170.314C78.1925 171.094 78.4205 171.994 78.4205 173.014C78.4205 174.034 78.1865 174.934 77.7185 175.714C77.2625 176.494 76.6385 177.1 75.8465 177.532C75.0665 177.952 74.1905 178.162 73.2185 178.162ZM73.2185 175.966C73.6745 175.966 74.1005 175.858 74.4965 175.642C74.9045 175.414 75.2285 175.078 75.4685 174.634C75.7085 174.19 75.8285 173.65 75.8285 173.014C75.8285 172.066 75.5765 171.34 75.0725 170.836C74.5805 170.32 73.9745 170.062 73.2545 170.062C72.5345 170.062 71.9285 170.32 71.4365 170.836C70.9565 171.34 70.7165 172.066 70.7165 173.014C70.7165 173.962 70.9505 174.694 71.4185 175.21C71.8985 175.714 72.4985 175.966 73.2185 175.966ZM92.262 175.606H87.258L86.43 178H83.784L88.302 165.418H91.236L95.754 178H93.09L92.262 175.606ZM91.578 173.59L89.76 168.334L87.942 173.59H91.578ZM100.377 170.098V174.922C100.377 175.258 100.455 175.504 100.611 175.66C100.779 175.804 101.055 175.876 101.439 175.876H102.609V178H101.025C98.9008 178 97.8388 176.968 97.8388 174.904V170.098H96.6508V168.028H97.8388V165.562H100.377V168.028H102.609V170.098H100.377ZM108.237 178.162C107.421 178.162 106.689 178.018 106.041 177.73C105.393 177.43 104.877 177.028 104.493 176.524C104.121 176.02 103.917 175.462 103.881 174.85H106.419C106.467 175.234 106.653 175.552 106.977 175.804C107.313 176.056 107.727 176.182 108.219 176.182C108.699 176.182 109.071 176.086 109.335 175.894C109.611 175.702 109.749 175.456 109.749 175.156C109.749 174.832 109.581 174.592 109.245 174.436C108.921 174.268 108.399 174.088 107.679 173.896C106.935 173.716 106.323 173.53 105.843 173.338C105.375 173.146 104.967 172.852 104.619 172.456C104.283 172.06 104.115 171.526 104.115 170.854C104.115 170.302 104.271 169.798 104.583 169.342C104.907 168.886 105.363 168.526 105.951 168.262C106.551 167.998 107.253 167.866 108.057 167.866C109.245 167.866 110.193 168.166 110.901 168.766C111.609 169.354 111.999 170.152 112.071 171.16H109.659C109.623 170.764 109.455 170.452 109.155 170.224C108.867 169.984 108.477 169.864 107.985 169.864C107.529 169.864 107.175 169.948 106.923 170.116C106.683 170.284 106.563 170.518 106.563 170.818C106.563 171.154 106.731 171.412 107.067 171.592C107.403 171.76 107.925 171.934 108.633 172.114C109.353 172.294 109.947 172.48 110.415 172.672C110.883 172.864 111.285 173.164 111.621 173.572C111.969 173.968 112.149 174.496 112.161 175.156C112.161 175.732 111.999 176.248 111.675 176.704C111.363 177.16 110.907 177.52 110.307 177.784C109.719 178.036 109.029 178.162 108.237 178.162ZM123.644 168.028V178H121.106V176.74C120.782 177.172 120.356 177.514 119.828 177.766C119.312 178.006 118.748 178.126 118.136 178.126C117.356 178.126 116.666 177.964 116.066 177.64C115.466 177.304 114.992 176.818 114.644 176.182C114.308 175.534 114.14 174.766 114.14 173.878V168.028H116.66V173.518C116.66 174.31 116.858 174.922 117.254 175.354C117.65 175.774 118.19 175.984 118.874 175.984C119.57 175.984 120.116 175.774 120.512 175.354C120.908 174.922 121.106 174.31 121.106 173.518V168.028H123.644ZM132.034 178L128.65 173.752V178H126.13V164.68H128.65V172.258L131.998 168.028H135.274L130.882 173.032L135.31 178H132.034ZM141.07 178.162C140.11 178.162 139.246 177.952 138.478 177.532C137.71 177.1 137.104 176.494 136.66 175.714C136.228 174.934 136.012 174.034 136.012 173.014C136.012 171.994 136.234 171.094 136.678 170.314C137.134 169.534 137.752 168.934 138.532 168.514C139.312 168.082 140.182 167.866 141.142 167.866C142.102 167.866 142.972 168.082 143.752 168.514C144.532 168.934 145.144 169.534 145.588 170.314C146.044 171.094 146.272 171.994 146.272 173.014C146.272 174.034 146.038 174.934 145.57 175.714C145.114 176.494 144.49 177.1 143.698 177.532C142.918 177.952 142.042 178.162 141.07 178.162ZM141.07 175.966C141.526 175.966 141.952 175.858 142.348 175.642C142.756 175.414 143.08 175.078 143.32 174.634C143.56 174.19 143.68 173.65 143.68 173.014C143.68 172.066 143.428 171.34 142.924 170.836C142.432 170.32 141.826 170.062 141.106 170.062C140.386 170.062 139.78 170.32 139.288 170.836C138.808 171.34 138.568 172.066 138.568 173.014C138.568 173.962 138.802 174.694 139.27 175.21C139.75 175.714 140.35 175.966 141.07 175.966Z" fill="#5E6282"/>
<path d="M34.6329 200.114C34.6329 199.162 34.8522 198.308 35.2909 197.552C35.7389 196.796 36.3409 196.208 37.0969 195.788C37.8622 195.359 38.6975 195.144 39.6029 195.144C40.6389 195.144 41.5582 195.401 42.3609 195.914C43.1729 196.418 43.7609 197.137 44.1249 198.07H42.2069C41.9549 197.557 41.6049 197.174 41.1569 196.922C40.7089 196.67 40.1909 196.544 39.6029 196.544C38.9589 196.544 38.3849 196.689 37.8809 196.978C37.3769 197.267 36.9802 197.683 36.6909 198.224C36.4109 198.765 36.2709 199.395 36.2709 200.114C36.2709 200.833 36.4109 201.463 36.6909 202.004C36.9802 202.545 37.3769 202.965 37.8809 203.264C38.3849 203.553 38.9589 203.698 39.6029 203.698C40.1909 203.698 40.7089 203.572 41.1569 203.32C41.6049 203.068 41.9549 202.685 42.2069 202.172H44.1249C43.7609 203.105 43.1729 203.824 42.3609 204.328C41.5582 204.832 40.6389 205.084 39.6029 205.084C38.6882 205.084 37.8529 204.874 37.0969 204.454C36.3409 204.025 35.7389 203.432 35.2909 202.676C34.8522 201.92 34.6329 201.066 34.6329 200.114ZM47.589 196.558V199.414H50.949V200.716H47.589V203.698H51.369V205H45.993V195.256H51.369V196.558H47.589ZM57.7728 205.098C56.8675 205.098 56.0321 204.888 55.2668 204.468C54.5108 204.039 53.9088 203.446 53.4608 202.69C53.0221 201.925 52.8028 201.066 52.8028 200.114C52.8028 199.162 53.0221 198.308 53.4608 197.552C53.9088 196.796 54.5108 196.208 55.2668 195.788C56.0321 195.359 56.8675 195.144 57.7728 195.144C58.6875 195.144 59.5228 195.359 60.2788 195.788C61.0441 196.208 61.6461 196.796 62.0848 197.552C62.5235 198.308 62.7428 199.162 62.7428 200.114C62.7428 201.066 62.5235 201.925 62.0848 202.69C61.6461 203.446 61.0441 204.039 60.2788 204.468C59.5228 204.888 58.6875 205.098 57.7728 205.098ZM57.7728 203.712C58.4168 203.712 58.9908 203.567 59.4948 203.278C59.9988 202.979 60.3908 202.559 60.6708 202.018C60.9601 201.467 61.1048 200.833 61.1048 200.114C61.1048 199.395 60.9601 198.765 60.6708 198.224C60.3908 197.683 59.9988 197.267 59.4948 196.978C58.9908 196.689 58.4168 196.544 57.7728 196.544C57.1288 196.544 56.5548 196.689 56.0508 196.978C55.5468 197.267 55.1501 197.683 54.8608 198.224C54.5808 198.765 54.4408 199.395 54.4408 200.114C54.4408 200.833 54.5808 201.467 54.8608 202.018C55.1501 202.559 55.5468 202.979 56.0508 203.278C56.5548 203.567 57.1288 203.712 57.7728 203.712ZM71.296 205.126C70.568 205.126 69.91 204.963 69.322 204.636C68.734 204.3 68.272 203.833 67.936 203.236C67.6 202.629 67.432 201.929 67.432 201.136C67.432 200.352 67.6047 199.657 67.95 199.05C68.2954 198.443 68.7667 197.977 69.364 197.65C69.9614 197.323 70.6287 197.16 71.366 197.16C72.1034 197.16 72.7707 197.323 73.368 197.65C73.9654 197.977 74.4367 198.443 74.782 199.05C75.1274 199.657 75.3 200.352 75.3 201.136C75.3 201.92 75.1227 202.615 74.768 203.222C74.4134 203.829 73.928 204.3 73.312 204.636C72.7054 204.963 72.0334 205.126 71.296 205.126ZM71.296 203.74C71.7067 203.74 72.0894 203.642 72.444 203.446C72.808 203.25 73.102 202.956 73.326 202.564C73.55 202.172 73.662 201.696 73.662 201.136C73.662 200.576 73.5547 200.105 73.34 199.722C73.1254 199.33 72.8407 199.036 72.486 198.84C72.1314 198.644 71.7487 198.546 71.338 198.546C70.9274 198.546 70.5447 198.644 70.19 198.84C69.8447 199.036 69.5694 199.33 69.364 199.722C69.1587 200.105 69.056 200.576 69.056 201.136C69.056 201.967 69.266 202.611 69.686 203.068C70.1154 203.516 70.652 203.74 71.296 203.74ZM80.1118 198.588H78.6838V205H77.0738V198.588H76.1638V197.286H77.0738V196.74C77.0738 195.853 77.3071 195.209 77.7738 194.808C78.2498 194.397 78.9918 194.192 79.9998 194.192V195.522C79.5144 195.522 79.1738 195.615 78.9778 195.802C78.7818 195.979 78.6838 196.292 78.6838 196.74V197.286H80.1118V198.588ZM90.2169 205L87.9769 201.108H86.7589V205H85.1629V195.27H88.5229C89.2696 195.27 89.8996 195.401 90.4129 195.662C90.9356 195.923 91.3229 196.273 91.5749 196.712C91.8362 197.151 91.9669 197.641 91.9669 198.182C91.9669 198.817 91.7802 199.395 91.4069 199.918C91.0429 200.431 90.4782 200.781 89.7129 200.968L92.1209 205H90.2169ZM86.7589 199.834H88.5229C89.1202 199.834 89.5682 199.685 89.8669 199.386C90.1749 199.087 90.3289 198.686 90.3289 198.182C90.3289 197.678 90.1796 197.286 89.8809 197.006C89.5822 196.717 89.1296 196.572 88.5229 196.572H86.7589V199.834ZM101.079 200.954C101.079 201.243 101.06 201.505 101.023 201.738H95.1286C95.1753 202.354 95.404 202.849 95.8146 203.222C96.2253 203.595 96.7293 203.782 97.3266 203.782C98.1853 203.782 98.792 203.423 99.1466 202.704H100.869C100.635 203.413 100.211 203.997 99.5946 204.454C98.988 204.902 98.232 205.126 97.3266 205.126C96.5893 205.126 95.9266 204.963 95.3386 204.636C94.76 204.3 94.3026 203.833 93.9666 203.236C93.64 202.629 93.4766 201.929 93.4766 201.136C93.4766 200.343 93.6353 199.647 93.9526 199.05C94.2793 198.443 94.732 197.977 95.3106 197.65C95.8986 197.323 96.5706 197.16 97.3266 197.16C98.0546 197.16 98.7033 197.319 99.2726 197.636C99.842 197.953 100.285 198.401 100.603 198.98C100.92 199.549 101.079 200.207 101.079 200.954ZM99.4126 200.45C99.4033 199.862 99.1933 199.391 98.7826 199.036C98.372 198.681 97.8633 198.504 97.2566 198.504C96.706 198.504 96.2346 198.681 95.8426 199.036C95.4506 199.381 95.2173 199.853 95.1426 200.45H99.4126ZM102.117 201.108C102.117 200.333 102.276 199.647 102.593 199.05C102.92 198.453 103.359 197.991 103.909 197.664C104.469 197.328 105.09 197.16 105.771 197.16C106.275 197.16 106.77 197.272 107.255 197.496C107.75 197.711 108.142 198 108.431 198.364V194.64H110.041V205H108.431V203.838C108.17 204.211 107.806 204.519 107.339 204.762C106.882 205.005 106.355 205.126 105.757 205.126C105.085 205.126 104.469 204.958 103.909 204.622C103.359 204.277 102.92 203.801 102.593 203.194C102.276 202.578 102.117 201.883 102.117 201.108ZM108.431 201.136C108.431 200.604 108.319 200.142 108.095 199.75C107.881 199.358 107.596 199.059 107.241 198.854C106.887 198.649 106.504 198.546 106.093 198.546C105.683 198.546 105.3 198.649 104.945 198.854C104.591 199.05 104.301 199.344 104.077 199.736C103.863 200.119 103.755 200.576 103.755 201.108C103.755 201.64 103.863 202.107 104.077 202.508C104.301 202.909 104.591 203.217 104.945 203.432C105.309 203.637 105.692 203.74 106.093 203.74C106.504 203.74 106.887 203.637 107.241 203.432C107.596 203.227 107.881 202.928 108.095 202.536C108.319 202.135 108.431 201.668 108.431 201.136ZM120.982 200.002C121.505 200.095 121.948 200.371 122.312 200.828C122.676 201.285 122.858 201.803 122.858 202.382C122.858 202.877 122.728 203.325 122.466 203.726C122.214 204.118 121.846 204.431 121.36 204.664C120.875 204.888 120.31 205 119.666 205H115.774V195.27H119.484C120.147 195.27 120.716 195.382 121.192 195.606C121.668 195.83 122.028 196.133 122.27 196.516C122.513 196.889 122.634 197.309 122.634 197.776C122.634 198.336 122.485 198.803 122.186 199.176C121.888 199.549 121.486 199.825 120.982 200.002ZM117.37 199.358H119.344C119.867 199.358 120.273 199.241 120.562 199.008C120.861 198.765 121.01 198.42 121.01 197.972C121.01 197.533 120.861 197.193 120.562 196.95C120.273 196.698 119.867 196.572 119.344 196.572H117.37V199.358ZM119.526 203.698C120.068 203.698 120.492 203.567 120.8 203.306C121.108 203.045 121.262 202.681 121.262 202.214C121.262 201.738 121.099 201.36 120.772 201.08C120.446 200.8 120.012 200.66 119.47 200.66H117.37V203.698H119.526ZM131.579 197.286V205H129.983V204.09C129.731 204.407 129.399 204.659 128.989 204.846C128.587 205.023 128.158 205.112 127.701 205.112C127.094 205.112 126.548 204.986 126.063 204.734C125.587 204.482 125.209 204.109 124.929 203.614C124.658 203.119 124.523 202.522 124.523 201.822V197.286H126.105V201.584C126.105 202.275 126.277 202.807 126.623 203.18C126.968 203.544 127.439 203.726 128.037 203.726C128.634 203.726 129.105 203.544 129.451 203.18C129.805 202.807 129.983 202.275 129.983 201.584V197.286H131.579ZM135.546 198.588V202.858C135.546 203.147 135.612 203.357 135.742 203.488C135.882 203.609 136.116 203.67 136.442 203.67H137.422V205H136.162C135.444 205 134.893 204.832 134.51 204.496C134.128 204.16 133.936 203.614 133.936 202.858V198.588H133.026V197.286H133.936V195.368H135.546V197.286H137.422V198.588H135.546ZM140.755 198.588V202.858C140.755 203.147 140.821 203.357 140.951 203.488C141.091 203.609 141.325 203.67 141.651 203.67H142.631V205H141.371C140.653 205 140.102 204.832 139.719 204.496C139.337 204.16 139.145 203.614 139.145 202.858V198.588H138.235V197.286H139.145V195.368H140.755V197.286H142.631V198.588H140.755ZM147.448 205.126C146.72 205.126 146.062 204.963 145.474 204.636C144.886 204.3 144.424 203.833 144.088 203.236C143.752 202.629 143.584 201.929 143.584 201.136C143.584 200.352 143.757 199.657 144.102 199.05C144.448 198.443 144.919 197.977 145.516 197.65C146.114 197.323 146.781 197.16 147.518 197.16C148.256 197.16 148.923 197.323 149.52 197.65C150.118 197.977 150.589 198.443 150.934 199.05C151.28 199.657 151.452 200.352 151.452 201.136C151.452 201.92 151.275 202.615 150.92 203.222C150.566 203.829 150.08 204.3 149.464 204.636C148.858 204.963 148.186 205.126 147.448 205.126ZM147.448 203.74C147.859 203.74 148.242 203.642 148.596 203.446C148.96 203.25 149.254 202.956 149.478 202.564C149.702 202.172 149.814 201.696 149.814 201.136C149.814 200.576 149.707 200.105 149.492 199.722C149.278 199.33 148.993 199.036 148.638 198.84C148.284 198.644 147.901 198.546 147.49 198.546C147.08 198.546 146.697 198.644 146.342 198.84C145.997 199.036 145.722 199.33 145.516 199.722C145.311 200.105 145.208 200.576 145.208 201.136C145.208 201.967 145.418 202.611 145.838 203.068C146.268 203.516 146.804 203.74 147.448 203.74ZM156.922 197.16C157.529 197.16 158.07 197.286 158.546 197.538C159.031 197.79 159.409 198.163 159.68 198.658C159.951 199.153 160.086 199.75 160.086 200.45V205H158.504V200.688C158.504 199.997 158.331 199.47 157.986 199.106C157.641 198.733 157.169 198.546 156.572 198.546C155.975 198.546 155.499 198.733 155.144 199.106C154.799 199.47 154.626 199.997 154.626 200.688V205H153.03V197.286H154.626V198.168C154.887 197.851 155.219 197.603 155.62 197.426C156.031 197.249 156.465 197.16 156.922 197.16Z" fill="#5E6282"/>
</svg>
